<svg xmlns="http://www.w3.org/2000/svg" xmlns:xlink="http://www.w3.org/1999/xlink" viewBox="0 0 121.056 87.243" height="329.738" width="457.535"><defs><symbol overflow="visible" id="a"><path style="stroke:none" d="M4.969-9c0-.406-.032-.406-.5-.406-1.063.922-2.64.922-2.969.922h-.266v.609H1.5c.516 0 1.266-.078 1.844-.266v7.532h-2V0c.61-.031 2.11-.031 2.781-.031.688 0 2.203 0 2.797.031v-.61H4.969Zm0 0"/></symbol><symbol overflow="visible" id="b"><path style="stroke:none" d="M9.031-9.766H.547v.61h1.515V-.61H.548V0c.422-.031 2.047-.031 2.578-.031.766 0 2.031 0 2.734.031v-.61H3.953v-3.968h.797c1.375 0 1.484.64 1.484 1.687h.61v-3.984h-.61c0 1.047-.109 1.688-1.484 1.688h-.797v-3.97h2.063c2.28 0 2.64 1.048 2.828 2.782h.61zm0 0"/></symbol><symbol overflow="visible" id="c"><path style="stroke:none" d="M3.203-8.938a1.03 1.03 0 1 0-2.062 0 1.03 1.03 0 1 0 2.063 0zM.672-6.344v.625c.844 0 .953 0 .953.563V-.61h-1V0c.344-.031 1.328-.031 1.719-.031.39 0 1.312 0 1.656.031v-.61h-.89v-5.843zm0 0"/></symbol><symbol overflow="visible" id="d"><path style="stroke:none" d="M2.984-3.234c0-.47.094-2.75 1.782-2.75a.83.83 0 0 0-.313.656c0 .594.484.844.844.844s.828-.25.828-.844c0-.719-.75-1.125-1.438-1.125-1.125 0-1.625.984-1.812 1.594h-.016v-1.594L.5-6.343v.624c.89 0 .984 0 .984.563V-.61H.5V0c.328-.031 1.406-.031 1.813-.031.406 0 1.578 0 1.921.031v-.61h-1.25zm0 0"/></symbol><symbol overflow="visible" id="e"><path style="stroke:none" d="M5.406-6.125c0-.266 0-.375-.218-.375-.079 0-.11 0-.329.125a1.762 1.762 0 0 1-.28.188c-.407-.22-.938-.313-1.454-.313-.422 0-2.578 0-2.578 1.86 0 1.515 1.781 1.827 2.219 1.906.39.062.859.156.921.156.579.125 1.141.484 1.141 1.094 0 1.093-1.297 1.093-1.594 1.093-.734 0-1.64-.218-2.046-1.625-.079-.28-.094-.296-.344-.296-.297 0-.297.046-.297.374V-.28c0 .265 0 .375.219.375.093 0 .125 0 .406-.235l.375-.28c.64.515 1.422.515 1.687.515.782 0 2.579-.188 2.579-2.094 0-.688-.375-1.156-.657-1.406-.593-.5-1.078-.578-1.86-.719-.921-.156-1.78-.328-1.78-1.016 0-.921 1.28-.921 1.578-.921 1.594 0 1.687 1 1.719 1.359 0 .187.125.187.296.187.297 0 .297-.046.297-.375zm0 0"/></symbol><symbol overflow="visible" id="f"><path style="stroke:none" d="M3.031-5.75h2.063v-.625H3.03v-2.734h-.61C2.407-7.688 1.72-6.266.298-6.22v.469h1.172v3.984C1.469-.25 2.64.094 3.672.094c1.062 0 1.687-.813 1.687-1.875v-.75h-.593v.734c0 .953-.438 1.36-.875 1.36-.86 0-.86-.954-.86-1.282zm0 0"/></symbol><symbol overflow="visible" id="g"><path style="stroke:none" d="M6.484-3.172c.329 0 .422 0 .422-.36 0-.421-.11-1.5-.765-2.171-.61-.61-1.407-.797-2.235-.797C1.656-6.5.437-5.031.437-3.234.438-1.22 1.923.094 4.095.094c2.156 0 2.812-1.532 2.812-1.766 0-.219-.218-.219-.312-.219-.219 0-.235.047-.328.235-.375.922-1.313 1.218-2 1.218-2.079 0-2.094-1.921-2.094-2.734zm-4.312-.406c.015-.594.031-1.156.344-1.672a1.59 1.59 0 0 1 1.39-.781c1.531 0 1.656 1.734 1.672 2.453zm0 0"/></symbol><symbol overflow="visible" id="h"><path style="stroke:none" d="M4.828-3.547 6.5-5.453c.156-.188.281-.297 1.469-.297v-.625c-.797.031-.828.031-1.313.031-.422 0-1.031 0-1.437-.031v.625c.281 0 .578.063.578.172 0 .031-.078.125-.11.156L4.454-4.016 3.031-5.75h.594v-.625c-.328.031-1.297.031-1.688.031-.437 0-1.203 0-1.609-.031v.625h1.016l2.234 2.719-1.86 2.11C1.548-.72 1.454-.61.267-.61V0c.859-.031.875-.031 1.328-.031.422 0 1.015 0 1.422.031v-.61c-.282 0-.579-.078-.579-.171 0-.016 0-.031.094-.156l1.438-1.61L5.563-.609h-.594V0c.343-.031 1.297-.031 1.703-.031.422 0 1.187 0 1.594.031v-.61h-1zm0 0"/></symbol><symbol overflow="visible" id="i"><path style="stroke:none" d="M6.594-4.281C6.594-5.61 5.547-6.5 3.53-6.5c-.812 0-2.5.078-2.5 1.281 0 .594.453.86.844.86.438 0 .844-.297.844-.844 0-.281-.094-.531-.344-.688.484-.14.828-.14 1.094-.14.984 0 1.562.547 1.562 1.734v.563c-2.265 0-4.547.64-4.547 2.234C.484-.203 2.156.094 3.141.094c1.109 0 1.812-.61 2.093-1.235 0 .532 0 1.141 1.454 1.141h.734c.297 0 .406 0 .406-.313 0-.296-.125-.296-.328-.296-.906-.016-.906-.25-.906-.579ZM5.03-2c0 1.36-1.203 1.61-1.656 1.61-.703 0-1.297-.47-1.297-1.126 0-1.312 1.547-1.75 2.953-1.828zm0 0"/></symbol><symbol overflow="visible" id="j"><path style="stroke:none" d="M12.11-4.39c0-1.313-.563-2.063-2.172-2.063-1.454 0-2.126.969-2.344 1.437-.235-1.218-1.203-1.437-2.125-1.437-1.375 0-2.125.89-2.422 1.578H3.03v-1.578l-2.422.11v.624c.875 0 .985 0 .985.563V-.61H.609V0c.329-.031 1.36-.031 1.75-.031.407 0 1.454 0 1.782.031v-.61h-.985v-3.062c0-1.562 1.156-2.312 2.063-2.312.531 0 .843.312.843 1.437v3.938h-.984V0c.328-.031 1.36-.031 1.766-.031.406 0 1.453 0 1.781.031v-.61h-1v-3.062c0-1.562 1.172-2.312 2.078-2.312.531 0 .844.312.844 1.437v3.938h-1V0c.344-.031 1.375-.031 1.765-.031.407 0 1.454 0 1.782.031v-.61h-.985zm0 0"/></symbol><symbol overflow="visible" id="k"><path style="stroke:none" d="M4.047 2.172h-.984V-.594c.343.328.984.688 1.843.688 1.969 0 3.5-1.203 3.5-3.297 0-1.969-1.328-3.25-3.265-3.25-.86 0-1.579.281-2.157.75v-.75L.5-6.343v.624c.89 0 .984 0 .984.563v7.328H.5v.61c.328-.032 1.36-.032 1.766-.032.406 0 1.453 0 1.78.031zm-.984-7.188a2.328 2.328 0 0 1 1.843-.921c.938 0 1.782.843 1.782 2.734 0 2.078-1.032 2.812-1.954 2.812-.625 0-1.234-.312-1.671-.984zm0 0"/></symbol><symbol overflow="visible" id="l"><path style="stroke:none" d="m3.11-9.953-2.485.11v.624c.89 0 1 0 1 .563V-.61h-1V0c.344-.031 1.36-.031 1.734-.031.391 0 1.407 0 1.75.031v-.61h-1zm0 0"/></symbol><symbol overflow="visible" id="Y"><path style="stroke:none" d="M7.25-3.078h-.61c-.046.297-.14 1.14-.359 1.281-.11.11-1.234.11-1.453.11H2.61c.547-.47 1.844-1.547 2.063-1.72C6.266-4.593 7.25-5.327 7.25-6.702c0-1.688-1.547-2.703-3.438-2.703-1.624 0-3.015.922-3.015 2.281 0 .75.625.969.953.969.438 0 .969-.297.969-.953 0-.61-.453-.907-.89-.97.562-.655 1.327-.718 1.624-.718 1.328 0 1.953 1.078 1.953 2.11 0 1.125-.765 2.156-1.343 2.765L.953-.656C.797-.531.797-.5.797-.25V0h6.031zm0 0"/></symbol><symbol overflow="visible" id="Z"><path style="stroke:none" d="M3.64-6.313C2.22-6.625 2.188-7.655 2.188-7.859c0-.735.47-1.579 1.86-1.579 1.39 0 2.64.672 2.937 2.547.047.313.047.329.313.329.312 0 .312-.047.312-.375v-2.704c0-.265 0-.375-.218-.375-.11 0-.141.016-.282.157l-.609.703c-.36-.297-1.078-.86-2.469-.86-2.047 0-3.14 1.297-3.14 2.86 0 .953.515 1.64.718 1.828.75.75 1.141.844 2.641 1.172 1.438.312 1.61.343 1.922.64.187.188.594.594.594 1.329 0 .609-.297 1.75-1.907 1.75-1.265 0-3.25-.438-3.375-2.532 0-.265 0-.297-.296-.297-.297 0-.297.032-.297.375v2.688c0 .281 0 .375.218.375.094 0 .11-.016.25-.14.157-.157.297-.345.657-.704.828.656 2 .844 2.859.844 2.234 0 3.188-1.516 3.188-3.047 0-1.344-.891-2.64-2.454-2.984zm0 0"/></symbol><symbol overflow="visible" id="aa"><path style="stroke:none" d="M6.719-1.672c0-.172-.157-.172-.313-.172-.218 0-.234 0-.312.188C6-1.391 5.609-.438 4.28-.438c-2.015 0-2.015-2.171-2.015-2.812 0-.86.015-2.734 1.89-2.734.11 0 .953.03.953.109 0 .016-.015.016-.046.031a.908.908 0 0 0-.235.625c0 .594.5.844.86.844.296 0 .843-.188.843-.86C6.531-6.405 4.875-6.5 4.11-6.5 1.547-6.5.547-4.828.547-3.187c0 1.953 1.36 3.28 3.469 3.28 2.25 0 2.703-1.671 2.703-1.765zm0 0"/></symbol><symbol overflow="visible" id="ab"><path style="stroke:none" d="M7.61-3.14C7.61-5.079 6.28-6.5 4.03-6.5 1.688-6.5.438-5 .438-3.14.438-1.267 1.766.093 4.015.093c2.343 0 3.593-1.422 3.593-3.235zM4.03-.438c-1.86 0-1.86-1.672-1.86-2.844 0-.672 0-1.39.267-1.906.312-.579.968-.844 1.578-.844.812 0 1.328.39 1.578.797.281.515.281 1.265.281 1.953 0 1.187 0 2.844-1.844 2.844zm0 0"/></symbol><symbol overflow="visible" id="ac"><path style="stroke:none" d="M7.61-4.39c0-1.36-.579-2.063-2.157-2.063-1.031 0-1.922.5-2.406 1.578H3.03v-1.578l-2.422.11v.624c.875 0 .985 0 .985.563V-.61H.609V0c.329-.031 1.36-.031 1.75-.031.407 0 1.454 0 1.782.031v-.61h-.985v-3.062c0-1.547 1.14-2.312 2.063-2.312.531 0 .828.343.828 1.437v3.938h-.984V0c.328-.031 1.359-.031 1.765-.031.406 0 1.453 0 1.781.031v-.61h-1zm0 0"/></symbol><symbol overflow="visible" id="ad"><path style="stroke:none" d="M4.984-9.844v.625c.875 0 .985 0 .985.563v2.89c-.313-.265-.953-.687-1.938-.687C2-6.453.547-5.187.547-3.187c0 2.046 1.422 3.28 3.328 3.28.781 0 1.453-.28 2.016-.75v.75L8.453 0v-.61c-.89 0-1 0-1-.562v-8.781zm.907 8.39C5.297-.577 4.562-.39 4.047-.39c-1.781 0-1.781-1.812-1.781-2.765 0-.672 0-1.39.312-1.938.453-.797 1.297-.89 1.625-.89.594 0 1.219.265 1.688.89zm0 0"/></symbol><symbol overflow="visible" id="m"><path style="stroke:none" d="M6.64-6.75H.548L.359-4.5h.25C.75-6.11.891-6.438 2.406-6.438c.172 0 .438 0 .531.016.22.047.22.156.22.375V-.78c0 .328 0 .469-1.048.469h-.406V0c.406-.031 1.422-.031 1.89-.031.454 0 1.485 0 1.891.031v-.313h-.406c-1.047 0-1.047-.14-1.047-.468v-5.266c0-.187 0-.328.188-.375.11-.016.375-.016.562-.016 1.516 0 1.657.329 1.797 1.938h.25zm0 0"/></symbol><symbol overflow="visible" id="n"><path style="stroke:none" d="M1.094-.75c0 .438-.11.438-.782.438V0c.36-.016.86-.031 1.141-.031.25 0 .766.015 1.11.031v-.313c-.672 0-.782 0-.782-.437v-1.844c0-1.031.719-1.594 1.344-1.594.64 0 .75.532.75 1.11V-.75c0 .438-.11.438-.781.438V0c.344-.016.86-.031 1.125-.031.25 0 .781.015 1.11.031v-.313c-.516 0-.766 0-.766-.296v-1.907c0-.859 0-1.156-.313-1.515-.14-.172-.469-.375-1.047-.375-.844 0-1.281.593-1.453.984v-3.5l-1.438.11v.312c.704 0 .782.063.782.563zm0 0"/></symbol><symbol overflow="visible" id="o"><path style="stroke:none" d="M1.11-2.516C1.171-4 2.015-4.25 2.36-4.25c1.015 0 1.124 1.344 1.124 1.734zm0 .22h2.78c.22 0 .25 0 .25-.22 0-.984-.546-1.953-1.78-1.953C1.202-4.469.28-3.437.28-2.187.281-.86 1.328.108 2.47.108 3.688.11 4.14-1 4.14-1.187c0-.094-.079-.125-.141-.125-.078 0-.11.062-.125.14C3.531-.14 2.625-.14 2.531-.14c-.5 0-.89-.296-1.125-.671-.297-.47-.297-1.125-.297-1.485zm0 0"/></symbol><symbol overflow="visible" id="p"><path style="stroke:none" d="M6.172-3.344c.172-.5.484-.64.844-.64v-.313c-.235.016-.516.031-.735.031-.297 0-.734-.015-.922-.03v.312c.36 0 .579.187.579.468 0 .063 0 .094-.063.22L4.969-.75l-.985-2.781c-.03-.125-.046-.14-.046-.188 0-.265.39-.265.593-.265v-.313c-.297.016-.797.031-1.047.031-.296 0-.578-.015-.875-.03v.312c.36 0 .516.015.625.14.047.063.157.36.22.547L2.608-.875l-.953-2.656c-.047-.125-.047-.14-.047-.188 0-.265.391-.265.579-.265v-.313c-.297.016-.86.031-1.079.031-.046 0-.578-.015-.937-.03v.312c.5 0 .625.03.75.343l1.25 3.532c.047.14.078.218.203.218.14 0 .156-.062.203-.203l1.016-2.812L4.609-.078c.032.11.063.187.204.187.125 0 .156-.093.187-.187zm0 0"/></symbol><symbol overflow="visible" id="q"><path style="stroke:none" d="m1.766-6.922-1.438.11v.312c.703 0 .781.063.781.563V-.75c0 .438-.109.438-.78.438V0c.327-.016.859-.031 1.109-.031s.734.015 1.109.031v-.313c-.672 0-.781 0-.781-.437zm0 0"/></symbol><symbol overflow="visible" id="r"><path style="stroke:none" d="M2.75-1.86v-.577H.11v.578zm0 0"/></symbol><symbol overflow="visible" id="s"><path style="stroke:none" d="M1.063-.75c0 .438-.11.438-.782.438V0c.328-.016.797-.031 1.078-.031.313 0 .704.015 1.11.031v-.313c-.672 0-.781 0-.781-.437v-1.031l.64-.547c.766 1.047 1.188 1.61 1.188 1.797 0 .187-.172.219-.36.219V0c.266-.016.86-.031 1.078-.031.282 0 .579.015.86.031v-.313c-.375 0-.594 0-.969-.53L2.859-2.626c-.015-.016-.062-.078-.062-.11 0-.03.719-.64.812-.718.625-.5 1.047-.531 1.25-.531v-.313c-.28.031-.406.031-.687.031-.36 0-.984-.015-1.125-.03v.312c.187 0 .297.109.297.25 0 .203-.14.312-.219.39L1.719-2.14v-4.78L.28-6.813v.312c.703 0 .781.063.781.563zm0 0"/></symbol><symbol overflow="visible" id="t"><path style="stroke:none" d="M1.094-3.422V-.75c0 .438-.11.438-.782.438V0c.36-.016.86-.031 1.141-.031.25 0 .766.015 1.11.031v-.313c-.672 0-.782 0-.782-.437v-1.844c0-1.031.719-1.594 1.344-1.594.64 0 .75.532.75 1.11V-.75c0 .438-.11.438-.781.438V0c.344-.016.86-.031 1.125-.031.25 0 .781.015 1.11.031v-.313c-.516 0-.766 0-.766-.296v-1.907c0-.859 0-1.156-.313-1.515-.14-.172-.469-.375-1.047-.375-.734 0-1.203.422-1.484 1.047v-1.047l-1.407.11v.312c.704 0 .782.062.782.562zm0 0"/></symbol><symbol overflow="visible" id="u"><path style="stroke:none" d="M4.688-2.14c0-1.266-.985-2.329-2.188-2.329C1.25-4.469.281-3.375.281-2.14A2.22 2.22 0 0 0 2.484.11c1.204 0 2.204-.984 2.204-2.25zM2.5-.14c-.438 0-.875-.204-1.14-.672-.25-.438-.25-1.047-.25-1.407 0-.39 0-.922.234-1.36a1.347 1.347 0 0 1 1.14-.671c.438 0 .86.219 1.125.656.266.422.266 1 .266 1.375 0 .36 0 .906-.219 1.344-.234.453-.672.734-1.156.734Zm0 0"/></symbol><symbol overflow="visible" id="v"><path style="stroke:none" d="M2.266-3.156h1.687c1.188 0 2.266-.797 2.266-1.797 0-.984-.985-1.86-2.344-1.86H.344v.313h.25c.765 0 .781.11.781.469v5.25c0 .36-.016.469-.781.469h-.25V0c.36-.031 1.094-.031 1.469-.031s1.125 0 1.484.031v-.313h-.25c-.766 0-.781-.109-.781-.468zm-.032-.25v-2.688c0-.343.016-.406.485-.406h.89c1.579 0 1.579 1.063 1.579 1.547 0 .469 0 1.547-1.579 1.547zm0 0"/></symbol><symbol overflow="visible" id="w"><path style="stroke:none" d="M4.14-3.344c.25-.64.766-.64.923-.64v-.313c-.235.016-.516.031-.75.031-.172 0-.641-.015-.86-.03v.312c.313 0 .469.171.469.421 0 .11-.016.126-.063.25L2.844-.874 1.75-3.547c-.047-.11-.063-.14-.063-.187 0-.25.36-.25.563-.25v-.313c-.266.016-.922.031-1.094.031-.265 0-.672-.015-.968-.03v.312c.484 0 .671 0 .812.343L2.5 0a6.764 6.764 0 0 0-.25.594c-.219.547-.5 1.234-1.14 1.234-.048 0-.282 0-.47-.187.313-.032.391-.25.391-.422C1.031.969.844.812.61.812c-.203 0-.421.125-.421.422 0 .454.421.813.921.813.625 0 1.032-.578 1.266-1.14zm0 0"/></symbol><symbol overflow="visible" id="x"><path style="stroke:none" d="M1.719-3.984h1.437v-.313H1.72v-1.828h-.25c0 .813-.297 1.875-1.282 1.922v.219h.844v2.75c0 1.218.938 1.343 1.297 1.343.703 0 .985-.703.985-1.343v-.563h-.25v.547c0 .734-.297 1.11-.672 1.11-.672 0-.672-.907-.672-1.079zm0 0"/></symbol><symbol overflow="visible" id="y"><path style="stroke:none" d="M3.313-.75c.046.39.312.813.78.813.22 0 .829-.141.829-.954v-.562h-.25v.562c0 .579-.25.641-.36.641-.328 0-.375-.453-.375-.5v-1.984c0-.422 0-.813-.359-1.188-.39-.39-.89-.547-1.36-.547-.827 0-1.515.469-1.515 1.125 0 .297.203.469.469.469a.435.435 0 0 0 .453-.453c0-.125-.047-.453-.516-.453.282-.36.766-.469 1.079-.469.5 0 1.062.39 1.062 1.281v.36c-.516.03-1.203.062-1.828.359-.75.344-1 .86-1 1.297 0 .812.969 1.062 1.594 1.062.656 0 1.109-.406 1.296-.859zM3.25-2.39v1c0 .937-.719 1.28-1.172 1.28-.484 0-.89-.343-.89-.843 0-.547.421-1.375 2.062-1.438zm0 0"/></symbol><symbol overflow="visible" id="z"><path style="stroke:none" d="M2.219-1.719c-.875 0-.875-1-.875-1.218 0-.266.015-.594.156-.844.078-.11.313-.39.719-.39.86 0 .86.984.86 1.218 0 .265 0 .594-.157.844-.078.109-.313.39-.703.39Zm-1.156.39c0-.03 0-.265.156-.468.39.281.812.313 1 .313.922 0 1.61-.688 1.61-1.454 0-.374-.157-.734-.407-.968.36-.344.719-.39.89-.39.032 0 .079 0 .11.015-.11.031-.172.14-.172.265 0 .172.14.282.297.282a.28.28 0 0 0 .281-.297c0-.172-.11-.485-.5-.485-.203 0-.64.063-1.062.47a1.652 1.652 0 0 0-1.047-.36c-.938 0-1.625.687-1.625 1.453 0 .437.219.812.469 1.031-.125.14-.313.469-.313.828 0 .313.14.688.453.89-.61.157-.922.595-.922.985 0 .719.985 1.266 2.203 1.266 1.172 0 2.204-.5 2.204-1.281 0-.344-.125-.86-.641-1.141-.531-.266-1.11-.266-1.719-.266-.25 0-.672 0-.75-.015-.312-.047-.516-.344-.516-.672ZM2.5 1.829C1.484 1.828.797 1.312.797.781c0-.453.375-.828.812-.844h.594c.86 0 1.969 0 1.969.844 0 .547-.703 1.047-1.672 1.047zm0 0"/></symbol><symbol overflow="visible" id="A"><path style="stroke:none" d="M1.672-3.313v-1.093l-1.39.11v.312c.702 0 .78.062.78.562V-.75c0 .438-.109.438-.78.438V0c.39-.016.859-.031 1.14-.031.39 0 .86 0 1.266.031v-.313h-.22c-.734 0-.75-.109-.75-.468v-1.531c0-.985.423-1.876 1.173-1.876.062 0 .093 0 .109.016-.031 0-.234.125-.234.39 0 .266.218.423.437.423a.421.421 0 0 0 .422-.438c0-.312-.313-.61-.734-.61-.735 0-1.094.673-1.22 1.095zm0 0"/></symbol><symbol overflow="visible" id="B"><path style="stroke:none" d="M1.094-3.422V-.75c0 .438-.11.438-.782.438V0c.36-.016.86-.031 1.141-.031.25 0 .766.015 1.11.031v-.313c-.672 0-.782 0-.782-.437v-1.844c0-1.031.719-1.594 1.344-1.594.64 0 .75.532.75 1.11V-.75c0 .438-.11.438-.781.438V0c.344-.016.86-.031 1.125-.031.25 0 .781.015 1.11.031v-.313c-.657 0-.766 0-.766-.437v-1.844c0-1.031.703-1.594 1.343-1.594.625 0 .735.532.735 1.11V-.75c0 .438-.11.438-.782.438V0c.344-.016.86-.031 1.125-.031.266 0 .782.015 1.125.031v-.313c-.515 0-.765 0-.78-.296v-1.907c0-.859 0-1.156-.313-1.515-.141-.172-.47-.375-1.047-.375-.828 0-1.282.593-1.438.984-.14-.875-.875-.984-1.328-.984-.734 0-1.203.422-1.484 1.047v-1.047l-1.407.11v.312c.704 0 .782.062.782.562zm0 0"/></symbol><symbol overflow="visible" id="E"><path style="stroke:none" d="M4.078-2.297H6.86c.141 0 .329 0 .329-.203 0-.188-.188-.188-.329-.188H4.08v-2.796c0-.141 0-.329-.204-.329-.203 0-.203.188-.203.329v2.796H.89c-.141 0-.329 0-.329.188 0 .203.188.203.329.203h2.78V.5c0 .14 0 .328.204.328.203 0 .203-.187.203-.328zm0 0"/></symbol><symbol overflow="visible" id="G"><path style="stroke:none" d="M6.844-3.266c.156 0 .343 0 .343-.187 0-.203-.187-.203-.328-.203H.891c-.141 0-.329 0-.329.203 0 .187.188.187.329.187zm.015 1.938c.141 0 .329 0 .329-.203 0-.188-.188-.188-.344-.188H.89c-.141 0-.329 0-.329.188 0 .203.188.203.329.203zm0 0"/></symbol><symbol overflow="visible" id="I"><path style="stroke:none" d="M2.078-1.938c.219.047 1.031.204 1.031.922 0 .5-.343.907-1.125.907-.843 0-1.203-.563-1.39-1.422-.031-.125-.031-.157-.14-.157-.126 0-.126.063-.126.235v1.328c0 .172 0 .234.11.234C.483.11.5.094.688-.094.703-.109.703-.125.89-.312c.437.406.89.421 1.093.421 1.141 0 1.61-.671 1.61-1.39 0-.516-.297-.828-.422-.938-.328-.328-.719-.406-1.14-.484-.563-.11-1.22-.235-1.22-.813 0-.359.25-.765 1.11-.765 1.094 0 1.156.906 1.172 1.203 0 .094.094.094.11.094.14 0 .14-.047.14-.235v-1.015c0-.157 0-.235-.11-.235-.046 0-.078 0-.203.125-.031.032-.125.125-.172.157-.375-.282-.78-.282-.937-.282-1.219 0-1.594.672-1.594 1.235 0 .343.156.625.422.843.328.25.61.313 1.328.454zm0 0"/></symbol><symbol overflow="visible" id="J"><path style="stroke:none" d="M1.719-3.75v-.656l-1.438.11v.312c.703 0 .781.062.781.5v4.656c0 .453-.109.453-.78.453v.313c.343-.016.859-.032 1.109-.032.28 0 .78.016 1.125.032v-.313c-.657 0-.766 0-.766-.453V-.594c.047.172.469.703 1.219.703 1.187 0 2.219-.984 2.219-2.265 0-1.266-.954-2.25-2.079-2.25-.78 0-1.203.437-1.39.656zm.031 2.61v-2.22c.281-.515.766-.796 1.281-.796.735 0 1.328.875 1.328 2C4.36-.953 3.672-.11 2.938-.11c-.407 0-.782-.204-1.047-.61-.141-.203-.141-.219-.141-.422Zm0 0"/></symbol><symbol overflow="visible" id="K"><path style="stroke:none" d="M4.14-3.313c.094-.234.266-.671.923-.671v-.313c-.235.016-.516.031-.75.031-.235 0-.688-.015-.86-.03v.312c.36 0 .469.234.469.421 0 .094-.016.141-.047.25L2.844-.78l-1.11-2.781c-.062-.126-.062-.141-.062-.172 0-.25.39-.25.578-.25v-.313c-.313.016-.86.031-1.094.031-.265 0-.672-.015-.968-.03v.312c.625 0 .671.062.796.359L2.422-.078c.062.14.078.187.203.187.14 0 .172-.093.219-.187zm0 0"/></symbol><symbol overflow="visible" id="L"><path style="stroke:none" d="M3.781-.547V.11L5.25 0v-.313c-.688 0-.781-.062-.781-.562v-6.047l-1.422.11v.312c.687 0 .765.063.765.563v2.156a1.582 1.582 0 0 0-1.25-.625c-1.171 0-2.218.984-2.218 2.265 0 1.266.969 2.25 2.11 2.25.64 0 1.077-.343 1.327-.656zm0-2.672v2.047c0 .172 0 .188-.11.36-.296.484-.733.703-1.171.703-.453 0-.813-.266-1.047-.641-.25-.406-.281-.969-.281-1.39 0-.36.016-.954.297-1.407.218-.312.593-.64 1.14-.64.344 0 .766.156 1.063.593.11.172.11.188.11.375zm0 0"/></symbol><symbol overflow="visible" id="M"><path style="stroke:none" d="M1.719-3.766v-3.156l-1.438.11v.312c.703 0 .781.063.781.563V0h.25c0-.016.079-.156.36-.625.14.234.562.734 1.297.734 1.187 0 2.219-.984 2.219-2.265 0-1.266-.97-2.25-2.11-2.25-.781 0-1.203.468-1.36.64zM1.75-1.14v-2.046c0-.188 0-.204.11-.36.39-.562.937-.64 1.171-.64.453 0 .813.265 1.047.64.266.406.281.969.281 1.39 0 .36-.015.954-.296 1.407-.22.313-.594.64-1.125.64-.454 0-.813-.234-1.047-.609-.141-.203-.141-.234-.141-.422Zm0 0"/></symbol><symbol overflow="visible" id="N"><path style="stroke:none" d="m1.766-4.406-1.391.11v.312c.64 0 .734.062.734.546V-.75c0 .438-.109.438-.78.438V0c.312-.016.859-.031 1.093-.031.36 0 .703.015 1.047.031v-.313c-.672 0-.703-.046-.703-.437zm.03-1.735a.514.514 0 0 0-.515-.53.537.537 0 0 0-.531.53c0 .266.219.532.531.532a.514.514 0 0 0 .516-.532zm0 0"/></symbol><symbol overflow="visible" id="O"><path style="stroke:none" d="M1.75-4.297v-1.156c0-.875.469-1.36.906-1.36.031 0 .188 0 .328.079a.443.443 0 0 0-.296.421c0 .22.156.422.437.422s.438-.203.438-.437c0-.375-.376-.703-.907-.703-.687 0-1.547.531-1.547 1.593v1.141H.33v.313h.78V-.75c0 .438-.109.438-.765.438V0c.39-.016.86-.031 1.125-.031.406 0 .875 0 1.265.031v-.313h-.203c-.734 0-.75-.109-.75-.468v-3.203h1.125v-.313zm0 0"/></symbol><symbol overflow="visible" id="P"><path style="stroke:none" d="M2.86-2.344c.296-.375.671-.86.921-1.125.313-.36.719-.515 1.188-.515v-.313c-.266.016-.563.031-.828.031-.297 0-.829-.015-.954-.03v.312c.22.015.297.14.297.312 0 .156-.109.281-.156.344l-.61.781-.78-1.015c-.094-.094-.094-.11-.094-.172 0-.157.156-.25.343-.25v-.313c-.25.016-.906.031-1.078.031-.203 0-.671-.015-.937-.03v.312c.703 0 .703 0 1.172.609l.984 1.281-.937 1.188a1.566 1.566 0 0 1-1.266.594V0c.25-.016.563-.031.828-.031.281 0 .703.015.938.031v-.313c-.22-.03-.282-.156-.282-.312 0-.219.282-.547.891-1.266l.766 1c.078.11.203.266.203.329 0 .093-.094.25-.36.25V0c.297-.016.86-.031 1.079-.031.265 0 .656.015.953.031v-.313c-.532 0-.72-.015-.938-.312zm0 0"/></symbol><symbol overflow="visible" id="Q"><path style="stroke:none" d="M2.031-.016c0-.625-.25-1.046-.64-1.046-.36 0-.532.28-.532.53 0 .266.172.532.532.532a.578.578 0 0 0 .375-.14l.015-.016c.016 0 .016 0 .016.14 0 .641-.266 1.25-.703 1.72-.063.062-.078.077-.078.109 0 .078.046.109.093.109.125 0 .922-.781.922-1.938zm0 0"/></symbol><symbol overflow="visible" id="R"><path style="stroke:none" d="M3.781-.61v1.782c0 .453-.11.453-.765.453v.313c.328-.016.859-.032 1.109-.032.266 0 .781.016 1.125.032v-.313c-.672 0-.781 0-.781-.453v-5.578H4.25l-.375.906c-.125-.281-.531-.906-1.328-.906-1.156 0-2.203.968-2.203 2.265 0 1.25.969 2.25 2.125 2.25.687 0 1.094-.421 1.312-.718zm.031-2.156v1.407c0 .328-.171.609-.39.843-.125.141-.453.407-.922.407-.719 0-1.328-.891-1.328-2.032 0-1.187.687-2.015 1.437-2.015.797 0 1.204.86 1.204 1.39zm0 0"/></symbol><symbol overflow="visible" id="S"><path style="stroke:none" d="M3.89-.781v.89L5.329 0v-.313c-.687 0-.766-.062-.766-.562v-3.531l-1.468.11v.312c.687 0 .781.062.781.562v1.766c0 .875-.484 1.547-1.219 1.547-.828 0-.875-.47-.875-.985v-3.312l-1.468.11v.312c.78 0 .78.03.78.906v1.5c0 .781 0 1.687 1.516 1.687.563 0 1-.28 1.282-.89zm0 0"/></symbol><symbol overflow="visible" id="V"><path style="stroke:none" d="m1.266-.766 1.062-1.03c1.547-1.376 2.14-1.907 2.14-2.907 0-1.14-.89-1.938-2.109-1.938C1.234-6.64.5-5.719.5-4.828c0 .547.5.547.531.547.172 0 .516-.11.516-.532a.513.513 0 0 0-.531-.515c-.079 0-.094 0-.125.016.218-.657.765-1.016 1.343-1.016.907 0 1.329.812 1.329 1.625 0 .797-.485 1.578-1.047 2.203L.609-.375C.5-.265.5-.235.5 0h3.703l.266-1.734h-.235C4.172-1.438 4.11-1 4-.844c-.063.078-.719.078-.938.078Zm0 0"/></symbol><symbol overflow="visible" id="W"><path style="stroke:none" d="M1.906-3.766a.524.524 0 1 0-1.047 0c0 .282.235.532.532.532.28 0 .515-.25.515-.532zm0 3.235a.534.534 0 0 0-.515-.531.537.537 0 0 0-.532.53.524.524 0 1 0 1.047 0Zm0 0"/></symbol><symbol overflow="visible" id="af"><path style="stroke:none" d="M2.938-6.375c0-.25 0-.266-.235-.266C2.078-6 1.203-6 .891-6v.313c.203 0 .78 0 1.296-.266v5.172c0 .36-.03.469-.921.469H.953V0c.344-.031 1.203-.031 1.61-.031.39 0 1.265 0 1.609.031v-.313h-.313c-.906 0-.921-.109-.921-.468zm0 0"/></symbol><symbol overflow="visible" id="ag"><path style="stroke:none" d="M1.906-.531a.534.534 0 0 0-.515-.531.537.537 0 0 0-.532.53.524.524 0 1 0 1.047 0Zm0 0"/></symbol><symbol overflow="visible" id="ah"><path style="stroke:none" d="M3.969-6.938c-.047-.125-.078-.203-.235-.203-.156 0-.187.063-.234.204L1.437-.984C1.25-.47.86-.313.313-.313V0c.235-.016.672-.031 1.016-.031.313 0 .828.015 1.156.031v-.313c-.5 0-.75-.25-.75-.5 0-.03.016-.14.016-.156l.469-1.297h2.453L5.203-.75a.58.58 0 0 1 .031.14c0 .297-.562.297-.828.297V0c.36-.031 1.063-.031 1.438-.031.422 0 .89.015 1.297.031v-.313h-.172c-.594 0-.735-.062-.844-.39Zm-.531 1.11 1.124 3.25H2.329Zm0 0"/></symbol><symbol overflow="visible" id="ai"><path style="stroke:none" d="M1.172-2.172c0-1.625.812-2.047 1.344-2.047.093 0 .718.016 1.062.375-.406.031-.469.328-.469.453 0 .266.188.454.454.454.265 0 .468-.157.468-.47 0-.671-.765-1.062-1.531-1.062C1.25-4.469.344-3.39.344-2.156c0 1.281.984 2.265 2.14 2.265 1.329 0 1.657-1.203 1.657-1.296 0-.094-.11-.094-.141-.094-.078 0-.11.031-.125.093C3.594-.265 2.937-.14 2.578-.14c-.531 0-1.406-.421-1.406-2.03zm0 0"/></symbol><symbol overflow="visible" id="C"><path style="stroke:none" d="M3.328-3.016c.063-.25.297-1.171.985-1.171.046 0 .296 0 .5.125a.578.578 0 0 0-.47.546c0 .157.11.344.376.344a.546.546 0 0 0 .531-.578c0-.516-.578-.656-.922-.656-.578 0-.922.531-1.047.75-.25-.656-.781-.75-1.078-.75-1.031 0-1.61 1.281-1.61 1.531 0 .11.11.11.126.11.078 0 .11-.032.125-.11.344-1.063 1-1.313 1.344-1.313.187 0 .53.094.53.672 0 .313-.171.97-.53 2.375-.157.61-.516 1.032-.954 1.032-.062 0-.28 0-.5-.125.25-.063.47-.266.47-.547 0-.266-.22-.344-.36-.344-.313 0-.547.25-.547.578 0 .453.484.656.922.656.672 0 1.031-.703 1.047-.75.125.36.484.75 1.078.75 1.031 0 1.594-1.28 1.594-1.53 0-.11-.079-.11-.11-.11-.094 0-.11.047-.14.11-.329 1.077-1 1.312-1.313 1.312-.39 0-.547-.313-.547-.657 0-.218.047-.437.156-.875zm0 0"/></symbol><symbol overflow="visible" id="F"><path style="stroke:none" d="M4.844-3.797c.047-.14.047-.156.047-.234 0-.172-.141-.266-.297-.266a.455.455 0 0 0-.344.203c-.016.063-.11.36-.14.547-.079.25-.141.531-.204.797L3.453-.953c-.031.14-.469.844-1.125.844-.5 0-.61-.438-.61-.813 0-.453.173-1.078.5-1.953.157-.406.204-.516.204-.719 0-.437-.313-.812-.813-.812-.953 0-1.312 1.453-1.312 1.531 0 .11.094.11.11.11.109 0 .109-.032.156-.188.28-.938.671-1.235 1.015-1.235.078 0 .25 0 .25.313 0 .25-.11.516-.172.703-.406 1.063-.578 1.625-.578 2.094 0 .89.625 1.187 1.219 1.187.39 0 .719-.171 1-.453-.125.516-.25 1.016-.64 1.547-.266.328-.641.625-1.095.625-.14 0-.593-.031-.765-.422.156 0 .297 0 .422-.125a.493.493 0 0 0 .203-.406c0-.313-.266-.344-.36-.344C.829.531.5.687.5 1.171c0 .5.438.876 1.063.876 1.015 0 2.046-.906 2.328-2.031zm0 0"/></symbol><symbol overflow="visible" id="H"><path style="stroke:none" d="M1.328-.828c.531-.578.828-.828 1.188-1.14 0 0 .609-.532.968-.891.954-.922 1.172-1.407 1.172-1.454 0-.093-.093-.093-.11-.093-.077 0-.093.015-.155.11-.297.484-.5.64-.735.64-.25 0-.36-.156-.515-.328-.188-.22-.36-.422-.688-.422-.75 0-1.203.922-1.203 1.14 0 .047.031.11.11.11.093 0 .109-.047.14-.11.188-.468.766-.468.844-.468.203 0 .39.062.625.14.406.156.515.156.765.156-.359.422-1.187 1.141-1.375 1.297l-.906.844C.781-.625.422-.063.422.016c0 .093.11.093.125.093C.625.11.64.094.703-.016c.235-.359.531-.625.86-.625.218 0 .328.094.578.375.156.22.343.375.625.375 1 0 1.578-1.265 1.578-1.53 0-.048-.047-.11-.125-.11-.094 0-.11.062-.14.14-.235.641-.876.829-1.204.829-.188 0-.375-.063-.578-.125-.344-.125-.5-.172-.703-.172-.016 0-.172 0-.266.03zm0 0"/></symbol><symbol overflow="visible" id="T"><path style="stroke:none" d="M.875-.594c-.031.156-.094.39-.094.438 0 .172.14.265.297.265a.414.414 0 0 0 .375-.28c0-.016.125-.485.188-.735l.218-.89c.047-.235.11-.454.172-.673.031-.172.11-.469.125-.5.14-.312.672-1.219 1.625-1.219.453 0 .531.375.531.704 0 .609-.484 1.89-.64 2.312-.094.234-.11.36-.11.469 0 .469.36.812.829.812.937 0 1.296-1.453 1.296-1.53 0-.11-.078-.11-.109-.11-.11 0-.11.031-.156.187-.203.672-.531 1.235-1.016 1.235-.172 0-.234-.094-.234-.329 0-.25.078-.484.172-.703.187-.53.61-1.625.61-2.203 0-.656-.423-1.062-1.141-1.062-.907 0-1.391.64-1.563.875-.047-.563-.453-.875-.922-.875-.453 0-.64.39-.734.562-.172.344-.297.938-.297.969 0 .11.094.11.11.11.109 0 .109-.016.171-.235.172-.703.375-1.188.735-1.188.187 0 .296.125.296.454 0 .218-.03.328-.156.843zm0 0"/></symbol><symbol overflow="visible" id="U"><path style="stroke:none" d="M6.734-2.266c.11-.062.188-.109.188-.234 0-.11-.078-.156-.188-.219l-5.53-2.594c-.126-.078-.141-.078-.173-.078a.207.207 0 0 0-.203.204c0 .093.047.156.188.218L6.25-2.5 1.016-.016C.875.047.828.11.828.204c0 .109.094.202.203.202.032 0 .047 0 .172-.078zm0 0"/></symbol><symbol overflow="visible" id="D"><path style="stroke:none" d="M3.516-1.266H3.28c-.015.157-.094.563-.187.625-.047.047-.578.047-.688.047H1.125c.734-.64.984-.844 1.39-1.172.516-.406 1-.843 1-1.5 0-.843-.734-1.359-1.624-1.359-.86 0-1.454.61-1.454 1.25 0 .344.297.39.376.39.156 0 .359-.124.359-.374 0-.125-.047-.375-.406-.375.218-.485.687-.641 1.015-.641.703 0 1.063.547 1.063 1.11 0 .609-.438 1.078-.656 1.328L.516-.266C.437-.203.437-.187.437 0h2.876zm0 0"/></symbol><symbol overflow="visible" id="X"><path style="stroke:none" d="M.844-.438C.828-.344.78-.171.78-.156c0 .156.125.218.235.218a.377.377 0 0 0 .28-.14c.032-.063.079-.297.126-.438.031-.125.11-.453.14-.625.047-.156.094-.312.125-.468.079-.282.094-.344.297-.625.188-.282.516-.641 1.047-.641.39 0 .406.36.406.484 0 .422-.296 1.188-.406 1.485-.078.203-.11.265-.11.375 0 .375.298.594.657.594.703 0 1-.954 1-1.063 0-.094-.078-.094-.11-.094-.093 0-.093.047-.124.125-.157.563-.469.844-.735.844-.156 0-.187-.094-.187-.25s.047-.25.172-.563c.078-.218.36-.953.36-1.343 0-.672-.532-.797-.907-.797-.578 0-.969.36-1.172.64-.047-.484-.453-.64-.75-.64s-.453.219-.547.375c-.156.265-.25.656-.25.703 0 .078.094.078.125.078.094 0 .094-.016.14-.203.11-.406.25-.75.516-.75.188 0 .235.156.235.344 0 .125-.063.39-.125.578-.047.187-.11.469-.14.625zm0 0"/></symbol><symbol overflow="visible" id="ae"><path style="stroke:none" d="M3.875 8.516 2.125 4.64c-.078-.157-.125-.157-.156-.157 0 0-.063 0-.172.079l-.938.718c-.125.11-.125.125-.125.157 0 .062.016.109.094.109.063 0 .235-.14.344-.219.047-.047.203-.156.312-.234l1.97 4.312c.062.156.108.156.202.156.156 0 .188-.046.25-.187L8.437 0C8.5-.14 8.5-.172 8.5-.203a.206.206 0 0 0-.203-.203c-.078 0-.14.062-.219.219zm0 0"/></symbol><symbol overflow="visible" id="aj"><path style="stroke:none" d="M4.234 11.563c.297 0 .313-.016.407-.204L10.094-.016c.078-.14.078-.156.078-.187a.197.197 0 0 0-.203-.203c-.125 0-.172.094-.219.203L4.61 10.53 2.483 5.578l-1.39 1.078.156.157.703-.547Zm0 0"/></symbol></defs><use y="134.765" x="133.768" xlink:href="#a" width="100%" height="100%" transform="matrix(.35278 0 0 .35278 -47.29 -44.025)" style="fill:#000;fill-opacity:1"/><g transform="matrix(.35278 0 0 .35278 -47.29 -44.025)" style="fill:#000;fill-opacity:1"><use y="134.765" x="157.977" xlink:href="#b" width="100%" height="100%"/><use y="134.765" x="168.123" xlink:href="#c" width="100%" height="100%"/><use y="134.765" x="172.606" xlink:href="#d" width="100%" height="100%"/><use y="134.765" x="179.198" xlink:href="#e" width="100%" height="100%"/><use y="134.765" x="185.565" xlink:href="#f" width="100%" height="100%"/></g><g transform="matrix(.35278 0 0 .35278 -47.29 -44.025)" style="fill:#000;fill-opacity:1"><use y="134.765" x="197.221" xlink:href="#g" width="100%" height="100%"/><use y="134.765" x="204.585" xlink:href="#h" width="100%" height="100%"/><use y="134.765" x="213.102" xlink:href="#i" width="100%" height="100%"/><use y="134.765" x="220.948" xlink:href="#j" width="100%" height="100%"/><use y="134.765" x="234.398" xlink:href="#k" width="100%" height="100%"/><use y="134.765" x="243.364" xlink:href="#l" width="100%" height="100%"/><use y="134.765" x="247.848" xlink:href="#g" width="100%" height="100%"/></g><g transform="matrix(.35278 0 0 .35278 -47.29 -44.025)" style="fill:#000;fill-opacity:1"><use y="156.586" x="133.768" xlink:href="#m" width="100%" height="100%"/><use y="156.586" x="140.963" xlink:href="#n" width="100%" height="100%"/><use y="156.586" x="146.498" xlink:href="#o" width="100%" height="100%"/></g><use y="156.586" x="153.865" xlink:href="#p" width="100%" height="100%" transform="matrix(.35278 0 0 .35278 -47.29 -44.025)" style="fill:#000;fill-opacity:1"/><g transform="matrix(.35278 0 0 .35278 -47.29 -44.025)" style="fill:#000;fill-opacity:1"><use y="156.586" x="160.781" xlink:href="#o" width="100%" height="100%"/><use y="156.586" x="165.208" xlink:href="#q" width="100%" height="100%"/><use y="156.586" x="167.976" xlink:href="#q" width="100%" height="100%"/><use y="156.586" x="170.743" xlink:href="#r" width="100%" height="100%"/><use y="156.586" x="174.064" xlink:href="#s" width="100%" height="100%"/><use y="156.586" x="179.322" xlink:href="#t" width="100%" height="100%"/><use y="156.586" x="184.857" xlink:href="#u" width="100%" height="100%"/></g><g transform="matrix(.35278 0 0 .35278 -47.29 -44.025)" style="fill:#000;fill-opacity:1"><use y="156.586" x="189.56" xlink:href="#p" width="100%" height="100%"/><use y="156.586" x="196.755" xlink:href="#t" width="100%" height="100%"/></g><g transform="matrix(.35278 0 0 .35278 -47.29 -44.025)" style="fill:#000;fill-opacity:1"><use y="156.586" x="205.229" xlink:href="#v" width="100%" height="100%"/><use y="156.586" x="212.009" xlink:href="#w" width="100%" height="100%"/><use y="156.586" x="217.268" xlink:href="#x" width="100%" height="100%"/><use y="156.586" x="221.142" xlink:href="#n" width="100%" height="100%"/><use y="156.586" x="226.677" xlink:href="#y" width="100%" height="100%"/><use y="156.586" x="231.659" xlink:href="#z" width="100%" height="100%"/><use y="156.586" x="236.64" xlink:href="#u" width="100%" height="100%"/><use y="156.586" x="241.621" xlink:href="#A" width="100%" height="100%"/><use y="156.586" x="245.523" xlink:href="#o" width="100%" height="100%"/><use y="156.586" x="249.951" xlink:href="#y" width="100%" height="100%"/><use y="156.586" x="254.932" xlink:href="#t" width="100%" height="100%"/></g><g transform="matrix(.35278 0 0 .35278 -47.29 -44.025)" style="fill:#000;fill-opacity:1"><use y="156.586" x="263.406" xlink:href="#x" width="100%" height="100%"/><use y="156.586" x="267.281" xlink:href="#n" width="100%" height="100%"/><use y="156.586" x="272.816" xlink:href="#o" width="100%" height="100%"/><use y="156.586" x="277.243" xlink:href="#u" width="100%" height="100%"/><use y="156.586" x="282.225" xlink:href="#A" width="100%" height="100%"/><use y="156.586" x="286.127" xlink:href="#o" width="100%" height="100%"/><use y="156.586" x="290.554" xlink:href="#B" width="100%" height="100%"/></g><use y="156.586" x="301.794" xlink:href="#C" width="100%" height="100%" transform="matrix(.35278 0 0 .35278 -47.29 -44.025)" style="fill:#000;fill-opacity:1"/><use y="152.97" x="307.488" xlink:href="#D" width="100%" height="100%" transform="matrix(.35278 0 0 .35278 -47.29 -44.025)" style="fill:#000;fill-opacity:1"/><use y="156.586" x="313.404" xlink:href="#E" width="100%" height="100%" transform="matrix(.35278 0 0 .35278 -47.29 -44.025)" style="fill:#000;fill-opacity:1"/><use y="156.586" x="322.6" xlink:href="#F" width="100%" height="100%" transform="matrix(.35278 0 0 .35278 -47.29 -44.025)" style="fill:#000;fill-opacity:1"/><use y="152.97" x="327.842" xlink:href="#D" width="100%" height="100%" transform="matrix(.35278 0 0 .35278 -47.29 -44.025)" style="fill:#000;fill-opacity:1"/><use y="156.586" x="335.079" xlink:href="#G" width="100%" height="100%" transform="matrix(.35278 0 0 .35278 -47.29 -44.025)" style="fill:#000;fill-opacity:1"/><use y="156.586" x="345.595" xlink:href="#H" width="100%" height="100%" transform="matrix(.35278 0 0 .35278 -47.29 -44.025)" style="fill:#000;fill-opacity:1"/><use y="152.97" x="350.666" xlink:href="#D" width="100%" height="100%" transform="matrix(.35278 0 0 .35278 -47.29 -44.025)" style="fill:#000;fill-opacity:1"/><use y="156.586" x="358.073" xlink:href="#p" width="100%" height="100%" transform="matrix(.35278 0 0 .35278 -47.29 -44.025)" style="fill:#000;fill-opacity:1"/><g transform="matrix(.35278 0 0 .35278 -47.29 -44.025)" style="fill:#000;fill-opacity:1"><use y="156.586" x="364.989" xlink:href="#y" width="100%" height="100%"/><use y="156.586" x="369.97" xlink:href="#I" width="100%" height="100%"/></g><g transform="matrix(.35278 0 0 .35278 -47.29 -44.025)" style="fill:#000;fill-opacity:1"><use y="156.586" x="376.839" xlink:href="#J" width="100%" height="100%"/><use y="156.586" x="382.374" xlink:href="#A" width="100%" height="100%"/><use y="156.586" x="386.276" xlink:href="#u" width="100%" height="100%"/></g><use y="156.586" x="390.978" xlink:href="#K" width="100%" height="100%" transform="matrix(.35278 0 0 .35278 -47.29 -44.025)" style="fill:#000;fill-opacity:1"/><g transform="matrix(.35278 0 0 .35278 -47.29 -44.025)" style="fill:#000;fill-opacity:1"><use y="156.586" x="395.968" xlink:href="#o" width="100%" height="100%"/><use y="156.586" x="400.395" xlink:href="#L" width="100%" height="100%"/></g><g transform="matrix(.35278 0 0 .35278 -47.29 -44.025)" style="fill:#000;fill-opacity:1"><use y="156.586" x="408.859" xlink:href="#x" width="100%" height="100%"/><use y="156.586" x="412.734" xlink:href="#u" width="100%" height="100%"/></g><use y="156.586" x="420.654" xlink:href="#M" width="100%" height="100%" transform="matrix(.35278 0 0 .35278 -47.29 -44.025)" style="fill:#000;fill-opacity:1"/><use y="156.586" x="426.468" xlink:href="#o" width="100%" height="100%" transform="matrix(.35278 0 0 .35278 -47.29 -44.025)" style="fill:#000;fill-opacity:1"/><g transform="matrix(.35278 0 0 .35278 -47.29 -44.025)" style="fill:#000;fill-opacity:1"><use y="156.586" x="433.835" xlink:href="#N" width="100%" height="100%"/><use y="156.586" x="436.602" xlink:href="#t" width="100%" height="100%"/></g><use y="156.586" x="441.858" xlink:href="#K" width="100%" height="100%" transform="matrix(.35278 0 0 .35278 -47.29 -44.025)" style="fill:#000;fill-opacity:1"/><g transform="matrix(.35278 0 0 .35278 -47.29 -44.025)" style="fill:#000;fill-opacity:1"><use y="156.586" x="446.559" xlink:href="#y" width="100%" height="100%"/><use y="156.586" x="451.54" xlink:href="#q" width="100%" height="100%"/><use y="156.586" x="454.308" xlink:href="#N" width="100%" height="100%"/><use y="156.586" x="457.075" xlink:href="#L" width="100%" height="100%"/></g><g transform="matrix(.35278 0 0 .35278 -47.29 -44.025)" style="fill:#000;fill-opacity:1"><use y="156.586" x="465.55" xlink:href="#O" width="100%" height="100%"/><use y="156.586" x="468.594" xlink:href="#u" width="100%" height="100%"/><use y="156.586" x="473.575" xlink:href="#A" width="100%" height="100%"/></g><g transform="matrix(.35278 0 0 .35278 -47.29 -44.025)" style="fill:#000;fill-opacity:1"><use y="168.541" x="133.768" xlink:href="#u" width="100%" height="100%"/><use y="168.541" x="138.749" xlink:href="#x" width="100%" height="100%"/><use y="168.541" x="142.624" xlink:href="#n" width="100%" height="100%"/><use y="168.541" x="148.159" xlink:href="#o" width="100%" height="100%"/><use y="168.541" x="152.586" xlink:href="#A" width="100%" height="100%"/></g><g transform="matrix(.35278 0 0 .35278 -47.29 -44.025)" style="fill:#000;fill-opacity:1"><use y="168.541" x="159.766" xlink:href="#o" width="100%" height="100%"/><use y="168.541" x="164.194" xlink:href="#P" width="100%" height="100%"/><use y="168.541" x="169.452" xlink:href="#J" width="100%" height="100%"/></g><g transform="matrix(.35278 0 0 .35278 -47.29 -44.025)" style="fill:#000;fill-opacity:1"><use y="168.541" x="175.266" xlink:href="#u" width="100%" height="100%"/><use y="168.541" x="180.248" xlink:href="#t" width="100%" height="100%"/><use y="168.541" x="185.783" xlink:href="#o" width="100%" height="100%"/><use y="168.541" x="190.21" xlink:href="#t" width="100%" height="100%"/></g><g transform="matrix(.35278 0 0 .35278 -47.29 -44.025)" style="fill:#000;fill-opacity:1"><use y="168.541" x="195.466" xlink:href="#x" width="100%" height="100%"/><use y="168.541" x="199.341" xlink:href="#I" width="100%" height="100%"/><use y="168.541" x="203.27" xlink:href="#Q" width="100%" height="100%"/></g><g transform="matrix(.35278 0 0 .35278 -47.29 -44.025)" style="fill:#000;fill-opacity:1"><use y="168.541" x="209.325" xlink:href="#B" width="100%" height="100%"/><use y="168.541" x="217.627" xlink:href="#o" width="100%" height="100%"/><use y="168.541" x="222.055" xlink:href="#y" width="100%" height="100%"/><use y="168.541" x="227.036" xlink:href="#t" width="100%" height="100%"/><use y="168.541" x="232.571" xlink:href="#N" width="100%" height="100%"/><use y="168.541" x="235.339" xlink:href="#t" width="100%" height="100%"/><use y="168.541" x="240.874" xlink:href="#z" width="100%" height="100%"/></g><g transform="matrix(.35278 0 0 .35278 -47.29 -44.025)" style="fill:#000;fill-opacity:1"><use y="168.541" x="249.133" xlink:href="#x" width="100%" height="100%"/><use y="168.541" x="253.007" xlink:href="#n" width="100%" height="100%"/><use y="168.541" x="258.543" xlink:href="#o" width="100%" height="100%"/></g><g transform="matrix(.35278 0 0 .35278 -47.29 -44.025)" style="fill:#000;fill-opacity:1"><use y="168.541" x="266.248" xlink:href="#t" width="100%" height="100%"/><use y="168.541" x="271.783" xlink:href="#o" width="100%" height="100%"/><use y="168.541" x="276.21" xlink:href="#P" width="100%" height="100%"/><use y="168.541" x="281.469" xlink:href="#x" width="100%" height="100%"/></g><g transform="matrix(.35278 0 0 .35278 -47.29 -44.025)" style="fill:#000;fill-opacity:1"><use y="168.541" x="288.621" xlink:href="#o" width="100%" height="100%"/><use y="168.541" x="293.048" xlink:href="#R" width="100%" height="100%"/><use y="168.541" x="298.306" xlink:href="#S" width="100%" height="100%"/></g><g transform="matrix(.35278 0 0 .35278 -47.29 -44.025)" style="fill:#000;fill-opacity:1"><use y="168.541" x="303.832" xlink:href="#y" width="100%" height="100%"/><use y="168.541" x="308.813" xlink:href="#x" width="100%" height="100%"/><use y="168.541" x="312.687" xlink:href="#N" width="100%" height="100%"/><use y="168.541" x="315.455" xlink:href="#u" width="100%" height="100%"/><use y="168.541" x="320.436" xlink:href="#t" width="100%" height="100%"/></g><g transform="matrix(.35278 0 0 .35278 -47.29 -44.025)" style="fill:#000;fill-opacity:1"><use y="168.541" x="329.249" xlink:href="#n" width="100%" height="100%"/><use y="168.541" x="334.784" xlink:href="#y" width="100%" height="100%"/><use y="168.541" x="339.766" xlink:href="#I" width="100%" height="100%"/></g><g transform="matrix(.35278 0 0 .35278 -47.29 -44.025)" style="fill:#000;fill-opacity:1"><use y="168.541" x="346.973" xlink:href="#t" width="100%" height="100%"/><use y="168.541" x="352.508" xlink:href="#u" width="100%" height="100%"/></g><g transform="matrix(.35278 0 0 .35278 -47.29 -44.025)" style="fill:#000;fill-opacity:1"><use y="168.541" x="360.767" xlink:href="#N" width="100%" height="100%"/><use y="168.541" x="363.534" xlink:href="#t" width="100%" height="100%"/></g><g transform="matrix(.35278 0 0 .35278 -47.29 -44.025)" style="fill:#000;fill-opacity:1"><use y="168.541" x="368.791" xlink:href="#x" width="100%" height="100%"/><use y="168.541" x="372.665" xlink:href="#o" width="100%" height="100%"/><use y="168.541" x="377.093" xlink:href="#z" width="100%" height="100%"/><use y="168.541" x="382.074" xlink:href="#o" width="100%" height="100%"/><use y="168.541" x="386.501" xlink:href="#A" width="100%" height="100%"/></g><g transform="matrix(.35278 0 0 .35278 -47.29 -44.025)" style="fill:#000;fill-opacity:1"><use y="168.541" x="393.681" xlink:href="#I" width="100%" height="100%"/><use y="168.541" x="397.611" xlink:href="#u" width="100%" height="100%"/><use y="168.541" x="402.592" xlink:href="#q" width="100%" height="100%"/><use y="168.541" x="405.359" xlink:href="#S" width="100%" height="100%"/><use y="168.541" x="410.895" xlink:href="#x" width="100%" height="100%"/><use y="168.541" x="414.769" xlink:href="#N" width="100%" height="100%"/><use y="168.541" x="417.537" xlink:href="#u" width="100%" height="100%"/><use y="168.541" x="422.518" xlink:href="#t" width="100%" height="100%"/><use y="168.541" x="428.053" xlink:href="#I" width="100%" height="100%"/></g><g transform="matrix(.35278 0 0 .35278 -47.29 -44.025)" style="fill:#000;fill-opacity:1"><use y="168.541" x="435.26" xlink:href="#O" width="100%" height="100%"/><use y="168.541" x="438.305" xlink:href="#u" width="100%" height="100%"/><use y="168.541" x="443.286" xlink:href="#A" width="100%" height="100%"/></g><use y="168.541" x="450.467" xlink:href="#T" width="100%" height="100%" transform="matrix(.35278 0 0 .35278 -47.29 -44.025)" style="fill:#000;fill-opacity:1"/><use y="168.541" x="459.216" xlink:href="#U" width="100%" height="100%" transform="matrix(.35278 0 0 .35278 -47.29 -44.025)" style="fill:#000;fill-opacity:1"/><g transform="matrix(.35278 0 0 .35278 -47.29 -44.025)" style="fill:#000;fill-opacity:1"><use y="168.541" x="469.731" xlink:href="#V" width="100%" height="100%"/><use y="168.541" x="474.712" xlink:href="#W" width="100%" height="100%"/></g><use y="192.451" x="276.756" xlink:href="#C" width="100%" height="100%" transform="matrix(.35278 0 0 .35278 -47.29 -44.025)" style="fill:#000;fill-opacity:1"/><use y="188.338" x="282.45" xlink:href="#X" width="100%" height="100%" transform="matrix(.35278 0 0 .35278 -47.29 -44.025)" style="fill:#000;fill-opacity:1"/><use y="192.451" x="290.087" xlink:href="#E" width="100%" height="100%" transform="matrix(.35278 0 0 .35278 -47.29 -44.025)" style="fill:#000;fill-opacity:1"/><use y="192.451" x="300.049" xlink:href="#F" width="100%" height="100%" transform="matrix(.35278 0 0 .35278 -47.29 -44.025)" style="fill:#000;fill-opacity:1"/><use y="188.338" x="305.291" xlink:href="#X" width="100%" height="100%" transform="matrix(.35278 0 0 .35278 -47.29 -44.025)" style="fill:#000;fill-opacity:1"/><use y="192.451" x="313.482" xlink:href="#G" width="100%" height="100%" transform="matrix(.35278 0 0 .35278 -47.29 -44.025)" style="fill:#000;fill-opacity:1"/><use y="192.451" x="323.998" xlink:href="#H" width="100%" height="100%" transform="matrix(.35278 0 0 .35278 -47.29 -44.025)" style="fill:#000;fill-opacity:1"/><use y="188.338" x="329.069" xlink:href="#X" width="100%" height="100%" transform="matrix(.35278 0 0 .35278 -47.29 -44.025)" style="fill:#000;fill-opacity:1"/><use y="225.397" x="133.768" xlink:href="#Y" width="100%" height="100%" transform="matrix(.35278 0 0 .35278 -47.29 -44.025)" style="fill:#000;fill-opacity:1"/><g transform="matrix(.35278 0 0 .35278 -47.29 -44.025)" style="fill:#000;fill-opacity:1"><use y="225.397" x="157.977" xlink:href="#Z" width="100%" height="100%"/><use y="225.397" x="166.944" xlink:href="#g" width="100%" height="100%"/><use y="225.397" x="174.308" xlink:href="#aa" width="100%" height="100%"/><use y="225.397" x="181.481" xlink:href="#ab" width="100%" height="100%"/><use y="225.397" x="189.55" xlink:href="#ac" width="100%" height="100%"/><use y="225.397" x="198.517" xlink:href="#ad" width="100%" height="100%"/></g><g transform="matrix(.35278 0 0 .35278 -47.29 -44.025)" style="fill:#000;fill-opacity:1"><use y="225.397" x="212.863" xlink:href="#g" width="100%" height="100%"/><use y="225.397" x="220.227" xlink:href="#h" width="100%" height="100%"/><use y="225.397" x="228.744" xlink:href="#i" width="100%" height="100%"/><use y="225.397" x="236.59" xlink:href="#j" width="100%" height="100%"/><use y="225.397" x="250.04" xlink:href="#k" width="100%" height="100%"/><use y="225.397" x="259.006" xlink:href="#l" width="100%" height="100%"/><use y="225.397" x="263.489" xlink:href="#g" width="100%" height="100%"/></g><g transform="matrix(.35278 0 0 .35278 -47.29 -44.025)" style="fill:#000;fill-opacity:1"><use y="247.218" x="133.768" xlink:href="#m" width="100%" height="100%"/><use y="247.218" x="140.963" xlink:href="#n" width="100%" height="100%"/><use y="247.218" x="146.498" xlink:href="#N" width="100%" height="100%"/><use y="247.218" x="149.266" xlink:href="#I" width="100%" height="100%"/></g><g transform="matrix(.35278 0 0 .35278 -47.29 -44.025)" style="fill:#000;fill-opacity:1"><use y="247.218" x="155.985" xlink:href="#N" width="100%" height="100%"/><use y="247.218" x="158.752" xlink:href="#I" width="100%" height="100%"/></g><use y="247.218" x="165.461" xlink:href="#y" width="100%" height="100%" transform="matrix(.35278 0 0 .35278 -47.29 -44.025)" style="fill:#000;fill-opacity:1"/><g transform="matrix(.35278 0 0 .35278 -47.29 -44.025)" style="fill:#000;fill-opacity:1"><use y="247.218" x="173.232" xlink:href="#I" width="100%" height="100%"/><use y="247.218" x="177.161" xlink:href="#N" width="100%" height="100%"/><use y="247.218" x="179.929" xlink:href="#B" width="100%" height="100%"/><use y="247.218" x="188.231" xlink:href="#J" width="100%" height="100%"/><use y="247.218" x="193.766" xlink:href="#q" width="100%" height="100%"/><use y="247.218" x="196.533" xlink:href="#o" width="100%" height="100%"/></g><g transform="matrix(.35278 0 0 .35278 -47.29 -44.025)" style="fill:#000;fill-opacity:1"><use y="247.218" x="203.74" xlink:href="#B" width="100%" height="100%"/><use y="247.218" x="212.042" xlink:href="#y" width="100%" height="100%"/><use y="247.218" x="217.023" xlink:href="#x" width="100%" height="100%"/><use y="247.218" x="220.898" xlink:href="#n" width="100%" height="100%"/></g><g transform="matrix(.35278 0 0 .35278 -47.29 -44.025)" style="fill:#000;fill-opacity:1"><use y="247.218" x="229.223" xlink:href="#o" width="100%" height="100%"/><use y="247.218" x="233.65" xlink:href="#P" width="100%" height="100%"/><use y="247.218" x="238.908" xlink:href="#J" width="100%" height="100%"/><use y="247.218" x="244.444" xlink:href="#A" width="100%" height="100%"/><use y="247.218" x="248.346" xlink:href="#o" width="100%" height="100%"/><use y="247.218" x="252.773" xlink:href="#I" width="100%" height="100%"/><use y="247.218" x="256.702" xlink:href="#I" width="100%" height="100%"/><use y="247.218" x="260.632" xlink:href="#N" width="100%" height="100%"/><use y="247.218" x="263.399" xlink:href="#u" width="100%" height="100%"/><use y="247.218" x="268.381" xlink:href="#t" width="100%" height="100%"/></g><use y="238.916" x="276.699" xlink:href="#ae" width="100%" height="100%" transform="matrix(.35278 0 0 .35278 -47.29 -44.025)" style="fill:#000;fill-opacity:1"/><path d="M-98.41 77.682h9.639" style="fill:none;stroke:#000;stroke-width:.140406;stroke-linecap:butt;stroke-linejoin:miter;stroke-miterlimit:10;stroke-opacity:1" transform="translate(151.661 -37.492)"/><use y="247.218" x="285.001" xlink:href="#C" width="100%" height="100%" transform="matrix(.35278 0 0 .35278 -47.29 -44.025)" style="fill:#000;fill-opacity:1"/><use y="244.34" x="290.695" xlink:href="#D" width="100%" height="100%" transform="matrix(.35278 0 0 .35278 -47.29 -44.025)" style="fill:#000;fill-opacity:1"/><use y="247.218" x="297.378" xlink:href="#E" width="100%" height="100%" transform="matrix(.35278 0 0 .35278 -47.29 -44.025)" style="fill:#000;fill-opacity:1"/><use y="247.218" x="307.339" xlink:href="#af" width="100%" height="100%" transform="matrix(.35278 0 0 .35278 -47.29 -44.025)" style="fill:#000;fill-opacity:1"/><g transform="matrix(.35278 0 0 .35278 -47.29 -44.025)" style="fill:#000;fill-opacity:1"><use y="247.218" x="315.109" xlink:href="#N" width="100%" height="100%"/><use y="247.218" x="317.877" xlink:href="#t" width="100%" height="100%"/><use y="247.218" x="323.412" xlink:href="#I" width="100%" height="100%"/><use y="247.218" x="327.342" xlink:href="#N" width="100%" height="100%"/><use y="247.218" x="330.109" xlink:href="#L" width="100%" height="100%"/><use y="247.218" x="335.644" xlink:href="#o" width="100%" height="100%"/></g><g transform="matrix(.35278 0 0 .35278 -47.29 -44.025)" style="fill:#000;fill-opacity:1"><use y="247.218" x="342.851" xlink:href="#x" width="100%" height="100%"/><use y="247.218" x="346.726" xlink:href="#o" width="100%" height="100%"/><use y="247.218" x="351.153" xlink:href="#P" width="100%" height="100%"/><use y="247.218" x="356.411" xlink:href="#x" width="100%" height="100%"/><use y="247.218" x="360.286" xlink:href="#ag" width="100%" height="100%"/></g><g transform="matrix(.35278 0 0 .35278 -47.29 -44.025)" style="fill:#000;fill-opacity:1"><use y="247.218" x="367.308" xlink:href="#ah" width="100%" height="100%"/><use y="247.218" x="374.779" xlink:href="#t" width="100%" height="100%"/><use y="247.218" x="380.315" xlink:href="#L" width="100%" height="100%"/></g><g transform="matrix(.35278 0 0 .35278 -47.29 -44.025)" style="fill:#000;fill-opacity:1"><use y="247.218" x="388.629" xlink:href="#x" width="100%" height="100%"/><use y="247.218" x="392.504" xlink:href="#n" width="100%" height="100%"/><use y="247.218" x="398.039" xlink:href="#N" width="100%" height="100%"/><use y="247.218" x="400.807" xlink:href="#I" width="100%" height="100%"/></g><g transform="matrix(.35278 0 0 .35278 -47.29 -44.025)" style="fill:#000;fill-opacity:1"><use y="247.218" x="407.526" xlink:href="#N" width="100%" height="100%"/><use y="247.218" x="410.293" xlink:href="#I" width="100%" height="100%"/></g><g transform="matrix(.35278 0 0 .35278 -47.29 -44.025)" style="fill:#000;fill-opacity:1"><use y="247.218" x="417.002" xlink:href="#y" width="100%" height="100%"/><use y="247.218" x="421.983" xlink:href="#q" width="100%" height="100%"/><use y="247.218" x="424.751" xlink:href="#I" width="100%" height="100%"/><use y="247.218" x="428.68" xlink:href="#u" width="100%" height="100%"/></g><g transform="matrix(.35278 0 0 .35278 -47.29 -44.025)" style="fill:#000;fill-opacity:1"><use y="247.218" x="436.451" xlink:href="#x" width="100%" height="100%"/><use y="247.218" x="440.325" xlink:href="#n" width="100%" height="100%"/><use y="247.218" x="445.861" xlink:href="#o" width="100%" height="100%"/></g><g transform="matrix(.35278 0 0 .35278 -47.29 -44.025)" style="fill:#000;fill-opacity:1"><use y="247.218" x="453.068" xlink:href="#I" width="100%" height="100%"/><use y="247.218" x="456.997" xlink:href="#y" width="100%" height="100%"/><use y="247.218" x="461.978" xlink:href="#B" width="100%" height="100%"/><use y="247.218" x="470.28" xlink:href="#o" width="100%" height="100%"/><use y="247.218" x="474.707" xlink:href="#W" width="100%" height="100%"/></g><use y="250.871" x="133.768" xlink:href="#ae" width="100%" height="100%" transform="matrix(.35278 0 0 .35278 -47.29 -44.025)" style="fill:#000;fill-opacity:1"/><path d="M-148.832 81.898h9.638" style="fill:none;stroke:#000;stroke-width:.140406;stroke-linecap:butt;stroke-linejoin:miter;stroke-miterlimit:10;stroke-opacity:1" transform="translate(151.661 -37.492)"/><use y="259.173" x="142.071" xlink:href="#C" width="100%" height="100%" transform="matrix(.35278 0 0 .35278 -47.29 -44.025)" style="fill:#000;fill-opacity:1"/><use y="256.295" x="147.765" xlink:href="#D" width="100%" height="100%" transform="matrix(.35278 0 0 .35278 -47.29 -44.025)" style="fill:#000;fill-opacity:1"/><use y="259.173" x="154.448" xlink:href="#E" width="100%" height="100%" transform="matrix(.35278 0 0 .35278 -47.29 -44.025)" style="fill:#000;fill-opacity:1"/><use y="259.173" x="164.409" xlink:href="#af" width="100%" height="100%" transform="matrix(.35278 0 0 .35278 -47.29 -44.025)" style="fill:#000;fill-opacity:1"/><use y="259.173" x="172.717" xlink:href="#M" width="100%" height="100%" transform="matrix(.35278 0 0 .35278 -47.29 -44.025)" style="fill:#000;fill-opacity:1"/><g transform="matrix(.35278 0 0 .35278 -47.29 -44.025)" style="fill:#000;fill-opacity:1"><use y="259.173" x="178.243" xlink:href="#S" width="100%" height="100%"/><use y="259.173" x="183.778" xlink:href="#x" width="100%" height="100%"/></g><use y="259.173" x="190.98" xlink:href="#M" width="100%" height="100%" transform="matrix(.35278 0 0 .35278 -47.29 -44.025)" style="fill:#000;fill-opacity:1"/><use y="259.173" x="196.236" xlink:href="#w" width="100%" height="100%" transform="matrix(.35278 0 0 .35278 -47.29 -44.025)" style="fill:#000;fill-opacity:1"/><g transform="matrix(.35278 0 0 .35278 -47.29 -44.025)" style="fill:#000;fill-opacity:1"><use y="259.173" x="204.812" xlink:href="#S" width="100%" height="100%"/><use y="259.173" x="210.347" xlink:href="#I" width="100%" height="100%"/><use y="259.173" x="214.276" xlink:href="#N" width="100%" height="100%"/><use y="259.173" x="217.044" xlink:href="#t" width="100%" height="100%"/><use y="259.173" x="222.579" xlink:href="#z" width="100%" height="100%"/></g><g transform="matrix(.35278 0 0 .35278 -47.29 -44.025)" style="fill:#000;fill-opacity:1"><use y="259.173" x="230.888" xlink:href="#y" width="100%" height="100%"/><use y="259.173" x="235.869" xlink:href="#t" width="100%" height="100%"/><use y="259.173" x="241.405" xlink:href="#u" width="100%" height="100%"/><use y="259.173" x="246.386" xlink:href="#x" width="100%" height="100%"/><use y="259.173" x="250.26" xlink:href="#n" width="100%" height="100%"/></g><use y="259.173" x="255.786" xlink:href="#o" width="100%" height="100%" transform="matrix(.35278 0 0 .35278 -47.29 -44.025)" style="fill:#000;fill-opacity:1"/><use y="259.173" x="260.223" xlink:href="#A" width="100%" height="100%" transform="matrix(.35278 0 0 .35278 -47.29 -44.025)" style="fill:#000;fill-opacity:1"/><g transform="matrix(.35278 0 0 .35278 -47.29 -44.025)" style="fill:#000;fill-opacity:1"><use y="259.173" x="267.443" xlink:href="#ai" width="100%" height="100%"/><use y="259.173" x="271.87" xlink:href="#u" width="100%" height="100%"/><use y="259.173" x="276.851" xlink:href="#B" width="100%" height="100%"/><use y="259.173" x="285.153" xlink:href="#B" width="100%" height="100%"/><use y="259.173" x="293.455" xlink:href="#y" width="100%" height="100%"/><use y="259.173" x="298.436" xlink:href="#t" width="100%" height="100%"/><use y="259.173" x="303.972" xlink:href="#L" width="100%" height="100%"/><use y="259.173" x="309.507" xlink:href="#ag" width="100%" height="100%"/></g><g transform="matrix(.35278 0 0 .35278 -47.29 -44.025)" style="fill:#000;fill-opacity:1"><use y="271.128" x="148.712" xlink:href="#m" width="100%" height="100%"/><use y="271.128" x="155.907" xlink:href="#n" width="100%" height="100%"/><use y="271.128" x="161.442" xlink:href="#N" width="100%" height="100%"/><use y="271.128" x="164.21" xlink:href="#I" width="100%" height="100%"/></g><g transform="matrix(.35278 0 0 .35278 -47.29 -44.025)" style="fill:#000;fill-opacity:1"><use y="271.128" x="171.457" xlink:href="#N" width="100%" height="100%"/><use y="271.128" x="174.224" xlink:href="#I" width="100%" height="100%"/></g><use y="271.128" x="181.481" xlink:href="#y" width="100%" height="100%" transform="matrix(.35278 0 0 .35278 -47.29 -44.025)" style="fill:#000;fill-opacity:1"/><g transform="matrix(.35278 0 0 .35278 -47.29 -44.025)" style="fill:#000;fill-opacity:1"><use y="271.128" x="189.78" xlink:href="#I" width="100%" height="100%"/><use y="271.128" x="193.709" xlink:href="#N" width="100%" height="100%"/><use y="271.128" x="196.477" xlink:href="#B" width="100%" height="100%"/><use y="271.128" x="204.779" xlink:href="#J" width="100%" height="100%"/><use y="271.128" x="210.314" xlink:href="#q" width="100%" height="100%"/><use y="271.128" x="213.081" xlink:href="#o" width="100%" height="100%"/></g><g transform="matrix(.35278 0 0 .35278 -47.29 -44.025)" style="fill:#000;fill-opacity:1"><use y="271.128" x="220.826" xlink:href="#B" width="100%" height="100%"/><use y="271.128" x="229.128" xlink:href="#y" width="100%" height="100%"/><use y="271.128" x="234.109" xlink:href="#x" width="100%" height="100%"/><use y="271.128" x="237.984" xlink:href="#n" width="100%" height="100%"/></g><g transform="matrix(.35278 0 0 .35278 -47.29 -44.025)" style="fill:#000;fill-opacity:1"><use y="271.128" x="246.847" xlink:href="#o" width="100%" height="100%"/><use y="271.128" x="251.274" xlink:href="#P" width="100%" height="100%"/><use y="271.128" x="256.532" xlink:href="#J" width="100%" height="100%"/><use y="271.128" x="262.067" xlink:href="#A" width="100%" height="100%"/><use y="271.128" x="265.97" xlink:href="#o" width="100%" height="100%"/><use y="271.128" x="270.397" xlink:href="#I" width="100%" height="100%"/><use y="271.128" x="274.326" xlink:href="#I" width="100%" height="100%"/><use y="271.128" x="278.256" xlink:href="#N" width="100%" height="100%"/><use y="271.128" x="281.023" xlink:href="#u" width="100%" height="100%"/><use y="271.128" x="286.005" xlink:href="#t" width="100%" height="100%"/></g><g transform="matrix(.35278 0 0 .35278 -47.29 -44.025)" style="fill:#000;fill-opacity:1"><use y="271.128" x="294.857" xlink:href="#p" width="100%" height="100%"/><use y="271.128" x="302.052" xlink:href="#N" width="100%" height="100%"/><use y="271.128" x="304.82" xlink:href="#x" width="100%" height="100%"/><use y="271.128" x="308.694" xlink:href="#n" width="100%" height="100%"/><use y="271.128" x="314.23" xlink:href="#u" width="100%" height="100%"/><use y="271.128" x="319.211" xlink:href="#S" width="100%" height="100%"/><use y="271.128" x="324.746" xlink:href="#x" width="100%" height="100%"/></g><use y="271.128" x="331.938" xlink:href="#t" width="100%" height="100%" transform="matrix(.35278 0 0 .35278 -47.29 -44.025)" style="fill:#000;fill-opacity:1"/><g transform="matrix(.35278 0 0 .35278 -47.29 -44.025)" style="fill:#000;fill-opacity:1"><use y="271.128" x="337.204" xlink:href="#S" width="100%" height="100%"/><use y="271.128" x="342.74" xlink:href="#B" width="100%" height="100%"/></g><use y="271.128" x="350.762" xlink:href="#M" width="100%" height="100%" transform="matrix(.35278 0 0 .35278 -47.29 -44.025)" style="fill:#000;fill-opacity:1"/><g transform="matrix(.35278 0 0 .35278 -47.29 -44.025)" style="fill:#000;fill-opacity:1"><use y="271.128" x="356.577" xlink:href="#o" width="100%" height="100%"/><use y="271.128" x="361.004" xlink:href="#A" width="100%" height="100%"/><use y="271.128" x="364.906" xlink:href="#N" width="100%" height="100%"/><use y="271.128" x="367.674" xlink:href="#t" width="100%" height="100%"/></g><use y="271.128" x="373.199" xlink:href="#z" width="100%" height="100%" transform="matrix(.35278 0 0 .35278 -47.29 -44.025)" style="fill:#000;fill-opacity:1"/><use y="284.821" x="286.982" xlink:href="#aj" width="100%" height="100%" transform="matrix(.35278 0 0 .35278 -47.29 -44.025)" style="fill:#000;fill-opacity:1"/><path d="M-94.195 93.875h9.638" style="fill:none;stroke:#000;stroke-width:.140406;stroke-linecap:butt;stroke-linejoin:miter;stroke-miterlimit:10;stroke-opacity:1" transform="translate(151.661 -37.492)"/><use y="294.606" x="296.945" xlink:href="#C" width="100%" height="100%" transform="matrix(.35278 0 0 .35278 -47.29 -44.025)" style="fill:#000;fill-opacity:1"/><use y="291.728" x="302.639" xlink:href="#D" width="100%" height="100%" transform="matrix(.35278 0 0 .35278 -47.29 -44.025)" style="fill:#000;fill-opacity:1"/><use y="294.606" x="309.322" xlink:href="#E" width="100%" height="100%" transform="matrix(.35278 0 0 .35278 -47.29 -44.025)" style="fill:#000;fill-opacity:1"/><use y="294.606" x="319.283" xlink:href="#af" width="100%" height="100%" transform="matrix(.35278 0 0 .35278 -47.29 -44.025)" style="fill:#000;fill-opacity:1"/><g transform="matrix(.35278 0 0 .35278 -47.29 -44.025)" style="fill:#000;fill-opacity:1"><use y="316.524" x="133.768" xlink:href="#I" width="100%" height="100%"/><use y="316.524" x="137.697" xlink:href="#o" width="100%" height="100%"/><use y="316.524" x="142.125" xlink:href="#J" width="100%" height="100%"/><use y="316.524" x="147.66" xlink:href="#y" width="100%" height="100%"/><use y="316.524" x="152.641" xlink:href="#A" width="100%" height="100%"/><use y="316.524" x="156.543" xlink:href="#y" width="100%" height="100%"/><use y="316.524" x="161.525" xlink:href="#x" width="100%" height="100%"/><use y="316.524" x="165.399" xlink:href="#o" width="100%" height="100%"/><use y="316.524" x="169.827" xlink:href="#L" width="100%" height="100%"/></g><g transform="matrix(.35278 0 0 .35278 -47.29 -44.025)" style="fill:#000;fill-opacity:1"><use y="316.524" x="178.679" xlink:href="#O" width="100%" height="100%"/><use y="316.524" x="181.724" xlink:href="#A" width="100%" height="100%"/><use y="316.524" x="185.626" xlink:href="#u" width="100%" height="100%"/><use y="316.524" x="190.608" xlink:href="#B" width="100%" height="100%"/></g><g transform="matrix(.35278 0 0 .35278 -47.29 -44.025)" style="fill:#000;fill-opacity:1"><use y="316.524" x="202.237" xlink:href="#x" width="100%" height="100%"/><use y="316.524" x="206.111" xlink:href="#o" width="100%" height="100%"/><use y="316.524" x="210.539" xlink:href="#P" width="100%" height="100%"/><use y="316.524" x="215.797" xlink:href="#x" width="100%" height="100%"/><use y="316.524" x="219.672" xlink:href="#ag" width="100%" height="100%"/></g><g transform="matrix(.35278 0 0 .35278 -47.29 -44.025)" style="fill:#000;fill-opacity:1"><use y="328.479" x="148.712" xlink:href="#m" width="100%" height="100%"/><use y="328.479" x="155.907" xlink:href="#n" width="100%" height="100%"/><use y="328.479" x="161.442" xlink:href="#N" width="100%" height="100%"/><use y="328.479" x="164.21" xlink:href="#I" width="100%" height="100%"/></g><g transform="matrix(.35278 0 0 .35278 -47.29 -44.025)" style="fill:#000;fill-opacity:1"><use y="328.479" x="171.457" xlink:href="#N" width="100%" height="100%"/><use y="328.479" x="174.224" xlink:href="#I" width="100%" height="100%"/></g><g transform="matrix(.35278 0 0 .35278 -47.29 -44.025)" style="fill:#000;fill-opacity:1"><use y="328.479" x="181.481" xlink:href="#y" width="100%" height="100%"/><use y="328.479" x="186.462" xlink:href="#q" width="100%" height="100%"/><use y="328.479" x="189.23" xlink:href="#I" width="100%" height="100%"/><use y="328.479" x="193.159" xlink:href="#u" width="100%" height="100%"/></g><g transform="matrix(.35278 0 0 .35278 -47.29 -44.025)" style="fill:#000;fill-opacity:1"><use y="328.479" x="201.458" xlink:href="#x" width="100%" height="100%"/><use y="328.479" x="205.332" xlink:href="#n" width="100%" height="100%"/><use y="328.479" x="210.868" xlink:href="#o" width="100%" height="100%"/></g><g transform="matrix(.35278 0 0 .35278 -47.29 -44.025)" style="fill:#000;fill-opacity:1"><use y="328.479" x="218.613" xlink:href="#I" width="100%" height="100%"/><use y="328.479" x="222.542" xlink:href="#y" width="100%" height="100%"/><use y="328.479" x="227.523" xlink:href="#B" width="100%" height="100%"/></g><g transform="matrix(.35278 0 0 .35278 -47.29 -44.025)" style="fill:#000;fill-opacity:1"><use y="328.479" x="235.835" xlink:href="#o" width="100%" height="100%"/><use y="328.479" x="240.262" xlink:href="#W" width="100%" height="100%"/></g><use y="330.65" x="286.982" xlink:href="#aj" width="100%" height="100%" transform="matrix(.35278 0 0 .35278 -47.29 -44.025)" style="fill:#000;fill-opacity:1"/><path d="M-94.195 110.042h9.638" style="fill:none;stroke:#000;stroke-width:.140406;stroke-linecap:butt;stroke-linejoin:miter;stroke-miterlimit:10;stroke-opacity:1" transform="translate(151.661 -37.492)"/><use y="340.434" x="296.945" xlink:href="#C" width="100%" height="100%" transform="matrix(.35278 0 0 .35278 -47.29 -44.025)" style="fill:#000;fill-opacity:1"/><use y="337.556" x="302.639" xlink:href="#D" width="100%" height="100%" transform="matrix(.35278 0 0 .35278 -47.29 -44.025)" style="fill:#000;fill-opacity:1"/><use y="340.434" x="309.322" xlink:href="#E" width="100%" height="100%" transform="matrix(.35278 0 0 .35278 -47.29 -44.025)" style="fill:#000;fill-opacity:1"/><use y="340.434" x="319.283" xlink:href="#af" width="100%" height="100%" transform="matrix(.35278 0 0 .35278 -47.29 -44.025)" style="fill:#000;fill-opacity:1"/><use y="358.367" x="148.712" xlink:href="#ag" width="100%" height="100%" transform="matrix(.35278 0 0 .35278 -47.29 -44.025)" style="fill:#000;fill-opacity:1"/><use y="358.367" x="153.143" xlink:href="#ag" width="100%" height="100%" transform="matrix(.35278 0 0 .35278 -47.29 -44.025)" style="fill:#000;fill-opacity:1"/><use y="358.367" x="157.565" xlink:href="#ag" width="100%" height="100%" transform="matrix(.35278 0 0 .35278 -47.29 -44.025)" style="fill:#000;fill-opacity:1"/><g transform="matrix(.35278 0 0 .35278 -47.29 -44.025)" style="fill:#000;fill-opacity:1"><use y="358.367" x="161.996" xlink:href="#y" width="100%" height="100%"/><use y="358.367" x="166.977" xlink:href="#t" width="100%" height="100%"/><use y="358.367" x="172.513" xlink:href="#L" width="100%" height="100%"/></g><g transform="matrix(.35278 0 0 .35278 -47.29 -44.025)" style="fill:#000;fill-opacity:1"><use y="358.367" x="181.365" xlink:href="#x" width="100%" height="100%"/><use y="358.367" x="185.24" xlink:href="#n" width="100%" height="100%"/><use y="358.367" x="190.775" xlink:href="#N" width="100%" height="100%"/><use y="358.367" x="193.543" xlink:href="#I" width="100%" height="100%"/><use y="358.367" x="197.472" xlink:href="#W" width="100%" height="100%"/></g><use y="360.537" x="286.982" xlink:href="#aj" width="100%" height="100%" transform="matrix(.35278 0 0 .35278 -47.29 -44.025)" style="fill:#000;fill-opacity:1"/><path d="M-94.195 120.587h9.638" style="fill:none;stroke:#000;stroke-width:.140406;stroke-linecap:butt;stroke-linejoin:miter;stroke-miterlimit:10;stroke-opacity:1" transform="translate(151.661 -37.492)"/><use y="370.322" x="296.945" xlink:href="#C" width="100%" height="100%" transform="matrix(.35278 0 0 .35278 -47.29 -44.025)" style="fill:#000;fill-opacity:1"/><use y="367.444" x="302.639" xlink:href="#D" width="100%" height="100%" transform="matrix(.35278 0 0 .35278 -47.29 -44.025)" style="fill:#000;fill-opacity:1"/><use y="370.322" x="309.322" xlink:href="#E" width="100%" height="100%" transform="matrix(.35278 0 0 .35278 -47.29 -44.025)" style="fill:#000;fill-opacity:1"/><use y="370.322" x="319.283" xlink:href="#af" width="100%" height="100%" transform="matrix(.35278 0 0 .35278 -47.29 -44.025)" style="fill:#000;fill-opacity:1"/></svg>