<svg xmlns="http://www.w3.org/2000/svg" xmlns:xlink="http://www.w3.org/1999/xlink" viewBox="0 0 121.086 43.945" height="166.09" width="457.647"><defs><symbol overflow="visible" id="a"><path style="stroke:none" d="M4.39-6.031c-.093-.25-.234-.25-.39-.25s-.297 0-.39.25L1.343-.641C1.28-.5 1.28-.5 1.047-.469a5.055 5.055 0 0 1-.469.031H.391V0C.89-.016 1-.031 1.484-.031c.344 0 .625 0 1.188.031v-.438c-.235 0-.547 0-.797-.093l.5-1.188h2.484l.532 1.282h-.844V0c.312-.031 1.219-.031 1.594-.031s1.14 0 1.468.031v-.438H6.75Zm-.78 1.36 1.046 2.515H2.563Zm0 0"/></symbol><symbol overflow="visible" id="b"><path style="stroke:none" d="m1.969-6.219-1.594.063v.437c.531 0 .61 0 .61.36V0h.453l.421-.516c.282.297.72.563 1.36.563 1.406 0 2.312-.844 2.312-2.031 0-1.22-.875-2.047-2.187-2.047-.719 0-1.203.297-1.375.422zm.062 3.11a1.553 1.553 0 0 1 1.203-.563c1.11 0 1.11 1.078 1.11 1.656 0 .391 0 .844-.188 1.172-.297.5-.843.531-1.031.531-.547 0-.906-.328-1.094-.625zm0 0"/></symbol><symbol overflow="visible" id="c"><path style="stroke:none" d="M3.563-3.797c0-.172 0-.265-.188-.265-.078 0-.234.078-.39.156-.282-.125-.641-.156-.938-.156-.266 0-1.703 0-1.703 1.187 0 .938 1.187 1.14 1.5 1.188.734.125 1.328.218 1.328.734 0 .64-.844.64-1.047.64-.453 0-1.047-.109-1.297-.937-.047-.156-.062-.172-.25-.172-.234 0-.234.047-.234.266v.953c0 .156 0 .25.187.25.063 0 .078 0 .281-.125l.235-.14c.422.265.906.265 1.078.265.266 0 1.703 0 1.703-1.297 0-.469-.265-.75-.422-.89-.406-.329-.687-.376-1.39-.5-.438-.063-1-.157-1-.563 0-.531.828-.531 1.03-.531 1 0 1.032.53 1.063.765 0 .125.125.125.22.125.218 0 .233-.047.233-.265zm0 0"/></symbol><symbol overflow="visible" id="d"><path style="stroke:none" d="M2-3.547h1.36v-.437H2v-1.704h-.453c-.016.829-.438 1.766-1.344 1.782v.36h.75v2.437c0 1.03.89 1.156 1.438 1.156.703 0 1.14-.5 1.14-1.156v-.47h-.469v.454c0 .625-.312.797-.546.797C2-.328 2-.875 2-1.078Zm0 0"/></symbol><symbol overflow="visible" id="e"><path style="stroke:none" d="M1.969-1.953c0-.656.25-1.703 1.11-1.719a.571.571 0 0 0-.142.39c0 .391.313.579.563.579.297 0 .578-.203.578-.578 0-.453-.469-.75-1-.75-.625 0-1 .453-1.203.968h-.016v-.968L.375-3.97v.438c.531 0 .61 0 .61.36v2.733h-.61V0c.656-.031.703-.031 1.14-.031.22 0 .75 0 1.22.031v-.438h-.766Zm0 0"/></symbol><symbol overflow="visible" id="f"><path style="stroke:none" d="M4.344-2.672c0-.797-.657-1.39-2.032-1.39-.515 0-1.656.015-1.656.843a.56.56 0 0 0 .578.594c.313 0 .594-.219.594-.578 0-.266-.156-.422-.187-.453.093-.016.312-.047.64-.047.64 0 1.016.328 1.016 1.031v.281c-1.5 0-3 .391-3 1.391C.297-.11 1.422.047 2.063.047c.687 0 1.14-.281 1.39-.703 0 .219 0 .656.953.656h.453c.157 0 .282 0 .282-.219 0-.218-.141-.218-.22-.218-.577-.016-.577-.094-.577-.313ZM3.297-1.25c0 .938-1.047.938-1.078.938-.453 0-.844-.282-.844-.688 0-.297.172-1 1.922-1.078zm0 0"/></symbol><symbol overflow="visible" id="g"><path style="stroke:none" d="M4.406-1.047c0-.14-.125-.14-.234-.14-.172 0-.172.015-.25.171-.172.438-.578.688-1.11.688-1.265 0-1.265-1.297-1.265-1.703 0-.531 0-1.64 1.172-1.64.078 0 .562 0 .562.046 0 .016-.031.031-.031.047a.602.602 0 0 0-.125.375c0 .36.281.578.594.578a.569.569 0 0 0 .578-.594c0-.844-1.25-.844-1.61-.844C.97-4.063.345-2.968.345-1.983c0 1.125.812 2.03 2.297 2.03.343 0 .78-.046 1.156-.28.515-.313.61-.782.61-.813zm0 0"/></symbol><symbol overflow="visible" id="h"><path style="stroke:none" d="M6.14-6.078H.517L.328-4.047h.25c.125-1.484.313-1.75 1.656-1.75.172 0 .422 0 .516.016.172.047.172.125.172.36V-.72c0 .313 0 .438-.938.438h-.359V0c.328-.031 1.313-.031 1.703-.031.39 0 1.375 0 1.688.031v-.281h-.344c-.938 0-.938-.125-.938-.438v-4.703c0-.234 0-.312.188-.36.094-.015.328-.015.484-.015 1.36 0 1.532.266 1.657 1.75h.25zm0 0"/></symbol><symbol overflow="visible" id="i"><path style="stroke:none" d="m1.64-6.219-1.327.094v.281c.609 0 .687.063.687.5v4.657c0 .406-.094.406-.688.406V0c.422-.016.594-.031 1.032-.031.422 0 .547.015 1.015.031v-.281c-.593 0-.687 0-.687-.406v-1.641c0-.953.672-1.406 1.234-1.406.531 0 .64.437.64.968v2.079c0 .406-.093.406-.687.406V0c.422-.016.594-.031 1.032-.031.421 0 .546.015 1.015.031v-.281c-.453 0-.687 0-.687-.281v-1.72c0-.734 0-1-.25-1.312-.203-.25-.547-.375-1-.375-.594 0-1.047.313-1.313.828h-.015Zm0 0"/></symbol><symbol overflow="visible" id="j"><path style="stroke:none" d="m1.656-3.969-1.297.11v.265c.579 0 .657.063.657.5v2.406c0 .407-.094.407-.688.407V0c.39-.016.594-.031.984-.031.141 0 .516 0 .954.031v-.281c-.579 0-.61-.047-.61-.39zm.016-1.562a.477.477 0 0 0-.484-.485.497.497 0 0 0-.485.485c0 .265.219.484.485.484a.468.468 0 0 0 .484-.484zm0 0"/></symbol><symbol overflow="visible" id="k"><path style="stroke:none" d="M3.078-3.781c0-.156 0-.235-.094-.235-.046 0-.062 0-.187.11-.016.015-.094.094-.156.14-.266-.203-.547-.25-.86-.25-1.187 0-1.468.657-1.468 1.11 0 .281.124.515.328.719.296.28.64.343 1.093.421.47.094.61.11.813.266.094.078.312.25.312.578 0 .797-.906.797-1.03.797-.907 0-1.141-.766-1.25-1.25-.032-.094-.048-.14-.141-.14-.126 0-.126.077-.126.234v1.14c0 .157 0 .235.094.235.063 0 .063 0 .235-.172a1.18 1.18 0 0 1 .171-.219c.375.375.797.39 1.016.39 1.11 0 1.484-.64 1.484-1.234 0-.406-.171-.656-.374-.859-.297-.297-.626-.36-1.282-.484-.234-.047-.89-.157-.89-.672 0-.281.203-.672 1.015-.672.969 0 1.032.75 1.047.969.016.109.016.171.125.171.125 0 .125-.062.125-.234zm0 0"/></symbol><symbol overflow="visible" id="l"><path style="stroke:none" d="M3.063-.64c.046.374.312.687.703.687.218 0 .78-.125.78-.844v-.5h-.25v.484c0 .11 0 .547-.327.547-.313 0-.313-.421-.313-.562v-1.578c0-.516 0-.813-.406-1.188-.328-.297-.766-.422-1.219-.422-.75 0-1.375.375-1.375.954 0 .265.188.421.422.421a.394.394 0 0 0 .406-.406c0-.39-.39-.437-.406-.437.25-.235.688-.313.938-.313.453 0 .968.344.968 1.14v.282c-.484.031-1.156.063-1.75.36-.656.312-.843.78-.843 1.14 0 .734.859.969 1.468.969.735 0 1.079-.485 1.204-.735zm-.079-.626c0 .875-.671 1.141-1.062 1.141-.422 0-.813-.313-.813-.75 0-.594.5-1.219 1.875-1.281zm0 0"/></symbol><symbol overflow="visible" id="m"><path style="stroke:none" d="M1.672-2.328c0-.969.703-1.406 1.234-1.406.5 0 .656.343.656.968v2.079c0 .406-.093.406-.687.406V0c.422-.016.594-.031 1.016-.031.437 0 .546.015 1.03.031v-.281c-.593 0-.702 0-.702-.406v-1.641c0-.969.703-1.406 1.25-1.406.484 0 .64.343.64.968v2.079c0 .406-.093.406-.687.406V0c.422-.016.594-.031 1.031-.031.422 0 .547.015 1.016.031v-.281c-.453 0-.672 0-.688-.281v-1.72c0-.78 0-1.03-.297-1.359-.187-.218-.546-.328-.953-.328-.656 0-1.093.375-1.343.86-.11-.532-.47-.86-1.22-.86-.718 0-1.155.469-1.343.89h-.016v-.89l-1.296.11v.265c.609 0 .687.063.687.516v2.39C1-.28.906-.28.312-.28V0c.422-.016.594-.031 1.032-.031.422 0 .547.015 1.015.031v-.281c-.593 0-.687 0-.687-.406zm0 0"/></symbol><symbol overflow="visible" id="n"><path style="stroke:none" d="M1.625-3.016a1.368 1.368 0 0 1 1.172-.703c.703 0 1.234.813 1.234 1.781 0 1.016-.61 1.813-1.328 1.813-.406 0-.75-.234-.969-.547-.109-.187-.109-.203-.109-.375Zm0 2.579c.234.234.531.53 1.125.53 1.078 0 2.063-.859 2.063-2.03 0-1.125-.891-2.032-1.938-2.032-.484 0-.938.203-1.281.563v-.563l-1.328.11v.265c.64 0 .687.063.687.453v4.188c0 .422-.094.422-.687.422v.265c.421-.015.593-.015 1.03-.015.423 0 .548 0 1.016.015V1.47c-.593 0-.687 0-.687-.422zm0 0"/></symbol><symbol overflow="visible" id="o"><path style="stroke:none" d="m1.656-6.219-1.328.094v.281c.61 0 .688.063.688.5v4.657c0 .406-.094.406-.688.406V0c.422-.016.594-.031 1-.031.422 0 .578.015 1.016.031v-.281c-.594 0-.688 0-.688-.406zm0 0"/></symbol><symbol overflow="visible" id="p"><path style="stroke:none" d="M3.594-2.047c.187 0 .234 0 .234-.203 0-.922-.5-1.766-1.656-1.766-1.063 0-1.906.938-1.906 2.047 0 1.172.937 2.063 2.03 2.063 1.095 0 1.532-.953 1.532-1.157a.123.123 0 0 0-.125-.125c-.094 0-.11.063-.125.11a1.273 1.273 0 0 1-1.234.922c-.438 0-.797-.235-1-.547-.297-.438-.313-.969-.313-1.344zm-2.547-.219c.078-1.39.875-1.53 1.125-1.53.5 0 1.031.374 1.047 1.53zm0 0"/></symbol><symbol overflow="visible" id="q"><path style="stroke:none" d="M1.594-2.047c0-.375.093-1.687 1.125-1.687-.016.015-.156.125-.156.328a.39.39 0 1 0 .78 0c0-.281-.265-.563-.671-.563-.531 0-.906.375-1.125.938v-.938l-1.281.11v.265c.609 0 .687.063.687.516v2.39C.953-.28.86-.28.266-.28V0C.75-.016.859-.031 1.312-.031c.36 0 .579.015 1.141.031v-.281h-.172c-.656 0-.687-.094-.687-.422zm0 0"/></symbol><symbol overflow="visible" id="r"><path style="stroke:none" d="M1.125-1.61c.219.141.5.282.906.282.86 0 1.5-.61 1.5-1.313 0-.437-.25-.75-.36-.875.36-.328.782-.328.876-.328-.031.031-.11.078-.11.235 0 .109.063.265.266.265.125 0 .266-.078.266-.265a.457.457 0 0 0-.485-.454c-.25 0-.656.094-.968.422a1.541 1.541 0 0 0-.97-.328c-.858 0-1.5.61-1.5 1.328 0 .454.266.782.407.907a1.262 1.262 0 0 0-.265.75c0 .296.14.625.39.78C.625-.046.266.282.266.704c0 .64.875 1.14 2.03 1.14 1.11 0 2.048-.468 2.048-1.155 0-.375-.172-.766-.5-.985-.5-.312-1.031-.312-1.875-.312-.188 0-.469 0-.547-.016C1.172-.688 1-.922 1-1.203c0-.156.047-.281.125-.406zm.906.048c-.797 0-.797-.891-.797-1.079 0-.25.016-.546.172-.765a.792.792 0 0 1 .625-.313c.813 0 .813.86.813 1.078 0 .204 0 1.079-.813 1.079zm.422 1.515c.281 0 1.39.016 1.39.735 0 .515-.702.921-1.53.921-.891 0-1.547-.421-1.547-.921 0-.141.093-.735.859-.735zm0 0"/></symbol><symbol overflow="visible" id="s"><path style="stroke:none" d="M2.922-3.594v-.265H1.609v-1.657h-.25c0 .75-.312 1.672-1.187 1.704v.218h.781v2.485c0 1 .719 1.203 1.203 1.203.594 0 .906-.563.906-1.203v-.516h-.25v.484c0 .672-.28.985-.593.985-.61 0-.61-.781-.61-.953v-2.485Zm0 0"/></symbol><symbol overflow="visible" id="t"><path style="stroke:none" d="M1.625-2.86c0-.171 0-.187.094-.328.312-.406.75-.546 1.093-.546.376 0 .735.203.97.593.234.375.25.907.25 1.188 0 .422-.048.906-.282 1.266-.203.28-.563.562-1.047.562-.39 0-.734-.219-.953-.547-.125-.187-.125-.203-.125-.375ZM1.547-.546c.281.39.719.64 1.203.64 1.078 0 2.063-.859 2.063-2.03 0-1.125-.891-2.032-1.97-2.032-.609 0-1.03.313-1.25.563V-6.22l-1.327.094v.281c.609 0 .687.063.687.5V0h.25zm0 0"/></symbol><symbol overflow="visible" id="u"><path style="stroke:none" d="M1.672-2.328c0-.953.672-1.406 1.234-1.406.531 0 .64.437.64.968v2.079c0 .406-.093.406-.687.406V0c.422-.016.594-.031 1.032-.031.421 0 .546.015 1.015.031v-.281c-.453 0-.687 0-.687-.281v-1.72c0-.734 0-1-.25-1.312-.203-.25-.547-.375-1-.375-.828 0-1.219.625-1.344.875h-.016v-.875l-1.296.11v.265c.609 0 .687.063.687.516v2.39C1-.28.906-.28.312-.28V0c.422-.016.594-.031 1.032-.031.422 0 .547.015 1.015.031v-.281c-.593 0-.687 0-.687-.406zm0 0"/></symbol><symbol overflow="visible" id="v"><path style="stroke:none" d="M4.344-1.906c0-1.172-.938-2.11-2.032-2.11-1.14 0-2.046.954-2.046 2.11 0 1.11.921 2 2.03 2 1.142 0 2.048-.906 2.048-2zM2.312-.156c-.453 0-.828-.219-1.03-.563-.235-.39-.25-.86-.25-1.265 0-.344 0-.844.218-1.22a1.222 1.222 0 0 1 1.047-.593c.515 0 .875.297 1.062.594.204.375.204.828.204 1.219 0 .328 0 .843-.22 1.234a1.18 1.18 0 0 1-1.03.594zm0 0"/></symbol><symbol overflow="visible" id="w"><path style="stroke:none" d="M2.688-3.594v-.265H1.625v-1.016c0-.813.438-1.219.828-1.219.078 0 .172.016.266.047-.094.031-.235.14-.235.375 0 .234.172.39.391.39.25 0 .406-.171.406-.405 0-.344-.344-.641-.828-.641-.703 0-1.437.531-1.437 1.437v1.032H.312v.265h.704v2.906c0 .407-.094.407-.688.407V0c.469-.016.594-.031 1.047-.031.36 0 .578.015 1.14.031v-.281h-.187c-.656 0-.672-.094-.672-.422v-2.89Zm0 0"/></symbol><symbol overflow="visible" id="x"><path style="stroke:none" d="M3.484-1.078c0 .156 0 .187-.125.375a1.3 1.3 0 0 1-1.046.578c-.391 0-.75-.219-.985-.594-.234-.39-.25-.906-.25-1.203 0-.422.047-.89.281-1.25a1.262 1.262 0 0 1 1.047-.562c.375 0 .735.187.969.53.11.142.11.142.11.313zm.032-2.36c-.047-.046-.454-.53-1.141-.53-1.11 0-2.063.89-2.063 2.046 0 1.11.891 2.016 1.954 2.016A1.59 1.59 0 0 0 3.484-.47v.563L4.844 0v-.281c-.61 0-.688-.063-.688-.5V-6.22l-1.328.094v.281c.61 0 .688.063.688.5zm0 0"/></symbol><symbol overflow="visible" id="y"><path style="stroke:none" d="M3.266-3.531c-.188.047-.375.172-.375.422a.42.42 0 0 0 .421.421c.235 0 .422-.156.422-.437 0-.547-.625-.89-1.421-.89-1.141 0-2 .952-2 2.077C.313-.78 1.234.095 2.296.095c1.25 0 1.531-1.078 1.531-1.157 0-.109-.094-.109-.125-.109-.094 0-.094.016-.156.172-.203.61-.703.844-1.156.844-.579 0-1.313-.469-1.313-1.797 0-1.39.719-1.813 1.25-1.813.125 0 .61.016.938.235zm0 0"/></symbol><symbol overflow="visible" id="z"><path style="stroke:none" d="M3.547-1.5c0 .797-.438 1.375-1.094 1.375-.734 0-.781-.39-.781-.875v-2.969l-1.36.11v.265c.688 0 .688.031.688.828v1.344c0 .594 0 .969.422 1.281.25.172.625.235.984.235.469 0 .906-.203 1.156-.735h.016v.735L4.906 0v-.281c-.61 0-.687-.063-.687-.5V-3.97l-1.36.11v.265c.61 0 .688.063.688.516zm0 0"/></symbol><symbol overflow="visible" id="A"><path style="stroke:none" d="M1.766-.484A.487.487 0 0 0 1.28-.97a.477.477 0 0 0-.484.485C.797-.22 1 0 1.28 0a.487.487 0 0 0 .485-.484Zm0 0"/></symbol><symbol overflow="visible" id="B"><path style="stroke:none" d="M3.672-6.234c-.047-.11-.078-.188-.219-.188-.14 0-.156.047-.219.203L1.313-.89c-.11.297-.313.61-1 .61V0c.328-.031.578-.031.906-.031.312 0 .515.015 1.015.031v-.281c-.515 0-.671-.281-.671-.453 0-.079.03-.125.046-.172l.422-1.156h2.313l.484 1.359c.047.078.047.11.047.156 0 .266-.5.266-.734.266V0c.406-.031.875-.031 1.28-.031.407 0 .438 0 1.173.031v-.281h-.14c-.563 0-.657-.078-.75-.328zm.578 3.89H2.125L3.188-5.28zm0 0"/></symbol><symbol overflow="visible" id="C"><path style="stroke:none" d="m1.953-3.969-1.39.11v.265c.671 0 .75.063.75.516V.453C1.313.72 1.28 1.61.671 1.61c-.031 0-.266 0-.469-.109.281-.078.281-.328.281-.39A.394.394 0 0 0 .078.702c-.266 0-.422.172-.422.422 0 .469.516.719 1.031.719.704 0 1.266-.594 1.266-1.407zm0-1.562a.487.487 0 0 0-.484-.485.487.487 0 0 0-.485.485c0 .281.22.484.485.484a.477.477 0 0 0 .484-.484zm0 0"/></symbol><symbol overflow="visible" id="D"><path style="stroke:none" d="M3.969-6.938c-.047-.125-.078-.203-.235-.203-.156 0-.187.063-.234.204L1.437-.984C1.25-.47.86-.313.313-.313V0c.235-.016.672-.031 1.016-.031.313 0 .828.015 1.156.031v-.313c-.5 0-.75-.25-.75-.5 0-.03.016-.14.016-.156l.469-1.297h2.453L5.203-.75a.58.58 0 0 1 .031.14c0 .297-.562.297-.828.297V0c.36-.031 1.063-.031 1.438-.031.422 0 .89.015 1.297.031v-.313h-.172c-.594 0-.735-.062-.844-.39Zm-.531 1.11 1.124 3.25H2.329Zm0 0"/></symbol><symbol overflow="visible" id="E"><path style="stroke:none" d="M1.75-4.297v-1.156c0-.875.469-1.36.906-1.36.031 0 .188 0 .328.079a.443.443 0 0 0-.296.421c0 .22.156.422.437.422s.438-.203.438-.437c0-.375-.376-.703-.907-.703-.687 0-1.547.531-1.547 1.593v1.141H.33v.313h.78V-.75c0 .438-.109.438-.765.438V0c.39-.016.86-.031 1.125-.031.406 0 .875 0 1.265.031v-.313h-.203c-.734 0-.75-.109-.75-.468v-3.203h1.125v-.313zm0 0"/></symbol><symbol overflow="visible" id="F"><path style="stroke:none" d="M1.719-3.984h1.437v-.313H1.72v-1.828h-.25c0 .813-.297 1.875-1.282 1.922v.219h.844v2.75c0 1.218.938 1.343 1.297 1.343.703 0 .985-.703.985-1.343v-.563h-.25v.547c0 .734-.297 1.11-.672 1.11-.672 0-.672-.907-.672-1.079zm0 0"/></symbol><symbol overflow="visible" id="G"><path style="stroke:none" d="M1.11-2.516C1.171-4 2.015-4.25 2.36-4.25c1.015 0 1.124 1.344 1.124 1.734zm0 .22h2.78c.22 0 .25 0 .25-.22 0-.984-.546-1.953-1.78-1.953C1.202-4.469.28-3.437.28-2.187.281-.86 1.328.108 2.47.108 3.688.11 4.14-1 4.14-1.187c0-.094-.079-.125-.141-.125-.078 0-.11.062-.125.14C3.531-.14 2.625-.14 2.531-.14c-.5 0-.89-.296-1.125-.671-.297-.47-.297-1.125-.297-1.485zm0 0"/></symbol><symbol overflow="visible" id="H"><path style="stroke:none" d="M1.672-3.313v-1.093l-1.39.11v.312c.702 0 .78.062.78.562V-.75c0 .438-.109.438-.78.438V0c.39-.016.859-.031 1.14-.031.39 0 .86 0 1.266.031v-.313h-.22c-.734 0-.75-.109-.75-.468v-1.531c0-.985.423-1.876 1.173-1.876.062 0 .093 0 .109.016-.031 0-.234.125-.234.39 0 .266.218.423.437.423a.421.421 0 0 0 .422-.438c0-.312-.313-.61-.734-.61-.735 0-1.094.673-1.22 1.095zm0 0"/></symbol><symbol overflow="visible" id="I"><path style="stroke:none" d="M4.688-2.14c0-1.266-.985-2.329-2.188-2.329C1.25-4.469.281-3.375.281-2.14A2.22 2.22 0 0 0 2.484.11c1.204 0 2.204-.984 2.204-2.25zM2.5-.14c-.438 0-.875-.204-1.14-.672-.25-.438-.25-1.047-.25-1.407 0-.39 0-.922.234-1.36a1.347 1.347 0 0 1 1.14-.671c.438 0 .86.219 1.125.656.266.422.266 1 .266 1.375 0 .36 0 .906-.219 1.344-.234.453-.672.734-1.156.734Zm0 0"/></symbol><symbol overflow="visible" id="J"><path style="stroke:none" d="M3.89-.781v.89L5.329 0v-.313c-.687 0-.766-.062-.766-.562v-3.531l-1.468.11v.312c.687 0 .781.062.781.562v1.766c0 .875-.484 1.547-1.219 1.547-.828 0-.875-.47-.875-.985v-3.312l-1.468.11v.312c.78 0 .78.03.78.906v1.5c0 .781 0 1.687 1.516 1.687.563 0 1-.28 1.282-.89zm0 0"/></symbol><symbol overflow="visible" id="K"><path style="stroke:none" d="M3.313-.75c.046.39.312.813.78.813.22 0 .829-.141.829-.954v-.562h-.25v.562c0 .579-.25.641-.36.641-.328 0-.375-.453-.375-.5v-1.984c0-.422 0-.813-.359-1.188-.39-.39-.89-.547-1.36-.547-.827 0-1.515.469-1.515 1.125 0 .297.203.469.469.469a.435.435 0 0 0 .453-.453c0-.125-.047-.453-.516-.453.282-.36.766-.469 1.079-.469.5 0 1.062.39 1.062 1.281v.36c-.516.03-1.203.062-1.828.359-.75.344-1 .86-1 1.297 0 .812.969 1.062 1.594 1.062.656 0 1.109-.406 1.296-.859zM3.25-2.39v1c0 .937-.719 1.28-1.172 1.28-.484 0-.89-.343-.89-.843 0-.547.421-1.375 2.062-1.438zm0 0"/></symbol><symbol overflow="visible" id="L"><path style="stroke:none" d="M1.719-3.766v-3.156l-1.438.11v.312c.703 0 .781.063.781.563V0h.25c0-.016.079-.156.36-.625.14.234.562.734 1.297.734 1.187 0 2.219-.984 2.219-2.265 0-1.266-.97-2.25-2.11-2.25-.781 0-1.203.468-1.36.64zM1.75-1.14v-2.046c0-.188 0-.204.11-.36.39-.562.937-.64 1.171-.64.453 0 .813.265 1.047.64.266.406.281.969.281 1.39 0 .36-.015.954-.296 1.407-.22.313-.594.64-1.125.64-.454 0-.813-.234-1.047-.609-.141-.203-.141-.234-.141-.422Zm0 0"/></symbol><symbol overflow="visible" id="M"><path style="stroke:none" d="M2.078-1.938c.219.047 1.031.204 1.031.922 0 .5-.343.907-1.125.907-.843 0-1.203-.563-1.39-1.422-.031-.125-.031-.157-.14-.157-.126 0-.126.063-.126.235v1.328c0 .172 0 .234.11.234C.483.11.5.094.688-.094.703-.109.703-.125.89-.312c.437.406.89.421 1.093.421 1.141 0 1.61-.671 1.61-1.39 0-.516-.297-.828-.422-.938-.328-.328-.719-.406-1.14-.484-.563-.11-1.22-.235-1.22-.813 0-.359.25-.765 1.11-.765 1.094 0 1.156.906 1.172 1.203 0 .094.094.094.11.094.14 0 .14-.047.14-.235v-1.015c0-.157 0-.235-.11-.235-.046 0-.078 0-.203.125-.031.032-.125.125-.172.157-.375-.282-.78-.282-.937-.282-1.219 0-1.594.672-1.594 1.235 0 .343.156.625.422.843.328.25.61.313 1.328.454zm0 0"/></symbol><symbol overflow="visible" id="N"><path style="stroke:none" d="M1.172-2.172c0-1.625.812-2.047 1.344-2.047.093 0 .718.016 1.062.375-.406.031-.469.328-.469.453 0 .266.188.454.454.454.265 0 .468-.157.468-.47 0-.671-.765-1.062-1.531-1.062C1.25-4.469.344-3.39.344-2.156c0 1.281.984 2.265 2.14 2.265 1.329 0 1.657-1.203 1.657-1.296 0-.094-.11-.094-.141-.094-.078 0-.11.031-.125.093C3.594-.265 2.937-.14 2.578-.14c-.531 0-1.406-.421-1.406-2.03zm0 0"/></symbol><symbol overflow="visible" id="O"><path style="stroke:none" d="M6.172-3.344c.172-.5.484-.64.844-.64v-.313c-.235.016-.516.031-.735.031-.297 0-.734-.015-.922-.03v.312c.36 0 .579.187.579.468 0 .063 0 .094-.063.22L4.969-.75l-.985-2.781c-.03-.125-.046-.14-.046-.188 0-.265.39-.265.593-.265v-.313c-.297.016-.797.031-1.047.031-.296 0-.578-.015-.875-.03v.312c.36 0 .516.015.625.14.047.063.157.36.22.547L2.608-.875l-.953-2.656c-.047-.125-.047-.14-.047-.188 0-.265.391-.265.579-.265v-.313c-.297.016-.86.031-1.079.031-.046 0-.578-.015-.937-.03v.312c.5 0 .625.03.75.343l1.25 3.532c.047.14.078.218.203.218.14 0 .156-.062.203-.203l1.016-2.812L4.609-.078c.032.11.063.187.204.187.125 0 .156-.093.187-.187zm0 0"/></symbol><symbol overflow="visible" id="P"><path style="stroke:none" d="M1.094-3.422V-.75c0 .438-.11.438-.782.438V0c.36-.016.86-.031 1.141-.031.25 0 .766.015 1.11.031v-.313c-.672 0-.782 0-.782-.437v-1.844c0-1.031.719-1.594 1.344-1.594.64 0 .75.532.75 1.11V-.75c0 .438-.11.438-.781.438V0c.344-.016.86-.031 1.125-.031.25 0 .781.015 1.11.031v-.313c-.516 0-.766 0-.766-.296v-1.907c0-.859 0-1.156-.313-1.515-.14-.172-.469-.375-1.047-.375-.734 0-1.203.422-1.484 1.047v-1.047l-1.407.11v.312c.704 0 .782.062.782.562zm0 0"/></symbol><symbol overflow="visible" id="Q"><path style="stroke:none" d="M2.219-1.719c-.875 0-.875-1-.875-1.218 0-.266.015-.594.156-.844.078-.11.313-.39.719-.39.86 0 .86.984.86 1.218 0 .265 0 .594-.157.844-.078.109-.313.39-.703.39Zm-1.156.39c0-.03 0-.265.156-.468.39.281.812.313 1 .313.922 0 1.61-.688 1.61-1.454 0-.374-.157-.734-.407-.968.36-.344.719-.39.89-.39.032 0 .079 0 .11.015-.11.031-.172.14-.172.265 0 .172.14.282.297.282a.28.28 0 0 0 .281-.297c0-.172-.11-.485-.5-.485-.203 0-.64.063-1.062.47a1.652 1.652 0 0 0-1.047-.36c-.938 0-1.625.687-1.625 1.453 0 .437.219.812.469 1.031-.125.14-.313.469-.313.828 0 .313.14.688.453.89-.61.157-.922.595-.922.985 0 .719.985 1.266 2.203 1.266 1.172 0 2.204-.5 2.204-1.281 0-.344-.125-.86-.641-1.141-.531-.266-1.11-.266-1.719-.266-.25 0-.672 0-.75-.015-.312-.047-.516-.344-.516-.672ZM2.5 1.829C1.484 1.828.797 1.312.797.781c0-.453.375-.828.812-.844h.594c.86 0 1.969 0 1.969.844 0 .547-.703 1.047-1.672 1.047zm0 0"/></symbol><symbol overflow="visible" id="R"><path style="stroke:none" d="m1.766-4.406-1.391.11v.312c.64 0 .734.062.734.546V-.75c0 .438-.109.438-.78.438V0c.312-.016.859-.031 1.093-.031.36 0 .703.015 1.047.031v-.313c-.672 0-.703-.046-.703-.437zm.03-1.735a.514.514 0 0 0-.515-.53.537.537 0 0 0-.531.53c0 .266.219.532.531.532a.514.514 0 0 0 .516-.532zm0 0"/></symbol><symbol overflow="visible" id="S"><path style="stroke:none" d="M1.094-.75c0 .438-.11.438-.782.438V0c.36-.016.86-.031 1.141-.031.25 0 .766.015 1.11.031v-.313c-.672 0-.782 0-.782-.437v-1.844c0-1.031.719-1.594 1.344-1.594.64 0 .75.532.75 1.11V-.75c0 .438-.11.438-.781.438V0c.344-.016.86-.031 1.125-.031.25 0 .781.015 1.11.031v-.313c-.516 0-.766 0-.766-.296v-1.907c0-.859 0-1.156-.313-1.515-.14-.172-.469-.375-1.047-.375-.844 0-1.281.593-1.453.984v-3.5l-1.438.11v.312c.704 0 .782.063.782.563zm0 0"/></symbol><symbol overflow="visible" id="T"><path style="stroke:none" d="M3.297-3.984c.453 0 .515.125.515.53V-.75c0 .438-.109.438-.765.438V0c.328-.016.844-.031 1.094-.031.25 0 .75.015 1.109.031v-.313c-.672 0-.781 0-.781-.437v-3.672l-1.25.094c-.156.016-.172.016-.172.016-.031.015-.047.015-.188.015H1.688v-1.125c0-.984.859-1.39 1.468-1.39.297 0 .656.109.86.328-.407.03-.47.296-.47.468 0 .329.267.454.454.454.234 0 .453-.157.453-.454 0-.593-.547-1.015-1.281-1.015-.922 0-2.11.515-2.11 1.593v1.141H.266v.313h.796V-.75c0 .438-.109.438-.78.438V0c.327-.016.859-.031 1.109-.031S2.125-.016 2.5 0v-.313c-.672 0-.781 0-.781-.437v-3.234zm0 0"/></symbol><symbol overflow="visible" id="U"><path style="stroke:none" d="M1.719-3.75v-.656l-1.438.11v.312c.703 0 .781.062.781.5v4.656c0 .453-.109.453-.78.453v.313c.343-.016.859-.032 1.109-.032.28 0 .78.016 1.125.032v-.313c-.657 0-.766 0-.766-.453V-.594c.047.172.469.703 1.219.703 1.187 0 2.219-.984 2.219-2.265 0-1.266-.954-2.25-2.079-2.25-.78 0-1.203.437-1.39.656zm.031 2.61v-2.22c.281-.515.766-.796 1.281-.796.735 0 1.328.875 1.328 2C4.36-.953 3.672-.11 2.938-.11c-.407 0-.782-.204-1.047-.61-.141-.203-.141-.219-.141-.422Zm0 0"/></symbol><symbol overflow="visible" id="V"><path style="stroke:none" d="M2.031-.016c0-.625-.25-1.046-.64-1.046-.36 0-.532.28-.532.53 0 .266.172.532.532.532a.578.578 0 0 0 .375-.14l.015-.016c.016 0 .016 0 .016.14 0 .641-.266 1.25-.703 1.72-.063.062-.078.077-.078.109 0 .078.046.109.093.109.125 0 .922-.781.922-1.938zm0 0"/></symbol><symbol overflow="visible" id="W"><path style="stroke:none" d="M2.719-4.453c0-.266-.172-.531-.531-.531a.582.582 0 0 0-.407.156.034.034 0 0 1-.031.031c-.016 0-.016-.14-.016-.172 0-.328.063-1.047.704-1.656.109-.125.109-.14.109-.172 0-.078-.047-.11-.094-.11-.11 0-.937.75-.937 1.938 0 .594.234 1.047.671 1.047a.525.525 0 0 0 .532-.531zm1.922 0c0-.266-.172-.531-.532-.531a.57.57 0 0 0-.39.156c-.016.016-.016.031-.031.031-.016 0-.016-.14-.016-.172 0-.328.062-1.047.687-1.656.125-.125.125-.14.125-.172 0-.078-.046-.11-.093-.11-.11 0-.938.75-.938 1.938 0 .594.235 1.047.656 1.047.36 0 .532-.281.532-.531zm0 0"/></symbol><symbol overflow="visible" id="X"><path style="stroke:none" d="M1.531-5.875c0-.594-.25-1.047-.672-1.047a.517.517 0 0 0-.53.531c0 .266.171.532.53.532.204 0 .344-.11.391-.157.016-.03.031-.03.031-.03.032 0 .032.14.032.171 0 .328-.079 1.047-.704 1.656-.125.125-.125.14-.125.172 0 .063.047.11.11.11.11 0 .937-.75.937-1.938zm1.922 0c0-.594-.234-1.047-.656-1.047-.36 0-.531.266-.531.531 0 .266.171.532.53.532.188 0 .329-.11.392-.157.015-.03.015-.03.03-.03.016 0 .016.14.016.171a2.28 2.28 0 0 1-.687 1.656c-.125.125-.125.14-.125.172 0 .063.047.11.094.11.109 0 .937-.75.937-1.938zm0 0"/></symbol><symbol overflow="visible" id="Y"><path style="stroke:none" d="M3.781-.547V.11L5.25 0v-.313c-.688 0-.781-.062-.781-.562v-6.047l-1.422.11v.312c.687 0 .765.063.765.563v2.156a1.582 1.582 0 0 0-1.25-.625c-1.171 0-2.218.984-2.218 2.265 0 1.266.969 2.25 2.11 2.25.64 0 1.077-.343 1.327-.656zm0-2.672v2.047c0 .172 0 .188-.11.36-.296.484-.733.703-1.171.703-.453 0-.813-.266-1.047-.641-.25-.406-.281-.969-.281-1.39 0-.36.016-.954.297-1.407.218-.312.593-.64 1.14-.64.344 0 .766.156 1.063.593.11.172.11.188.11.375zm0 0"/></symbol><symbol overflow="visible" id="Z"><path style="stroke:none" d="M1.906-.531a.534.534 0 0 0-.515-.531.537.537 0 0 0-.532.53.524.524 0 1 0 1.047 0Zm0 0"/></symbol><symbol overflow="visible" id="aa"><path style="stroke:none" d="M6.64-6.75H.548L.359-4.5h.25C.75-6.11.891-6.438 2.406-6.438c.172 0 .438 0 .531.016.22.047.22.156.22.375V-.78c0 .328 0 .469-1.048.469h-.406V0c.406-.031 1.422-.031 1.89-.031.454 0 1.485 0 1.891.031v-.313h-.406c-1.047 0-1.047-.14-1.047-.468v-5.266c0-.187 0-.328.188-.375.11-.016.375-.016.562-.016 1.516 0 1.657.329 1.797 1.938h.25zm0 0"/></symbol><symbol overflow="visible" id="ab"><path style="stroke:none" d="m1.766-6.922-1.438.11v.312c.703 0 .781.063.781.563V-.75c0 .438-.109.438-.78.438V0c.327-.016.859-.031 1.109-.031s.734.015 1.109.031v-.313c-.672 0-.781 0-.781-.437zm0 0"/></symbol><symbol overflow="visible" id="ac"><path style="stroke:none" d="M2.25-6.031c0-.36.016-.469.813-.469h.25v-.313c-.344.032-1.126.032-1.516.032-.375 0-1.172 0-1.516-.032v.313h.25c.797 0 .828.11.828.469v5.25c0 .36-.03.469-.828.469h-.25V0c.344-.031 1.14-.031 1.516-.031.39 0 1.172 0 1.516.031v-.313h-.25c-.797 0-.813-.109-.813-.468Zm0 0"/></symbol><symbol overflow="visible" id="ad"><path style="stroke:none" d="M1.094-3.422V-.75c0 .438-.11.438-.782.438V0c.36-.016.86-.031 1.141-.031.25 0 .766.015 1.11.031v-.313c-.672 0-.782 0-.782-.437v-1.844c0-1.031.719-1.594 1.344-1.594.64 0 .75.532.75 1.11V-.75c0 .438-.11.438-.781.438V0c.344-.016.86-.031 1.125-.031.25 0 .781.015 1.11.031v-.313c-.657 0-.766 0-.766-.437v-1.844c0-1.031.703-1.594 1.343-1.594.625 0 .735.532.735 1.11V-.75c0 .438-.11.438-.782.438V0c.344-.016.86-.031 1.125-.031.266 0 .782.015 1.125.031v-.313c-.515 0-.765 0-.78-.296v-1.907c0-.859 0-1.156-.313-1.515-.141-.172-.47-.375-1.047-.375-.828 0-1.282.593-1.438.984-.14-.875-.875-.984-1.328-.984-.734 0-1.203.422-1.484 1.047v-1.047l-1.407.11v.312c.704 0 .782.062.782.562zm0 0"/></symbol><symbol overflow="visible" id="ae"><path style="stroke:none" d="M1.063-.75c0 .438-.11.438-.782.438V0c.328-.016.797-.031 1.078-.031.313 0 .704.015 1.11.031v-.313c-.672 0-.781 0-.781-.437v-1.031l.64-.547c.766 1.047 1.188 1.61 1.188 1.797 0 .187-.172.219-.36.219V0c.266-.016.86-.031 1.078-.031.282 0 .579.015.86.031v-.313c-.375 0-.594 0-.969-.53L2.859-2.626c-.015-.016-.062-.078-.062-.11 0-.03.719-.64.812-.718.625-.5 1.047-.531 1.25-.531v-.313c-.28.031-.406.031-.687.031-.36 0-.984-.015-1.125-.03v.312c.187 0 .297.109.297.25 0 .203-.14.312-.219.39L1.719-2.14v-4.78L.28-6.813v.312c.703 0 .781.063.781.563zm0 0"/></symbol><symbol overflow="visible" id="af"><path style="stroke:none" d="M2.86-2.344c.296-.375.671-.86.921-1.125.313-.36.719-.515 1.188-.515v-.313c-.266.016-.563.031-.828.031-.297 0-.829-.015-.954-.03v.312c.22.015.297.14.297.312 0 .156-.109.281-.156.344l-.61.781-.78-1.015c-.094-.094-.094-.11-.094-.172 0-.157.156-.25.343-.25v-.313c-.25.016-.906.031-1.078.031-.203 0-.671-.015-.937-.03v.312c.703 0 .703 0 1.172.609l.984 1.281-.937 1.188a1.566 1.566 0 0 1-1.266.594V0c.25-.016.563-.031.828-.031.281 0 .703.015.938.031v-.313c-.22-.03-.282-.156-.282-.312 0-.219.282-.547.891-1.266l.766 1c.078.11.203.266.203.329 0 .093-.094.25-.36.25V0c.297-.016.86-.031 1.079-.031.265 0 .656.015.953.031v-.313c-.532 0-.72-.015-.938-.312zm0 0"/></symbol><symbol overflow="visible" id="ag"><path style="stroke:none" d="M4.14-3.313c.094-.234.266-.671.923-.671v-.313c-.235.016-.516.031-.75.031-.235 0-.688-.015-.86-.03v.312c.36 0 .469.234.469.421 0 .094-.016.141-.047.25L2.844-.78l-1.11-2.781c-.062-.126-.062-.141-.062-.172 0-.25.39-.25.578-.25v-.313c-.313.016-.86.031-1.094.031-.265 0-.672-.015-.968-.03v.312c.625 0 .671.062.796.359L2.422-.078c.062.14.078.187.203.187.14 0 .172-.093.219-.187zm0 0"/></symbol><symbol overflow="visible" id="ah"><path style="stroke:none" d="M4.14-3.344c.25-.64.766-.64.923-.64v-.313c-.235.016-.516.031-.75.031-.172 0-.641-.015-.86-.03v.312c.313 0 .469.171.469.421 0 .11-.016.126-.063.25L2.844-.874 1.75-3.547c-.047-.11-.063-.14-.063-.187 0-.25.36-.25.563-.25v-.313c-.266.016-.922.031-1.094.031-.265 0-.672-.015-.968-.03v.312c.484 0 .671 0 .812.343L2.5 0a6.764 6.764 0 0 0-.25.594c-.219.547-.5 1.234-1.14 1.234-.048 0-.282 0-.47-.187.313-.032.391-.25.391-.422C1.031.969.844.812.61.812c-.203 0-.421.125-.421.422 0 .454.421.813.921.813.625 0 1.032-.578 1.266-1.14zm0 0"/></symbol><symbol overflow="visible" id="ai"><path style="stroke:none" d="M1.281-6.656c-.062-.094-.14-.266-.36-.266-.187 0-.343.172-.343.36 0 .078.047.171.063.234L3.953.562c.047.094.125.266.344.266A.347.347 0 0 0 4.64.484a.655.655 0 0 0-.063-.25zm0 0"/></symbol><symbol overflow="visible" id="aj"><path style="stroke:none" d="M1.656-3.828c0-.313 0-.469-.406-.469H.531c-.156 0-.406 0-.406.313 0 .296.25.296.39.296H.97v3.079H.53c-.156 0-.406 0-.406.312 0 .297.25.297.39.297H2.11C2.25 0 2.5 0 2.5-.297c0-.312-.25-.312-.406-.312h-.438v-1.766c0-1 .735-1.375 1.25-1.375.516 0 .656.281.656.875v2.266h-.374c-.172 0-.422 0-.422.312 0 .297.28.297.421.297h1.516c.14 0 .406 0 .406-.297 0-.312-.25-.312-.421-.312H4.25v-2.313c0-1-.5-1.437-1.297-1.437-.656 0-1.11.343-1.297.53zm0 0"/></symbol><symbol overflow="visible" id="ak"><path style="stroke:none" d="M4.234-1.906c.204 0 .391 0 .391-.36 0-1.14-.64-2.125-1.938-2.125-1.187 0-2.14 1-2.14 2.235C.547-.953 1.562.063 2.844.063c1.312 0 1.781-.907 1.781-1.157 0-.265-.281-.265-.344-.265-.187 0-.265.03-.328.218-.219.5-.765.594-1.047.594-.75 0-1.484-.5-1.656-1.36zM1.266-2.5c.14-.734.734-1.281 1.421-1.281.516 0 1.141.25 1.235 1.281zm0 0"/></symbol><symbol overflow="visible" id="al"><path style="stroke:none" d="M4.563-3.688c.296 0 .5 0 .5-.312 0-.297-.235-.297-.422-.297H3.5c-.188 0-.422 0-.422.297 0 .313.235.313.422.313h.484l-.5 2.968a11.271 11.271 0 0 0-.296-1.125c-.172-.625-.204-.734-.563-.734-.094 0-.281 0-.39.219-.032.062-.438 1.437-.47 1.64H1.75l-.516-2.969h.485c.187 0 .422 0 .422-.296 0-.313-.235-.313-.422-.313H.579c-.173 0-.423 0-.423.297 0 .313.219.313.516.313l.594 3.343c.046.235.062.39.468.39.407 0 .422-.093.61-.702.25-.875.265-1.016.281-1.235h.016c.046.516.421 1.688.453 1.766.125.172.312.172.422.172.375 0 .406-.172.437-.39zm0 0"/></symbol><symbol overflow="visible" id="am"><path style="stroke:none" d="M2.953-5.688c0-.296-.047-.406-.39-.406H.984c-.156 0-.406 0-.406.313 0 .297.266.297.406.297h1.282V-.61H.984c-.156 0-.406 0-.406.312C.578 0 .844 0 .984 0H4.25c.156 0 .406 0 .406-.297 0-.312-.234-.312-.406-.312H2.953Zm0 0"/></symbol><symbol overflow="visible" id="an"><path style="stroke:none" d="M3.078-3.89c0-.313-.062-.407-.39-.407H1.266c-.157 0-.407 0-.407.297 0 .313.25.313.407.313H2.39V-.61H1.187c-.156 0-.406 0-.406.312 0 .297.25.297.406.297h2.938c.156 0 .406 0 .406-.297 0-.312-.25-.312-.406-.312H3.078Zm0-1.72a.49.49 0 0 0-.5-.484.49.49 0 0 0-.5.485c0 .28.219.5.5.5s.5-.22.5-.5zm0 0"/></symbol></defs><g style="fill:#000;fill-opacity:1" transform="matrix(.35278 0 0 .35278 -47.257 -45.326)"><use y="134.765" x="285.33" xlink:href="#a" width="100%" height="100%"/><use y="134.765" x="293.336" xlink:href="#b" width="100%" height="100%"/><use y="134.765" x="299.231" xlink:href="#c" width="100%" height="100%"/><use y="134.765" x="303.416" xlink:href="#d" width="100%" height="100%"/><use y="134.765" x="307.542" xlink:href="#e" width="100%" height="100%"/><use y="134.765" x="311.919" xlink:href="#f" width="100%" height="100%"/><use y="134.765" x="317.076" xlink:href="#g" width="100%" height="100%"/><use y="134.765" x="321.792" xlink:href="#d" width="100%" height="100%"/></g><g style="fill:#000;fill-opacity:1" transform="matrix(.35278 0 0 .35278 -47.257 -45.326)"><use y="150.381" x="172.498" xlink:href="#h" width="100%" height="100%"/><use y="150.381" x="179.154" xlink:href="#i" width="100%" height="100%"/><use y="150.381" x="184.274" xlink:href="#j" width="100%" height="100%"/><use y="150.381" x="186.833" xlink:href="#k" width="100%" height="100%"/></g><g style="fill:#000;fill-opacity:1" transform="matrix(.35278 0 0 .35278 -47.257 -45.326)"><use y="150.381" x="193.472" xlink:href="#j" width="100%" height="100%"/><use y="150.381" x="196.032" xlink:href="#k" width="100%" height="100%"/></g><use y="150.381" x="202.68" xlink:href="#l" width="100%" height="100%" style="fill:#000;fill-opacity:1" transform="matrix(.35278 0 0 .35278 -47.257 -45.326)"/><g style="fill:#000;fill-opacity:1" transform="matrix(.35278 0 0 .35278 -47.257 -45.326)"><use y="150.381" x="210.3" xlink:href="#k" width="100%" height="100%"/><use y="150.381" x="213.935" xlink:href="#j" width="100%" height="100%"/><use y="150.381" x="216.495" xlink:href="#m" width="100%" height="100%"/></g><g style="fill:#000;fill-opacity:1" transform="matrix(.35278 0 0 .35278 -47.257 -45.326)"><use y="150.381" x="224.166" xlink:href="#n" width="100%" height="100%"/><use y="150.381" x="229.286" xlink:href="#o" width="100%" height="100%"/><use y="150.381" x="231.846" xlink:href="#p" width="100%" height="100%"/></g><g style="fill:#000;fill-opacity:1" transform="matrix(.35278 0 0 .35278 -47.257 -45.326)"><use y="150.381" x="238.958" xlink:href="#n" width="100%" height="100%"/><use y="150.381" x="244.078" xlink:href="#l" width="100%" height="100%"/><use y="150.381" x="248.685" xlink:href="#q" width="100%" height="100%"/><use y="150.381" x="252.29" xlink:href="#l" width="100%" height="100%"/><use y="150.381" x="256.898" xlink:href="#r" width="100%" height="100%"/><use y="150.381" x="261.506" xlink:href="#q" width="100%" height="100%"/><use y="150.381" x="265.11" xlink:href="#l" width="100%" height="100%"/><use y="150.381" x="269.718" xlink:href="#n" width="100%" height="100%"/><use y="150.381" x="274.838" xlink:href="#i" width="100%" height="100%"/></g><g style="fill:#000;fill-opacity:1" transform="matrix(.35278 0 0 .35278 -47.257 -45.326)"><use y="150.381" x="282.961" xlink:href="#l" width="100%" height="100%"/><use y="150.381" x="287.569" xlink:href="#s" width="100%" height="100%"/></g><g style="fill:#000;fill-opacity:1" transform="matrix(.35278 0 0 .35278 -47.257 -45.326)"><use y="150.381" x="294.166" xlink:href="#s" width="100%" height="100%"/><use y="150.381" x="297.75" xlink:href="#i" width="100%" height="100%"/><use y="150.381" x="302.869" xlink:href="#p" width="100%" height="100%"/></g><use y="150.381" x="309.973" xlink:href="#t" width="100%" height="100%" style="fill:#000;fill-opacity:1" transform="matrix(.35278 0 0 .35278 -47.257 -45.326)"/><g style="fill:#000;fill-opacity:1" transform="matrix(.35278 0 0 .35278 -47.257 -45.326)"><use y="150.381" x="315.352" xlink:href="#p" width="100%" height="100%"/><use y="150.381" x="319.452" xlink:href="#r" width="100%" height="100%"/><use y="150.381" x="324.06" xlink:href="#j" width="100%" height="100%"/><use y="150.381" x="326.62" xlink:href="#u" width="100%" height="100%"/><use y="150.381" x="331.739" xlink:href="#u" width="100%" height="100%"/><use y="150.381" x="336.859" xlink:href="#j" width="100%" height="100%"/><use y="150.381" x="339.419" xlink:href="#u" width="100%" height="100%"/><use y="150.381" x="344.539" xlink:href="#r" width="100%" height="100%"/></g><g style="fill:#000;fill-opacity:1" transform="matrix(.35278 0 0 .35278 -47.257 -45.326)"><use y="150.381" x="352.151" xlink:href="#v" width="100%" height="100%"/><use y="150.381" x="356.758" xlink:href="#w" width="100%" height="100%"/></g><g style="fill:#000;fill-opacity:1" transform="matrix(.35278 0 0 .35278 -47.257 -45.326)"><use y="150.381" x="362.587" xlink:href="#s" width="100%" height="100%"/><use y="150.381" x="366.17" xlink:href="#i" width="100%" height="100%"/><use y="150.381" x="371.29" xlink:href="#p" width="100%" height="100%"/></g><g style="fill:#000;fill-opacity:1" transform="matrix(.35278 0 0 .35278 -47.257 -45.326)"><use y="150.381" x="378.393" xlink:href="#x" width="100%" height="100%"/><use y="150.381" x="383.513" xlink:href="#v" width="100%" height="100%"/></g><g style="fill:#000;fill-opacity:1" transform="matrix(.35278 0 0 .35278 -47.257 -45.326)"><use y="150.381" x="388.381" xlink:href="#y" width="100%" height="100%"/><use y="150.381" x="392.477" xlink:href="#z" width="100%" height="100%"/><use y="150.381" x="397.597" xlink:href="#m" width="100%" height="100%"/><use y="150.381" x="405.276" xlink:href="#p" width="100%" height="100%"/><use y="150.381" x="409.376" xlink:href="#u" width="100%" height="100%"/></g><g style="fill:#000;fill-opacity:1" transform="matrix(.35278 0 0 .35278 -47.257 -45.326)"><use y="150.381" x="414.236" xlink:href="#s" width="100%" height="100%"/><use y="150.381" x="417.82" xlink:href="#A" width="100%" height="100%"/></g><use y="150.381" x="424.459" xlink:href="#B" width="100%" height="100%" style="fill:#000;fill-opacity:1" transform="matrix(.35278 0 0 .35278 -47.257 -45.326)"/><g style="fill:#000;fill-opacity:1" transform="matrix(.35278 0 0 .35278 -47.257 -45.326)"><use y="150.381" x="434.373" xlink:href="#t" width="100%" height="100%"/><use y="150.381" x="439.493" xlink:href="#q" width="100%" height="100%"/><use y="150.381" x="443.098" xlink:href="#j" width="100%" height="100%"/><use y="150.381" x="445.658" xlink:href="#p" width="100%" height="100%"/><use y="150.381" x="449.757" xlink:href="#w" width="100%" height="100%"/></g><g style="fill:#000;fill-opacity:1" transform="matrix(.35278 0 0 .35278 -47.257 -45.326)"><use y="161.34" x="158.675" xlink:href="#j" width="100%" height="100%"/><use y="161.34" x="161.235" xlink:href="#u" width="100%" height="100%"/></g><g style="fill:#000;fill-opacity:1" transform="matrix(.35278 0 0 .35278 -47.257 -45.326)"><use y="161.34" x="166.095" xlink:href="#s" width="100%" height="100%"/><use y="161.34" x="169.679" xlink:href="#q" width="100%" height="100%"/><use y="161.34" x="173.283" xlink:href="#v" width="100%" height="100%"/></g><g style="fill:#000;fill-opacity:1" transform="matrix(.35278 0 0 .35278 -47.257 -45.326)"><use y="161.34" x="178.151" xlink:href="#x" width="100%" height="100%"/><use y="161.34" x="183.271" xlink:href="#z" width="100%" height="100%"/><use y="161.34" x="188.391" xlink:href="#y" width="100%" height="100%"/><use y="161.34" x="192.486" xlink:href="#s" width="100%" height="100%"/><use y="161.34" x="196.07" xlink:href="#j" width="100%" height="100%"/><use y="161.34" x="198.63" xlink:href="#v" width="100%" height="100%"/><use y="161.34" x="203.238" xlink:href="#u" width="100%" height="100%"/></g><g style="fill:#000;fill-opacity:1" transform="matrix(.35278 0 0 .35278 -47.257 -45.326)"><use y="161.34" x="211.424" xlink:href="#l" width="100%" height="100%"/><use y="161.34" x="216.032" xlink:href="#t" width="100%" height="100%"/></g><g style="fill:#000;fill-opacity:1" transform="matrix(.35278 0 0 .35278 -47.257 -45.326)"><use y="161.34" x="221.412" xlink:href="#v" width="100%" height="100%"/><use y="161.34" x="226.02" xlink:href="#z" width="100%" height="100%"/><use y="161.34" x="231.14" xlink:href="#s" width="100%" height="100%"/></g><g style="fill:#000;fill-opacity:1" transform="matrix(.35278 0 0 .35278 -47.257 -45.326)"><use y="161.34" x="237.79" xlink:href="#s" width="100%" height="100%"/><use y="161.34" x="241.374" xlink:href="#i" width="100%" height="100%"/><use y="161.34" x="246.494" xlink:href="#p" width="100%" height="100%"/></g><g style="fill:#000;fill-opacity:1" transform="matrix(.35278 0 0 .35278 -47.257 -45.326)"><use y="161.34" x="253.669" xlink:href="#m" width="100%" height="100%"/><use y="161.34" x="261.348" xlink:href="#l" width="100%" height="100%"/><use y="161.34" x="265.956" xlink:href="#j" width="100%" height="100%"/><use y="161.34" x="268.516" xlink:href="#u" width="100%" height="100%"/></g><g style="fill:#000;fill-opacity:1" transform="matrix(.35278 0 0 .35278 -47.257 -45.326)"><use y="161.34" x="276.711" xlink:href="#k" width="100%" height="100%"/><use y="161.34" x="280.346" xlink:href="#z" width="100%" height="100%"/><use y="161.34" x="285.466" xlink:href="#t" width="100%" height="100%"/></g><g style="fill:#000;fill-opacity:1" transform="matrix(.35278 0 0 .35278 -47.257 -45.326)"><use y="161.34" x="291.097" xlink:href="#C" width="100%" height="100%"/><use y="161.34" x="293.913" xlink:href="#p" width="100%" height="100%"/><use y="161.34" x="298.012" xlink:href="#y" width="100%" height="100%"/><use y="161.34" x="302.108" xlink:href="#s" width="100%" height="100%"/><use y="161.34" x="305.692" xlink:href="#A" width="100%" height="100%"/></g><g style="fill:#000;fill-opacity:1" transform="matrix(.35278 0 0 .35278 -47.257 -45.326)"><use y="179.273" x="148.712" xlink:href="#D" width="100%" height="100%"/><use y="179.273" x="156.184" xlink:href="#E" width="100%" height="100%"/><use y="179.273" x="159.229" xlink:href="#F" width="100%" height="100%"/><use y="179.273" x="163.103" xlink:href="#G" width="100%" height="100%"/><use y="179.273" x="167.53" xlink:href="#H" width="100%" height="100%"/></g><g style="fill:#000;fill-opacity:1" transform="matrix(.35278 0 0 .35278 -47.257 -45.326)"><use y="179.273" x="174.153" xlink:href="#I" width="100%" height="100%"/><use y="179.273" x="179.134" xlink:href="#J" width="100%" height="100%"/><use y="179.273" x="184.669" xlink:href="#H" width="100%" height="100%"/></g><g style="fill:#000;fill-opacity:1" transform="matrix(.35278 0 0 .35278 -47.257 -45.326)"><use y="179.273" x="191.291" xlink:href="#K" width="100%" height="100%"/><use y="179.273" x="196.272" xlink:href="#L" width="100%" height="100%"/><use y="179.273" x="201.808" xlink:href="#M" width="100%" height="100%"/><use y="179.273" x="205.737" xlink:href="#F" width="100%" height="100%"/><use y="179.273" x="209.611" xlink:href="#H" width="100%" height="100%"/><use y="179.273" x="213.514" xlink:href="#K" width="100%" height="100%"/><use y="179.273" x="218.495" xlink:href="#N" width="100%" height="100%"/><use y="179.273" x="222.922" xlink:href="#F" width="100%" height="100%"/></g><use y="179.273" x="229.517" xlink:href="#O" width="100%" height="100%" style="fill:#000;fill-opacity:1" transform="matrix(.35278 0 0 .35278 -47.257 -45.326)"/><use y="179.273" x="236.433" xlink:href="#G" width="100%" height="100%" style="fill:#000;fill-opacity:1" transform="matrix(.35278 0 0 .35278 -47.257 -45.326)"/><use y="179.273" x="243.58" xlink:href="#N" width="100%" height="100%" style="fill:#000;fill-opacity:1" transform="matrix(.35278 0 0 .35278 -47.257 -45.326)"/><g style="fill:#000;fill-opacity:1" transform="matrix(.35278 0 0 .35278 -47.257 -45.326)"><use y="179.273" x="248.017" xlink:href="#K" width="100%" height="100%"/><use y="179.273" x="252.999" xlink:href="#P" width="100%" height="100%"/></g><use y="179.273" x="261.254" xlink:href="#L" width="100%" height="100%" style="fill:#000;fill-opacity:1" transform="matrix(.35278 0 0 .35278 -47.257 -45.326)"/><g style="fill:#000;fill-opacity:1" transform="matrix(.35278 0 0 .35278 -47.257 -45.326)"><use y="179.273" x="267.058" xlink:href="#G" width="100%" height="100%"/><use y="179.273" x="271.485" xlink:href="#Q" width="100%" height="100%"/><use y="179.273" x="276.466" xlink:href="#R" width="100%" height="100%"/><use y="179.273" x="279.234" xlink:href="#P" width="100%" height="100%"/></g><g style="fill:#000;fill-opacity:1" transform="matrix(.35278 0 0 .35278 -47.257 -45.326)"><use y="179.273" x="287.489" xlink:href="#F" width="100%" height="100%"/><use y="179.273" x="291.363" xlink:href="#S" width="100%" height="100%"/><use y="179.273" x="296.899" xlink:href="#G" width="100%" height="100%"/></g><g style="fill:#000;fill-opacity:1" transform="matrix(.35278 0 0 .35278 -47.257 -45.326)"><use y="179.273" x="304.046" xlink:href="#T" width="100%" height="100%"/><use y="179.273" x="309.581" xlink:href="#H" width="100%" height="100%"/><use y="179.273" x="313.483" xlink:href="#M" width="100%" height="100%"/><use y="179.273" x="317.413" xlink:href="#F" width="100%" height="100%"/></g><g style="fill:#000;fill-opacity:1" transform="matrix(.35278 0 0 .35278 -47.257 -45.326)"><use y="179.273" x="324.007" xlink:href="#U" width="100%" height="100%"/><use y="179.273" x="329.542" xlink:href="#K" width="100%" height="100%"/><use y="179.273" x="334.523" xlink:href="#H" width="100%" height="100%"/><use y="179.273" x="338.426" xlink:href="#K" width="100%" height="100%"/><use y="179.273" x="343.407" xlink:href="#Q" width="100%" height="100%"/><use y="179.273" x="348.388" xlink:href="#H" width="100%" height="100%"/><use y="179.273" x="352.291" xlink:href="#K" width="100%" height="100%"/><use y="179.273" x="357.272" xlink:href="#U" width="100%" height="100%"/><use y="179.273" x="362.807" xlink:href="#S" width="100%" height="100%"/><use y="179.273" x="368.342" xlink:href="#V" width="100%" height="100%"/></g><g style="fill:#000;fill-opacity:1" transform="matrix(.35278 0 0 .35278 -47.257 -45.326)"><use y="179.273" x="373.949" xlink:href="#F" width="100%" height="100%"/><use y="179.273" x="377.824" xlink:href="#S" width="100%" height="100%"/><use y="179.273" x="383.359" xlink:href="#G" width="100%" height="100%"/><use y="179.273" x="387.786" xlink:href="#P" width="100%" height="100%"/></g><g style="fill:#000;fill-opacity:1" transform="matrix(.35278 0 0 .35278 -47.257 -45.326)"><use y="179.273" x="396.041" xlink:href="#U" width="100%" height="100%"/><use y="179.273" x="401.577" xlink:href="#H" width="100%" height="100%"/><use y="179.273" x="405.479" xlink:href="#G" width="100%" height="100%"/><use y="179.273" x="409.906" xlink:href="#M" width="100%" height="100%"/><use y="179.273" x="413.836" xlink:href="#M" width="100%" height="100%"/></g><g style="fill:#000;fill-opacity:1" transform="matrix(.35278 0 0 .35278 -47.257 -45.326)"><use y="179.273" x="420.495" xlink:href="#W" width="100%" height="100%"/><use y="179.273" x="425.476" xlink:href="#G" width="100%" height="100%"/><use y="179.273" x="429.903" xlink:href="#P" width="100%" height="100%"/></g><g style="fill:#000;fill-opacity:1" transform="matrix(.35278 0 0 .35278 -47.257 -45.326)"><use y="179.273" x="435.16" xlink:href="#F" width="100%" height="100%"/><use y="179.273" x="439.034" xlink:href="#G" width="100%" height="100%"/><use y="179.273" x="443.461" xlink:href="#H" width="100%" height="100%"/><use y="179.273" x="447.364" xlink:href="#X" width="100%" height="100%"/></g><use y="179.273" x="455.065" xlink:href="#F" width="100%" height="100%" style="fill:#000;fill-opacity:1" transform="matrix(.35278 0 0 .35278 -47.257 -45.326)"/><g style="fill:#000;fill-opacity:1" transform="matrix(.35278 0 0 .35278 -47.257 -45.326)"><use y="179.273" x="458.66" xlink:href="#O" width="100%" height="100%"/><use y="179.273" x="465.855" xlink:href="#R" width="100%" height="100%"/><use y="179.273" x="468.623" xlink:href="#N" width="100%" height="100%"/><use y="179.273" x="473.05" xlink:href="#G" width="100%" height="100%"/></g><g style="fill:#000;fill-opacity:1" transform="matrix(.35278 0 0 .35278 -47.257 -45.326)"><use y="191.228" x="133.768" xlink:href="#F" width="100%" height="100%"/><use y="191.228" x="137.642" xlink:href="#I" width="100%" height="100%"/></g><g style="fill:#000;fill-opacity:1" transform="matrix(.35278 0 0 .35278 -47.257 -45.326)"><use y="191.228" x="145.941" xlink:href="#M" width="100%" height="100%"/><use y="191.228" x="149.871" xlink:href="#F" width="100%" height="100%"/><use y="191.228" x="153.745" xlink:href="#K" width="100%" height="100%"/><use y="191.228" x="158.726" xlink:href="#H" width="100%" height="100%"/><use y="191.228" x="162.629" xlink:href="#F" width="100%" height="100%"/></g><g style="fill:#000;fill-opacity:1" transform="matrix(.35278 0 0 .35278 -47.257 -45.326)"><use y="191.228" x="169.831" xlink:href="#F" width="100%" height="100%"/><use y="191.228" x="173.705" xlink:href="#S" width="100%" height="100%"/><use y="191.228" x="179.24" xlink:href="#G" width="100%" height="100%"/></g><g style="fill:#000;fill-opacity:1" transform="matrix(.35278 0 0 .35278 -47.257 -45.326)"><use y="191.228" x="186.985" xlink:href="#M" width="100%" height="100%"/><use y="191.228" x="190.914" xlink:href="#G" width="100%" height="100%"/><use y="191.228" x="195.342" xlink:href="#N" width="100%" height="100%"/><use y="191.228" x="199.769" xlink:href="#I" width="100%" height="100%"/><use y="191.228" x="204.751" xlink:href="#P" width="100%" height="100%"/><use y="191.228" x="210.286" xlink:href="#Y" width="100%" height="100%"/></g><g style="fill:#000;fill-opacity:1" transform="matrix(.35278 0 0 .35278 -47.257 -45.326)"><use y="191.228" x="219.139" xlink:href="#I" width="100%" height="100%"/><use y="191.228" x="224.12" xlink:href="#P" width="100%" height="100%"/><use y="191.228" x="229.655" xlink:href="#G" width="100%" height="100%"/><use y="191.228" x="234.082" xlink:href="#Z" width="100%" height="100%"/></g><g style="fill:#000;fill-opacity:1" transform="matrix(.35278 0 0 .35278 -47.257 -45.326)"><use y="203.183" x="148.712" xlink:href="#aa" width="100%" height="100%"/><use y="203.183" x="155.907" xlink:href="#S" width="100%" height="100%"/><use y="203.183" x="161.442" xlink:href="#R" width="100%" height="100%"/><use y="203.183" x="164.21" xlink:href="#M" width="100%" height="100%"/></g><g style="fill:#000;fill-opacity:1" transform="matrix(.35278 0 0 .35278 -47.257 -45.326)"><use y="203.183" x="171.457" xlink:href="#ab" width="100%" height="100%"/><use y="203.183" x="174.224" xlink:href="#R" width="100%" height="100%"/><use y="203.183" x="176.992" xlink:href="#P" width="100%" height="100%"/><use y="203.183" x="182.527" xlink:href="#G" width="100%" height="100%"/></g><g style="fill:#000;fill-opacity:1" transform="matrix(.35278 0 0 .35278 -47.257 -45.326)"><use y="203.183" x="190.282" xlink:href="#O" width="100%" height="100%"/><use y="203.183" x="197.477" xlink:href="#R" width="100%" height="100%"/><use y="203.183" x="200.245" xlink:href="#ab" width="100%" height="100%"/><use y="203.183" x="203.012" xlink:href="#ab" width="100%" height="100%"/></g><g style="fill:#000;fill-opacity:1" transform="matrix(.35278 0 0 .35278 -47.257 -45.326)"><use y="203.183" x="209.097" xlink:href="#M" width="100%" height="100%"/><use y="203.183" x="213.027" xlink:href="#F" width="100%" height="100%"/><use y="203.183" x="216.901" xlink:href="#K" width="100%" height="100%"/><use y="203.183" x="221.882" xlink:href="#H" width="100%" height="100%"/><use y="203.183" x="225.785" xlink:href="#F" width="100%" height="100%"/></g><use y="203.183" x="232.977" xlink:href="#K" width="100%" height="100%" style="fill:#000;fill-opacity:1" transform="matrix(.35278 0 0 .35278 -47.257 -45.326)"/><g style="fill:#000;fill-opacity:1" transform="matrix(.35278 0 0 .35278 -47.257 -45.326)"><use y="203.183" x="241.285" xlink:href="#M" width="100%" height="100%"/><use y="203.183" x="245.215" xlink:href="#G" width="100%" height="100%"/><use y="203.183" x="249.642" xlink:href="#N" width="100%" height="100%"/><use y="203.183" x="254.069" xlink:href="#I" width="100%" height="100%"/><use y="203.183" x="259.051" xlink:href="#P" width="100%" height="100%"/><use y="203.183" x="264.586" xlink:href="#Y" width="100%" height="100%"/></g><g style="fill:#000;fill-opacity:1" transform="matrix(.35278 0 0 .35278 -47.257 -45.326)"><use y="203.183" x="273.439" xlink:href="#U" width="100%" height="100%"/><use y="203.183" x="278.974" xlink:href="#K" width="100%" height="100%"/><use y="203.183" x="283.955" xlink:href="#H" width="100%" height="100%"/><use y="203.183" x="287.858" xlink:href="#K" width="100%" height="100%"/><use y="203.183" x="292.839" xlink:href="#Q" width="100%" height="100%"/><use y="203.183" x="297.82" xlink:href="#H" width="100%" height="100%"/><use y="203.183" x="301.723" xlink:href="#K" width="100%" height="100%"/><use y="203.183" x="306.704" xlink:href="#U" width="100%" height="100%"/><use y="203.183" x="312.239" xlink:href="#S" width="100%" height="100%"/><use y="203.183" x="317.774" xlink:href="#Z" width="100%" height="100%"/></g><use y="215.139" x="148.712" xlink:href="#ac" width="100%" height="100%" style="fill:#000;fill-opacity:1" transform="matrix(.35278 0 0 .35278 -47.257 -45.326)"/><g style="fill:#000;fill-opacity:1" transform="matrix(.35278 0 0 .35278 -47.257 -45.326)"><use y="215.139" x="155.627" xlink:href="#O" width="100%" height="100%"/><use y="215.139" x="162.822" xlink:href="#R" width="100%" height="100%"/><use y="215.139" x="165.59" xlink:href="#ab" width="100%" height="100%"/><use y="215.139" x="168.357" xlink:href="#ab" width="100%" height="100%"/></g><g style="fill:#000;fill-opacity:1" transform="matrix(.35278 0 0 .35278 -47.257 -45.326)"><use y="215.139" x="174.452" xlink:href="#M" width="100%" height="100%"/><use y="215.139" x="178.382" xlink:href="#F" width="100%" height="100%"/><use y="215.139" x="182.256" xlink:href="#K" width="100%" height="100%"/><use y="215.139" x="187.237" xlink:href="#H" width="100%" height="100%"/><use y="215.139" x="191.14" xlink:href="#F" width="100%" height="100%"/></g><g style="fill:#000;fill-opacity:1" transform="matrix(.35278 0 0 .35278 -47.257 -45.326)"><use y="215.139" x="198.332" xlink:href="#F" width="100%" height="100%"/><use y="215.139" x="202.206" xlink:href="#S" width="100%" height="100%"/><use y="215.139" x="207.741" xlink:href="#G" width="100%" height="100%"/></g><g style="fill:#000;fill-opacity:1" transform="matrix(.35278 0 0 .35278 -47.257 -45.326)"><use y="215.139" x="215.486" xlink:href="#F" width="100%" height="100%"/><use y="215.139" x="219.361" xlink:href="#S" width="100%" height="100%"/><use y="215.139" x="224.896" xlink:href="#R" width="100%" height="100%"/><use y="215.139" x="227.664" xlink:href="#H" width="100%" height="100%"/><use y="215.139" x="231.566" xlink:href="#Y" width="100%" height="100%"/></g><use y="215.139" x="240.429" xlink:href="#U" width="100%" height="100%" style="fill:#000;fill-opacity:1" transform="matrix(.35278 0 0 .35278 -47.257 -45.326)"/><g style="fill:#000;fill-opacity:1" transform="matrix(.35278 0 0 .35278 -47.257 -45.326)"><use y="215.139" x="245.954" xlink:href="#K" width="100%" height="100%"/><use y="215.139" x="250.935" xlink:href="#H" width="100%" height="100%"/><use y="215.139" x="254.838" xlink:href="#K" width="100%" height="100%"/><use y="215.139" x="259.819" xlink:href="#Q" width="100%" height="100%"/><use y="215.139" x="264.8" xlink:href="#H" width="100%" height="100%"/><use y="215.139" x="268.703" xlink:href="#K" width="100%" height="100%"/><use y="215.139" x="273.684" xlink:href="#U" width="100%" height="100%"/><use y="215.139" x="279.219" xlink:href="#S" width="100%" height="100%"/></g><g style="fill:#000;fill-opacity:1" transform="matrix(.35278 0 0 .35278 -47.257 -45.326)"><use y="215.139" x="288.082" xlink:href="#K" width="100%" height="100%"/><use y="215.139" x="293.063" xlink:href="#P" width="100%" height="100%"/><use y="215.139" x="298.598" xlink:href="#Y" width="100%" height="100%"/></g><g style="fill:#000;fill-opacity:1" transform="matrix(.35278 0 0 .35278 -47.257 -45.326)"><use y="215.139" x="307.451" xlink:href="#F" width="100%" height="100%"/><use y="215.139" x="311.326" xlink:href="#S" width="100%" height="100%"/><use y="215.139" x="316.861" xlink:href="#G" width="100%" height="100%"/><use y="215.139" x="321.288" xlink:href="#P" width="100%" height="100%"/></g><g style="fill:#000;fill-opacity:1" transform="matrix(.35278 0 0 .35278 -47.257 -45.326)"><use y="215.139" x="330.141" xlink:href="#K" width="100%" height="100%"/><use y="215.139" x="335.122" xlink:href="#Y" width="100%" height="100%"/><use y="215.139" x="340.657" xlink:href="#Y" width="100%" height="100%"/></g><use y="227.094" x="133.768" xlink:href="#K" width="100%" height="100%" style="fill:#000;fill-opacity:1" transform="matrix(.35278 0 0 .35278 -47.257 -45.326)"/><g style="fill:#000;fill-opacity:1" transform="matrix(.35278 0 0 .35278 -47.257 -45.326)"><use y="227.094" x="142.416" xlink:href="#ad" width="100%" height="100%"/><use y="227.094" x="150.717" xlink:href="#K" width="100%" height="100%"/><use y="227.094" x="155.699" xlink:href="#P" width="100%" height="100%"/></g><g style="fill:#000;fill-opacity:1" transform="matrix(.35278 0 0 .35278 -47.257 -45.326)"><use y="227.094" x="160.955" xlink:href="#J" width="100%" height="100%"/><use y="227.094" x="166.49" xlink:href="#K" width="100%" height="100%"/><use y="227.094" x="171.471" xlink:href="#ab" width="100%" height="100%"/></g><g style="fill:#000;fill-opacity:1" transform="matrix(.35278 0 0 .35278 -47.257 -45.326)"><use y="227.094" x="177.905" xlink:href="#ab" width="100%" height="100%"/><use y="227.094" x="180.673" xlink:href="#R" width="100%" height="100%"/><use y="227.094" x="183.441" xlink:href="#P" width="100%" height="100%"/><use y="227.094" x="188.976" xlink:href="#G" width="100%" height="100%"/></g><g style="fill:#000;fill-opacity:1" transform="matrix(.35278 0 0 .35278 -47.257 -45.326)"><use y="227.094" x="197.069" xlink:href="#L" width="100%" height="100%"/><use y="227.094" x="202.605" xlink:href="#H" width="100%" height="100%"/><use y="227.094" x="206.507" xlink:href="#G" width="100%" height="100%"/><use y="227.094" x="210.934" xlink:href="#K" width="100%" height="100%"/><use y="227.094" x="215.916" xlink:href="#ae" width="100%" height="100%"/></g><g style="fill:#000;fill-opacity:1" transform="matrix(.35278 0 0 .35278 -47.257 -45.326)"><use y="227.094" x="224.84" xlink:href="#O" width="100%" height="100%"/><use y="227.094" x="232.035" xlink:href="#S" width="100%" height="100%"/><use y="227.094" x="237.57" xlink:href="#R" width="100%" height="100%"/><use y="227.094" x="240.338" xlink:href="#N" width="100%" height="100%"/></g><use y="227.094" x="244.486" xlink:href="#S" width="100%" height="100%" style="fill:#000;fill-opacity:1" transform="matrix(.35278 0 0 .35278 -47.257 -45.326)"/><g style="fill:#000;fill-opacity:1" transform="matrix(.35278 0 0 .35278 -47.257 -45.326)"><use y="227.094" x="253.688" xlink:href="#N" width="100%" height="100%"/><use y="227.094" x="258.115" xlink:href="#K" width="100%" height="100%"/><use y="227.094" x="263.096" xlink:href="#J" width="100%" height="100%"/><use y="227.094" x="268.632" xlink:href="#M" width="100%" height="100%"/><use y="227.094" x="272.561" xlink:href="#G" width="100%" height="100%"/><use y="227.094" x="276.988" xlink:href="#M" width="100%" height="100%"/></g><g style="fill:#000;fill-opacity:1" transform="matrix(.35278 0 0 .35278 -47.257 -45.326)"><use y="227.094" x="284.584" xlink:href="#F" width="100%" height="100%"/><use y="227.094" x="288.458" xlink:href="#S" width="100%" height="100%"/><use y="227.094" x="293.993" xlink:href="#R" width="100%" height="100%"/><use y="227.094" x="296.761" xlink:href="#M" width="100%" height="100%"/></g><g style="fill:#000;fill-opacity:1" transform="matrix(.35278 0 0 .35278 -47.257 -45.326)"><use y="227.094" x="304.357" xlink:href="#F" width="100%" height="100%"/><use y="227.094" x="308.231" xlink:href="#G" width="100%" height="100%"/><use y="227.094" x="312.658" xlink:href="#af" width="100%" height="100%"/><use y="227.094" x="317.917" xlink:href="#F" width="100%" height="100%"/></g><g style="fill:#000;fill-opacity:1" transform="matrix(.35278 0 0 .35278 -47.257 -45.326)"><use y="227.094" x="325.457" xlink:href="#F" width="100%" height="100%"/><use y="227.094" x="329.332" xlink:href="#I" width="100%" height="100%"/></g><g style="fill:#000;fill-opacity:1" transform="matrix(.35278 0 0 .35278 -47.257 -45.326)"><use y="227.094" x="337.979" xlink:href="#M" width="100%" height="100%"/><use y="227.094" x="341.909" xlink:href="#F" width="100%" height="100%"/><use y="227.094" x="345.783" xlink:href="#K" width="100%" height="100%"/><use y="227.094" x="350.764" xlink:href="#H" width="100%" height="100%"/><use y="227.094" x="354.667" xlink:href="#F" width="100%" height="100%"/></g><g style="fill:#000;fill-opacity:1" transform="matrix(.35278 0 0 .35278 -47.257 -45.326)"><use y="227.094" x="362.207" xlink:href="#I" width="100%" height="100%"/><use y="227.094" x="367.189" xlink:href="#P" width="100%" height="100%"/></g><use y="227.094" x="376.39" xlink:href="#K" width="100%" height="100%" style="fill:#000;fill-opacity:1" transform="matrix(.35278 0 0 .35278 -47.257 -45.326)"/><g style="fill:#000;fill-opacity:1" transform="matrix(.35278 0 0 .35278 -47.257 -45.326)"><use y="227.094" x="385.038" xlink:href="#P" width="100%" height="100%"/><use y="227.094" x="390.573" xlink:href="#G" width="100%" height="100%"/><use y="227.094" x="395" xlink:href="#O" width="100%" height="100%"/></g><g style="fill:#000;fill-opacity:1" transform="matrix(.35278 0 0 .35278 -47.257 -45.326)"><use y="227.094" x="405.862" xlink:href="#ab" width="100%" height="100%"/><use y="227.094" x="408.629" xlink:href="#R" width="100%" height="100%"/><use y="227.094" x="411.397" xlink:href="#P" width="100%" height="100%"/><use y="227.094" x="416.932" xlink:href="#G" width="100%" height="100%"/></g><g style="fill:#000;fill-opacity:1" transform="matrix(.35278 0 0 .35278 -47.257 -45.326)"><use y="227.094" x="425.026" xlink:href="#L" width="100%" height="100%"/><use y="227.094" x="430.561" xlink:href="#J" width="100%" height="100%"/><use y="227.094" x="436.096" xlink:href="#F" width="100%" height="100%"/></g><g style="fill:#000;fill-opacity:1" transform="matrix(.35278 0 0 .35278 -47.257 -45.326)"><use y="227.094" x="443.637" xlink:href="#H" width="100%" height="100%"/><use y="227.094" x="447.539" xlink:href="#G" width="100%" height="100%"/><use y="227.094" x="451.966" xlink:href="#ad" width="100%" height="100%"/><use y="227.094" x="460.268" xlink:href="#K" width="100%" height="100%"/><use y="227.094" x="465.25" xlink:href="#R" width="100%" height="100%"/><use y="227.094" x="468.017" xlink:href="#P" width="100%" height="100%"/><use y="227.094" x="473.552" xlink:href="#M" width="100%" height="100%"/></g><g style="fill:#000;fill-opacity:1" transform="matrix(.35278 0 0 .35278 -47.257 -45.326)"><use y="239.049" x="133.768" xlink:href="#U" width="100%" height="100%"/><use y="239.049" x="139.303" xlink:href="#K" width="100%" height="100%"/><use y="239.049" x="144.285" xlink:href="#H" width="100%" height="100%"/><use y="239.049" x="148.187" xlink:href="#F" width="100%" height="100%"/></g><g style="fill:#000;fill-opacity:1" transform="matrix(.35278 0 0 .35278 -47.257 -45.326)"><use y="239.049" x="155.379" xlink:href="#I" width="100%" height="100%"/><use y="239.049" x="160.36" xlink:href="#E" width="100%" height="100%"/></g><g style="fill:#000;fill-opacity:1" transform="matrix(.35278 0 0 .35278 -47.257 -45.326)"><use y="239.049" x="166.732" xlink:href="#F" width="100%" height="100%"/><use y="239.049" x="170.607" xlink:href="#S" width="100%" height="100%"/><use y="239.049" x="176.142" xlink:href="#G" width="100%" height="100%"/></g><g style="fill:#000;fill-opacity:1" transform="matrix(.35278 0 0 .35278 -47.257 -45.326)"><use y="239.049" x="183.887" xlink:href="#M" width="100%" height="100%"/><use y="239.049" x="187.816" xlink:href="#K" width="100%" height="100%"/><use y="239.049" x="192.797" xlink:href="#ad" width="100%" height="100%"/><use y="239.049" x="201.099" xlink:href="#G" width="100%" height="100%"/></g><g style="fill:#000;fill-opacity:1" transform="matrix(.35278 0 0 .35278 -47.257 -45.326)"><use y="239.049" x="208.844" xlink:href="#U" width="100%" height="100%"/><use y="239.049" x="214.379" xlink:href="#K" width="100%" height="100%"/><use y="239.049" x="219.361" xlink:href="#H" width="100%" height="100%"/><use y="239.049" x="223.263" xlink:href="#K" width="100%" height="100%"/><use y="239.049" x="228.244" xlink:href="#Q" width="100%" height="100%"/><use y="239.049" x="233.226" xlink:href="#H" width="100%" height="100%"/><use y="239.049" x="237.128" xlink:href="#K" width="100%" height="100%"/><use y="239.049" x="242.109" xlink:href="#U" width="100%" height="100%"/><use y="239.049" x="247.644" xlink:href="#S" width="100%" height="100%"/><use y="239.049" x="253.18" xlink:href="#Z" width="100%" height="100%"/></g><g style="fill:#000;fill-opacity:1" transform="matrix(.35278 0 0 .35278 -47.257 -45.326)"><use y="239.049" x="260.381" xlink:href="#D" width="100%" height="100%"/><use y="239.049" x="267.853" xlink:href="#ab" width="100%" height="100%"/><use y="239.049" x="270.62" xlink:href="#F" width="100%" height="100%"/><use y="239.049" x="274.495" xlink:href="#G" width="100%" height="100%"/><use y="239.049" x="278.922" xlink:href="#H" width="100%" height="100%"/><use y="239.049" x="282.824" xlink:href="#P" width="100%" height="100%"/><use y="239.049" x="288.36" xlink:href="#K" width="100%" height="100%"/><use y="239.049" x="293.341" xlink:href="#F" width="100%" height="100%"/><use y="239.049" x="297.215" xlink:href="#R" width="100%" height="100%"/><use y="239.049" x="299.983" xlink:href="#ag" width="100%" height="100%"/></g><g style="fill:#000;fill-opacity:1" transform="matrix(.35278 0 0 .35278 -47.257 -45.326)"><use y="239.049" x="304.962" xlink:href="#G" width="100%" height="100%"/><use y="239.049" x="309.39" xlink:href="#ab" width="100%" height="100%"/><use y="239.049" x="312.157" xlink:href="#ah" width="100%" height="100%"/></g><use y="239.049" x="316.579" xlink:href="#V" width="100%" height="100%" style="fill:#000;fill-opacity:1" transform="matrix(.35278 0 0 .35278 -47.257 -45.326)"/><use y="239.049" x="322.674" xlink:href="#ac" width="100%" height="100%" style="fill:#000;fill-opacity:1" transform="matrix(.35278 0 0 .35278 -47.257 -45.326)"/><g style="fill:#000;fill-opacity:1" transform="matrix(.35278 0 0 .35278 -47.257 -45.326)"><use y="239.049" x="329.589" xlink:href="#N" width="100%" height="100%"/><use y="239.049" x="334.016" xlink:href="#K" width="100%" height="100%"/><use y="239.049" x="338.998" xlink:href="#P" width="100%" height="100%"/></g><g style="fill:#000;fill-opacity:1" transform="matrix(.35278 0 0 .35278 -47.257 -45.326)"><use y="239.049" x="347.85" xlink:href="#J" width="100%" height="100%"/><use y="239.049" x="353.386" xlink:href="#M" width="100%" height="100%"/><use y="239.049" x="357.315" xlink:href="#G" width="100%" height="100%"/></g><g style="fill:#000;fill-opacity:1" transform="matrix(.35278 0 0 .35278 -47.257 -45.326)"><use y="239.049" x="365.07" xlink:href="#F" width="100%" height="100%"/><use y="239.049" x="368.944" xlink:href="#S" width="100%" height="100%"/><use y="239.049" x="374.479" xlink:href="#G" width="100%" height="100%"/></g><g style="fill:#000;fill-opacity:1" transform="matrix(.35278 0 0 .35278 -47.257 -45.326)"><use y="239.049" x="382.226" xlink:href="#ai" width="100%" height="100%"/><use y="239.049" x="387.456" xlink:href="#aj" width="100%" height="100%"/><use y="239.049" x="392.687" xlink:href="#ak" width="100%" height="100%"/><use y="239.049" x="397.917" xlink:href="#al" width="100%" height="100%"/><use y="239.049" x="403.147" xlink:href="#am" width="100%" height="100%"/><use y="239.049" x="408.378" xlink:href="#an" width="100%" height="100%"/><use y="239.049" x="413.608" xlink:href="#aj" width="100%" height="100%"/><use y="239.049" x="418.839" xlink:href="#ak" width="100%" height="100%"/></g><g style="fill:#000;fill-opacity:1" transform="matrix(.35278 0 0 .35278 -47.257 -45.326)"><use y="251.004" x="133.768" xlink:href="#N" width="100%" height="100%"/><use y="251.004" x="138.195" xlink:href="#I" width="100%" height="100%"/><use y="251.004" x="143.177" xlink:href="#ad" width="100%" height="100%"/><use y="251.004" x="151.479" xlink:href="#ad" width="100%" height="100%"/><use y="251.004" x="159.78" xlink:href="#K" width="100%" height="100%"/><use y="251.004" x="164.762" xlink:href="#P" width="100%" height="100%"/><use y="251.004" x="170.297" xlink:href="#Y" width="100%" height="100%"/></g><g style="fill:#000;fill-opacity:1" transform="matrix(.35278 0 0 .35278 -47.257 -45.326)"><use y="251.004" x="179.15" xlink:href="#F" width="100%" height="100%"/><use y="251.004" x="183.024" xlink:href="#I" width="100%" height="100%"/></g><g style="fill:#000;fill-opacity:1" transform="matrix(.35278 0 0 .35278 -47.257 -45.326)"><use y="251.004" x="191.333" xlink:href="#M" width="100%" height="100%"/><use y="251.004" x="195.262" xlink:href="#F" width="100%" height="100%"/><use y="251.004" x="199.137" xlink:href="#K" width="100%" height="100%"/><use y="251.004" x="204.118" xlink:href="#H" width="100%" height="100%"/><use y="251.004" x="208.02" xlink:href="#F" width="100%" height="100%"/></g><use y="251.004" x="215.212" xlink:href="#K" width="100%" height="100%" style="fill:#000;fill-opacity:1" transform="matrix(.35278 0 0 .35278 -47.257 -45.326)"/><g style="fill:#000;fill-opacity:1" transform="matrix(.35278 0 0 .35278 -47.257 -45.326)"><use y="251.004" x="223.511" xlink:href="#P" width="100%" height="100%"/><use y="251.004" x="229.046" xlink:href="#G" width="100%" height="100%"/><use y="251.004" x="233.474" xlink:href="#O" width="100%" height="100%"/></g><g style="fill:#000;fill-opacity:1" transform="matrix(.35278 0 0 .35278 -47.257 -45.326)"><use y="251.004" x="243.996" xlink:href="#ab" width="100%" height="100%"/><use y="251.004" x="246.764" xlink:href="#R" width="100%" height="100%"/><use y="251.004" x="249.531" xlink:href="#P" width="100%" height="100%"/><use y="251.004" x="255.067" xlink:href="#G" width="100%" height="100%"/><use y="251.004" x="259.494" xlink:href="#V" width="100%" height="100%"/></g><g style="fill:#000;fill-opacity:1" transform="matrix(.35278 0 0 .35278 -47.257 -45.326)"><use y="251.004" x="265.579" xlink:href="#O" width="100%" height="100%"/><use y="251.004" x="272.774" xlink:href="#S" width="100%" height="100%"/><use y="251.004" x="278.309" xlink:href="#R" width="100%" height="100%"/><use y="251.004" x="281.077" xlink:href="#N" width="100%" height="100%"/></g><use y="251.004" x="285.225" xlink:href="#S" width="100%" height="100%" style="fill:#000;fill-opacity:1" transform="matrix(.35278 0 0 .35278 -47.257 -45.326)"/><g style="fill:#000;fill-opacity:1" transform="matrix(.35278 0 0 .35278 -47.257 -45.326)"><use y="251.004" x="294.088" xlink:href="#R" width="100%" height="100%"/><use y="251.004" x="296.856" xlink:href="#M" width="100%" height="100%"/></g><g style="fill:#000;fill-opacity:1" transform="matrix(.35278 0 0 .35278 -47.257 -45.326)"><use y="251.004" x="304.103" xlink:href="#K" width="100%" height="100%"/><use y="251.004" x="309.084" xlink:href="#ab" width="100%" height="100%"/><use y="251.004" x="311.851" xlink:href="#M" width="100%" height="100%"/><use y="251.004" x="315.781" xlink:href="#I" width="100%" height="100%"/></g><g style="fill:#000;fill-opacity:1" transform="matrix(.35278 0 0 .35278 -47.257 -45.326)"><use y="251.004" x="324.08" xlink:href="#U" width="100%" height="100%"/><use y="251.004" x="329.615" xlink:href="#K" width="100%" height="100%"/><use y="251.004" x="334.596" xlink:href="#H" width="100%" height="100%"/><use y="251.004" x="338.498" xlink:href="#F" width="100%" height="100%"/></g><g style="fill:#000;fill-opacity:1" transform="matrix(.35278 0 0 .35278 -47.257 -45.326)"><use y="251.004" x="345.7" xlink:href="#I" width="100%" height="100%"/><use y="251.004" x="350.682" xlink:href="#E" width="100%" height="100%"/></g><g style="fill:#000;fill-opacity:1" transform="matrix(.35278 0 0 .35278 -47.257 -45.326)"><use y="251.004" x="357.044" xlink:href="#F" width="100%" height="100%"/><use y="251.004" x="360.918" xlink:href="#S" width="100%" height="100%"/><use y="251.004" x="366.453" xlink:href="#G" width="100%" height="100%"/></g><g style="fill:#000;fill-opacity:1" transform="matrix(.35278 0 0 .35278 -47.257 -45.326)"><use y="251.004" x="374.198" xlink:href="#M" width="100%" height="100%"/><use y="251.004" x="378.128" xlink:href="#K" width="100%" height="100%"/><use y="251.004" x="383.109" xlink:href="#ad" width="100%" height="100%"/><use y="251.004" x="391.411" xlink:href="#G" width="100%" height="100%"/></g><g style="fill:#000;fill-opacity:1" transform="matrix(.35278 0 0 .35278 -47.257 -45.326)"><use y="251.004" x="399.166" xlink:href="#U" width="100%" height="100%"/><use y="251.004" x="404.701" xlink:href="#K" width="100%" height="100%"/><use y="251.004" x="409.682" xlink:href="#H" width="100%" height="100%"/><use y="251.004" x="413.585" xlink:href="#K" width="100%" height="100%"/><use y="251.004" x="418.566" xlink:href="#Q" width="100%" height="100%"/><use y="251.004" x="423.547" xlink:href="#H" width="100%" height="100%"/><use y="251.004" x="427.449" xlink:href="#K" width="100%" height="100%"/><use y="251.004" x="432.431" xlink:href="#U" width="100%" height="100%"/><use y="251.004" x="437.966" xlink:href="#S" width="100%" height="100%"/></g><use y="251.004" x="443.491" xlink:href="#Z" width="100%" height="100%" style="fill:#000;fill-opacity:1" transform="matrix(.35278 0 0 .35278 -47.257 -45.326)"/></svg>