<svg xmlns="http://www.w3.org/2000/svg" xmlns:xlink="http://www.w3.org/1999/xlink" viewBox="0 0 121.038 131.054" height="495.32" width="457.467"><defs><symbol overflow="visible" id="a"><path style="stroke:none" d="M15.469-13.875c0-.484 0-.547-.453-.547l-1.547 1.485c-1.156-.985-2.547-1.485-4.063-1.485-4.937 0-8.125 3-8.125 7.344C1.281-2.828 4.36.25 9.421.25c3.673 0 6.048-2.516 6.048-4.953 0-.36-.125-.375-.438-.375-.203 0-.406 0-.422.219-.187 3.14-2.859 4.218-4.718 4.218-1.344 0-3.157-.375-4.313-1.671-.719-.782-1.39-1.922-1.39-4.766 0-2.031.312-3.547 1.28-4.703 1.329-1.547 3.391-1.75 4.391-1.75 1.547 0 4.047.875 4.657 4.5.046.187.234.187.484.187.469 0 .469-.031.469-.531zm0 0"/></symbol><symbol overflow="visible" id="b"><path style="stroke:none" d="M10.969-6.328c0-1.953-.844-2.969-3.125-2.969a3.68 3.68 0 0 0-3.375 2.094h-.032v-7.125l-3.562.156v.89c1.266 0 1.422 0 1.422.813V-.89H.875V0c.469-.047 1.953-.047 2.531-.047.578 0 2.094 0 2.563.047v-.89H4.547v-4.391c0-2.235 1.656-3.328 2.969-3.328.765 0 1.203.484 1.203 2.062V-.89H7.297V0c.469-.047 1.953-.047 2.531-.047.578 0 2.094 0 2.563.047v-.89h-1.422Zm0 0"/></symbol><symbol overflow="visible" id="c"><path style="stroke:none" d="M9.5-6.172c0-1.906-1.5-3.187-4.422-3.187-1.156 0-3.594.109-3.594 1.843 0 .86.657 1.235 1.22 1.235.624 0 1.218-.438 1.218-1.219 0-.39-.14-.766-.5-.984.687-.188 1.187-.188 1.578-.188 1.406 0 2.25.781 2.25 2.469v.828c-3.266 0-6.547.906-6.547 3.203C.703-.297 3.093.125 4.531.125c1.578 0 2.594-.875 3.016-1.781 0 .765 0 1.656 2.078 1.656h1.047c.437 0 .61 0 .61-.453 0-.438-.188-.438-.485-.438C9.5-.906 9.5-1.234 9.5-1.719ZM7.25-2.875c0 1.953-1.734 2.313-2.39 2.313C3.843-.563 3-1.235 3-2.188c0-1.876 2.219-2.516 4.25-2.626zm0 0"/></symbol><symbol overflow="visible" id="d"><path style="stroke:none" d="M5.828 3.125H4.406V-.844a4.02 4.02 0 0 0 2.657.969c2.828 0 5.046-1.719 5.046-4.734 0-2.844-1.921-4.688-4.718-4.688a4.916 4.916 0 0 0-3.094 1.078v-1.078l-3.578.172v.89c1.281 0 1.422 0 1.422.797V3.126H.719V4c.484-.031 1.969-.031 2.547-.031.578 0 2.078 0 2.562.031zM4.406-7.235a3.401 3.401 0 0 1 2.657-1.312c1.343 0 2.562 1.219 2.562 3.938 0 3-1.484 4.046-2.813 4.046-.89 0-1.765-.453-2.406-1.421zm0 0"/></symbol><symbol overflow="visible" id="e"><path style="stroke:none" d="M4.36-8.281h2.968v-.89H4.36v-3.938h-.875c-.015 2.03-1 4.078-3.046 4.14v.688h1.671v5.734C2.11-.344 3.797.125 5.281.125c1.532 0 2.438-1.156 2.438-2.688v-1.093h-.86v1.078c0 1.36-.625 1.953-1.265 1.953-1.235 0-1.235-1.375-1.235-1.86zm0 0"/></symbol><symbol overflow="visible" id="f"><path style="stroke:none" d="M9.344-4.563c.469 0 .594 0 .594-.515 0-.625-.141-2.172-1.094-3.14-.875-.876-2.031-1.141-3.219-1.141C2.391-9.36.641-7.25.641-4.641.64-1.75 2.766.125 5.89.125 9 .125 9.937-2.063 9.937-2.422c0-.312-.312-.312-.437-.312-.328 0-.344.062-.469.343-.547 1.344-1.906 1.766-2.89 1.766-3 0-3.016-2.781-3.016-3.938zm-6.219-.609c.031-.844.063-1.64.484-2.39.391-.657 1.125-1.11 2.016-1.11 2.203 0 2.39 2.469 2.406 3.5zm0 0"/></symbol><symbol overflow="visible" id="g"><path style="stroke:none" d="M4.297-4.64c0-.688.14-3.97 2.562-3.97-.296.22-.437.579-.437.954 0 .843.687 1.187 1.203 1.187s1.188-.343 1.188-1.187c0-1.063-1.063-1.64-2.063-1.64-1.625 0-2.328 1.421-2.625 2.296h-.016v-2.297l-3.39.172v.89c1.281 0 1.422 0 1.422.797V-.89H.719V0c.484-.047 2.031-.047 2.61-.047.593 0 2.265 0 2.765.047v-.89H4.297Zm0 0"/></symbol><symbol overflow="visible" id="h"><path style="stroke:none" d="M7.14-12.953c0-.594-.03-.594-.702-.594-1.516 1.313-3.813 1.313-4.266 1.313h-.39v.89h.39c.719 0 1.812-.125 2.64-.39V-.891H1.938V0c.875-.047 3.047-.047 4.016-.047.969 0 3.156 0 4.031.047v-.89H7.141zm0 0"/></symbol><symbol overflow="visible" id="i"><path style="stroke:none" d="M15.61-16.875H.937v1.063h2.625v14.75H.937V0c.72-.047 3.547-.047 4.47-.047 1.312 0 3.515 0 4.734.047v-1.063H6.844v-6.843h1.36c2.374 0 2.577 1.093 2.577 2.906h1.047v-6.875h-1.047c0 1.813-.203 2.906-2.578 2.906h-1.36v-6.844h3.548c3.937 0 4.546 1.813 4.906 4.813h1.031zm0 0"/></symbol><symbol overflow="visible" id="j"><path style="stroke:none" d="M5.531-15.438a1.784 1.784 0 0 0-1.797-1.78c-1.015 0-1.78.843-1.78 1.78 0 .938.765 1.782 1.78 1.782.97 0 1.797-.766 1.797-1.781zm-4.36 4.485v1.062c1.454 0 1.626 0 1.626.97v7.858H1.094V0c.562-.047 2.281-.047 2.953-.047.687 0 2.266 0 2.86.047v-1.063H5.374v-10.093zm0 0"/></symbol><symbol overflow="visible" id="k"><path style="stroke:none" d="M5.156-5.578c0-.813.172-4.75 3.078-4.75-.359.265-.53.687-.53 1.14 0 1.016.827 1.438 1.437 1.438.625 0 1.437-.422 1.437-1.438 0-1.265-1.281-1.968-2.469-1.968-1.968 0-2.812 1.719-3.156 2.75h-.016v-2.75l-4.062.203v1.062c1.531 0 1.703 0 1.703.97v7.858H.875V0c.563-.047 2.422-.047 3.11-.047.718 0 2.734 0 3.328.047v-1.063H5.155Zm0 0"/></symbol><symbol overflow="visible" id="l"><path style="stroke:none" d="M9.344-10.578c0-.469 0-.64-.375-.64-.14 0-.203 0-.563.218-.11.078-.375.25-.5.313-.687-.391-1.61-.532-2.5-.532-.75 0-4.468 0-4.468 3.219 0 2.594 3.078 3.14 3.843 3.266.672.125 1.485.28 1.594.28.984.22 1.969.829 1.969 1.876 0 1.906-2.25 1.906-2.766 1.906-1.266 0-2.828-.39-3.516-2.797-.156-.5-.171-.515-.593-.515-.532 0-.532.062-.532.64V-.5c0 .469 0 .656.375.656.172 0 .22 0 .72-.406l.64-.469c1.125.875 2.453.875 2.906.875 1.36 0 4.453-.312 4.453-3.594 0-1.203-.64-2.015-1.14-2.453-1.016-.843-1.86-1-3.188-1.25-1.594-.265-3.078-.546-3.078-1.734 0-1.61 2.203-1.61 2.734-1.61 2.75 0 2.891 1.735 2.938 2.36.031.313.234.313.531.313.516 0 .516-.063.516-.641zm0 0"/></symbol><symbol overflow="visible" id="m"><path style="stroke:none" d="M5.234-9.938h3.563V-11H5.234v-4.734H4.188c-.032 2.453-1.22 4.906-3.672 4.984v.813H2.53v6.89C2.531-.422 4.562.156 6.344.156c1.828 0 2.922-1.39 2.922-3.234v-1.313H8.234v1.297c0 1.625-.75 2.344-1.515 2.344-1.485 0-1.485-1.656-1.485-2.219zm0 0"/></symbol><symbol overflow="visible" id="n"><path style="stroke:none" d="M18.563-16.656c0-.563 0-.64-.547-.64l-1.86 1.78c-1.39-1.187-3.047-1.78-4.875-1.78-5.922 0-9.75 3.593-9.75 8.796 0 5.11 3.703 8.797 9.766 8.797 4.422 0 7.265-3.016 7.265-5.953 0-.422-.156-.438-.515-.438-.25 0-.5 0-.531.266-.22 3.766-3.422 5.062-5.641 5.062-1.61 0-3.797-.453-5.188-2.015C5.829-3.72 5.032-5.078 5.032-8.5c0-2.422.375-4.234 1.532-5.625 1.593-1.86 4.062-2.11 5.265-2.11 1.844 0 4.844 1.047 5.594 5.407.047.219.265.219.562.219.578 0 .578-.047.578-.641zm0 0"/></symbol><symbol overflow="visible" id="o"><path style="stroke:none" d="M13.156-7.578c0-2.36-1.015-3.578-3.734-3.578a4.437 4.437 0 0 0-4.063 2.5h-.03v-8.547L1.046-17v1.063c1.531 0 1.703 0 1.703.968v13.906H1.047V0c.562-.047 2.344-.047 3.047-.047.687 0 2.5 0 3.062.047v-1.063H5.453v-5.28c0-2.673 1.984-3.985 3.563-3.985.921 0 1.437.594 1.437 2.469v6.796H8.75V0c.563-.047 2.36-.047 3.047-.047.687 0 2.5 0 3.078.047v-1.063h-1.719zm0 0"/></symbol><symbol overflow="visible" id="p"><path style="stroke:none" d="M11.406-7.406c0-2.282-1.812-3.813-5.312-3.813-1.39 0-4.313.11-4.313 2.203 0 1.032.797 1.485 1.469 1.485.734 0 1.453-.516 1.453-1.469 0-.469-.172-.906-.594-1.188.829-.218 1.422-.218 1.891-.218 1.688 0 2.703.937 2.703 2.969v1C4.781-6.438.843-5.36.843-2.61.844-.344 3.72.156 5.423.156c1.906 0 3.125-1.047 3.625-2.14 0 .921 0 1.984 2.5 1.984h1.265c.516 0 .72 0 .72-.547 0-.515-.22-.515-.579-.515-1.547-.032-1.547-.422-1.547-1zM8.703-3.438c0 2.329-2.094 2.766-2.875 2.766-1.219 0-2.234-.812-2.234-1.953 0-2.25 2.672-3.031 5.11-3.156zm0 0"/></symbol><symbol overflow="visible" id="q"><path style="stroke:none" d="M6.984 3.734H5.281v-4.75C5.891-.469 6.984.156 8.47.156c3.406 0 6.047-2.062 6.047-5.687 0-3.422-2.297-5.625-5.641-5.625-1.469 0-2.734.5-3.719 1.297v-1.297l-4.281.203v1.062c1.531 0 1.703 0 1.703.97V3.733H.875v1.079c.563-.047 2.344-.047 3.047-.047.687 0 2.5 0 3.062.046zM5.281-8.672a4.074 4.074 0 0 1 3.188-1.594c1.625 0 3.078 1.47 3.078 4.735 0 3.593-1.781 4.86-3.375 4.86-1.063 0-2.125-.548-2.89-1.704zm0 0"/></symbol><symbol overflow="visible" id="r"><path style="stroke:none" d="M11.203-5.484c.563 0 .719 0 .719-.61 0-.75-.172-2.61-1.313-3.765-1.046-1.047-2.437-1.36-3.875-1.36-3.859 0-5.968 2.516-5.968 5.64 0 3.47 2.562 5.735 6.296 5.735 3.735 0 4.86-2.64 4.86-3.062 0-.36-.375-.36-.516-.36-.406 0-.422.063-.578.391C10.188-1.265 8.547-.75 7.36-.75c-3.593 0-3.625-3.344-3.625-4.734zm-7.469-.704c.063-1.03.079-1.984.61-2.875.468-.796 1.328-1.343 2.39-1.343 2.657 0 2.875 2.969 2.907 4.219zm0 0"/></symbol><symbol overflow="visible" id="s"><path style="stroke:none" d="M4.969-9c0-.406-.032-.406-.5-.406-1.063.922-2.64.922-2.969.922h-.266v.609H1.5c.516 0 1.266-.078 1.844-.266v7.532h-2V0c.61-.031 2.11-.031 2.781-.031.688 0 2.203 0 2.797.031v-.61H4.969Zm0 0"/></symbol><symbol overflow="visible" id="t"><path style="stroke:none" d="M3.266-1.031a1.02 1.02 0 0 0-1.032-1.032 1.02 1.02 0 0 0-1.03 1.032A1.02 1.02 0 0 0 2.233 0a1.02 1.02 0 0 0 1.032-1.031zm0 0"/></symbol><symbol overflow="visible" id="u"><path style="stroke:none" d="M3.938-9.219h1.609v-.625c-.516.031-1.953.031-2.547.031-.61 0-2.031 0-2.563-.03v.624h1.61v8.61H.437V0C.97-.031 2.391-.031 3-.031c.594 0 2.031 0 2.547.031v-.61h-1.61Zm0 0"/></symbol><symbol overflow="visible" id="v"><path style="stroke:none" d="M7.61-4.39c0-1.36-.579-2.063-2.157-2.063-1.031 0-1.922.5-2.406 1.578H3.03v-1.578l-2.422.11v.624c.875 0 .985 0 .985.563V-.61H.609V0c.329-.031 1.36-.031 1.75-.031.407 0 1.454 0 1.782.031v-.61h-.985v-3.062c0-1.547 1.14-2.312 2.063-2.312.531 0 .828.343.828 1.437v3.938h-.984V0c.328-.031 1.359-.031 1.765-.031.406 0 1.453 0 1.781.031v-.61h-1zm0 0"/></symbol><symbol overflow="visible" id="w"><path style="stroke:none" d="M3.031-5.75h2.063v-.625H3.03v-2.734h-.61C2.407-7.688 1.72-6.266.298-6.22v.469h1.172v3.984C1.469-.25 2.64.094 3.672.094c1.062 0 1.687-.813 1.687-1.875v-.75h-.593v.734c0 .953-.438 1.36-.875 1.36-.86 0-.86-.954-.86-1.282zm0 0"/></symbol><symbol overflow="visible" id="x"><path style="stroke:none" d="M2.984-3.234c0-.47.094-2.75 1.782-2.75a.83.83 0 0 0-.313.656c0 .594.484.844.844.844s.828-.25.828-.844c0-.719-.75-1.125-1.438-1.125-1.125 0-1.625.984-1.812 1.594h-.016v-1.594L.5-6.343v.624c.89 0 .984 0 .984.563V-.61H.5V0c.328-.031 1.406-.031 1.813-.031.406 0 1.578 0 1.921.031v-.61h-1.25zm0 0"/></symbol><symbol overflow="visible" id="y"><path style="stroke:none" d="M7.61-3.14C7.61-5.079 6.28-6.5 4.03-6.5 1.688-6.5.438-5 .438-3.14.438-1.267 1.766.093 4.015.093c2.343 0 3.593-1.422 3.593-3.235zM4.03-.438c-1.86 0-1.86-1.672-1.86-2.844 0-.672 0-1.39.267-1.906.312-.579.968-.844 1.578-.844.812 0 1.328.39 1.578.797.281.515.281 1.265.281 1.953 0 1.187 0 2.844-1.844 2.844zm0 0"/></symbol><symbol overflow="visible" id="z"><path style="stroke:none" d="M4.984-9.844v.625c.875 0 .985 0 .985.563v2.89c-.313-.265-.953-.687-1.938-.687C2-6.453.547-5.187.547-3.187c0 2.046 1.422 3.28 3.328 3.28.781 0 1.453-.28 2.016-.75v.75L8.453 0v-.61c-.89 0-1 0-1-.562v-8.781zm.907 8.39C5.297-.577 4.562-.39 4.047-.39c-1.781 0-1.781-1.812-1.781-2.765 0-.672 0-1.39.312-1.938.453-.797 1.297-.89 1.625-.89.594 0 1.219.265 1.688.89zm0 0"/></symbol><symbol overflow="visible" id="A"><path style="stroke:none" d="M5.063-6.344v.625c.89 0 .984 0 .984.563v2.797c0 1.093-.64 1.968-1.766 1.968-1.062 0-1.125-.359-1.125-1.14v-4.922l-2.547.11v.624c.875 0 .985 0 .985.563v3.39c0 1.438.953 1.86 2.5 1.86.343 0 1.406 0 2.015-1.172h.016V.094L8.609 0v-.61c-.89 0-1 0-1-.562v-5.281zm0 0"/></symbol><symbol overflow="visible" id="B"><path style="stroke:none" d="M6.719-1.672c0-.172-.157-.172-.313-.172-.218 0-.234 0-.312.188C6-1.391 5.609-.438 4.28-.438c-2.015 0-2.015-2.171-2.015-2.812 0-.86.015-2.734 1.89-2.734.11 0 .953.03.953.109 0 .016-.015.016-.046.031a.908.908 0 0 0-.235.625c0 .594.5.844.86.844.296 0 .843-.188.843-.86C6.531-6.405 4.875-6.5 4.11-6.5 1.547-6.5.547-4.828.547-3.187c0 1.953 1.36 3.28 3.469 3.28 2.25 0 2.703-1.671 2.703-1.765zm0 0"/></symbol><symbol overflow="visible" id="C"><path style="stroke:none" d="M3.203-8.938a1.03 1.03 0 1 0-2.062 0 1.03 1.03 0 1 0 2.063 0zM.672-6.344v.625c.844 0 .953 0 .953.563V-.61h-1V0c.344-.031 1.328-.031 1.719-.031.39 0 1.312 0 1.656.031v-.61h-.89v-5.843zm0 0"/></symbol><symbol overflow="visible" id="ag"><path style="stroke:none" d="M7.25-3.078h-.61c-.046.297-.14 1.14-.359 1.281-.11.11-1.234.11-1.453.11H2.61c.547-.47 1.844-1.547 2.063-1.72C6.266-4.593 7.25-5.327 7.25-6.702c0-1.688-1.547-2.703-3.438-2.703-1.624 0-3.015.922-3.015 2.281 0 .75.625.969.953.969.438 0 .969-.297.969-.953 0-.61-.453-.907-.89-.97.562-.655 1.327-.718 1.624-.718 1.328 0 1.953 1.078 1.953 2.11 0 1.125-.765 2.156-1.343 2.765L.953-.656C.797-.531.797-.5.797-.25V0h6.031zm0 0"/></symbol><symbol overflow="visible" id="ah"><path style="stroke:none" d="M3.64-6.313C2.22-6.625 2.188-7.655 2.188-7.859c0-.735.47-1.579 1.86-1.579 1.39 0 2.64.672 2.937 2.547.047.313.047.329.313.329.312 0 .312-.047.312-.375v-2.704c0-.265 0-.375-.218-.375-.11 0-.141.016-.282.157l-.609.703c-.36-.297-1.078-.86-2.469-.86-2.047 0-3.14 1.297-3.14 2.86 0 .953.515 1.64.718 1.828.75.75 1.141.844 2.641 1.172 1.438.312 1.61.343 1.922.64.187.188.594.594.594 1.329 0 .609-.297 1.75-1.907 1.75-1.265 0-3.25-.438-3.375-2.532 0-.265 0-.297-.296-.297-.297 0-.297.032-.297.375v2.688c0 .281 0 .375.218.375.094 0 .11-.016.25-.14.157-.157.297-.345.657-.704.828.656 2 .844 2.859.844 2.234 0 3.188-1.516 3.188-3.047 0-1.344-.891-2.64-2.454-2.984zm0 0"/></symbol><symbol overflow="visible" id="ai"><path style="stroke:none" d="M6.484-3.172c.329 0 .422 0 .422-.36 0-.421-.11-1.5-.765-2.171-.61-.61-1.407-.797-2.235-.797C1.656-6.5.437-5.031.437-3.234.438-1.22 1.923.094 4.095.094c2.156 0 2.812-1.532 2.812-1.766 0-.219-.218-.219-.312-.219-.219 0-.235.047-.328.235-.375.922-1.313 1.218-2 1.218-2.079 0-2.094-1.921-2.094-2.734zm-4.312-.406c.015-.594.031-1.156.344-1.672a1.59 1.59 0 0 1 1.39-.781c1.531 0 1.656 1.734 1.672 2.453zm0 0"/></symbol><symbol overflow="visible" id="ay"><path style="stroke:none" d="M10.328-8.797c0-.312.016-.328.39-.39.25-.016.548-.032.798-.032h.328v-.625c-.328.031-1.438.031-1.844.031-.406 0-1.516 0-1.86-.03v.624h.344c.375 0 .407 0 .75.031.422.063.438.079.438.391v5.469c0 2.047-1.453 2.89-3.14 2.89-2.516 0-2.579-1.921-2.579-2.765V-9.22h1.531v-.625c-.421.031-1.953.031-2.468.031-.516 0-2.047 0-2.47-.03v.624h1.516v5.922c0 1.89 1.516 3.469 4.407 3.469 2.656 0 3.86-1.656 3.86-3.453zm0 0"/></symbol><symbol overflow="visible" id="az"><path style="stroke:none" d="M12.11-4.39c0-1.313-.563-2.063-2.172-2.063-1.454 0-2.126.969-2.344 1.437-.235-1.218-1.203-1.437-2.125-1.437-1.375 0-2.125.89-2.422 1.578H3.03v-1.578l-2.422.11v.624c.875 0 .985 0 .985.563V-.61H.609V0c.329-.031 1.36-.031 1.75-.031.407 0 1.454 0 1.782.031v-.61h-.985v-3.062c0-1.562 1.156-2.312 2.063-2.312.531 0 .843.312.843 1.437v3.938h-.984V0c.328-.031 1.36-.031 1.766-.031.406 0 1.453 0 1.781.031v-.61h-1v-3.062c0-1.562 1.172-2.312 2.078-2.312.531 0 .844.312.844 1.437v3.938h-1V0c.344-.031 1.375-.031 1.765-.031.407 0 1.454 0 1.782.031v-.61h-.985zm0 0"/></symbol><symbol overflow="visible" id="aA"><path style="stroke:none" d="M2.984-9.953.5-9.843v.624c.89 0 .984 0 .984.563V0h.61c.25-.266.484-.547.719-.828.734.75 1.515.922 2.093.922 1.985 0 3.5-1.219 3.5-3.297 0-1.953-1.344-3.25-3.312-3.25-.844 0-1.516.266-2.11.734zm.079 4.922a2.284 2.284 0 0 1 1.843-.953c1.782 0 1.782 1.828 1.782 2.765 0 .656 0 1.469-.344 2-.453.688-1.125.828-1.578.828-.985 0-1.516-.687-1.704-1zm0 0"/></symbol><symbol overflow="visible" id="D"><path style="stroke:none" d="M6.64-6.75H.548L.359-4.5h.25C.75-6.11.891-6.438 2.406-6.438c.172 0 .438 0 .531.016.22.047.22.156.22.375V-.78c0 .328 0 .469-1.048.469h-.406V0c.406-.031 1.422-.031 1.89-.031.454 0 1.485 0 1.891.031v-.313h-.406c-1.047 0-1.047-.14-1.047-.468v-5.266c0-.187 0-.328.188-.375.11-.016.375-.016.562-.016 1.516 0 1.657.329 1.797 1.938h.25zm0 0"/></symbol><symbol overflow="visible" id="E"><path style="stroke:none" d="M1.094-.75c0 .438-.11.438-.782.438V0c.36-.016.86-.031 1.141-.031.25 0 .766.015 1.11.031v-.313c-.672 0-.782 0-.782-.437v-1.844c0-1.031.719-1.594 1.344-1.594.64 0 .75.532.75 1.11V-.75c0 .438-.11.438-.781.438V0c.344-.016.86-.031 1.125-.031.25 0 .781.015 1.11.031v-.313c-.516 0-.766 0-.766-.296v-1.907c0-.859 0-1.156-.313-1.515-.14-.172-.469-.375-1.047-.375-.844 0-1.281.593-1.453.984v-3.5l-1.438.11v.312c.704 0 .782.063.782.563zm0 0"/></symbol><symbol overflow="visible" id="F"><path style="stroke:none" d="m1.766-4.406-1.391.11v.312c.64 0 .734.062.734.546V-.75c0 .438-.109.438-.78.438V0c.312-.016.859-.031 1.093-.031.36 0 .703.015 1.047.031v-.313c-.672 0-.703-.046-.703-.437zm.03-1.735a.514.514 0 0 0-.515-.53.537.537 0 0 0-.531.53c0 .266.219.532.531.532a.514.514 0 0 0 .516-.532zm0 0"/></symbol><symbol overflow="visible" id="G"><path style="stroke:none" d="M2.078-1.938c.219.047 1.031.204 1.031.922 0 .5-.343.907-1.125.907-.843 0-1.203-.563-1.39-1.422-.031-.125-.031-.157-.14-.157-.126 0-.126.063-.126.235v1.328c0 .172 0 .234.11.234C.483.11.5.094.688-.094.703-.109.703-.125.89-.312c.437.406.89.421 1.093.421 1.141 0 1.61-.671 1.61-1.39 0-.516-.297-.828-.422-.938-.328-.328-.719-.406-1.14-.484-.563-.11-1.22-.235-1.22-.813 0-.359.25-.765 1.11-.765 1.094 0 1.156.906 1.172 1.203 0 .094.094.094.11.094.14 0 .14-.047.14-.235v-1.015c0-.157 0-.235-.11-.235-.046 0-.078 0-.203.125-.031.032-.125.125-.172.157-.375-.282-.78-.282-.937-.282-1.219 0-1.594.672-1.594 1.235 0 .343.156.625.422.843.328.25.61.313 1.328.454zm0 0"/></symbol><symbol overflow="visible" id="H"><path style="stroke:none" d="M1.719-3.984h1.437v-.313H1.72v-1.828h-.25c0 .813-.297 1.875-1.282 1.922v.219h.844v2.75c0 1.218.938 1.343 1.297 1.343.703 0 .985-.703.985-1.343v-.563h-.25v.547c0 .734-.297 1.11-.672 1.11-.672 0-.672-.907-.672-1.079zm0 0"/></symbol><symbol overflow="visible" id="I"><path style="stroke:none" d="M1.11-2.516C1.171-4 2.015-4.25 2.36-4.25c1.015 0 1.124 1.344 1.124 1.734zm0 .22h2.78c.22 0 .25 0 .25-.22 0-.984-.546-1.953-1.78-1.953C1.202-4.469.28-3.437.28-2.187.281-.86 1.328.108 2.47.108 3.688.11 4.14-1 4.14-1.187c0-.094-.079-.125-.141-.125-.078 0-.11.062-.125.14C3.531-.14 2.625-.14 2.531-.14c-.5 0-.89-.296-1.125-.671-.297-.47-.297-1.125-.297-1.485zm0 0"/></symbol><symbol overflow="visible" id="J"><path style="stroke:none" d="M3.297-3.984c.453 0 .515.125.515.53V-.75c0 .438-.109.438-.765.438V0c.328-.016.844-.031 1.094-.031.25 0 .75.015 1.109.031v-.313c-.672 0-.781 0-.781-.437v-3.672l-1.25.094c-.156.016-.172.016-.172.016-.031.015-.047.015-.188.015H1.688v-1.125c0-.984.859-1.39 1.468-1.39.297 0 .656.109.86.328-.407.03-.47.296-.47.468 0 .329.267.454.454.454.234 0 .453-.157.453-.454 0-.593-.547-1.015-1.281-1.015-.922 0-2.11.515-2.11 1.593v1.141H.266v.313h.796V-.75c0 .438-.109.438-.78.438V0c.327-.016.859-.031 1.109-.031S2.125-.016 2.5 0v-.313c-.672 0-.781 0-.781-.437v-3.234zm0 0"/></symbol><symbol overflow="visible" id="K"><path style="stroke:none" d="M1.672-3.313v-1.093l-1.39.11v.312c.702 0 .78.062.78.562V-.75c0 .438-.109.438-.78.438V0c.39-.016.859-.031 1.14-.031.39 0 .86 0 1.266.031v-.313h-.22c-.734 0-.75-.109-.75-.468v-1.531c0-.985.423-1.876 1.173-1.876.062 0 .093 0 .109.016-.031 0-.234.125-.234.39 0 .266.218.423.437.423a.421.421 0 0 0 .422-.438c0-.312-.313-.61-.734-.61-.735 0-1.094.673-1.22 1.095zm0 0"/></symbol><symbol overflow="visible" id="L"><path style="stroke:none" d="M1.172-2.172c0-1.625.812-2.047 1.344-2.047.093 0 .718.016 1.062.375-.406.031-.469.328-.469.453 0 .266.188.454.454.454.265 0 .468-.157.468-.47 0-.671-.765-1.062-1.531-1.062C1.25-4.469.344-3.39.344-2.156c0 1.281.984 2.265 2.14 2.265 1.329 0 1.657-1.203 1.657-1.296 0-.094-.11-.094-.141-.094-.078 0-.11.031-.125.093C3.594-.265 2.937-.14 2.578-.14c-.531 0-1.406-.421-1.406-2.03zm0 0"/></symbol><symbol overflow="visible" id="M"><path style="stroke:none" d="M4.688-2.14c0-1.266-.985-2.329-2.188-2.329C1.25-4.469.281-3.375.281-2.14A2.22 2.22 0 0 0 2.484.11c1.204 0 2.204-.984 2.204-2.25zM2.5-.14c-.438 0-.875-.204-1.14-.672-.25-.438-.25-1.047-.25-1.407 0-.39 0-.922.234-1.36a1.347 1.347 0 0 1 1.14-.671c.438 0 .86.219 1.125.656.266.422.266 1 .266 1.375 0 .36 0 .906-.219 1.344-.234.453-.672.734-1.156.734Zm0 0"/></symbol><symbol overflow="visible" id="N"><path style="stroke:none" d="M1.094-3.422V-.75c0 .438-.11.438-.782.438V0c.36-.016.86-.031 1.141-.031.25 0 .766.015 1.11.031v-.313c-.672 0-.782 0-.782-.437v-1.844c0-1.031.719-1.594 1.344-1.594.64 0 .75.532.75 1.11V-.75c0 .438-.11.438-.781.438V0c.344-.016.86-.031 1.125-.031.25 0 .781.015 1.11.031v-.313c-.516 0-.766 0-.766-.296v-1.907c0-.859 0-1.156-.313-1.515-.14-.172-.469-.375-1.047-.375-.734 0-1.203.422-1.484 1.047v-1.047l-1.407.11v.312c.704 0 .782.062.782.562zm0 0"/></symbol><symbol overflow="visible" id="O"><path style="stroke:none" d="M1.906-.531a.534.534 0 0 0-.515-.531.537.537 0 0 0-.532.53.524.524 0 1 0 1.047 0Zm0 0"/></symbol><symbol overflow="visible" id="P"><path style="stroke:none" d="M5.797-2.578h-.25c-.11 1.015-.25 2.265-2 2.265h-.813c-.468 0-.484-.062-.484-.39v-5.313c0-.343 0-.484.938-.484h.328v-.313c-.36.032-1.266.032-1.672.032-.39 0-1.172 0-1.516-.032v.313h.234c.766 0 .797.11.797.469v5.25c0 .36-.03.469-.796.469H.328V0h5.188zm0 0"/></symbol><symbol overflow="visible" id="Q"><path style="stroke:none" d="M1.094-3.422V-.75c0 .438-.11.438-.782.438V0c.36-.016.86-.031 1.141-.031.25 0 .766.015 1.11.031v-.313c-.672 0-.782 0-.782-.437v-1.844c0-1.031.719-1.594 1.344-1.594.64 0 .75.532.75 1.11V-.75c0 .438-.11.438-.781.438V0c.344-.016.86-.031 1.125-.031.25 0 .781.015 1.11.031v-.313c-.657 0-.766 0-.766-.437v-1.844c0-1.031.703-1.594 1.343-1.594.625 0 .735.532.735 1.11V-.75c0 .438-.11.438-.782.438V0c.344-.016.86-.031 1.125-.031.266 0 .782.015 1.125.031v-.313c-.515 0-.765 0-.78-.296v-1.907c0-.859 0-1.156-.313-1.515-.141-.172-.47-.375-1.047-.375-.828 0-1.282.593-1.438.984-.14-.875-.875-.984-1.328-.984-.734 0-1.203.422-1.484 1.047v-1.047l-1.407.11v.312c.704 0 .782.062.782.562zm0 0"/></symbol><symbol overflow="visible" id="R"><path style="stroke:none" d="M1.719-3.75v-.656l-1.438.11v.312c.703 0 .781.062.781.5v4.656c0 .453-.109.453-.78.453v.313c.343-.016.859-.032 1.109-.032.28 0 .78.016 1.125.032v-.313c-.657 0-.766 0-.766-.453V-.594c.047.172.469.703 1.219.703 1.187 0 2.219-.984 2.219-2.265 0-1.266-.954-2.25-2.079-2.25-.78 0-1.203.437-1.39.656zm.031 2.61v-2.22c.281-.515.766-.796 1.281-.796.735 0 1.328.875 1.328 2C4.36-.953 3.672-.11 2.938-.11c-.407 0-.782-.204-1.047-.61-.141-.203-.141-.219-.141-.422Zm0 0"/></symbol><symbol overflow="visible" id="S"><path style="stroke:none" d="M3.89-.781v.89L5.329 0v-.313c-.687 0-.766-.062-.766-.562v-3.531l-1.468.11v.312c.687 0 .781.062.781.562v1.766c0 .875-.484 1.547-1.219 1.547-.828 0-.875-.47-.875-.985v-3.312l-1.468.11v.312c.78 0 .78.03.78.906v1.5c0 .781 0 1.687 1.516 1.687.563 0 1-.28 1.282-.89zm0 0"/></symbol><symbol overflow="visible" id="T"><path style="stroke:none" d="M3.781-.547V.11L5.25 0v-.313c-.688 0-.781-.062-.781-.562v-6.047l-1.422.11v.312c.687 0 .765.063.765.563v2.156a1.582 1.582 0 0 0-1.25-.625c-1.171 0-2.218.984-2.218 2.265 0 1.266.969 2.25 2.11 2.25.64 0 1.077-.343 1.327-.656zm0-2.672v2.047c0 .172 0 .188-.11.36-.296.484-.733.703-1.171.703-.453 0-.813-.266-1.047-.641-.25-.406-.281-.969-.281-1.39 0-.36.016-.954.297-1.407.218-.312.593-.64 1.14-.64.344 0 .766.156 1.063.593.11.172.11.188.11.375zm0 0"/></symbol><symbol overflow="visible" id="U"><path style="stroke:none" d="m1.766-6.922-1.438.11v.312c.703 0 .781.063.781.563V-.75c0 .438-.109.438-.78.438V0c.327-.016.859-.031 1.109-.031s.734.015 1.109.031v-.313c-.672 0-.781 0-.781-.437zm0 0"/></symbol><symbol overflow="visible" id="V"><path style="stroke:none" d="M3.313-.75c.046.39.312.813.78.813.22 0 .829-.141.829-.954v-.562h-.25v.562c0 .579-.25.641-.36.641-.328 0-.375-.453-.375-.5v-1.984c0-.422 0-.813-.359-1.188-.39-.39-.89-.547-1.36-.547-.827 0-1.515.469-1.515 1.125 0 .297.203.469.469.469a.435.435 0 0 0 .453-.453c0-.125-.047-.453-.516-.453.282-.36.766-.469 1.079-.469.5 0 1.062.39 1.062 1.281v.36c-.516.03-1.203.062-1.828.359-.75.344-1 .86-1 1.297 0 .812.969 1.062 1.594 1.062.656 0 1.109-.406 1.296-.859zM3.25-2.39v1c0 .937-.719 1.28-1.172 1.28-.484 0-.89-.343-.89-.843 0-.547.421-1.375 2.062-1.438zm0 0"/></symbol><symbol overflow="visible" id="W"><path style="stroke:none" d="M2.031-.016c0-.625-.25-1.046-.64-1.046-.36 0-.532.28-.532.53 0 .266.172.532.532.532a.578.578 0 0 0 .375-.14l.015-.016c.016 0 .016 0 .016.14 0 .641-.266 1.25-.703 1.72-.063.062-.078.077-.078.109 0 .078.046.109.093.109.125 0 .922-.781.922-1.938zm0 0"/></symbol><symbol overflow="visible" id="X"><path style="stroke:none" d="M2.219-1.719c-.875 0-.875-1-.875-1.218 0-.266.015-.594.156-.844.078-.11.313-.39.719-.39.86 0 .86.984.86 1.218 0 .265 0 .594-.157.844-.078.109-.313.39-.703.39Zm-1.156.39c0-.03 0-.265.156-.468.39.281.812.313 1 .313.922 0 1.61-.688 1.61-1.454 0-.374-.157-.734-.407-.968.36-.344.719-.39.89-.39.032 0 .079 0 .11.015-.11.031-.172.14-.172.265 0 .172.14.282.297.282a.28.28 0 0 0 .281-.297c0-.172-.11-.485-.5-.485-.203 0-.64.063-1.062.47a1.652 1.652 0 0 0-1.047-.36c-.938 0-1.625.687-1.625 1.453 0 .437.219.812.469 1.031-.125.14-.313.469-.313.828 0 .313.14.688.453.89-.61.157-.922.595-.922.985 0 .719.985 1.266 2.203 1.266 1.172 0 2.204-.5 2.204-1.281 0-.344-.125-.86-.641-1.141-.531-.266-1.11-.266-1.719-.266-.25 0-.672 0-.75-.015-.312-.047-.516-.344-.516-.672ZM2.5 1.829C1.484 1.828.797 1.312.797.781c0-.453.375-.828.812-.844h.594c.86 0 1.969 0 1.969.844 0 .547-.703 1.047-1.672 1.047zm0 0"/></symbol><symbol overflow="visible" id="Y"><path style="stroke:none" d="M1.36-.781c0 .36-.032.469-.798.469H.329V0h5.75L6.5-2.578h-.25C6-1.031 5.766-.313 4.062-.313H2.734c-.468 0-.484-.062-.484-.39v-2.672h.89c.97 0 1.079.328 1.079 1.172h.25v-2.64h-.25c0 .859-.11 1.171-1.078 1.171H2.25v-2.406c0-.328.016-.39.484-.39h1.282c1.53 0 1.796.546 1.953 1.937h.25l-.282-2.25H.329v.312h.234c.766 0 .797.11.797.469zm0 0"/></symbol><symbol overflow="visible" id="Z"><path style="stroke:none" d="M1.719-3.766v-3.156l-1.438.11v.312c.703 0 .781.063.781.563V0h.25c0-.016.079-.156.36-.625.14.234.562.734 1.297.734 1.187 0 2.219-.984 2.219-2.265 0-1.266-.97-2.25-2.11-2.25-.781 0-1.203.468-1.36.64zM1.75-1.14v-2.046c0-.188 0-.204.11-.36.39-.562.937-.64 1.171-.64.453 0 .813.265 1.047.64.266.406.281.969.281 1.39 0 .36-.015.954-.296 1.407-.22.313-.594.64-1.125.64-.454 0-.813-.234-1.047-.609-.141-.203-.141-.234-.141-.422Zm0 0"/></symbol><symbol overflow="visible" id="aa"><path style="stroke:none" d="M1.75-4.297v-1.156c0-.875.469-1.36.906-1.36.031 0 .188 0 .328.079a.443.443 0 0 0-.296.421c0 .22.156.422.437.422s.438-.203.438-.437c0-.375-.376-.703-.907-.703-.687 0-1.547.531-1.547 1.593v1.141H.33v.313h.78V-.75c0 .438-.109.438-.765.438V0c.39-.016.86-.031 1.125-.031.406 0 .875 0 1.265.031v-.313h-.203c-.734 0-.75-.109-.75-.468v-3.203h1.125v-.313zm0 0"/></symbol><symbol overflow="visible" id="ab"><path style="stroke:none" d="M2.75-1.86v-.577H.11v.578zm0 0"/></symbol><symbol overflow="visible" id="ac"><path style="stroke:none" d="M2.313-6.672c-.094-.125-.094-.14-.282-.14H.328v.312h.297c.14 0 .344.016.484.016.235.03.25.046.25.234v5.203c0 .266 0 .734-1.03.734V0c.343-.016.843-.031 1.171-.031.328 0 .813.015 1.156.031v-.313c-1.015 0-1.015-.468-1.015-.734v-5.187c.046.046.046.062.093.125L5.797-.125c.094.11.11.125.172.125.14 0 .14-.063.14-.266v-5.5c0-.265 0-.734 1.032-.734v-.313c-.36.016-.844.032-1.172.032-.328 0-.813-.016-1.157-.032v.313c1.016 0 1.016.469 1.016.734V-1.5Zm0 0"/></symbol><symbol overflow="visible" id="ad"><path style="stroke:none" d="M3.781-.61v1.782c0 .453-.11.453-.765.453v.313c.328-.016.859-.032 1.109-.032.266 0 .781.016 1.125.032v-.313c-.672 0-.781 0-.781-.453v-5.578H4.25l-.375.906c-.125-.281-.531-.906-1.328-.906-1.156 0-2.203.968-2.203 2.265 0 1.25.969 2.25 2.125 2.25.687 0 1.094-.421 1.312-.718zm.031-2.156v1.407c0 .328-.171.609-.39.843-.125.141-.453.407-.922.407-.719 0-1.328-.891-1.328-2.032 0-1.187.687-2.015 1.437-2.015.797 0 1.204.86 1.204 1.39zm0 0"/></symbol><symbol overflow="visible" id="ae"><path style="stroke:none" d="M2.266-3.156h1.687c1.188 0 2.266-.797 2.266-1.797 0-.984-.985-1.86-2.344-1.86H.344v.313h.25c.765 0 .781.11.781.469v5.25c0 .36-.016.469-.781.469h-.25V0c.36-.031 1.094-.031 1.469-.031s1.125 0 1.484.031v-.313h-.25c-.766 0-.781-.109-.781-.468zm-.032-.25v-2.688c0-.343.016-.406.485-.406h.89c1.579 0 1.579 1.063 1.579 1.547 0 .469 0 1.547-1.579 1.547zm0 0"/></symbol><symbol overflow="visible" id="af"><path style="stroke:none" d="M.344-6.813v.313h.25c.765 0 .781.11.781.469v5.25c0 .36-.016.469-.781.469h-.25V0H4c1.672 0 3.047-1.469 3.047-3.344C7.047-5.25 5.703-6.813 4-6.813Zm2.375 6.5c-.469 0-.485-.062-.485-.39v-5.39c0-.345.016-.407.485-.407h1c.625 0 1.312.219 1.812.922.438.594.516 1.453.516 2.234 0 1.094-.188 1.703-.547 2.188a2.192 2.192 0 0 1-1.766.843zm0 0"/></symbol><symbol overflow="visible" id="aj"><path style="stroke:none" d="M4.14-7.5c0-.344-.03-.344-.406-.344-.89.766-2.218.766-2.484.766h-.219v.516h.219c.422 0 1.063-.079 1.531-.235v6.281H1.125V0c.5-.031 1.75-.031 2.313-.031.562 0 1.828 0 2.328.031v-.516H4.14zm0 0"/></symbol><symbol overflow="visible" id="ak"><path style="stroke:none" d="M2.719-.86c0-.484-.39-.859-.86-.859A.867.867 0 0 0 1-.859c0 .484.406.859.86.859.468 0 .859-.375.859-.86Zm0 0"/></symbol><symbol overflow="visible" id="al"><path style="stroke:none" d="M6.031-2.563h-.5c-.031.25-.11.954-.297 1.063-.093.094-1.03.094-1.203.094h-1.86a64.225 64.225 0 0 1 1.72-1.422c1.328-1 2.14-1.61 2.14-2.75 0-1.422-1.281-2.266-2.86-2.266-1.343 0-2.5.766-2.5 1.907 0 .625.516.812.782.812.375 0 .813-.25.813-.797 0-.516-.375-.766-.75-.812.484-.547 1.109-.594 1.359-.594 1.11 0 1.625.89 1.625 1.766 0 .921-.625 1.78-1.125 2.296L.781-.546c-.11.109-.11.124-.11.343V0h5.016Zm0 0"/></symbol><symbol overflow="visible" id="am"><path style="stroke:none" d="M7.531-8.14H.453v.515H1.72v7.11H.453V0C.797-.031 2.156-.031 2.61-.031c.625 0 1.688 0 2.282.031v-.516H3.297v-3.296h.656c1.156 0 1.25.53 1.25 1.39h.5v-3.297h-.5c0 .86-.094 1.39-1.25 1.39h-.656v-3.296h1.719c1.89 0 2.187.875 2.359 2.313h.5zm0 0"/></symbol><symbol overflow="visible" id="an"><path style="stroke:none" d="M2.672-7.453a.867.867 0 0 0-1.735 0c0 .453.375.86.875.86.454 0 .86-.36.86-.86zM.562-5.281v.515c.704 0 .782 0 .782.47v3.78H.53V0c.266-.031 1.094-.031 1.422-.031.328 0 1.094 0 1.375.031v-.516h-.734v-4.859Zm0 0"/></symbol><symbol overflow="visible" id="ao"><path style="stroke:none" d="M2.484-2.688c0-.39.079-2.296 1.485-2.296-.172.125-.25.328-.25.546 0 .5.39.704.687.704.297 0 .703-.204.703-.704 0-.609-.625-.937-1.203-.937-.937 0-1.344.828-1.515 1.328h-.016v-1.328l-1.953.094v.515c.734 0 .828 0 .828.47v3.78H.422V0c.266-.031 1.172-.031 1.5-.031.344 0 1.312 0 1.61.031v-.516H2.483Zm0 0"/></symbol><symbol overflow="visible" id="ap"><path style="stroke:none" d="M4.5-5.11c0-.218 0-.312-.172-.312-.078 0-.094 0-.281.11a1.225 1.225 0 0 1-.234.156c-.329-.188-.782-.266-1.204-.266-.359 0-2.156 0-2.156 1.563 0 1.25 1.484 1.515 1.86 1.578.312.062.718.125.765.125.469.11.953.406.953.906 0 .922-1.093.922-1.343.922-.61 0-1.36-.188-1.704-1.344-.062-.234-.078-.25-.28-.25-.25 0-.25.031-.25.313v1.375c0 .218 0 .312.187.312.078 0 .093 0 .343-.203l.313-.219c.531.422 1.172.422 1.39.422.657 0 2.157-.156 2.157-1.734 0-.578-.313-.969-.547-1.188-.5-.406-.906-.484-1.547-.594-.766-.14-1.484-.265-1.484-.843 0-.782 1.062-.782 1.312-.782 1.328 0 1.406.844 1.422 1.141.016.156.11.156.25.156.25 0 .25-.03.25-.312zm0 0"/></symbol><symbol overflow="visible" id="aq"><path style="stroke:none" d="M2.516-4.797H4.25v-.516H2.516v-2.28h-.5c0 1.187-.579 2.374-1.766 2.405v.391h.969v3.328c0 1.266.984 1.547 1.843 1.547.876 0 1.407-.672 1.407-1.562v-.625h-.5v.609c0 .797-.36 1.14-.735 1.14-.718 0-.718-.796-.718-1.078zm0 0"/></symbol><symbol overflow="visible" id="ar"><path style="stroke:none" d="M3.031-5.266c-1.172-.25-1.219-1.125-1.219-1.28 0-.61.407-1.313 1.563-1.313s2.188.562 2.453 2.125c.031.25.031.265.25.265.25 0 .25-.047.25-.312v-2.25c0-.235 0-.313-.172-.313-.078 0-.125.016-.234.125l-.5.594c-.313-.25-.906-.719-2.063-.719-1.703 0-2.625 1.078-2.625 2.375 0 .813.438 1.36.61 1.532.61.625.953.703 2.187.968 1.203.266 1.344.297 1.61.547.156.156.5.485.5 1.094 0 .516-.25 1.453-1.594 1.453C3-.375 1.344-.735 1.25-2.469c-.016-.219-.016-.25-.266-.25s-.25.031-.25.297v2.25c0 .234 0 .313.188.313.078 0 .094-.016.219-.11.125-.14.234-.297.53-.594.688.547 1.673.704 2.391.704 1.86 0 2.657-1.266 2.657-2.532 0-1.125-.75-2.203-2.047-2.5zm0 0"/></symbol><symbol overflow="visible" id="as"><path style="stroke:none" d="M4.219-5.281v.515c.734 0 .828 0 .828.47v2.343c0 .906-.547 1.625-1.469 1.625-.906 0-.953-.297-.953-.953v-4.094L.5-5.281v.515c.75 0 .828 0 .828.47v2.827c0 1.188.797 1.547 2.078 1.547.281 0 1.172 0 1.688-.969h.015v.97L7.172 0v-.516c-.734 0-.828 0-.828-.468v-4.391Zm0 0"/></symbol><symbol overflow="visible" id="at"><path style="stroke:none" d="m2.484-8.297-2.062.094v.515c.734 0 .828 0 .828.47V0h.5c.203-.234.406-.453.594-.688.61.625 1.265.766 1.75.766C5.734.078 7-.938 7-2.672c0-1.625-1.125-2.703-2.75-2.703-.719 0-1.281.219-1.766.61zm.063 4.094a1.932 1.932 0 0 1 1.547-.781c1.468 0 1.468 1.515 1.468 2.312 0 .531 0 1.219-.28 1.656-.376.579-.938.688-1.313.688-.813 0-1.25-.563-1.422-.828zm0 0"/></symbol><symbol overflow="visible" id="au"><path style="stroke:none" d="M5.406-2.64c.266 0 .344 0 .344-.297 0-.36-.078-1.266-.64-1.813-.5-.516-1.173-.672-1.86-.672-1.86 0-2.875 1.219-2.875 2.734C.375-1.016 1.609.079 3.406.079 5.22.078 5.75-1.188 5.75-1.406c0-.172-.188-.172-.25-.172-.188 0-.203.031-.281.187-.313.782-1.094 1.032-1.672 1.032-1.735 0-1.735-1.61-1.735-2.282zm-3.593-.344c.015-.5.03-.954.28-1.391a1.32 1.32 0 0 1 1.157-.64c1.281 0 1.39 1.437 1.406 2.03zm0 0"/></symbol><symbol overflow="visible" id="av"><path style="stroke:none" d="M5.594-1.406c0-.14-.125-.14-.25-.14-.188 0-.203.015-.266.155-.078.235-.406 1.032-1.5 1.032-1.687 0-1.687-1.813-1.687-2.36 0-.703.015-2.265 1.578-2.265.078 0 .781.03.781.078 0 .015 0 .031-.031.047a.733.733 0 0 0-.188.515c0 .5.407.703.703.703.25 0 .704-.156.704-.718 0-.985-1.375-1.063-2.016-1.063-2.125 0-2.969 1.39-2.969 2.766 0 1.625 1.14 2.734 2.89 2.734 1.876 0 2.25-1.39 2.25-1.484zm0 0"/></symbol><symbol overflow="visible" id="aw"><path style="stroke:none" d="M6.328-2.625c0-1.61-1.094-2.797-2.969-2.797-1.953 0-2.984 1.25-2.984 2.797C.375-1.047 1.469.078 3.344.078c1.953 0 2.984-1.187 2.984-2.703zM3.36-.359c-1.546 0-1.546-1.391-1.546-2.375 0-.563 0-1.157.218-1.594.266-.484.797-.688 1.313-.688.687 0 1.11.313 1.312.657.25.421.25 1.046.25 1.625 0 .984 0 2.375-1.547 2.375zm0 0"/></symbol><symbol overflow="visible" id="ax"><path style="stroke:none" d="M6.344-3.656c0-1.14-.485-1.719-1.797-1.719-.86 0-1.61.422-2.016 1.313h-.015v-1.313L.5-5.281v.515c.75 0 .828 0 .828.47v3.78H.5V0c.281-.031 1.14-.031 1.469-.031.343 0 1.203 0 1.484.031v-.516h-.828v-2.546c0-1.282.953-1.922 1.719-1.922.453 0 .703.28.703 1.187v3.281h-.828V0c.281-.031 1.14-.031 1.468-.031.344 0 1.204 0 1.485.031v-.516h-.828Zm0 0"/></symbol></defs><g style="fill:#000;fill-opacity:1" transform="matrix(.35278 0 0 .35278 -37.811 -68.486)"><use y="208.556" x="106.869" xlink:href="#a" width="100%" height="100%"/><use y="208.556" x="123.657" xlink:href="#b" width="100%" height="100%"/><use y="208.556" x="136.571" xlink:href="#c" width="100%" height="100%"/><use y="208.556" x="147.872" xlink:href="#d" width="100%" height="100%"/><use y="208.556" x="160.786" xlink:href="#e" width="100%" height="100%"/><use y="208.556" x="169.826" xlink:href="#f" width="100%" height="100%"/><use y="208.556" x="180.432" xlink:href="#g" width="100%" height="100%"/></g><use y="208.556" x="197.674" xlink:href="#h" width="100%" height="100%" style="fill:#000;fill-opacity:1" transform="matrix(.35278 0 0 .35278 -37.811 -68.486)"/><g style="fill:#000;fill-opacity:1" transform="matrix(.35278 0 0 .35278 -37.811 -68.486)"><use y="258.369" x="106.869" xlink:href="#i" width="100%" height="100%"/><use y="258.369" x="124.398" xlink:href="#j" width="100%" height="100%"/><use y="258.369" x="132.144" xlink:href="#k" width="100%" height="100%"/><use y="258.369" x="143.534" xlink:href="#l" width="100%" height="100%"/><use y="258.369" x="154.535" xlink:href="#m" width="100%" height="100%"/></g><g style="fill:#000;fill-opacity:1" transform="matrix(.35278 0 0 .35278 -37.811 -68.486)"><use y="258.369" x="174.674" xlink:href="#n" width="100%" height="100%"/><use y="258.369" x="194.814" xlink:href="#o" width="100%" height="100%"/><use y="258.369" x="210.306" xlink:href="#p" width="100%" height="100%"/><use y="258.369" x="223.862" xlink:href="#q" width="100%" height="100%"/><use y="258.369" x="239.354" xlink:href="#m" width="100%" height="100%"/><use y="258.369" x="250.198" xlink:href="#r" width="100%" height="100%"/><use y="258.369" x="262.921" xlink:href="#k" width="100%" height="100%"/></g><g style="fill:#000;fill-opacity:1" transform="matrix(.35278 0 0 .35278 -37.811 -68.486)"><use y="316.152" x="106.869" xlink:href="#s" width="100%" height="100%"/><use y="316.152" x="114.939" xlink:href="#t" width="100%" height="100%"/><use y="316.152" x="119.422" xlink:href="#s" width="100%" height="100%"/></g><g style="fill:#000;fill-opacity:1" transform="matrix(.35278 0 0 .35278 -37.811 -68.486)"><use y="316.152" x="143.631" xlink:href="#u" width="100%" height="100%"/><use y="316.152" x="149.642" xlink:href="#v" width="100%" height="100%"/></g><g style="fill:#000;fill-opacity:1" transform="matrix(.35278 0 0 .35278 -37.811 -68.486)"><use y="316.152" x="158.164" xlink:href="#w" width="100%" height="100%"/><use y="316.152" x="164.44" xlink:href="#x" width="100%" height="100%"/><use y="316.152" x="171.032" xlink:href="#y" width="100%" height="100%"/></g><g style="fill:#000;fill-opacity:1" transform="matrix(.35278 0 0 .35278 -37.811 -68.486)"><use y="316.152" x="179.547" xlink:href="#z" width="100%" height="100%"/><use y="316.152" x="188.513" xlink:href="#A" width="100%" height="100%"/><use y="316.152" x="197.48" xlink:href="#B" width="100%" height="100%"/><use y="316.152" x="204.653" xlink:href="#w" width="100%" height="100%"/><use y="316.152" x="210.929" xlink:href="#C" width="100%" height="100%"/><use y="316.152" x="215.412" xlink:href="#y" width="100%" height="100%"/><use y="316.152" x="223.482" xlink:href="#v" width="100%" height="100%"/></g><g style="fill:#000;fill-opacity:1" transform="matrix(.35278 0 0 .35278 -37.811 -68.486)"><use y="337.973" x="106.869" xlink:href="#D" width="100%" height="100%"/><use y="337.973" x="114.064" xlink:href="#E" width="100%" height="100%"/><use y="337.973" x="119.599" xlink:href="#F" width="100%" height="100%"/><use y="337.973" x="122.367" xlink:href="#G" width="100%" height="100%"/></g><g style="fill:#000;fill-opacity:1" transform="matrix(.35278 0 0 .35278 -37.811 -68.486)"><use y="337.973" x="129.614" xlink:href="#F" width="100%" height="100%"/><use y="337.973" x="132.381" xlink:href="#G" width="100%" height="100%"/></g><g style="fill:#000;fill-opacity:1" transform="matrix(.35278 0 0 .35278 -37.811 -68.486)"><use y="337.973" x="139.638" xlink:href="#H" width="100%" height="100%"/><use y="337.973" x="143.512" xlink:href="#E" width="100%" height="100%"/><use y="337.973" x="149.048" xlink:href="#I" width="100%" height="100%"/></g><g style="fill:#000;fill-opacity:1" transform="matrix(.35278 0 0 .35278 -37.811 -68.486)"><use y="337.973" x="156.793" xlink:href="#J" width="100%" height="100%"/><use y="337.973" x="162.328" xlink:href="#K" width="100%" height="100%"/><use y="337.973" x="166.23" xlink:href="#G" width="100%" height="100%"/><use y="337.973" x="170.159" xlink:href="#H" width="100%" height="100%"/></g><g style="fill:#000;fill-opacity:1" transform="matrix(.35278 0 0 .35278 -37.811 -68.486)"><use y="337.973" x="177.351" xlink:href="#G" width="100%" height="100%"/><use y="337.973" x="181.281" xlink:href="#I" width="100%" height="100%"/><use y="337.973" x="185.708" xlink:href="#L" width="100%" height="100%"/><use y="337.973" x="190.135" xlink:href="#H" width="100%" height="100%"/><use y="337.973" x="194.01" xlink:href="#F" width="100%" height="100%"/><use y="337.973" x="196.777" xlink:href="#M" width="100%" height="100%"/><use y="337.973" x="201.759" xlink:href="#N" width="100%" height="100%"/><use y="337.973" x="207.294" xlink:href="#O" width="100%" height="100%"/></g><g style="fill:#000;fill-opacity:1" transform="matrix(.35278 0 0 .35278 -37.811 -68.486)"><use y="349.928" x="121.813" xlink:href="#P" width="100%" height="100%"/><use y="349.928" x="128.04" xlink:href="#M" width="100%" height="100%"/><use y="349.928" x="133.021" xlink:href="#K" width="100%" height="100%"/><use y="349.928" x="136.923" xlink:href="#I" width="100%" height="100%"/><use y="349.928" x="141.351" xlink:href="#Q" width="100%" height="100%"/></g><g style="fill:#000;fill-opacity:1" transform="matrix(.35278 0 0 .35278 -37.811 -68.486)"><use y="349.928" x="153.159" xlink:href="#F" width="100%" height="100%"/><use y="349.928" x="155.927" xlink:href="#R" width="100%" height="100%"/><use y="349.928" x="161.462" xlink:href="#G" width="100%" height="100%"/><use y="349.928" x="165.391" xlink:href="#S" width="100%" height="100%"/><use y="349.928" x="170.927" xlink:href="#Q" width="100%" height="100%"/></g><g style="fill:#000;fill-opacity:1" transform="matrix(.35278 0 0 .35278 -37.811 -68.486)"><use y="349.928" x="182.735" xlink:href="#T" width="100%" height="100%"/><use y="349.928" x="188.271" xlink:href="#M" width="100%" height="100%"/><use y="349.928" x="193.252" xlink:href="#U" width="100%" height="100%"/><use y="349.928" x="196.019" xlink:href="#M" width="100%" height="100%"/><use y="349.928" x="201.001" xlink:href="#K" width="100%" height="100%"/></g><g style="fill:#000;fill-opacity:1" transform="matrix(.35278 0 0 .35278 -37.811 -68.486)"><use y="349.928" x="208.41" xlink:href="#G" width="100%" height="100%"/><use y="349.928" x="212.339" xlink:href="#F" width="100%" height="100%"/><use y="349.928" x="215.107" xlink:href="#H" width="100%" height="100%"/></g><g style="fill:#000;fill-opacity:1" transform="matrix(.35278 0 0 .35278 -37.811 -68.486)"><use y="349.928" x="222.488" xlink:href="#V" width="100%" height="100%"/><use y="349.928" x="227.469" xlink:href="#Q" width="100%" height="100%"/><use y="349.928" x="235.771" xlink:href="#I" width="100%" height="100%"/><use y="349.928" x="240.199" xlink:href="#H" width="100%" height="100%"/><use y="349.928" x="244.073" xlink:href="#W" width="100%" height="100%"/></g><g style="fill:#000;fill-opacity:1" transform="matrix(.35278 0 0 .35278 -37.811 -68.486)"><use y="349.928" x="250.397" xlink:href="#L" width="100%" height="100%"/><use y="349.928" x="254.825" xlink:href="#M" width="100%" height="100%"/><use y="349.928" x="259.806" xlink:href="#N" width="100%" height="100%"/><use y="349.928" x="265.341" xlink:href="#G" width="100%" height="100%"/><use y="349.928" x="269.27" xlink:href="#I" width="100%" height="100%"/><use y="349.928" x="273.698" xlink:href="#L" width="100%" height="100%"/><use y="349.928" x="278.125" xlink:href="#H" width="100%" height="100%"/><use y="349.928" x="282" xlink:href="#I" width="100%" height="100%"/><use y="349.928" x="286.427" xlink:href="#H" width="100%" height="100%"/><use y="349.928" x="290.301" xlink:href="#S" width="100%" height="100%"/><use y="349.928" x="295.837" xlink:href="#I" width="100%" height="100%"/><use y="349.928" x="300.264" xlink:href="#K" width="100%" height="100%"/></g><g style="fill:#000;fill-opacity:1" transform="matrix(.35278 0 0 .35278 -37.811 -68.486)"><use y="349.928" x="307.673" xlink:href="#V" width="100%" height="100%"/><use y="349.928" x="312.655" xlink:href="#T" width="100%" height="100%"/><use y="349.928" x="318.19" xlink:href="#F" width="100%" height="100%"/><use y="349.928" x="320.957" xlink:href="#R" width="100%" height="100%"/><use y="349.928" x="326.493" xlink:href="#F" width="100%" height="100%"/><use y="349.928" x="329.26" xlink:href="#G" width="100%" height="100%"/><use y="349.928" x="333.189" xlink:href="#L" width="100%" height="100%"/><use y="349.928" x="337.617" xlink:href="#F" width="100%" height="100%"/><use y="349.928" x="340.384" xlink:href="#N" width="100%" height="100%"/><use y="349.928" x="345.92" xlink:href="#X" width="100%" height="100%"/></g><g style="fill:#000;fill-opacity:1" transform="matrix(.35278 0 0 .35278 -37.811 -68.486)"><use y="349.928" x="354.408" xlink:href="#I" width="100%" height="100%"/><use y="349.928" x="358.835" xlink:href="#U" width="100%" height="100%"/><use y="349.928" x="361.603" xlink:href="#F" width="100%" height="100%"/><use y="349.928" x="364.37" xlink:href="#H" width="100%" height="100%"/><use y="349.928" x="368.245" xlink:href="#O" width="100%" height="100%"/></g><g style="fill:#000;fill-opacity:1" transform="matrix(.35278 0 0 .35278 -37.811 -68.486)"><use y="349.928" x="376.004" xlink:href="#Y" width="100%" height="100%"/><use y="349.928" x="382.784" xlink:href="#H" width="100%" height="100%"/><use y="349.928" x="386.659" xlink:href="#F" width="100%" height="100%"/><use y="349.928" x="389.426" xlink:href="#V" width="100%" height="100%"/><use y="349.928" x="394.408" xlink:href="#Q" width="100%" height="100%"/></g><g style="fill:#000;fill-opacity:1" transform="matrix(.35278 0 0 .35278 -37.811 -68.486)"><use y="349.928" x="406.216" xlink:href="#U" width="100%" height="100%"/><use y="349.928" x="408.984" xlink:href="#M" width="100%" height="100%"/><use y="349.928" x="413.965" xlink:href="#Z" width="100%" height="100%"/></g><g style="fill:#000;fill-opacity:1" transform="matrix(.35278 0 0 .35278 -37.811 -68.486)"><use y="349.928" x="419.779" xlink:href="#M" width="100%" height="100%"/><use y="349.928" x="424.761" xlink:href="#K" width="100%" height="100%"/><use y="349.928" x="428.663" xlink:href="#H" width="100%" height="100%"/><use y="349.928" x="432.538" xlink:href="#F" width="100%" height="100%"/><use y="349.928" x="435.305" xlink:href="#G" width="100%" height="100%"/><use y="349.928" x="439.234" xlink:href="#aa" width="100%" height="100%"/><use y="349.928" x="442.279" xlink:href="#V" width="100%" height="100%"/><use y="349.928" x="447.26" xlink:href="#ab" width="100%" height="100%"/></g><g style="fill:#000;fill-opacity:1" transform="matrix(.35278 0 0 .35278 -37.811 -68.486)"><use y="361.883" x="106.869" xlink:href="#L" width="100%" height="100%"/><use y="361.883" x="111.296" xlink:href="#F" width="100%" height="100%"/><use y="361.883" x="114.064" xlink:href="#U" width="100%" height="100%"/><use y="361.883" x="116.832" xlink:href="#F" width="100%" height="100%"/><use y="361.883" x="119.599" xlink:href="#G" width="100%" height="100%"/><use y="361.883" x="123.528" xlink:href="#F" width="100%" height="100%"/><use y="361.883" x="126.296" xlink:href="#G" width="100%" height="100%"/></g><g style="fill:#000;fill-opacity:1" transform="matrix(.35278 0 0 .35278 -37.811 -68.486)"><use y="361.883" x="133.164" xlink:href="#G" width="100%" height="100%"/><use y="361.883" x="137.094" xlink:href="#I" width="100%" height="100%"/><use y="361.883" x="141.521" xlink:href="#Q" width="100%" height="100%"/><use y="361.883" x="149.823" xlink:href="#O" width="100%" height="100%"/></g><g style="fill:#000;fill-opacity:1" transform="matrix(.35278 0 0 .35278 -37.811 -68.486)"><use y="361.883" x="156.894" xlink:href="#ac" width="100%" height="100%"/><use y="361.883" x="164.366" xlink:href="#S" width="100%" height="100%"/><use y="361.883" x="169.901" xlink:href="#U" width="100%" height="100%"/><use y="361.883" x="172.669" xlink:href="#U" width="100%" height="100%"/><use y="361.883" x="175.437" xlink:href="#V" width="100%" height="100%"/><use y="361.883" x="180.418" xlink:href="#Q" width="100%" height="100%"/></g><g style="fill:#000;fill-opacity:1" transform="matrix(.35278 0 0 .35278 -37.811 -68.486)"><use y="361.883" x="191.659" xlink:href="#N" width="100%" height="100%"/><use y="361.883" x="197.194" xlink:href="#I" width="100%" height="100%"/><use y="361.883" x="201.621" xlink:href="#L" width="100%" height="100%"/></g><use y="361.883" x="208.988" xlink:href="#Q" width="100%" height="100%" style="fill:#000;fill-opacity:1" transform="matrix(.35278 0 0 .35278 -37.811 -68.486)"/><use y="361.883" x="217.299" xlink:href="#F" width="100%" height="100%" style="fill:#000;fill-opacity:1" transform="matrix(.35278 0 0 .35278 -37.811 -68.486)"/><g style="fill:#000;fill-opacity:1" transform="matrix(.35278 0 0 .35278 -37.811 -68.486)"><use y="361.883" x="223.006" xlink:href="#I" width="100%" height="100%"/><use y="361.883" x="227.433" xlink:href="#H" width="100%" height="100%"/></g><g style="fill:#000;fill-opacity:1" transform="matrix(.35278 0 0 .35278 -37.811 -68.486)"><use y="361.883" x="234.247" xlink:href="#N" width="100%" height="100%"/><use y="361.883" x="239.782" xlink:href="#I" width="100%" height="100%"/><use y="361.883" x="244.209" xlink:href="#ad" width="100%" height="100%"/><use y="361.883" x="249.468" xlink:href="#S" width="100%" height="100%"/><use y="361.883" x="255.003" xlink:href="#I" width="100%" height="100%"/></g><g style="fill:#000;fill-opacity:1" transform="matrix(.35278 0 0 .35278 -37.811 -68.486)"><use y="361.883" x="262.369" xlink:href="#R" width="100%" height="100%"/><use y="361.883" x="267.904" xlink:href="#E" width="100%" height="100%"/><use y="361.883" x="273.44" xlink:href="#V" width="100%" height="100%"/><use y="361.883" x="278.421" xlink:href="#K" width="100%" height="100%"/><use y="361.883" x="282.323" xlink:href="#I" width="100%" height="100%"/><use y="361.883" x="286.751" xlink:href="#H" width="100%" height="100%"/><use y="361.883" x="290.625" xlink:href="#K" width="100%" height="100%"/><use y="361.883" x="294.528" xlink:href="#V" width="100%" height="100%"/></g><g style="fill:#000;fill-opacity:1" transform="matrix(.35278 0 0 .35278 -37.811 -68.486)"><use y="361.883" x="302.448" xlink:href="#G" width="100%" height="100%"/><use y="361.883" x="306.377" xlink:href="#M" width="100%" height="100%"/><use y="361.883" x="311.358" xlink:href="#U" width="100%" height="100%"/><use y="361.883" x="314.126" xlink:href="#U" width="100%" height="100%"/><use y="361.883" x="316.894" xlink:href="#F" width="100%" height="100%"/><use y="361.883" x="319.661" xlink:href="#L" width="100%" height="100%"/><use y="361.883" x="324.089" xlink:href="#F" width="100%" height="100%"/><use y="361.883" x="326.856" xlink:href="#H" width="100%" height="100%"/><use y="361.883" x="330.731" xlink:href="#S" width="100%" height="100%"/><use y="361.883" x="336.266" xlink:href="#T" width="100%" height="100%"/><use y="361.883" x="341.801" xlink:href="#F" width="100%" height="100%"/><use y="361.883" x="344.569" xlink:href="#N" width="100%" height="100%"/><use y="361.883" x="350.104" xlink:href="#O" width="100%" height="100%"/></g><g style="fill:#000;fill-opacity:1" transform="matrix(.35278 0 0 .35278 -37.811 -68.486)"><use y="361.883" x="357.175" xlink:href="#ae" width="100%" height="100%"/><use y="361.883" x="363.956" xlink:href="#K" width="100%" height="100%"/><use y="361.883" x="367.858" xlink:href="#V" width="100%" height="100%"/><use y="361.883" x="372.84" xlink:href="#I" width="100%" height="100%"/><use y="361.883" x="377.267" xlink:href="#G" width="100%" height="100%"/><use y="361.883" x="381.196" xlink:href="#I" width="100%" height="100%"/><use y="361.883" x="385.624" xlink:href="#N" width="100%" height="100%"/></g><use y="361.883" x="390.88" xlink:href="#H" width="100%" height="100%" style="fill:#000;fill-opacity:1" transform="matrix(.35278 0 0 .35278 -37.811 -68.486)"/><g style="fill:#000;fill-opacity:1" transform="matrix(.35278 0 0 .35278 -37.811 -68.486)"><use y="361.883" x="397.693" xlink:href="#F" width="100%" height="100%"/><use y="361.883" x="400.461" xlink:href="#Q" width="100%" height="100%"/><use y="361.883" x="408.763" xlink:href="#R" width="100%" height="100%"/></g><g style="fill:#000;fill-opacity:1" transform="matrix(.35278 0 0 .35278 -37.811 -68.486)"><use y="361.883" x="414.577" xlink:href="#I" width="100%" height="100%"/><use y="361.883" x="419.004" xlink:href="#K" width="100%" height="100%"/><use y="361.883" x="422.907" xlink:href="#T" width="100%" height="100%"/><use y="361.883" x="428.442" xlink:href="#F" width="100%" height="100%"/><use y="361.883" x="431.209" xlink:href="#I" width="100%" height="100%"/><use y="361.883" x="435.637" xlink:href="#H" width="100%" height="100%"/><use y="361.883" x="439.511" xlink:href="#Q" width="100%" height="100%"/><use y="361.883" x="447.813" xlink:href="#F" width="100%" height="100%"/></g><g style="fill:#000;fill-opacity:1" transform="matrix(.35278 0 0 .35278 -37.811 -68.486)"><use y="373.839" x="106.869" xlink:href="#N" width="100%" height="100%"/><use y="373.839" x="112.404" xlink:href="#I" width="100%" height="100%"/><use y="373.839" x="116.832" xlink:href="#L" width="100%" height="100%"/></g><g style="fill:#000;fill-opacity:1" transform="matrix(.35278 0 0 .35278 -37.811 -68.486)"><use y="373.839" x="124.577" xlink:href="#V" width="100%" height="100%"/><use y="373.839" x="129.558" xlink:href="#N" width="100%" height="100%"/></g><g style="fill:#000;fill-opacity:1" transform="matrix(.35278 0 0 .35278 -37.811 -68.486)"><use y="373.839" x="134.824" xlink:href="#H" width="100%" height="100%"/><use y="373.839" x="138.699" xlink:href="#I" width="100%" height="100%"/><use y="373.839" x="143.126" xlink:href="#O" width="100%" height="100%"/></g><g style="fill:#000;fill-opacity:1" transform="matrix(.35278 0 0 .35278 -37.811 -68.486)"><use y="373.839" x="150.317" xlink:href="#af" width="100%" height="100%"/><use y="373.839" x="157.927" xlink:href="#M" width="100%" height="100%"/><use y="373.839" x="162.909" xlink:href="#N" width="100%" height="100%"/><use y="373.839" x="168.444" xlink:href="#I" width="100%" height="100%"/><use y="373.839" x="172.871" xlink:href="#L" width="100%" height="100%"/></g><g style="fill:#000;fill-opacity:1" transform="matrix(.35278 0 0 .35278 -37.811 -68.486)"><use y="373.839" x="180.616" xlink:href="#S" width="100%" height="100%"/><use y="373.839" x="186.151" xlink:href="#U" width="100%" height="100%"/><use y="373.839" x="188.919" xlink:href="#U" width="100%" height="100%"/><use y="373.839" x="191.687" xlink:href="#V" width="100%" height="100%"/><use y="373.839" x="196.668" xlink:href="#Q" width="100%" height="100%"/><use y="373.839" x="204.97" xlink:href="#L" width="100%" height="100%"/><use y="373.839" x="209.397" xlink:href="#M" width="100%" height="100%"/><use y="373.839" x="214.378" xlink:href="#K" width="100%" height="100%"/><use y="373.839" x="218.281" xlink:href="#R" width="100%" height="100%"/></g><g style="fill:#000;fill-opacity:1" transform="matrix(.35278 0 0 .35278 -37.811 -68.486)"><use y="373.839" x="224.095" xlink:href="#I" width="100%" height="100%"/><use y="373.839" x="228.522" xlink:href="#K" width="100%" height="100%"/><use y="373.839" x="232.425" xlink:href="#W" width="100%" height="100%"/></g><g style="fill:#000;fill-opacity:1" transform="matrix(.35278 0 0 .35278 -37.811 -68.486)"><use y="373.839" x="238.51" xlink:href="#aa" width="100%" height="100%"/><use y="373.839" x="241.554" xlink:href="#I" width="100%" height="100%"/><use y="373.839" x="245.982" xlink:href="#U" width="100%" height="100%"/><use y="373.839" x="248.749" xlink:href="#F" width="100%" height="100%"/><use y="373.839" x="251.517" xlink:href="#G" width="100%" height="100%"/></g><g style="fill:#000;fill-opacity:1" transform="matrix(.35278 0 0 .35278 -37.811 -68.486)"><use y="373.839" x="258.774" xlink:href="#N" width="100%" height="100%"/><use y="373.839" x="264.309" xlink:href="#M" width="100%" height="100%"/><use y="373.839" x="269.29" xlink:href="#N" width="100%" height="100%"/></g><g style="fill:#000;fill-opacity:1" transform="matrix(.35278 0 0 .35278 -37.811 -68.486)"><use y="373.839" x="278.143" xlink:href="#G" width="100%" height="100%"/><use y="373.839" x="282.072" xlink:href="#M" width="100%" height="100%"/></g><g style="fill:#000;fill-opacity:1" transform="matrix(.35278 0 0 .35278 -37.811 -68.486)"><use y="373.839" x="287.333" xlink:href="#T" width="100%" height="100%"/><use y="373.839" x="292.868" xlink:href="#V" width="100%" height="100%"/><use y="373.839" x="297.849" xlink:href="#U" width="100%" height="100%"/><use y="373.839" x="300.617" xlink:href="#I" width="100%" height="100%"/><use y="373.839" x="305.044" xlink:href="#G" width="100%" height="100%"/><use y="373.839" x="308.973" xlink:href="#O" width="100%" height="100%"/><use y="373.839" x="311.741" xlink:href="#O" width="100%" height="100%"/><use y="373.839" x="314.509" xlink:href="#O" width="100%" height="100%"/></g><g style="fill:#000;fill-opacity:1" transform="matrix(.35278 0 0 .35278 -37.811 -68.486)"><use y="406.784" x="106.869" xlink:href="#s" width="100%" height="100%"/><use y="406.784" x="114.939" xlink:href="#t" width="100%" height="100%"/><use y="406.784" x="119.422" xlink:href="#ag" width="100%" height="100%"/></g><g style="fill:#000;fill-opacity:1" transform="matrix(.35278 0 0 .35278 -37.811 -68.486)"><use y="406.784" x="143.631" xlink:href="#ah" width="100%" height="100%"/><use y="406.784" x="152.598" xlink:href="#ai" width="100%" height="100%"/><use y="406.784" x="159.961" xlink:href="#B" width="100%" height="100%"/><use y="406.784" x="167.135" xlink:href="#y" width="100%" height="100%"/><use y="406.784" x="175.204" xlink:href="#v" width="100%" height="100%"/><use y="406.784" x="184.171" xlink:href="#z" width="100%" height="100%"/></g><g style="fill:#000;fill-opacity:1" transform="matrix(.35278 0 0 .35278 -37.811 -68.486)"><use y="406.784" x="198.517" xlink:href="#ah" width="100%" height="100%"/><use y="406.784" x="207.483" xlink:href="#ai" width="100%" height="100%"/><use y="406.784" x="214.847" xlink:href="#B" width="100%" height="100%"/><use y="406.784" x="222.02" xlink:href="#w" width="100%" height="100%"/><use y="406.784" x="228.297" xlink:href="#C" width="100%" height="100%"/><use y="406.784" x="232.78" xlink:href="#y" width="100%" height="100%"/><use y="406.784" x="240.85" xlink:href="#v" width="100%" height="100%"/></g><g style="fill:#000;fill-opacity:1" transform="matrix(.35278 0 0 .35278 -37.811 -68.486)"><use y="428.605" x="106.869" xlink:href="#P" width="100%" height="100%"/><use y="428.605" x="113.096" xlink:href="#M" width="100%" height="100%"/><use y="428.605" x="118.077" xlink:href="#K" width="100%" height="100%"/><use y="428.605" x="121.979" xlink:href="#I" width="100%" height="100%"/><use y="428.605" x="126.407" xlink:href="#Q" width="100%" height="100%"/></g><g style="fill:#000;fill-opacity:1" transform="matrix(.35278 0 0 .35278 -37.811 -68.486)"><use y="428.605" x="138.335" xlink:href="#F" width="100%" height="100%"/><use y="428.605" x="141.102" xlink:href="#R" width="100%" height="100%"/><use y="428.605" x="146.638" xlink:href="#G" width="100%" height="100%"/><use y="428.605" x="150.567" xlink:href="#S" width="100%" height="100%"/><use y="428.605" x="156.102" xlink:href="#Q" width="100%" height="100%"/></g><g style="fill:#000;fill-opacity:1" transform="matrix(.35278 0 0 .35278 -37.811 -68.486)"><use y="428.605" x="168.03" xlink:href="#T" width="100%" height="100%"/><use y="428.605" x="173.566" xlink:href="#M" width="100%" height="100%"/><use y="428.605" x="178.547" xlink:href="#U" width="100%" height="100%"/><use y="428.605" x="181.315" xlink:href="#M" width="100%" height="100%"/><use y="428.605" x="186.296" xlink:href="#K" width="100%" height="100%"/></g><use y="428.605" x="193.825" xlink:href="#G" width="100%" height="100%" style="fill:#000;fill-opacity:1" transform="matrix(.35278 0 0 .35278 -37.811 -68.486)"/><g style="fill:#000;fill-opacity:1" transform="matrix(.35278 0 0 .35278 -37.811 -68.486)"><use y="428.605" x="197.764" xlink:href="#F" width="100%" height="100%"/><use y="428.605" x="200.531" xlink:href="#H" width="100%" height="100%"/></g><g style="fill:#000;fill-opacity:1" transform="matrix(.35278 0 0 .35278 -37.811 -68.486)"><use y="428.605" x="208.032" xlink:href="#V" width="100%" height="100%"/><use y="428.605" x="213.014" xlink:href="#Q" width="100%" height="100%"/><use y="428.605" x="221.315" xlink:href="#I" width="100%" height="100%"/><use y="428.605" x="225.743" xlink:href="#H" width="100%" height="100%"/><use y="428.605" x="229.617" xlink:href="#W" width="100%" height="100%"/></g><g style="fill:#000;fill-opacity:1" transform="matrix(.35278 0 0 .35278 -37.811 -68.486)"><use y="428.605" x="236.091" xlink:href="#L" width="100%" height="100%"/><use y="428.605" x="240.518" xlink:href="#M" width="100%" height="100%"/><use y="428.605" x="245.5" xlink:href="#N" width="100%" height="100%"/><use y="428.605" x="251.035" xlink:href="#G" width="100%" height="100%"/><use y="428.605" x="254.964" xlink:href="#I" width="100%" height="100%"/><use y="428.605" x="259.391" xlink:href="#L" width="100%" height="100%"/><use y="428.605" x="263.819" xlink:href="#H" width="100%" height="100%"/><use y="428.605" x="267.693" xlink:href="#I" width="100%" height="100%"/><use y="428.605" x="272.121" xlink:href="#H" width="100%" height="100%"/><use y="428.605" x="275.995" xlink:href="#S" width="100%" height="100%"/><use y="428.605" x="281.53" xlink:href="#I" width="100%" height="100%"/><use y="428.605" x="285.958" xlink:href="#K" width="100%" height="100%"/></g><g style="fill:#000;fill-opacity:1" transform="matrix(.35278 0 0 .35278 -37.811 -68.486)"><use y="428.605" x="293.486" xlink:href="#V" width="100%" height="100%"/><use y="428.605" x="298.468" xlink:href="#T" width="100%" height="100%"/><use y="428.605" x="304.003" xlink:href="#F" width="100%" height="100%"/><use y="428.605" x="306.771" xlink:href="#R" width="100%" height="100%"/><use y="428.605" x="312.306" xlink:href="#F" width="100%" height="100%"/><use y="428.605" x="315.073" xlink:href="#G" width="100%" height="100%"/><use y="428.605" x="319.003" xlink:href="#L" width="100%" height="100%"/><use y="428.605" x="323.43" xlink:href="#F" width="100%" height="100%"/><use y="428.605" x="326.198" xlink:href="#N" width="100%" height="100%"/><use y="428.605" x="331.733" xlink:href="#X" width="100%" height="100%"/></g><g style="fill:#000;fill-opacity:1" transform="matrix(.35278 0 0 .35278 -37.811 -68.486)"><use y="428.605" x="340.341" xlink:href="#I" width="100%" height="100%"/><use y="428.605" x="344.768" xlink:href="#U" width="100%" height="100%"/><use y="428.605" x="347.536" xlink:href="#F" width="100%" height="100%"/><use y="428.605" x="350.303" xlink:href="#H" width="100%" height="100%"/><use y="428.605" x="354.178" xlink:href="#O" width="100%" height="100%"/></g><g style="fill:#000;fill-opacity:1" transform="matrix(.35278 0 0 .35278 -37.811 -68.486)"><use y="428.605" x="362.295" xlink:href="#Y" width="100%" height="100%"/><use y="428.605" x="369.076" xlink:href="#H" width="100%" height="100%"/><use y="428.605" x="372.95" xlink:href="#F" width="100%" height="100%"/><use y="428.605" x="375.718" xlink:href="#V" width="100%" height="100%"/><use y="428.605" x="380.699" xlink:href="#Q" width="100%" height="100%"/></g><g style="fill:#000;fill-opacity:1" transform="matrix(.35278 0 0 .35278 -37.811 -68.486)"><use y="428.605" x="392.627" xlink:href="#U" width="100%" height="100%"/><use y="428.605" x="395.395" xlink:href="#M" width="100%" height="100%"/><use y="428.605" x="400.376" xlink:href="#Z" width="100%" height="100%"/></g><g style="fill:#000;fill-opacity:1" transform="matrix(.35278 0 0 .35278 -37.811 -68.486)"><use y="428.605" x="406.19" xlink:href="#M" width="100%" height="100%"/><use y="428.605" x="411.172" xlink:href="#K" width="100%" height="100%"/><use y="428.605" x="415.074" xlink:href="#H" width="100%" height="100%"/><use y="428.605" x="418.948" xlink:href="#F" width="100%" height="100%"/><use y="428.605" x="421.716" xlink:href="#G" width="100%" height="100%"/></g><g style="fill:#000;fill-opacity:1" transform="matrix(.35278 0 0 .35278 -37.811 -68.486)"><use y="428.605" x="429.272" xlink:href="#aa" width="100%" height="100%"/><use y="428.605" x="432.316" xlink:href="#V" width="100%" height="100%"/><use y="428.605" x="437.298" xlink:href="#L" width="100%" height="100%"/><use y="428.605" x="441.725" xlink:href="#F" width="100%" height="100%"/><use y="428.605" x="444.493" xlink:href="#U" width="100%" height="100%"/><use y="428.605" x="447.26" xlink:href="#ab" width="100%" height="100%"/></g><g style="fill:#000;fill-opacity:1" transform="matrix(.35278 0 0 .35278 -37.811 -68.486)"><use y="440.561" x="106.869" xlink:href="#F" width="100%" height="100%"/><use y="440.561" x="109.637" xlink:href="#G" width="100%" height="100%"/><use y="440.561" x="113.566" xlink:href="#F" width="100%" height="100%"/><use y="440.561" x="116.333" xlink:href="#G" width="100%" height="100%"/><use y="440.561" x="120.263" xlink:href="#G" width="100%" height="100%"/><use y="440.561" x="124.192" xlink:href="#I" width="100%" height="100%"/><use y="440.561" x="128.619" xlink:href="#Q" width="100%" height="100%"/><use y="440.561" x="136.921" xlink:href="#O" width="100%" height="100%"/></g><g style="fill:#000;fill-opacity:1" transform="matrix(.35278 0 0 .35278 -37.811 -68.486)"><use y="440.561" x="145.547" xlink:href="#ac" width="100%" height="100%"/><use y="440.561" x="153.019" xlink:href="#S" width="100%" height="100%"/><use y="440.561" x="158.554" xlink:href="#U" width="100%" height="100%"/><use y="440.561" x="161.322" xlink:href="#U" width="100%" height="100%"/><use y="440.561" x="164.089" xlink:href="#V" width="100%" height="100%"/><use y="440.561" x="169.071" xlink:href="#Q" width="100%" height="100%"/></g><g style="fill:#000;fill-opacity:1" transform="matrix(.35278 0 0 .35278 -37.811 -68.486)"><use y="440.561" x="181.168" xlink:href="#N" width="100%" height="100%"/><use y="440.561" x="186.703" xlink:href="#I" width="100%" height="100%"/><use y="440.561" x="191.131" xlink:href="#L" width="100%" height="100%"/></g><g style="fill:#000;fill-opacity:1" transform="matrix(.35278 0 0 .35278 -37.811 -68.486)"><use y="440.561" x="199.354" xlink:href="#Q" width="100%" height="100%"/><use y="440.561" x="207.656" xlink:href="#F" width="100%" height="100%"/></g><g style="fill:#000;fill-opacity:1" transform="matrix(.35278 0 0 .35278 -37.811 -68.486)"><use y="440.561" x="214.229" xlink:href="#I" width="100%" height="100%"/><use y="440.561" x="218.656" xlink:href="#H" width="100%" height="100%"/></g><g style="fill:#000;fill-opacity:1" transform="matrix(.35278 0 0 .35278 -37.811 -68.486)"><use y="440.561" x="226.327" xlink:href="#N" width="100%" height="100%"/><use y="440.561" x="231.862" xlink:href="#I" width="100%" height="100%"/><use y="440.561" x="236.289" xlink:href="#ad" width="100%" height="100%"/><use y="440.561" x="241.547" xlink:href="#S" width="100%" height="100%"/><use y="440.561" x="247.083" xlink:href="#I" width="100%" height="100%"/></g><g style="fill:#000;fill-opacity:1" transform="matrix(.35278 0 0 .35278 -37.811 -68.486)"><use y="440.561" x="255.306" xlink:href="#R" width="100%" height="100%"/><use y="440.561" x="260.841" xlink:href="#E" width="100%" height="100%"/><use y="440.561" x="266.376" xlink:href="#V" width="100%" height="100%"/><use y="440.561" x="271.358" xlink:href="#K" width="100%" height="100%"/><use y="440.561" x="275.26" xlink:href="#I" width="100%" height="100%"/><use y="440.561" x="279.687" xlink:href="#H" width="100%" height="100%"/><use y="440.561" x="283.562" xlink:href="#K" width="100%" height="100%"/><use y="440.561" x="287.464" xlink:href="#V" width="100%" height="100%"/></g><g style="fill:#000;fill-opacity:1" transform="matrix(.35278 0 0 .35278 -37.811 -68.486)"><use y="440.561" x="296.241" xlink:href="#G" width="100%" height="100%"/><use y="440.561" x="300.17" xlink:href="#M" width="100%" height="100%"/><use y="440.561" x="305.152" xlink:href="#U" width="100%" height="100%"/><use y="440.561" x="307.919" xlink:href="#U" width="100%" height="100%"/><use y="440.561" x="310.687" xlink:href="#F" width="100%" height="100%"/><use y="440.561" x="313.454" xlink:href="#L" width="100%" height="100%"/><use y="440.561" x="317.882" xlink:href="#F" width="100%" height="100%"/><use y="440.561" x="320.649" xlink:href="#H" width="100%" height="100%"/><use y="440.561" x="324.524" xlink:href="#S" width="100%" height="100%"/><use y="440.561" x="330.059" xlink:href="#T" width="100%" height="100%"/><use y="440.561" x="335.594" xlink:href="#F" width="100%" height="100%"/><use y="440.561" x="338.362" xlink:href="#N" width="100%" height="100%"/><use y="440.561" x="343.897" xlink:href="#O" width="100%" height="100%"/></g><g style="fill:#000;fill-opacity:1" transform="matrix(.35278 0 0 .35278 -37.811 -68.486)"><use y="440.561" x="352.523" xlink:href="#ae" width="100%" height="100%"/><use y="440.561" x="359.303" xlink:href="#K" width="100%" height="100%"/><use y="440.561" x="363.206" xlink:href="#V" width="100%" height="100%"/><use y="440.561" x="368.187" xlink:href="#I" width="100%" height="100%"/><use y="440.561" x="372.614" xlink:href="#G" width="100%" height="100%"/><use y="440.561" x="376.544" xlink:href="#I" width="100%" height="100%"/><use y="440.561" x="380.971" xlink:href="#N" width="100%" height="100%"/></g><use y="440.561" x="386.227" xlink:href="#H" width="100%" height="100%" style="fill:#000;fill-opacity:1" transform="matrix(.35278 0 0 .35278 -37.811 -68.486)"/><g style="fill:#000;fill-opacity:1" transform="matrix(.35278 0 0 .35278 -37.811 -68.486)"><use y="440.561" x="393.897" xlink:href="#F" width="100%" height="100%"/><use y="440.561" x="396.665" xlink:href="#Q" width="100%" height="100%"/><use y="440.561" x="404.967" xlink:href="#R" width="100%" height="100%"/></g><g style="fill:#000;fill-opacity:1" transform="matrix(.35278 0 0 .35278 -37.811 -68.486)"><use y="440.561" x="410.781" xlink:href="#I" width="100%" height="100%"/><use y="440.561" x="415.209" xlink:href="#K" width="100%" height="100%"/><use y="440.561" x="419.111" xlink:href="#T" width="100%" height="100%"/><use y="440.561" x="424.646" xlink:href="#F" width="100%" height="100%"/><use y="440.561" x="427.414" xlink:href="#I" width="100%" height="100%"/><use y="440.561" x="431.841" xlink:href="#H" width="100%" height="100%"/></g><g style="fill:#000;fill-opacity:1" transform="matrix(.35278 0 0 .35278 -37.811 -68.486)"><use y="440.561" x="439.511" xlink:href="#Q" width="100%" height="100%"/><use y="440.561" x="447.813" xlink:href="#F" width="100%" height="100%"/></g><g style="fill:#000;fill-opacity:1" transform="matrix(.35278 0 0 .35278 -37.811 -68.486)"><use y="452.516" x="106.869" xlink:href="#N" width="100%" height="100%"/><use y="452.516" x="112.404" xlink:href="#I" width="100%" height="100%"/><use y="452.516" x="116.832" xlink:href="#L" width="100%" height="100%"/><use y="452.516" x="121.259" xlink:href="#V" width="100%" height="100%"/><use y="452.516" x="126.24" xlink:href="#N" width="100%" height="100%"/></g><g style="fill:#000;fill-opacity:1" transform="matrix(.35278 0 0 .35278 -37.811 -68.486)"><use y="452.516" x="131.497" xlink:href="#H" width="100%" height="100%"/><use y="452.516" x="135.371" xlink:href="#I" width="100%" height="100%"/><use y="452.516" x="139.798" xlink:href="#O" width="100%" height="100%"/><use y="452.516" x="142.566" xlink:href="#O" width="100%" height="100%"/><use y="452.516" x="145.334" xlink:href="#O" width="100%" height="100%"/></g><g style="fill:#000;fill-opacity:1" transform="matrix(.35278 0 0 .35278 -37.811 -68.486)"><use y="480.404" x="106.869" xlink:href="#aj" width="100%" height="100%"/><use y="480.404" x="113.594" xlink:href="#ak" width="100%" height="100%"/><use y="480.404" x="117.33" xlink:href="#al" width="100%" height="100%"/><use y="480.404" x="124.055" xlink:href="#ak" width="100%" height="100%"/><use y="480.404" x="127.791" xlink:href="#aj" width="100%" height="100%"/></g><g style="fill:#000;fill-opacity:1" transform="matrix(.35278 0 0 .35278 -37.811 -68.486)"><use y="480.404" x="147.965" xlink:href="#am" width="100%" height="100%"/><use y="480.404" x="156.42" xlink:href="#an" width="100%" height="100%"/><use y="480.404" x="160.156" xlink:href="#ao" width="100%" height="100%"/><use y="480.404" x="165.649" xlink:href="#ap" width="100%" height="100%"/><use y="480.404" x="170.955" xlink:href="#aq" width="100%" height="100%"/></g><g style="fill:#000;fill-opacity:1" transform="matrix(.35278 0 0 .35278 -37.811 -68.486)"><use y="480.404" x="180.668" xlink:href="#ar" width="100%" height="100%"/><use y="480.404" x="188.14" xlink:href="#as" width="100%" height="100%"/><use y="480.404" x="195.612" xlink:href="#at" width="100%" height="100%"/><use y="480.404" x="203.084" xlink:href="#ap" width="100%" height="100%"/><use y="480.404" x="208.39" xlink:href="#au" width="100%" height="100%"/><use y="480.404" x="214.527" xlink:href="#av" width="100%" height="100%"/><use y="480.404" x="220.504" xlink:href="#aq" width="100%" height="100%"/><use y="480.404" x="225.735" xlink:href="#an" width="100%" height="100%"/><use y="480.404" x="229.471" xlink:href="#aw" width="100%" height="100%"/><use y="480.404" x="236.196" xlink:href="#ax" width="100%" height="100%"/></g><g style="fill:#000;fill-opacity:1" transform="matrix(.35278 0 0 .35278 -37.811 -68.486)"><use y="498.794" x="106.869" xlink:href="#ae" width="100%" height="100%"/><use y="498.794" x="113.65" xlink:href="#K" width="100%" height="100%"/><use y="498.794" x="117.552" xlink:href="#V" width="100%" height="100%"/><use y="498.794" x="122.533" xlink:href="#I" width="100%" height="100%"/><use y="498.794" x="126.961" xlink:href="#G" width="100%" height="100%"/><use y="498.794" x="130.89" xlink:href="#I" width="100%" height="100%"/><use y="498.794" x="135.317" xlink:href="#N" width="100%" height="100%"/></g><use y="498.794" x="140.573" xlink:href="#H" width="100%" height="100%" style="fill:#000;fill-opacity:1" transform="matrix(.35278 0 0 .35278 -37.811 -68.486)"/><g style="fill:#000;fill-opacity:1" transform="matrix(.35278 0 0 .35278 -37.811 -68.486)"><use y="498.794" x="147.775" xlink:href="#F" width="100%" height="100%"/><use y="498.794" x="150.543" xlink:href="#Q" width="100%" height="100%"/><use y="498.794" x="158.845" xlink:href="#R" width="100%" height="100%"/></g><g style="fill:#000;fill-opacity:1" transform="matrix(.35278 0 0 .35278 -37.811 -68.486)"><use y="498.794" x="164.649" xlink:href="#I" width="100%" height="100%"/><use y="498.794" x="169.076" xlink:href="#K" width="100%" height="100%"/><use y="498.794" x="172.979" xlink:href="#T" width="100%" height="100%"/><use y="498.794" x="178.514" xlink:href="#F" width="100%" height="100%"/><use y="498.794" x="181.282" xlink:href="#I" width="100%" height="100%"/><use y="498.794" x="185.709" xlink:href="#H" width="100%" height="100%"/><use y="498.794" x="189.583" xlink:href="#Q" width="100%" height="100%"/><use y="498.794" x="197.885" xlink:href="#F" width="100%" height="100%"/></g><g style="fill:#000;fill-opacity:1" transform="matrix(.35278 0 0 .35278 -37.811 -68.486)"><use y="498.794" x="203.98" xlink:href="#N" width="100%" height="100%"/><use y="498.794" x="209.516" xlink:href="#I" width="100%" height="100%"/><use y="498.794" x="213.943" xlink:href="#L" width="100%" height="100%"/></g><g style="fill:#000;fill-opacity:1" transform="matrix(.35278 0 0 .35278 -37.811 -68.486)"><use y="498.794" x="221.688" xlink:href="#V" width="100%" height="100%"/><use y="498.794" x="226.669" xlink:href="#N" width="100%" height="100%"/></g><g style="fill:#000;fill-opacity:1" transform="matrix(.35278 0 0 .35278 -37.811 -68.486)"><use y="498.794" x="231.926" xlink:href="#H" width="100%" height="100%"/><use y="498.794" x="235.8" xlink:href="#I" width="100%" height="100%"/><use y="498.794" x="240.227" xlink:href="#O" width="100%" height="100%"/></g><g style="fill:#000;fill-opacity:1" transform="matrix(.35278 0 0 .35278 -37.811 -68.486)"><use y="498.794" x="247.428" xlink:href="#af" width="100%" height="100%"/><use y="498.794" x="255.039" xlink:href="#M" width="100%" height="100%"/><use y="498.794" x="260.02" xlink:href="#N" width="100%" height="100%"/><use y="498.794" x="265.555" xlink:href="#I" width="100%" height="100%"/><use y="498.794" x="269.983" xlink:href="#L" width="100%" height="100%"/></g><g style="fill:#000;fill-opacity:1" transform="matrix(.35278 0 0 .35278 -37.811 -68.486)"><use y="498.794" x="277.728" xlink:href="#S" width="100%" height="100%"/><use y="498.794" x="283.263" xlink:href="#U" width="100%" height="100%"/><use y="498.794" x="286.03" xlink:href="#U" width="100%" height="100%"/><use y="498.794" x="288.798" xlink:href="#V" width="100%" height="100%"/><use y="498.794" x="293.779" xlink:href="#Q" width="100%" height="100%"/><use y="498.794" x="302.081" xlink:href="#L" width="100%" height="100%"/><use y="498.794" x="306.509" xlink:href="#M" width="100%" height="100%"/><use y="498.794" x="311.49" xlink:href="#K" width="100%" height="100%"/><use y="498.794" x="315.392" xlink:href="#R" width="100%" height="100%"/></g><g style="fill:#000;fill-opacity:1" transform="matrix(.35278 0 0 .35278 -37.811 -68.486)"><use y="498.794" x="321.206" xlink:href="#I" width="100%" height="100%"/><use y="498.794" x="325.634" xlink:href="#K" width="100%" height="100%"/><use y="498.794" x="329.536" xlink:href="#W" width="100%" height="100%"/></g><g style="fill:#000;fill-opacity:1" transform="matrix(.35278 0 0 .35278 -37.811 -68.486)"><use y="498.794" x="335.621" xlink:href="#aa" width="100%" height="100%"/><use y="498.794" x="338.666" xlink:href="#I" width="100%" height="100%"/><use y="498.794" x="343.093" xlink:href="#U" width="100%" height="100%"/><use y="498.794" x="345.861" xlink:href="#F" width="100%" height="100%"/><use y="498.794" x="348.628" xlink:href="#G" width="100%" height="100%"/></g><g style="fill:#000;fill-opacity:1" transform="matrix(.35278 0 0 .35278 -37.811 -68.486)"><use y="498.794" x="355.875" xlink:href="#N" width="100%" height="100%"/><use y="498.794" x="361.41" xlink:href="#M" width="100%" height="100%"/><use y="498.794" x="366.392" xlink:href="#N" width="100%" height="100%"/></g><g style="fill:#000;fill-opacity:1" transform="matrix(.35278 0 0 .35278 -37.811 -68.486)"><use y="498.794" x="375.254" xlink:href="#G" width="100%" height="100%"/><use y="498.794" x="379.184" xlink:href="#M" width="100%" height="100%"/></g><g style="fill:#000;fill-opacity:1" transform="matrix(.35278 0 0 .35278 -37.811 -68.486)"><use y="498.794" x="384.444" xlink:href="#T" width="100%" height="100%"/><use y="498.794" x="389.979" xlink:href="#V" width="100%" height="100%"/><use y="498.794" x="394.96" xlink:href="#U" width="100%" height="100%"/><use y="498.794" x="397.728" xlink:href="#I" width="100%" height="100%"/><use y="498.794" x="402.155" xlink:href="#G" width="100%" height="100%"/><use y="498.794" x="406.085" xlink:href="#O" width="100%" height="100%"/><use y="498.794" x="408.852" xlink:href="#O" width="100%" height="100%"/><use y="498.794" x="411.62" xlink:href="#O" width="100%" height="100%"/></g><g style="fill:#000;fill-opacity:1" transform="matrix(.35278 0 0 .35278 -37.811 -68.486)"><use y="531.739" x="106.869" xlink:href="#ay" width="100%" height="100%"/><use y="531.739" x="119.273" xlink:href="#v" width="100%" height="100%"/><use y="531.739" x="128.239" xlink:href="#v" width="100%" height="100%"/></g><g style="fill:#000;fill-opacity:1" transform="matrix(.35278 0 0 .35278 -37.811 -68.486)"><use y="531.739" x="136.761" xlink:href="#A" width="100%" height="100%"/><use y="531.739" x="145.727" xlink:href="#az" width="100%" height="100%"/></g><use y="531.739" x="158.718" xlink:href="#aA" width="100%" height="100%" style="fill:#000;fill-opacity:1" transform="matrix(.35278 0 0 .35278 -37.811 -68.486)"/><g style="fill:#000;fill-opacity:1" transform="matrix(.35278 0 0 .35278 -37.811 -68.486)"><use y="531.739" x="168.143" xlink:href="#ai" width="100%" height="100%"/><use y="531.739" x="175.507" xlink:href="#x" width="100%" height="100%"/><use y="531.739" x="182.099" xlink:href="#ai" width="100%" height="100%"/><use y="531.739" x="189.463" xlink:href="#z" width="100%" height="100%"/></g><g style="fill:#000;fill-opacity:1" transform="matrix(.35278 0 0 .35278 -37.811 -68.486)"><use y="531.739" x="203.809" xlink:href="#ah" width="100%" height="100%"/><use y="531.739" x="212.776" xlink:href="#ai" width="100%" height="100%"/><use y="531.739" x="220.139" xlink:href="#B" width="100%" height="100%"/><use y="531.739" x="227.313" xlink:href="#w" width="100%" height="100%"/><use y="531.739" x="233.589" xlink:href="#C" width="100%" height="100%"/><use y="531.739" x="238.072" xlink:href="#y" width="100%" height="100%"/><use y="531.739" x="246.142" xlink:href="#v" width="100%" height="100%"/></g><g style="fill:#000;fill-opacity:1" transform="matrix(.35278 0 0 .35278 -37.811 -68.486)"><use y="553.56" x="106.869" xlink:href="#P" width="100%" height="100%"/><use y="553.56" x="113.096" xlink:href="#M" width="100%" height="100%"/><use y="553.56" x="118.077" xlink:href="#K" width="100%" height="100%"/><use y="553.56" x="121.979" xlink:href="#I" width="100%" height="100%"/><use y="553.56" x="126.407" xlink:href="#Q" width="100%" height="100%"/></g><g style="fill:#000;fill-opacity:1" transform="matrix(.35278 0 0 .35278 -37.811 -68.486)"><use y="553.56" x="138.116" xlink:href="#F" width="100%" height="100%"/><use y="553.56" x="140.883" xlink:href="#R" width="100%" height="100%"/><use y="553.56" x="146.419" xlink:href="#G" width="100%" height="100%"/><use y="553.56" x="150.348" xlink:href="#S" width="100%" height="100%"/><use y="553.56" x="155.883" xlink:href="#Q" width="100%" height="100%"/></g><g style="fill:#000;fill-opacity:1" transform="matrix(.35278 0 0 .35278 -37.811 -68.486)"><use y="553.56" x="167.582" xlink:href="#T" width="100%" height="100%"/><use y="553.56" x="173.117" xlink:href="#M" width="100%" height="100%"/><use y="553.56" x="178.099" xlink:href="#U" width="100%" height="100%"/><use y="553.56" x="180.866" xlink:href="#M" width="100%" height="100%"/><use y="553.56" x="185.848" xlink:href="#K" width="100%" height="100%"/></g><g style="fill:#000;fill-opacity:1" transform="matrix(.35278 0 0 .35278 -37.811 -68.486)"><use y="553.56" x="193.147" xlink:href="#G" width="100%" height="100%"/><use y="553.56" x="197.076" xlink:href="#F" width="100%" height="100%"/><use y="553.56" x="199.844" xlink:href="#H" width="100%" height="100%"/></g><g style="fill:#000;fill-opacity:1" transform="matrix(.35278 0 0 .35278 -37.811 -68.486)"><use y="553.56" x="207.126" xlink:href="#V" width="100%" height="100%"/><use y="553.56" x="212.107" xlink:href="#Q" width="100%" height="100%"/><use y="553.56" x="220.409" xlink:href="#I" width="100%" height="100%"/><use y="553.56" x="224.836" xlink:href="#H" width="100%" height="100%"/><use y="553.56" x="228.711" xlink:href="#W" width="100%" height="100%"/></g><g style="fill:#000;fill-opacity:1" transform="matrix(.35278 0 0 .35278 -37.811 -68.486)"><use y="553.56" x="234.905" xlink:href="#L" width="100%" height="100%"/><use y="553.56" x="239.333" xlink:href="#M" width="100%" height="100%"/><use y="553.56" x="244.314" xlink:href="#N" width="100%" height="100%"/><use y="553.56" x="249.849" xlink:href="#G" width="100%" height="100%"/><use y="553.56" x="253.779" xlink:href="#I" width="100%" height="100%"/><use y="553.56" x="258.206" xlink:href="#L" width="100%" height="100%"/><use y="553.56" x="262.633" xlink:href="#H" width="100%" height="100%"/><use y="553.56" x="266.508" xlink:href="#I" width="100%" height="100%"/><use y="553.56" x="270.935" xlink:href="#H" width="100%" height="100%"/><use y="553.56" x="274.81" xlink:href="#S" width="100%" height="100%"/><use y="553.56" x="280.345" xlink:href="#I" width="100%" height="100%"/><use y="553.56" x="284.772" xlink:href="#K" width="100%" height="100%"/></g><g style="fill:#000;fill-opacity:1" transform="matrix(.35278 0 0 .35278 -37.811 -68.486)"><use y="553.56" x="292.072" xlink:href="#V" width="100%" height="100%"/><use y="553.56" x="297.053" xlink:href="#T" width="100%" height="100%"/><use y="553.56" x="302.588" xlink:href="#F" width="100%" height="100%"/><use y="553.56" x="305.356" xlink:href="#R" width="100%" height="100%"/><use y="553.56" x="310.891" xlink:href="#F" width="100%" height="100%"/><use y="553.56" x="313.659" xlink:href="#G" width="100%" height="100%"/><use y="553.56" x="317.588" xlink:href="#L" width="100%" height="100%"/><use y="553.56" x="322.015" xlink:href="#F" width="100%" height="100%"/><use y="553.56" x="324.783" xlink:href="#N" width="100%" height="100%"/><use y="553.56" x="330.318" xlink:href="#X" width="100%" height="100%"/></g><g style="fill:#000;fill-opacity:1" transform="matrix(.35278 0 0 .35278 -37.811 -68.486)"><use y="553.56" x="338.707" xlink:href="#I" width="100%" height="100%"/><use y="553.56" x="343.134" xlink:href="#U" width="100%" height="100%"/><use y="553.56" x="345.902" xlink:href="#F" width="100%" height="100%"/><use y="553.56" x="348.669" xlink:href="#H" width="100%" height="100%"/><use y="553.56" x="352.544" xlink:href="#O" width="100%" height="100%"/></g><g style="fill:#000;fill-opacity:1" transform="matrix(.35278 0 0 .35278 -37.811 -68.486)"><use y="553.56" x="359.974" xlink:href="#Y" width="100%" height="100%"/><use y="553.56" x="366.754" xlink:href="#H" width="100%" height="100%"/><use y="553.56" x="370.629" xlink:href="#F" width="100%" height="100%"/><use y="553.56" x="373.396" xlink:href="#V" width="100%" height="100%"/><use y="553.56" x="378.378" xlink:href="#Q" width="100%" height="100%"/></g><g style="fill:#000;fill-opacity:1" transform="matrix(.35278 0 0 .35278 -37.811 -68.486)"><use y="553.56" x="390.087" xlink:href="#U" width="100%" height="100%"/><use y="553.56" x="392.854" xlink:href="#M" width="100%" height="100%"/><use y="553.56" x="397.836" xlink:href="#Z" width="100%" height="100%"/></g><g style="fill:#000;fill-opacity:1" transform="matrix(.35278 0 0 .35278 -37.811 -68.486)"><use y="553.56" x="403.65" xlink:href="#M" width="100%" height="100%"/><use y="553.56" x="408.631" xlink:href="#K" width="100%" height="100%"/><use y="553.56" x="412.534" xlink:href="#H" width="100%" height="100%"/><use y="553.56" x="416.408" xlink:href="#F" width="100%" height="100%"/><use y="553.56" x="419.176" xlink:href="#G" width="100%" height="100%"/></g><g style="fill:#000;fill-opacity:1" transform="matrix(.35278 0 0 .35278 -37.811 -68.486)"><use y="553.56" x="426.502" xlink:href="#aa" width="100%" height="100%"/><use y="553.56" x="429.547" xlink:href="#V" width="100%" height="100%"/><use y="553.56" x="434.528" xlink:href="#L" width="100%" height="100%"/><use y="553.56" x="438.955" xlink:href="#F" width="100%" height="100%"/><use y="553.56" x="441.723" xlink:href="#U" width="100%" height="100%"/><use y="553.56" x="444.491" xlink:href="#F" width="100%" height="100%"/><use y="553.56" x="447.258" xlink:href="#ab" width="100%" height="100%"/></g><g style="fill:#000;fill-opacity:1" transform="matrix(.35278 0 0 .35278 -37.811 -68.486)"><use y="565.515" x="106.869" xlink:href="#G" width="100%" height="100%"/><use y="565.515" x="110.798" xlink:href="#F" width="100%" height="100%"/><use y="565.515" x="113.566" xlink:href="#G" width="100%" height="100%"/><use y="565.515" x="117.495" xlink:href="#G" width="100%" height="100%"/><use y="565.515" x="121.424" xlink:href="#I" width="100%" height="100%"/><use y="565.515" x="125.852" xlink:href="#Q" width="100%" height="100%"/><use y="565.515" x="134.154" xlink:href="#O" width="100%" height="100%"/><use y="565.515" x="136.921" xlink:href="#O" width="100%" height="100%"/><use y="565.515" x="139.689" xlink:href="#O" width="100%" height="100%"/></g></svg>