<svg xmlns="http://www.w3.org/2000/svg" xmlns:xlink="http://www.w3.org/1999/xlink" viewBox="0 0 124.289 3.831" height="14.479" width="469.753"><defs><symbol overflow="visible" id="a"><path style="stroke:none" d="M2.484-4.984c-.609-.157-1.14-.75-1.14-1.516a1.59 1.59 0 0 1 1.593-1.594c1.97 0 2.22 1.938 2.297 2.453.032.141.032.188.141.188.14 0 .14-.063.14-.266V-8.14c0-.218 0-.28-.124-.28-.032 0-.079 0-.172.155l-.39.735c-.579-.735-1.36-.89-1.891-.89A2.29 2.29 0 0 0 .64-6.126c0 .563.203 1.094.656 1.578.406.453.828.563 1.672.781.422.094 1.078.266 1.25.329.562.28.937.921.937 1.593 0 .907-.64 1.75-1.625 1.75-.547 0-1.281-.14-1.875-.64C.97-1.36.922-2.22.906-2.625c-.015-.094-.11-.094-.125-.094-.14 0-.14.063-.14.281V-.03C.64.187.64.25.766.25.844.25.844.234.937.078c.047-.094.297-.531.391-.719.422.485 1.188.891 2.203.891 1.344 0 2.313-1.14 2.313-2.453 0-.719-.282-1.266-.594-1.656-.438-.547-.984-.672-1.453-.797Zm0 0"/></symbol><symbol overflow="visible" id="b"><path style="stroke:none" d="M5.484-2.563c0-1.53-1.171-2.765-2.562-2.765C1.5-5.328.359-4.062.359-2.562.36-1.032 1.547.124 2.922.124c1.406 0 2.562-1.172 2.562-2.688zM2.922-.14c-.438 0-.969-.187-1.313-.78-.328-.532-.343-1.235-.343-1.75 0-.454 0-1.173.375-1.72.328-.515.859-.703 1.28-.703.454 0 .97.219 1.282.688.375.547.375 1.297.375 1.734 0 .422 0 1.172-.312 1.735-.329.562-.891.796-1.344.796Zm0 0"/></symbol><symbol overflow="visible" id="c"><path style="stroke:none" d="M8.578-2.906c0-1.11 0-1.438-.281-1.828-.344-.47-.906-.532-1.313-.532-1 0-1.5.72-1.687 1.172-.172-.922-.813-1.172-1.563-1.172-1.171 0-1.625.985-1.718 1.22v-1.22L.375-5.14v.344c.813 0 .922.094.922.672v3.234c0 .547-.14.547-.922.547V0c.313-.031.969-.031 1.297-.031.344 0 1 0 1.297.031v-.344c-.75 0-.906 0-.906-.547v-2.218c0-1.25.828-1.922 1.578-1.922.734 0 .906.61.906 1.343V-.89c0 .547-.14.547-.906.547V0c.296-.031.953-.031 1.28-.031.345 0 1 0 1.313.031v-.344c-.765 0-.921 0-.921-.547v-2.218c0-1.25.828-1.922 1.578-1.922.734 0 .906.61.906 1.343V-.89c0 .547-.14.547-.906.547V0c.312-.031.953-.031 1.28-.031.345 0 1 0 1.313.031v-.344c-.609 0-.906 0-.906-.36zm0 0"/></symbol><symbol overflow="visible" id="d"><path style="stroke:none" d="M4.578-2.766c.266 0 .281 0 .281-.234 0-1.203-.64-2.328-2.093-2.328-1.36 0-2.407 1.234-2.407 2.703 0 1.578 1.22 2.75 2.547 2.75 1.422 0 1.953-1.297 1.953-1.547 0-.078-.046-.125-.125-.125-.093 0-.125.063-.14.125-.313 1-1.11 1.281-1.625 1.281-.5 0-1.703-.343-1.703-2.406v-.219zM1.281-3c.094-1.875 1.14-2.094 1.485-2.094 1.28 0 1.343 1.688 1.359 2.094zm0 0"/></symbol><symbol overflow="visible" id="e"><path style="stroke:none" d="M2.063-4.813h1.343v-.343H2.031v-1.39c0-1.079.547-1.626 1.047-1.626.094 0 .266.016.406.094-.046.015-.343.125-.343.469 0 .265.187.468.468.468a.468.468 0 0 0 .485-.484c0-.438-.438-.797-1.016-.797-.828 0-1.781.656-1.781 1.875v1.39H.375v.345h.922v3.921c0 .547-.125.547-.906.547V0c.343-.031 1-.031 1.359-.031.313 0 1.172 0 1.438.031v-.344h-.235c-.875 0-.89-.14-.89-.562zm0 0"/></symbol><symbol overflow="visible" id="f"><path style="stroke:none" d="M2.016-4.813h1.671v-.343H2.016v-2.188H1.75c-.016 1.11-.453 2.266-1.531 2.297v.234h1.015v3.329C1.234-.156 2.11.125 2.75.125c.75 0 1.14-.75 1.14-1.61v-.671h-.25v.656c0 .86-.359 1.36-.812 1.36-.812 0-.812-1.11-.812-1.313zm0 0"/></symbol><symbol overflow="visible" id="g"><path style="stroke:none" d="M5.313-2.906c0-1.11 0-1.438-.266-1.828-.344-.47-.906-.532-1.313-.532-1.03 0-1.515.766-1.671 1.141h-.016v-4.172l-1.672.14v.345c.813 0 .922.078.922.671v6.25c0 .547-.14.547-.922.547V0c.313-.031.969-.031 1.297-.031.344 0 1 0 1.297.031v-.344c-.75 0-.906 0-.906-.547v-2.218c0-1.25.828-1.922 1.578-1.922.734 0 .906.61.906 1.343V-.89c0 .547-.14.547-.906.547V0c.296-.031.953-.031 1.28-.031.345 0 1 0 1.313.031v-.344c-.609 0-.906 0-.921-.36zm0 0"/></symbol><symbol overflow="visible" id="n"><path style="stroke:none" d="M3.578-8.156v.344c.828 0 .922.078.922.671V-4.5A1.829 1.829 0 0 0 3-5.266C1.61-5.266.422-4.094.422-2.562.422-1.048 1.547.124 2.875.124c.906 0 1.422-.61 1.594-.828v.828L6.156 0v-.344c-.812 0-.906-.094-.906-.672v-7.28zm.89 6.75c0 .218 0 .265-.171.515-.281.422-.766.766-1.375.766-.297 0-1.594-.11-1.594-2.438 0-.859.14-1.328.406-1.734.235-.36.72-.734 1.313-.734.75 0 1.156.531 1.281.734.14.203.14.219.14.438zm0 0"/></symbol><symbol overflow="visible" id="o"><path style="stroke:none" d="M2.078-7.36a.59.59 0 0 0-.578-.593.577.577 0 0 0-.578.578c0 .36.281.578.578.578.36 0 .578-.297.578-.562zM.438-5.14v.343c.75 0 .859.078.859.656v3.25c0 .547-.125.547-.906.547V0c.343-.031.906-.031 1.265-.031.125 0 .813 0 1.219.031v-.344c-.766 0-.813-.062-.813-.531v-4.39zm0 0"/></symbol><symbol overflow="visible" id="p"><path style="stroke:none" d="M3.922-5.063c0-.203 0-.265-.125-.265-.094 0-.313.266-.406.375-.36-.313-.735-.375-1.125-.375C.828-5.328.39-4.547.39-3.891c0 .141 0 .563.453.97.39.343.797.421 1.344.53.656.125.812.172 1.109.407a.97.97 0 0 1 .375.78c0 .516-.297 1.079-1.36 1.079-.78 0-1.359-.453-1.624-1.64C.64-1.986.64-2 .64-2.016c-.032-.047-.079-.047-.11-.047-.14 0-.14.062-.14.28v1.626c0 .218 0 .281.125.281.062 0 .062-.016.265-.266.063-.093.063-.109.25-.296.453.562 1.094.562 1.297.562 1.25 0 1.875-.703 1.875-1.64 0-.641-.39-1.032-.5-1.141-.422-.375-.75-.438-1.547-.578-.344-.079-1.219-.25-1.219-.97 0-.359.25-.905 1.329-.905C3.562-5.11 3.64-4 3.656-3.641c.016.11.094.11.14.11.126 0 .126-.063.126-.281zm0 0"/></symbol><symbol overflow="visible" id="q"><path style="stroke:none" d="M4.328-4.422c-.14 0-.594 0-.594.484 0 .297.204.5.5.5.266 0 .5-.171.5-.515 0-.797-.843-1.375-1.812-1.375-1.39 0-2.5 1.234-2.5 2.75 0 1.531 1.14 2.703 2.5 2.703 1.578 0 1.937-1.438 1.937-1.547 0-.11-.093-.11-.125-.11-.109 0-.125.032-.156.188C4.312-.5 3.672-.14 3.031-.14c-.734 0-1.703-.64-1.703-2.453 0-1.984 1.016-2.469 1.61-2.469.453 0 1.109.172 1.39.641zm0 0"/></symbol><symbol overflow="visible" id="r"><path style="stroke:none" d="M4.875-4.016c.11-.265.313-.78 1.078-.796v-.344c-.344.031-.516.031-.89.031-.25 0-.422 0-.97-.031v.343c.5.032.563.391.563.516 0 .11-.031.172-.093.313L3.343-.891 2.017-4.266c-.063-.171-.079-.171-.079-.234 0-.313.454-.313.672-.313v-.343c-.296.031-.921.031-1.25.031-.39 0-.421 0-1.14-.031v.343c.672 0 .781.063.922.422L2.859-.109c.063.171.079.234.22.234.093 0 .155-.031.25-.234zm0 0"/></symbol><symbol overflow="visible" id="s"><path style="stroke:none" d="M2-2.781c0-1.156.469-2.25 1.39-2.25.094 0 .126 0 .172.015-.093.047-.28.11-.28.438 0 .344.265.484.452.484.25 0 .485-.156.485-.484 0-.36-.328-.688-.844-.688-1.016 0-1.36 1.094-1.422 1.329h-.016v-1.329L.329-5.14v.344c.813 0 .922.094.922.672v3.234c0 .547-.14.547-.922.547V0c.344-.031 1-.031 1.36-.031.328 0 1.171 0 1.437.031v-.344h-.234C2.016-.344 2-.484 2-.906Zm0 0"/></symbol><symbol overflow="visible" id="t"><path style="stroke:none" d="M5.313-2.906c0-1.11 0-1.438-.266-1.828-.344-.47-.906-.532-1.313-.532-1.171 0-1.625.985-1.718 1.22v-1.22L.375-5.14v.344c.813 0 .922.094.922.672v3.234c0 .547-.14.547-.922.547V0c.313-.031.969-.031 1.297-.031.344 0 1 0 1.297.031v-.344c-.75 0-.906 0-.906-.547v-2.218c0-1.25.828-1.922 1.578-1.922.734 0 .906.61.906 1.343V-.89c0 .547-.14.547-.906.547V0c.296-.031.953-.031 1.28-.031.345 0 1 0 1.313.031v-.344c-.609 0-.906 0-.921-.36zm0 0"/></symbol><symbol overflow="visible" id="u"><path style="stroke:none" d="M7.234-4.016c.266-.75.782-.78.985-.796v-.344c-.297.031-.516.031-.875.031-.344 0-.375 0-1.016-.031v.343c.531.032.672.36.672.579 0 .015 0 .093-.047.218L5.86-.89 4.656-4.266c-.047-.14-.047-.171-.047-.203 0-.343.438-.343.688-.343v-.344c-.344.031-.828.031-1.172.031-.39 0-.406 0-1.078-.031v.343c.453 0 .61.032.75.188.047.078.203.469.281.703L3.062-1 1.907-4.25c-.047-.156-.047-.188-.047-.234 0-.329.454-.329.688-.329v-.343c-.297.031-.89.031-1.219.031-.344 0-.36 0-1.11-.031v.343c.61 0 .72.063.86.438l1.5 4.281c.047.125.094.219.219.219.11 0 .172-.047.234-.234L4.22-3.516 5.422-.109c.047.187.11.234.219.234.125 0 .171-.094.218-.219zm0 0"/></symbol><symbol overflow="visible" id="v"><path style="stroke:none" d="M4.61-3.188c0-.656 0-1.124-.516-1.593a2.242 2.242 0 0 0-1.485-.547c-.984 0-1.734.64-1.734 1.422 0 .344.219.515.5.515s.484-.203.484-.5c0-.484-.421-.484-.609-.484.281-.5.86-.719 1.328-.719.547 0 1.266.453 1.266 1.532v.484C1.438-3.047.53-2.047.53-1.125c0 .953 1.094 1.25 1.828 1.25.782 0 1.329-.484 1.547-1.063.047.563.422 1 .938 1 .25 0 .937-.171.937-1.125v-.671h-.265v.671c0 .688-.282.782-.454.782-.453 0-.453-.64-.453-.813zm-.766 1.5c0 1.172-.875 1.563-1.39 1.563-.595 0-1.079-.422-1.079-1 0-1.578 2.031-1.719 2.469-1.75zm0 0"/></symbol><symbol overflow="visible" id="w"><path style="stroke:none" d="m2-8.297-1.672.14v.345c.813 0 .922.078.922.671V0h.25c.047-.094.39-.688.438-.781.28.453.78.906 1.546.906 1.375 0 2.594-1.172 2.594-2.703 0-1.516-1.125-2.688-2.453-2.688-.656 0-1.219.297-1.625.797zm.016 4.469c0-.219 0-.235.14-.422.281-.438.813-.781 1.39-.781.36 0 1.61.14 1.61 2.437 0 .797-.11 1.297-.406 1.735a1.566 1.566 0 0 1-1.313.734c-.64 0-1.062-.406-1.265-.734-.156-.25-.156-.297-.156-.5zm0 0"/></symbol><symbol overflow="visible" id="x"><path style="stroke:none" d="M4.844-4c.312-.797.875-.813 1.11-.813v-.343c-.345.031-.516.031-.891.031-.282 0-.313 0-.97-.031v.343c.438.032.548.313.548.516 0 .11-.032.172-.079.297L3.345-.984 2.016-4.25c-.063-.156-.063-.234-.063-.25 0-.313.406-.313.656-.313v-.343c-.312.031-.906.031-1.234.031-.453 0-.484 0-1.156-.031v.343c.687 0 .781.063.937.438L2.938 0c-.516 1.266-.516 1.297-.579 1.39-.203.36-.515.813-1.062.813-.36 0-.594-.219-.594-.219s.422-.046.422-.468a.436.436 0 0 0-.438-.438c-.203 0-.453.11-.453.469 0 .453.438.89 1.063.89.672 0 1.172-.578 1.469-1.343zm0 0"/></symbol><symbol overflow="visible" id="F"><path style="stroke:none" d="M2.203-.578a.587.587 0 0 0-.578-.578.567.567 0 0 0-.578.578c0 .344.297.578.562.578a.58.58 0 0 0 .594-.578Zm0 0"/></symbol><symbol overflow="visible" id="h"><path style="stroke:none" d="M1.547-2.172c.578.313 1.25.313 1.422.313 1.656 0 2.312-.922 2.312-1.766 0-.61-.343-1.031-.484-1.156.344-.188.625-.235.828-.266-.031.063-.063.11-.063.266 0 .25.157.484.47.484a.467.467 0 0 0 .484-.484.685.685 0 0 0-.72-.672c-.515 0-1 .25-1.25.469-.5-.282-.968-.391-1.577-.391-1.64 0-2.297.922-2.297 1.75 0 .375.11.86.625 1.266-.203.234-.422.656-.422 1.078 0 .515.266.953.531 1.156C1.11-.062.375.219.375.891c0 .718.766 1.515 2.969 1.515 1.984 0 2.984-.656 2.984-1.547 0-1.046-.687-1.39-.984-1.546C4.766-.97 4-.97 2.954-.97c-.298 0-.829 0-.892-.015-.515-.079-.656-.532-.656-.766 0-.094.016-.266.14-.422zm1.422-.078c-1.031 0-1.031-.828-1.031-1.375S1.938-5 2.968-5c1.048 0 1.048.828 1.048 1.375s0 1.375-1.047 1.375zM3.64.125c.875 0 1.718.156 1.718.781 0 .422-.421 1.11-2 1.11-1.578 0-2.015-.672-2.015-1.125 0-.766.765-.766.937-.766Zm0 0"/></symbol><symbol overflow="visible" id="i"><path style="stroke:none" d="M2.484-2.688c0-.39.079-2.296 1.485-2.296-.172.125-.25.328-.25.546 0 .5.39.704.687.704.297 0 .703-.204.703-.704 0-.609-.625-.937-1.203-.937-.937 0-1.344.828-1.515 1.328h-.016v-1.328l-1.953.094v.515c.734 0 .828 0 .828.47v3.78H.422V0c.266-.031 1.172-.031 1.5-.031.344 0 1.312 0 1.61.031v-.516H2.483Zm0 0"/></symbol><symbol overflow="visible" id="j"><path style="stroke:none" d="M5.406-2.64c.266 0 .344 0 .344-.297 0-.36-.078-1.266-.64-1.813-.5-.516-1.173-.672-1.86-.672-1.86 0-2.875 1.219-2.875 2.734C.375-1.016 1.609.079 3.406.079 5.22.078 5.75-1.188 5.75-1.406c0-.172-.188-.172-.25-.172-.188 0-.203.031-.281.187-.313.782-1.094 1.032-1.672 1.032-1.735 0-1.735-1.61-1.735-2.282zm-3.593-.344c.015-.5.03-.954.28-1.391a1.32 1.32 0 0 1 1.157-.64c1.281 0 1.39 1.437 1.406 2.03zm0 0"/></symbol><symbol overflow="visible" id="k"><path style="stroke:none" d="M5.5-3.578c0-1.094-.875-1.844-2.563-1.844-.671 0-2.078.063-2.078 1.078 0 .5.391.703.704.703.359 0 .703-.25.703-.703 0-.218-.079-.437-.282-.562.391-.11.688-.11.907-.11.812 0 1.312.454 1.312 1.438v.469c-1.89 0-3.797.53-3.797 1.859C.406-.172 1.796.078 2.625.078c.906 0 1.5-.515 1.734-1.031 0 .437 0 .953 1.204.953h.625c.25 0 .343 0 .343-.266 0-.25-.11-.25-.281-.25C5.5-.53 5.5-.719 5.5-.984ZM4.203-1.656c0 1.125-1.016 1.328-1.39 1.328-.594 0-1.079-.39-1.079-.938 0-1.093 1.297-1.453 2.47-1.515zm0 0"/></symbol><symbol overflow="visible" id="l"><path style="stroke:none" d="M2.516-4.797H4.25v-.516H2.516v-2.28h-.5c0 1.187-.579 2.374-1.766 2.405v.391h.969v3.328c0 1.266.984 1.547 1.843 1.547.876 0 1.407-.672 1.407-1.562v-.625h-.5v.609c0 .797-.36 1.14-.735 1.14-.718 0-.718-.796-.718-1.078zm0 0"/></symbol><symbol overflow="visible" id="m"><path style="stroke:none" d="M4.5-5.11c0-.218 0-.312-.172-.312-.078 0-.094 0-.281.11a1.225 1.225 0 0 1-.234.156c-.329-.188-.782-.266-1.204-.266-.359 0-2.156 0-2.156 1.563 0 1.25 1.484 1.515 1.86 1.578.312.062.718.125.765.125.469.11.953.406.953.906 0 .922-1.093.922-1.343.922-.61 0-1.36-.188-1.704-1.344-.062-.234-.078-.25-.28-.25-.25 0-.25.031-.25.313v1.375c0 .218 0 .312.187.312.078 0 .093 0 .343-.203l.313-.219c.531.422 1.172.422 1.39.422.657 0 2.157-.156 2.157-1.734 0-.578-.313-.969-.547-1.188-.5-.406-.906-.484-1.547-.594-.766-.14-1.484-.265-1.484-.843 0-.782 1.062-.782 1.312-.782 1.328 0 1.406.844 1.422 1.141.016.156.11.156.25.156.25 0 .25-.03.25-.312zm0 0"/></symbol><symbol overflow="visible" id="y"><path style="stroke:none" d="M6.688-4.453c.046-.172.046-.203.046-.25 0-.266-.203-.5-.546-.5a.81.81 0 0 0-.563.25c-.375-.39-.844-.453-1.156-.453-2 0-3.203 1.984-3.203 3.593 0 1.422 1 1.907 1.906 1.907.734 0 1.297-.375 1.578-.61.234.422.766.61 1.234.61.563 0 .86-.406 1.016-.64.313-.5.469-1.173.469-1.22 0-.171-.157-.171-.328-.171-.297 0-.297.015-.391.312-.094.39-.313 1.297-.719 1.297-.14 0-.218-.11-.218-.375 0-.235.015-.328.062-.516zM4.655-1.406c-.031.078-.031.11-.047.218-.515.672-1.015.86-1.375.86-.28 0-.687-.172-.687-.86 0-.64.422-2.109.547-2.453.406-1.156 1.062-1.328 1.375-1.328.422 0 .75.266.89.735zm0 0"/></symbol><symbol overflow="visible" id="z"><path style="stroke:none" d="M5.484-4.719a.89.89 0 0 0-.609.797c0 .188.094.547.594.547s.86-.422.86-.922c0-.594-.516-1.11-1.516-1.11-2.266 0-3.532 1.938-3.532 3.5 0 .97.563 2 2.313 2 .312 0 1.062-.015 1.703-.265.64-.25 1.11-.719 1.11-.86 0-.093-.235-.374-.36-.374-.031 0-.078 0-.172.078-.875 1-2.078 1-2.266 1-.656 0-1.03-.375-1.03-1.063 0-.468.343-1.921.655-2.546.47-.86 1.22-1.032 1.579-1.032.125 0 .453.016.671.25zm0 0"/></symbol><symbol overflow="visible" id="A"><path style="stroke:none" d="M4.453-7.719a.57.57 0 0 0-.594-.578c-.437 0-.843.406-.843.828 0 .328.234.578.578.578.453 0 .86-.406.86-.828zM1.687-1.437c-.078.187-.109.296-.109.468 0 .672.61 1.063 1.25 1.063 1.25 0 1.828-1.61 1.828-1.86 0-.171-.156-.171-.328-.171-.234 0-.281 0-.328.156-.11.312-.422 1.453-1.11 1.453-.062 0-.171 0-.171-.219 0-.156.094-.453.11-.484L3.89-3.875c.078-.188.109-.281.109-.469 0-.672-.61-1.062-1.25-1.062-1.25 0-1.828 1.61-1.828 1.875 0 .156.156.156.328.156.234 0 .297 0 .344-.156.093-.313.422-1.438 1.093-1.438.063 0 .172 0 .172.219 0 .14-.093.453-.093.469zm0 0"/></symbol><symbol overflow="visible" id="B"><path style="stroke:none" d="M7.547-7.89c.016-.063.047-.126.047-.188 0-.235-.219-.219-.39-.203l-1.47.062c-.125.016-.375.016-.375.36 0 .218.22.218.329.218.14 0 .359.016.5.032l-.625 2.593a1.592 1.592 0 0 0-1.094-.39c-2 0-3.203 1.984-3.203 3.593 0 1.422 1 1.907 1.906 1.907.734 0 1.297-.375 1.578-.61.234.422.766.61 1.234.61.563 0 .86-.406 1.016-.64.313-.5.469-1.173.469-1.22 0-.171-.157-.171-.328-.171-.297 0-.297.015-.391.312-.094.39-.313 1.297-.719 1.297-.14 0-.218-.11-.218-.375 0-.235.015-.328.062-.516zm-2.89 6.484c-.032.078-.032.11-.048.218-.515.672-1.015.86-1.375.86-.28 0-.687-.172-.687-.86 0-.64.422-2.109.547-2.453.406-1.156 1.062-1.328 1.375-1.328.422 0 .75.266.89.735zm0 0"/></symbol><symbol overflow="visible" id="C"><path style="stroke:none" d="M3.281-2.61c.719 0 3.078 0 3.078-1.64 0-.719-.671-1.156-1.546-1.156-2.079 0-3.5 1.562-3.5 3.406 0 1.297.796 2.094 2.296 2.094.375 0 1.079-.032 1.688-.266.64-.25 1.11-.719 1.11-.86 0-.093-.235-.374-.36-.374-.031 0-.078 0-.172.078-.875 1-2.078 1-2.25 1-.672 0-1.016-.406-1.016-1.11 0-.296.079-.765.188-1.171zm-.375-.421c.172-.61.281-.969.625-1.344a1.752 1.752 0 0 1 1.281-.594c.5 0 .766.313.766.703 0 1.235-1.937 1.235-2.672 1.235zm0 0"/></symbol><symbol overflow="visible" id="D"><path style="stroke:none" d="M3.64-3.516c.094-.343.766-1.453 1.844-1.453.516 0 .516.453.516.672 0 .719-.547 2.188-.766 2.734-.109.297-.14.422-.14.594 0 .672.61 1.063 1.25 1.063 1.25 0 1.828-1.61 1.828-1.86 0-.171-.156-.171-.328-.171-.235 0-.297 0-.344.156-.094.312-.406 1.453-1.094 1.453-.062 0-.172 0-.172-.219 0-.25.125-.562.282-.969.171-.437.703-1.859.703-2.53 0-1-.703-1.36-1.657-1.36-.25 0-1.03 0-1.828.828-.234-.688-.953-.828-1.328-.828-.562 0-.86.406-1.015.656a4.019 4.019 0 0 0-.47 1.219c0 .156.157.156.329.156.297 0 .297 0 .39-.313.094-.39.313-1.28.72-1.28.14 0 .218.093.218.359 0 .234-.015.328-.062.515l-.86 3.407c-.047.187-.047.203-.047.265 0 .375.297.516.547.516.078 0 .594-.016.75-.64zm0 0"/></symbol><symbol overflow="visible" id="E"><path style="stroke:none" d="M3.61-4.75h.953c.203 0 .406 0 .406-.344 0-.218-.203-.218-.36-.218H3.75c.125-.516.156-.657.234-.938.079-.313.22-.844.22-.938 0-.265-.204-.5-.548-.5-.156 0-.61.079-.75.641L2.47-5.313H1.5c-.203 0-.406 0-.406.36 0 .203.203.203.375.203h.86L1.5-1.406c-.047.187-.047.265-.047.343 0 .75.672 1.157 1.39 1.157 1.376 0 2.173-1.657 2.173-1.86 0-.171-.157-.171-.344-.171-.266 0-.266.015-.375.203-.5 1.187-1.078 1.406-1.39 1.406-.11 0-.25-.016-.25-.375 0-.235.015-.328.062-.516zm0 0"/></symbol></defs><g transform="matrix(.35278 0 0 .35278 -37.795 -100.889)" style="fill:#000;fill-opacity:1"><use y="294.406" x="106.495" xlink:href="#a" width="100%" height="100%"/><use y="294.406" x="112.999" xlink:href="#b" width="100%" height="100%"/><use y="294.406" x="118.852" xlink:href="#c" width="100%" height="100%"/><use y="294.406" x="128.607" xlink:href="#d" width="100%" height="100%"/></g><g transform="matrix(.35278 0 0 .35278 -37.795 -100.889)" style="fill:#000;fill-opacity:1"><use y="294.406" x="137.708" xlink:href="#b" width="100%" height="100%"/><use y="294.406" x="143.561" xlink:href="#e" width="100%" height="100%"/></g><g transform="matrix(.35278 0 0 .35278 -37.795 -100.889)" style="fill:#000;fill-opacity:1"><use y="294.406" x="151.047" xlink:href="#f" width="100%" height="100%"/><use y="294.406" x="155.6" xlink:href="#g" width="100%" height="100%"/><use y="294.406" x="162.103" xlink:href="#d" width="100%" height="100%"/></g><g transform="matrix(.35278 0 0 .35278 -37.795 -100.889)" style="fill:#000;fill-opacity:1"><use y="294.406" x="171.204" xlink:href="#h" width="100%" height="100%"/><use y="294.406" x="177.929" xlink:href="#i" width="100%" height="100%"/><use y="294.406" x="183.422" xlink:href="#j" width="100%" height="100%"/><use y="294.406" x="189.559" xlink:href="#k" width="100%" height="100%"/><use y="294.406" x="196.097" xlink:href="#l" width="100%" height="100%"/><use y="294.406" x="201.328" xlink:href="#j" width="100%" height="100%"/><use y="294.406" x="207.464" xlink:href="#m" width="100%" height="100%"/><use y="294.406" x="212.769" xlink:href="#l" width="100%" height="100%"/></g><g transform="matrix(.35278 0 0 .35278 -37.795 -100.889)" style="fill:#000;fill-opacity:1"><use y="294.406" x="221.901" xlink:href="#n" width="100%" height="100%"/><use y="294.406" x="228.405" xlink:href="#o" width="100%" height="100%"/><use y="294.406" x="231.656" xlink:href="#p" width="100%" height="100%"/><use y="294.406" x="236.274" xlink:href="#q" width="100%" height="100%"/><use y="294.406" x="241.476" xlink:href="#b" width="100%" height="100%"/></g><use y="294.406" x="247.007" xlink:href="#r" width="100%" height="100%" transform="matrix(.35278 0 0 .35278 -37.795 -100.889)" style="fill:#000;fill-opacity:1"/><use y="294.406" x="252.863" xlink:href="#d" width="100%" height="100%" transform="matrix(.35278 0 0 .35278 -37.795 -100.889)" style="fill:#000;fill-opacity:1"/><g transform="matrix(.35278 0 0 .35278 -37.795 -100.889)" style="fill:#000;fill-opacity:1"><use y="294.406" x="258.054" xlink:href="#s" width="100%" height="100%"/><use y="294.406" x="262.606" xlink:href="#o" width="100%" height="100%"/><use y="294.406" x="265.858" xlink:href="#d" width="100%" height="100%"/><use y="294.406" x="271.061" xlink:href="#p" width="100%" height="100%"/></g><g transform="matrix(.35278 0 0 .35278 -37.795 -100.889)" style="fill:#000;fill-opacity:1"><use y="294.406" x="279.587" xlink:href="#o" width="100%" height="100%"/><use y="294.406" x="282.839" xlink:href="#t" width="100%" height="100%"/></g><g transform="matrix(.35278 0 0 .35278 -37.795 -100.889)" style="fill:#000;fill-opacity:1"><use y="294.406" x="293.24" xlink:href="#p" width="100%" height="100%"/><use y="294.406" x="297.857" xlink:href="#q" width="100%" height="100%"/><use y="294.406" x="303.06" xlink:href="#o" width="100%" height="100%"/><use y="294.406" x="306.312" xlink:href="#d" width="100%" height="100%"/><use y="294.406" x="311.515" xlink:href="#t" width="100%" height="100%"/><use y="294.406" x="318.018" xlink:href="#q" width="100%" height="100%"/><use y="294.406" x="323.221" xlink:href="#d" width="100%" height="100%"/></g><path d="M96.587 77.82h12.412" style="fill:none;stroke:#000;stroke-width:.140406;stroke-linecap:butt;stroke-linejoin:miter;stroke-miterlimit:10;stroke-opacity:1" transform="translate(-30.932 -74.356)"/><use y="294.406" x="332.327" xlink:href="#u" width="100%" height="100%" transform="matrix(.35278 0 0 .35278 -37.795 -100.889)" style="fill:#000;fill-opacity:1"/><g transform="matrix(.35278 0 0 .35278 -37.795 -100.889)" style="fill:#000;fill-opacity:1"><use y="294.406" x="340.459" xlink:href="#d" width="100%" height="100%"/><use y="294.406" x="345.662" xlink:href="#s" width="100%" height="100%"/><use y="294.406" x="350.214" xlink:href="#d" width="100%" height="100%"/></g><g transform="matrix(.35278 0 0 .35278 -37.795 -100.889)" style="fill:#000;fill-opacity:1"><use y="294.406" x="359.315" xlink:href="#c" width="100%" height="100%"/><use y="294.406" x="369.07" xlink:href="#v" width="100%" height="100%"/><use y="294.406" x="374.923" xlink:href="#n" width="100%" height="100%"/><use y="294.406" x="381.427" xlink:href="#d" width="100%" height="100%"/></g><use y="294.406" x="390.527" xlink:href="#w" width="100%" height="100%" transform="matrix(.35278 0 0 .35278 -37.795 -100.889)" style="fill:#000;fill-opacity:1"/><use y="294.406" x="396.708" xlink:href="#x" width="100%" height="100%" transform="matrix(.35278 0 0 .35278 -37.795 -100.889)" style="fill:#000;fill-opacity:1"/><g transform="matrix(.35278 0 0 .35278 -37.795 -100.889)" style="fill:#000;fill-opacity:1"><use y="294.406" x="406.953" xlink:href="#y" width="100%" height="100%"/><use y="294.406" x="414.02" xlink:href="#z" width="100%" height="100%"/></g><g transform="matrix(.35278 0 0 .35278 -37.795 -100.889)" style="fill:#000;fill-opacity:1"><use y="294.406" x="419.677" xlink:href="#z" width="100%" height="100%"/><use y="294.406" x="426.039" xlink:href="#A" width="100%" height="100%"/><use y="294.406" x="430.291" xlink:href="#B" width="100%" height="100%"/><use y="294.406" x="437.357" xlink:href="#C" width="100%" height="100%"/><use y="294.406" x="443.72" xlink:href="#D" width="100%" height="100%"/><use y="294.406" x="451.491" xlink:href="#E" width="100%" height="100%"/></g><use y="294.406" x="457.247" xlink:href="#F" width="100%" height="100%" transform="matrix(.35278 0 0 .35278 -37.795 -100.889)" style="fill:#000;fill-opacity:1"/></svg>