<svg xmlns="http://www.w3.org/2000/svg" xmlns:xlink="http://www.w3.org/1999/xlink" viewBox="0 0 136.486 14.012" height="52.959" width="515.853"><defs><symbol overflow="visible" id="a"><path style="stroke:none" d="M2.484-4.984c-.609-.157-1.14-.75-1.14-1.516a1.59 1.59 0 0 1 1.593-1.594c1.97 0 2.22 1.938 2.297 2.453.032.141.032.188.141.188.14 0 .14-.063.14-.266V-8.14c0-.218 0-.28-.124-.28-.032 0-.079 0-.172.155l-.39.735c-.579-.735-1.36-.89-1.891-.89A2.29 2.29 0 0 0 .64-6.126c0 .563.203 1.094.656 1.578.406.453.828.563 1.672.781.422.094 1.078.266 1.25.329.562.28.937.921.937 1.593 0 .907-.64 1.75-1.625 1.75-.547 0-1.281-.14-1.875-.64C.97-1.36.922-2.22.906-2.625c-.015-.094-.11-.094-.125-.094-.14 0-.14.063-.14.281V-.03C.64.187.64.25.766.25.844.25.844.234.937.078c.047-.094.297-.531.391-.719.422.485 1.188.891 2.203.891 1.344 0 2.313-1.14 2.313-2.453 0-.719-.282-1.266-.594-1.656-.438-.547-.984-.672-1.453-.797Zm0 0"/></symbol><symbol overflow="visible" id="b"><path style="stroke:none" d="M5.484-2.563c0-1.53-1.171-2.765-2.562-2.765C1.5-5.328.359-4.062.359-2.562.36-1.032 1.547.124 2.922.124c1.406 0 2.562-1.172 2.562-2.688zM2.922-.14c-.438 0-.969-.187-1.313-.78-.328-.532-.343-1.235-.343-1.75 0-.454 0-1.173.375-1.72.328-.515.859-.703 1.28-.703.454 0 .97.219 1.282.688.375.547.375 1.297.375 1.734 0 .422 0 1.172-.312 1.735-.329.562-.891.796-1.344.796Zm0 0"/></symbol><symbol overflow="visible" id="c"><path style="stroke:none" d="M8.578-2.906c0-1.11 0-1.438-.281-1.828-.344-.47-.906-.532-1.313-.532-1 0-1.5.72-1.687 1.172-.172-.922-.813-1.172-1.563-1.172-1.171 0-1.625.985-1.718 1.22v-1.22L.375-5.14v.344c.813 0 .922.094.922.672v3.234c0 .547-.14.547-.922.547V0c.313-.031.969-.031 1.297-.031.344 0 1 0 1.297.031v-.344c-.75 0-.906 0-.906-.547v-2.218c0-1.25.828-1.922 1.578-1.922.734 0 .906.61.906 1.343V-.89c0 .547-.14.547-.906.547V0c.296-.031.953-.031 1.28-.031.345 0 1 0 1.313.031v-.344c-.765 0-.921 0-.921-.547v-2.218c0-1.25.828-1.922 1.578-1.922.734 0 .906.61.906 1.343V-.89c0 .547-.14.547-.906.547V0c.312-.031.953-.031 1.28-.031.345 0 1 0 1.313.031v-.344c-.609 0-.906 0-.906-.36zm0 0"/></symbol><symbol overflow="visible" id="d"><path style="stroke:none" d="M4.578-2.766c.266 0 .281 0 .281-.234 0-1.203-.64-2.328-2.093-2.328-1.36 0-2.407 1.234-2.407 2.703 0 1.578 1.22 2.75 2.547 2.75 1.422 0 1.953-1.297 1.953-1.547 0-.078-.046-.125-.125-.125-.093 0-.125.063-.14.125-.313 1-1.11 1.281-1.625 1.281-.5 0-1.703-.343-1.703-2.406v-.219zM1.281-3c.094-1.875 1.14-2.094 1.485-2.094 1.28 0 1.343 1.688 1.359 2.094zm0 0"/></symbol><symbol overflow="visible" id="e"><path style="stroke:none" d="M2.063-4.813h1.343v-.343H2.031v-1.39c0-1.079.547-1.626 1.047-1.626.094 0 .266.016.406.094-.046.015-.343.125-.343.469 0 .265.187.468.468.468a.468.468 0 0 0 .485-.484c0-.438-.438-.797-1.016-.797-.828 0-1.781.656-1.781 1.875v1.39H.375v.345h.922v3.921c0 .547-.125.547-.906.547V0c.343-.031 1-.031 1.359-.031.313 0 1.172 0 1.438.031v-.344h-.235c-.875 0-.89-.14-.89-.562zm0 0"/></symbol><symbol overflow="visible" id="f"><path style="stroke:none" d="M2.016-4.813h1.671v-.343H2.016v-2.188H1.75c-.016 1.11-.453 2.266-1.531 2.297v.234h1.015v3.329C1.234-.156 2.11.125 2.75.125c.75 0 1.14-.75 1.14-1.61v-.671h-.25v.656c0 .86-.359 1.36-.812 1.36-.812 0-.812-1.11-.812-1.313zm0 0"/></symbol><symbol overflow="visible" id="g"><path style="stroke:none" d="M5.313-2.906c0-1.11 0-1.438-.266-1.828-.344-.47-.906-.532-1.313-.532-1.03 0-1.515.766-1.671 1.141h-.016v-4.172l-1.672.14v.345c.813 0 .922.078.922.671v6.25c0 .547-.14.547-.922.547V0c.313-.031.969-.031 1.297-.031.344 0 1 0 1.297.031v-.344c-.75 0-.906 0-.906-.547v-2.218c0-1.25.828-1.922 1.578-1.922.734 0 .906.61.906 1.343V-.89c0 .547-.14.547-.906.547V0c.296-.031.953-.031 1.28-.031.345 0 1 0 1.313.031v-.344c-.609 0-.906 0-.921-.36zm0 0"/></symbol><symbol overflow="visible" id="h"><path style="stroke:none" d="M1.422-2.156c.562.36 1.047.36 1.172.36 1.078 0 1.875-.813 1.875-1.735 0-.313-.094-.766-.469-1.156.453-.47 1.016-.47 1.078-.47.047 0 .11 0 .156.016-.125.047-.171.172-.171.297 0 .172.109.313.296.313.11 0 .313-.063.313-.328a.556.556 0 0 0-.578-.547c-.625 0-1.094.39-1.25.562a2.067 2.067 0 0 0-1.235-.422c-1.078 0-1.875.813-1.875 1.735 0 .672.407 1.11.532 1.219-.141.187-.36.53-.36 1 0 .687.422.984.516 1.046C.875-.109.328.328.328.938c0 .828 1.125 1.515 2.594 1.515 1.422 0 2.594-.64 2.594-1.531 0-.297-.079-1-.797-1.375-.61-.313-1.203-.313-2.235-.313-.734 0-.812 0-1.03-.218a.982.982 0 0 1-.22-.61c0-.203.063-.406.188-.562zm1.187.11c-1.062 0-1.062-1.204-1.062-1.485 0-.203 0-.703.203-1.016.234-.36.594-.469.844-.469 1.047 0 1.047 1.204 1.047 1.485 0 .203 0 .703-.204 1.015a.97.97 0 0 1-.828.47zm.313 4.25C1.782 2.203.906 1.608.906.936c0-.093.031-.562.485-.875.265-.171.359-.171 1.203-.171.984 0 2.344 0 2.344 1.046 0 .704-.907 1.266-2.016 1.266zm0 0"/></symbol><symbol overflow="visible" id="i"><path style="stroke:none" d="M2-2.781c0-1.156.469-2.25 1.39-2.25.094 0 .126 0 .172.015-.093.047-.28.11-.28.438 0 .344.265.484.452.484.25 0 .485-.156.485-.484 0-.36-.328-.688-.844-.688-1.016 0-1.36 1.094-1.422 1.329h-.016v-1.329L.329-5.14v.344c.813 0 .922.094.922.672v3.234c0 .547-.14.547-.922.547V0c.344-.031 1-.031 1.36-.031.328 0 1.171 0 1.437.031v-.344h-.234C2.016-.344 2-.484 2-.906Zm0 0"/></symbol><symbol overflow="visible" id="j"><path style="stroke:none" d="M4.61-3.188c0-.656 0-1.124-.516-1.593a2.242 2.242 0 0 0-1.485-.547c-.984 0-1.734.64-1.734 1.422 0 .344.219.515.5.515s.484-.203.484-.5c0-.484-.421-.484-.609-.484.281-.5.86-.719 1.328-.719.547 0 1.266.453 1.266 1.532v.484C1.438-3.047.53-2.047.53-1.125c0 .953 1.094 1.25 1.828 1.25.782 0 1.329-.484 1.547-1.063.047.563.422 1 .938 1 .25 0 .937-.171.937-1.125v-.671h-.265v.671c0 .688-.282.782-.454.782-.453 0-.453-.64-.453-.813zm-.766 1.5c0 1.172-.875 1.563-1.39 1.563-.595 0-1.079-.422-1.079-1 0-1.578 2.031-1.719 2.469-1.75zm0 0"/></symbol><symbol overflow="visible" id="k"><path style="stroke:none" d="M3.922-5.063c0-.203 0-.265-.125-.265-.094 0-.313.266-.406.375-.36-.313-.735-.375-1.125-.375C.828-5.328.39-4.547.39-3.891c0 .141 0 .563.453.97.39.343.797.421 1.344.53.656.125.812.172 1.109.407a.97.97 0 0 1 .375.78c0 .516-.297 1.079-1.36 1.079-.78 0-1.359-.453-1.624-1.64C.64-1.986.64-2 .64-2.016c-.032-.047-.079-.047-.11-.047-.14 0-.14.062-.14.28v1.626c0 .218 0 .281.125.281.062 0 .062-.016.265-.266.063-.093.063-.109.25-.296.453.562 1.094.562 1.297.562 1.25 0 1.875-.703 1.875-1.64 0-.641-.39-1.032-.5-1.141-.422-.375-.75-.438-1.547-.578-.344-.079-1.219-.25-1.219-.97 0-.359.25-.905 1.329-.905C3.562-5.11 3.64-4 3.656-3.641c.016.11.094.11.14.11.126 0 .126-.063.126-.281zm0 0"/></symbol><symbol overflow="visible" id="t"><path style="stroke:none" d="M2.078-7.36a.59.59 0 0 0-.578-.593.577.577 0 0 0-.578.578c0 .36.281.578.578.578.36 0 .578-.297.578-.562zM.438-5.14v.343c.75 0 .859.078.859.656v3.25c0 .547-.125.547-.906.547V0c.343-.031.906-.031 1.265-.031.125 0 .813 0 1.219.031v-.344c-.766 0-.813-.062-.813-.531v-4.39zm0 0"/></symbol><symbol overflow="visible" id="u"><path style="stroke:none" d="M5.313-2.906c0-1.11 0-1.438-.266-1.828-.344-.47-.906-.532-1.313-.532-1.171 0-1.625.985-1.718 1.22v-1.22L.375-5.14v.344c.813 0 .922.094.922.672v3.234c0 .547-.14.547-.922.547V0c.313-.031.969-.031 1.297-.031.344 0 1 0 1.297.031v-.344c-.75 0-.906 0-.906-.547v-2.218c0-1.25.828-1.922 1.578-1.922.734 0 .906.61.906 1.343V-.89c0 .547-.14.547-.906.547V0c.296-.031.953-.031 1.28-.031.345 0 1 0 1.313.031v-.344c-.609 0-.906 0-.921-.36zm0 0"/></symbol><symbol overflow="visible" id="v"><path style="stroke:none" d="M4.328-4.422c-.14 0-.594 0-.594.484 0 .297.204.5.5.5.266 0 .5-.171.5-.515 0-.797-.843-1.375-1.812-1.375-1.39 0-2.5 1.234-2.5 2.75 0 1.531 1.14 2.703 2.5 2.703 1.578 0 1.937-1.438 1.937-1.547 0-.11-.093-.11-.125-.11-.109 0-.125.032-.156.188C4.312-.5 3.672-.14 3.031-.14c-.734 0-1.703-.64-1.703-2.453 0-1.984 1.016-2.469 1.61-2.469.453 0 1.109.172 1.39.641zm0 0"/></symbol><symbol overflow="visible" id="w"><path style="stroke:none" d="M7.234-4.016c.266-.75.782-.78.985-.796v-.344c-.297.031-.516.031-.875.031-.344 0-.375 0-1.016-.031v.343c.531.032.672.36.672.579 0 .015 0 .093-.047.218L5.86-.89 4.656-4.266c-.047-.14-.047-.171-.047-.203 0-.343.438-.343.688-.343v-.344c-.344.031-.828.031-1.172.031-.39 0-.406 0-1.078-.031v.343c.453 0 .61.032.75.188.047.078.203.469.281.703L3.062-1 1.907-4.25c-.047-.156-.047-.188-.047-.234 0-.329.454-.329.688-.329v-.343c-.297.031-.89.031-1.219.031-.344 0-.36 0-1.11-.031v.343c.61 0 .72.063.86.438l1.5 4.281c.047.125.094.219.219.219.11 0 .172-.047.234-.234L4.22-3.516 5.422-.109c.047.187.11.234.219.234.125 0 .171-.094.218-.219zm0 0"/></symbol><symbol overflow="visible" id="x"><path style="stroke:none" d="M3.578-8.156v.344c.828 0 .922.078.922.671V-4.5A1.829 1.829 0 0 0 3-5.266C1.61-5.266.422-4.094.422-2.562.422-1.048 1.547.124 2.875.124c.906 0 1.422-.61 1.594-.828v.828L6.156 0v-.344c-.812 0-.906-.094-.906-.672v-7.28zm.89 6.75c0 .218 0 .265-.171.515-.281.422-.766.766-1.375.766-.297 0-1.594-.11-1.594-2.438 0-.859.14-1.328.406-1.734.235-.36.72-.734 1.313-.734.75 0 1.156.531 1.281.734.14.203.14.219.14.438zm0 0"/></symbol><symbol overflow="visible" id="y"><path style="stroke:none" d="m2-8.297-1.672.14v.345c.813 0 .922.078.922.671V0h.25c.047-.094.39-.688.438-.781.28.453.78.906 1.546.906 1.375 0 2.594-1.172 2.594-2.703 0-1.516-1.125-2.688-2.453-2.688-.656 0-1.219.297-1.625.797zm.016 4.469c0-.219 0-.235.14-.422.281-.438.813-.781 1.39-.781.36 0 1.61.14 1.61 2.437 0 .797-.11 1.297-.406 1.735a1.566 1.566 0 0 1-1.313.734c-.64 0-1.062-.406-1.265-.734-.156-.25-.156-.297-.156-.5zm0 0"/></symbol><symbol overflow="visible" id="z"><path style="stroke:none" d="M4.844-4c.312-.797.875-.813 1.11-.813v-.343c-.345.031-.516.031-.891.031-.282 0-.313 0-.97-.031v.343c.438.032.548.313.548.516 0 .11-.032.172-.079.297L3.345-.984 2.016-4.25c-.063-.156-.063-.234-.063-.25 0-.313.406-.313.656-.313v-.343c-.312.031-.906.031-1.234.031-.453 0-.484 0-1.156-.031v.343c.687 0 .781.063.937.438L2.938 0c-.516 1.266-.516 1.297-.579 1.39-.203.36-.515.813-1.062.813-.36 0-.594-.219-.594-.219s.422-.046.422-.468a.436.436 0 0 0-.438-.438c-.203 0-.453.11-.453.469 0 .453.438.89 1.063.89.672 0 1.172-.578 1.469-1.343zm0 0"/></symbol><symbol overflow="visible" id="A"><path style="stroke:none" d="M2.203-.578a.587.587 0 0 0-.578-.578.567.567 0 0 0-.578.578c0 .344.297.578.562.578a.58.58 0 0 0 .594-.578Zm0 0"/></symbol><symbol overflow="visible" id="I"><path style="stroke:none" d="M4.875-4.016c.11-.265.313-.78 1.078-.796v-.344c-.344.031-.516.031-.89.031-.25 0-.422 0-.97-.031v.343c.5.032.563.391.563.516 0 .11-.031.172-.093.313L3.343-.891 2.017-4.266c-.063-.171-.079-.171-.079-.234 0-.313.454-.313.672-.313v-.343c-.296.031-.921.031-1.25.031-.39 0-.421 0-1.14-.031v.343c.672 0 .781.063.922.422L2.859-.109c.063.171.079.234.22.234.093 0 .155-.031.25-.234zm0 0"/></symbol><symbol overflow="visible" id="l"><path style="stroke:none" d="M6.531-8.016c.016-.078.047-.125.047-.156 0-.11-.094-.125-.281-.11l-1.188.11c-.171.016-.28.016-.28.235 0 .125.093.125.265.125.593 0 .593.109.593.218a.792.792 0 0 1-.03.203l-.704 2.844c-.172-.375-.469-.719-.984-.719-1.297 0-2.672 1.829-2.672 3.563 0 1.062.562 1.828 1.375 1.828.484 0 .969-.313 1.422-.86.14.735.672.86.953.86.469 0 .703-.36.86-.703.202-.406.343-1.094.343-1.125 0-.11-.11-.11-.156-.11-.14 0-.157 0-.219.282-.25 1-.469 1.406-.813 1.406-.25 0-.312-.25-.312-.469 0-.156.063-.5.094-.656zM4.188-1.469c-.094.328-.813 1.344-1.5 1.344-.626 0-.657-.922-.657-1.063 0-.609.39-2.015.578-2.5.313-.734.844-1.343 1.36-1.343.734 0 .797 1.11.797 1.14l-.032.172zm0 0"/></symbol><symbol overflow="visible" id="m"><path style="stroke:none" d="M3.813-7.453c0-.219-.172-.36-.376-.36-.203 0-.515.204-.515.532 0 .265.187.36.36.36.25 0 .53-.22.53-.532zm-2.204 6.11c-.093.25-.093.405-.093.515 0 .703.468.953.859.953 1.11 0 1.484-1.781 1.484-1.828 0-.11-.109-.11-.156-.11-.14 0-.156.032-.203.204-.11.421-.422 1.484-1.094 1.484-.14 0-.281-.047-.281-.344 0-.312.172-.734.39-1.328l.704-1.937c.11-.297.125-.391.125-.61 0-.61-.39-.922-.86-.922-1.093 0-1.5 1.766-1.5 1.829 0 .109.11.109.172.109.14 0 .157-.047.203-.203.094-.39.407-1.5 1.11-1.5.25 0 .25.218.25.36 0 .312-.063.515-.156.734zm0 0"/></symbol><symbol overflow="visible" id="n"><path style="stroke:none" d="M4.563-4.406c-.422.062-.454.406-.454.468 0 .126.094.297.329.297.265 0 .468-.218.468-.625 0-.546-.468-1-1.234-1-1.438 0-1.86 1.22-1.86 1.735 0 .437.235.687.344.812.203.188.422.25.938.36.297.062.906.203.906.859 0 .328-.281 1.375-1.594 1.375-.437 0-1.031-.156-1.156-.719.563-.031.563-.515.563-.547 0-.25-.204-.343-.36-.343-.11 0-.562.046-.562.703 0 .734.671 1.156 1.5 1.156 1.671 0 2.203-1.328 2.203-1.984 0-1.016-.86-1.22-1.422-1.344-.328-.078-.75-.172-.75-.703 0-.313.25-1.125 1.219-1.125.5 0 .843.25.921.625zm0 0"/></symbol><symbol overflow="visible" id="o"><path style="stroke:none" d="M5.14-4.453c-.296 0-.562.234-.562.516 0 .296.266.359.375.359.11 0 .563-.063.563-.688 0-.562-.5-1-1.235-1-1.453 0-2.968 1.688-2.968 3.454C1.313-.595 2.046.125 3 .125c1.484 0 2.469-1.219 2.469-1.375 0-.094-.11-.188-.172-.188-.031 0-.047.016-.14.125-.641.86-1.532 1.188-2.141 1.188-.61 0-.938-.531-.938-1.234 0-.547.281-1.875.688-2.547.406-.719.984-1.125 1.5-1.125.078 0 .703 0 .875.578zm0 0"/></symbol><symbol overflow="visible" id="p"><path style="stroke:none" d="M5.938-3.328c0-1.25-.766-1.938-1.657-1.938-1.453 0-2.968 1.688-2.968 3.454 0 1.28.796 1.937 1.656 1.937 1.469 0 2.969-1.719 2.969-3.453zM2.983-.125c-.5 0-.906-.422-.906-1.234 0-.547.281-1.875.688-2.547.437-.766 1.046-1.125 1.484-1.125.61 0 .922.562.922 1.234 0 .516-.281 1.875-.672 2.531-.484.844-1.094 1.141-1.516 1.141Zm0 0"/></symbol><symbol overflow="visible" id="q"><path style="stroke:none" d="M5.781-4.5c0-.61-.234-.766-.453-.766s-.516.22-.516.5c0 .11.016.157.125.282.282.328.313.765.313.953 0 .312-.547 3.406-1.953 3.406-.61 0-.781-.516-.781-1 0-.688.406-1.797.687-2.531.094-.281.156-.438.156-.688 0-.468-.28-.922-.875-.922-1.078 0-1.5 1.75-1.5 1.829 0 .109.11.109.172.109.14 0 .157-.047.203-.203.094-.36.407-1.5 1.11-1.5.14 0 .265.062.265.343 0 .297-.109.61-.375 1.313-.468 1.313-.515 1.75-.515 2.078C1.844-.078 2.75.125 3.25.125c1.984 0 2.531-4.328 2.531-4.625zm0 0"/></symbol><symbol overflow="visible" id="r"><path style="stroke:none" d="M2.75-2.766c.422 0 2.672 0 2.672-1.515 0-.532-.453-.985-1.156-.985-1.235 0-2.907 1.22-2.907 3.313C1.36-.734 1.984.125 3 .125c1.484 0 2.469-1.219 2.469-1.375 0-.094-.11-.188-.172-.188-.031 0-.047.016-.14.125-.641.86-1.532 1.188-2.141 1.188-.797 0-.907-.938-.907-1.328 0-.516.094-.86.204-1.313zm-.36-.25c.485-1.89 1.657-2.015 1.86-2.015.484 0 .766.328.766.734 0 1.281-1.985 1.281-2.375 1.281zm0 0"/></symbol><symbol overflow="visible" id="s"><path style="stroke:none" d="M3.016-3.422c.03-.14.562-1.61 1.578-1.61.062 0 .39 0 .656.173a.53.53 0 0 0-.406.515c0 .25.187.344.375.344.203 0 .531-.14.531-.578 0-.61-.813-.688-1.14-.688-.563 0-1.016.25-1.454.875-.11-.703-.625-.875-.937-.875-.281 0-.594.11-.844.625-.234.438-.39 1.157-.39 1.188 0 .094.062.125.171.125.14 0 .14-.016.219-.297.172-.703.406-1.406.813-1.406.312 0 .312.343.312.484 0 .234-.047.5-.094.656l-.875 3.5c-.047.157-.047.172-.047.22 0 .14.094.296.313.296.266 0 .39-.234.437-.422zm0 0"/></symbol><symbol overflow="visible" id="B"><path style="stroke:none" d="M7.406-8.14a.554.554 0 0 0 .047-.172c0-.11-.11-.11-.125-.11-.031 0-.078 0-.172.14l-.531.72c-.438-.86-1.328-.86-1.547-.86-1.39 0-2.719 1.39-2.719 2.828 0 .266.032.75.47 1.219.25.281.452.328 1.28.578.141.047.641.188.735.219.5.156.718.625.718 1.156 0 1.094-.937 2.328-2.03 2.328-.907 0-1.766-.469-1.766-1.687a4.4 4.4 0 0 1 .093-.735l.016-.093c0-.11-.094-.11-.156-.11-.125 0-.157.016-.203.203L.89-.03C.89.016.859.109.859.14.86.25.953.25.984.25c.047 0 .063-.016.172-.156l.547-.719c.313.5.86.875 1.797.875 1.453 0 2.781-1.531 2.781-3.078 0-.953-.468-1.485-1.062-1.672a60.92 60.92 0 0 1-1.172-.36c-.375-.093-.938-.265-.938-1.171 0-1.016.938-2.063 1.954-2.063 1.421 0 1.421 1.344 1.421 1.703 0 .157 0 .36-.046.72-.016.062-.016.093-.016.109 0 .109.078.109.172.109.125 0 .14-.016.203-.203zm0 0"/></symbol><symbol overflow="visible" id="C"><path style="stroke:none" d="M5.953-3.234c.078-.282.719-1.797 1.86-1.797.546 0 .546.593.546.797 0 .75-.515 2.171-.718 2.765-.11.297-.157.407-.157.657 0 .578.375.937.86.937 1.11 0 1.5-1.781 1.5-1.828 0-.11-.11-.11-.156-.11-.157 0-.157.032-.204.204-.109.421-.437 1.484-1.109 1.484-.172 0-.266-.078-.266-.36 0-.28.125-.656.22-.89.312-.875.718-1.984.718-2.672 0-.64-.266-1.219-1.188-1.219-.75 0-1.343.422-1.78 1.079C6.015-5 5.452-5.266 4.874-5.266c-.688 0-1.281.36-1.703.97-.047-.548-.406-.97-.953-.97-.281 0-.594.11-.844.625-.234.438-.39 1.157-.39 1.188 0 .094.062.125.171.125.14 0 .14-.016.219-.297.172-.703.406-1.406.813-1.406.312 0 .312.343.312.484 0 .234-.047.5-.094.656l-.875 3.5c-.047.157-.047.172-.047.22 0 .14.094.296.313.296.14 0 .328-.094.422-.328.015-.125.469-1.906.547-2.219.062-.25.125-.5.187-.765.125-.454.781-1.844 1.89-1.844.548 0 .548.61.548.797 0 .234-.047.5-.094.718L4.5-.359c-.031.125-.031.171-.031.187 0 .14.093.297.312.297.282 0 .39-.219.438-.422zm0 0"/></symbol><symbol overflow="visible" id="D"><path style="stroke:none" d="M3.25-4.813h.938c.203 0 .312 0 .312-.203 0-.14-.078-.14-.281-.14h-.907c.11-.516.172-.938.376-1.89.109-.532.25-1.126.687-1.126.031 0 .328 0 .516.219-.407.094-.485.406-.485.547 0 .218.172.343.375.343.282 0 .547-.218.547-.609 0-.469-.469-.75-.953-.75-1.14 0-1.453 1.563-1.531 1.969l-.25 1.297h-.75c-.203 0-.313 0-.313.234 0 .11.094.11.282.11h.703l-.844 4.39c-.14.719-.172.828-.36 1.563-.125.5-.265 1.062-.703 1.062-.046 0-.343-.015-.5-.234a.544.544 0 0 0 .485-.532c0-.234-.156-.343-.36-.343-.28 0-.562.203-.562.61 0 .452.453.734.937.734.97 0 1.532-1.5 1.907-3.422zm0 0"/></symbol><symbol overflow="visible" id="E"><path style="stroke:none" d="M3.063-4.813h.984c.203 0 .328 0 .328-.203 0-.14-.078-.14-.281-.14H3.14l.484-1.875c.016-.016.016-.125.016-.157 0-.109-.079-.28-.313-.28-.297 0-.406.265-.453.437l-.453 1.875H1.406c-.218 0-.328 0-.328.234 0 .11.094.11.281.11h.97l-.86 3.453c-.063.234-.063.375-.063.421 0 .563.328 1.063.985 1.063 1.171 0 1.765-1.781 1.765-1.828 0-.11-.11-.11-.156-.11-.125 0-.14.016-.203.157-.14.36-.61 1.531-1.375 1.531-.188 0-.36-.078-.36-.469 0-.187.047-.453.094-.64zm0 0"/></symbol><symbol overflow="visible" id="F"><path style="stroke:none" d="M3.563-8.016c.015-.078.03-.125.03-.156 0-.11-.077-.125-.265-.11l-1.203.11c-.172.016-.266.016-.266.235 0 .125.094.125.25.125.61 0 .61.109.61.218 0 .047-.031.172-.047.219L.937-.391c-.046.157-.046.172-.046.22 0 .14.093.296.296.296.344 0 .422-.313.438-.406l.734-2.953c.079-.282.72-1.797 1.875-1.797.547 0 .547.593.547.797 0 .75-.531 2.171-.734 2.765-.11.297-.156.407-.156.657 0 .578.375.937.859.937 1.125 0 1.5-1.781 1.5-1.828 0-.11-.11-.11-.156-.11-.14 0-.157.032-.203.204-.11.421-.422 1.484-1.094 1.484-.188 0-.281-.078-.281-.36 0-.28.14-.656.234-.89.313-.875.719-1.984.719-2.672 0-.64-.282-1.219-1.203-1.219-.766 0-1.266.438-1.594.844zm0 0"/></symbol><symbol overflow="visible" id="G"><path style="stroke:none" d="M5.672-4.563c.047-.14.047-.171.047-.187 0-.14-.094-.297-.313-.297-.281 0-.437.25-.453.453h-.016c-.125-.265-.421-.672-.968-.672-1.266 0-2.656 1.735-2.656 3.47C1.313-.688 1.905 0 2.702 0c.625 0 1.172-.547 1.25-.64L3.578.921c-.14.375-.594 1.281-1.562 1.281-.125 0-.532 0-.844-.14a.579.579 0 0 0 .375-.516c0-.14-.11-.344-.39-.344-.235 0-.532.203-.532.594 0 .453.469.64 1.39.64 1.22 0 2.11-.78 2.344-1.718zM4.203-1.546c-.11.39-.828 1.313-1.484 1.313-.64 0-.656-.922-.656-1.063 0-.578.359-1.937.546-2.39.297-.735.829-1.344 1.36-1.344.719 0 .812 1.031.812 1.093 0 .032-.015.094-.031.204zm0 0"/></symbol><symbol overflow="visible" id="H"><path style="stroke:none" d="M5.672-4.563c.047-.14.047-.171.047-.187 0-.14-.094-.297-.313-.297-.39 0-.468.469-.468.469l-.016.016c-.219-.563-.625-.704-.953-.704-1.297 0-2.672 1.829-2.672 3.563 0 1.062.562 1.828 1.375 1.828.484 0 .969-.313 1.422-.86.14.735.672.86.953.86.469 0 .703-.36.86-.703.202-.406.343-1.094.343-1.125 0-.11-.11-.11-.156-.11-.14 0-.157 0-.219.282-.25 1-.469 1.406-.813 1.406-.25 0-.312-.25-.312-.469 0-.187.047-.453.094-.64zm-1.5 3.11c-.078.312-.797 1.328-1.484 1.328-.626 0-.657-.922-.657-1.063 0-.609.39-2.015.578-2.5.313-.734.844-1.343 1.36-1.343.719 0 .797 1.062.797 1.14 0 .016-.032.157-.032.172zm0 0"/></symbol><symbol overflow="visible" id="J"><path style="stroke:none" d="M2.969-3.234c.062-.266.719-1.797 1.86-1.797.546 0 .546.593.546.797 0 .75-.516 2.171-.719 2.765-.11.297-.156.407-.156.657 0 .578.36.937.86.937 1.109 0 1.484-1.781 1.484-1.828 0-.11-.11-.11-.157-.11-.14 0-.156.032-.203.204-.093.421-.421 1.484-1.093 1.484-.172 0-.282-.078-.282-.36 0-.28.141-.656.235-.89.312-.875.718-1.984.718-2.672 0-.64-.28-1.219-1.203-1.219-.734 0-1.296.422-1.687.97-.047-.548-.406-.97-.953-.97-.281 0-.594.11-.844.625-.234.438-.39 1.157-.39 1.188 0 .094.062.125.171.125.14 0 .14-.016.219-.297.172-.703.406-1.406.813-1.406.312 0 .312.343.312.484 0 .234-.047.5-.094.656l-.875 3.5c-.047.157-.047.172-.047.22 0 .14.094.296.313.296.266 0 .39-.219.437-.422zm0 0"/></symbol><symbol overflow="visible" id="K"><path style="stroke:none" d="M4.469-2.031c-.078.36-.094.64-.094.734 0 .172-.375 1.172-1.016 1.172-.687 0-.828-.625-.828-1.031 0-.532.203-1.235.594-2.328.188-.5.234-.61.234-.86 0-.468-.28-.922-.875-.922-1.078 0-1.5 1.75-1.5 1.829 0 .109.11.109.172.109.14 0 .157-.047.203-.203.094-.36.407-1.5 1.11-1.5.14 0 .265.062.265.343 0 .297-.109.61-.375 1.313-.39 1.063-.515 1.625-.515 2.063 0 1.171.875 1.437 1.484 1.437.313 0 .719-.078 1.156-.797.266.719.985.797 1.313.797.906 0 1.375-.813 1.703-1.672.172-.484.672-2.25.672-2.953 0-.61-.235-.766-.453-.766-.219 0-.516.22-.516.5 0 .11.016.157.125.282.281.328.313.765.313.953 0 .469-.391 1.75-.563 2.187-.25.657-.64 1.219-1.25 1.219s-.766-.516-.766-1c0-.328.079-.656.235-1.281.078-.36.297-1.235.39-1.578.079-.297.204-.829.204-.875a.287.287 0 0 0-.297-.297c-.328 0-.422.297-.469.468zm0 0"/></symbol><symbol overflow="visible" id="L"><path style="stroke:none" d="M3.563-8.016c.015-.093.03-.125.03-.156 0-.11-.077-.125-.265-.11l-1.203.11c-.172.016-.266.016-.266.235 0 .125.094.125.25.125.61 0 .61.109.61.218 0 .063-.031.14-.047.203L1.469-2.547c-.11.438-.11.735-.11.875 0 1.14.579 1.797 1.313 1.797 1.344 0 2.687-1.875 2.687-3.578C5.36-4.5 4.813-5.266 4-5.266c-.61 0-1.094.47-1.281.657zM2.687-.125c-.53 0-.703-.64-.703-1.14 0-.47.125-.954.391-2.016.047-.125.063-.25.094-.36.125-.468.86-1.39 1.484-1.39.438 0 .656.437.656 1.078 0 .672-.406 2.156-.64 2.656-.422.844-.906 1.172-1.281 1.172Zm0 0"/></symbol><symbol overflow="visible" id="M"><path style="stroke:none" d="M5.984-4.625c.047-.172.047-.188.047-.234a.287.287 0 0 0-.297-.297c-.328 0-.421.297-.468.468l-.86 3.532c-.11.375-.578 1.031-1.25 1.031-.531 0-.64-.531-.64-.922 0-.719.406-1.86.687-2.625.094-.265.156-.422.156-.672 0-.468-.28-.922-.875-.922-1.078 0-1.5 1.75-1.5 1.829 0 .109.11.109.172.109.14 0 .157-.047.203-.203.094-.36.407-1.5 1.11-1.5.14 0 .265.062.265.343 0 .297-.109.61-.375 1.313-.375 1.063-.53 1.672-.53 2.125 0 1.078.702 1.375 1.296 1.375.516 0 .875-.266 1.063-.453C4.063.188 3.921.797 3.5 1.406c-.375.547-.813.797-1.234.797-.313 0-.657-.156-.735-.594.578-.03.578-.515.578-.546A.34.34 0 0 0 1.75.719c-.094 0-.563.015-.563.719 0 .609.47 1 1.079 1 1.234 0 2.28-1.266 2.562-2.407zm0 0"/></symbol><symbol overflow="visible" id="N"><path style="stroke:none" d="M2.516-.688c0-.359-.266-.468-.47-.468-.343 0-.702.312-.702.687 0 .266.187.469.468.469.329 0 .704-.297.704-.688Zm0 0"/></symbol><symbol overflow="visible" id="O"><path style="stroke:none" d="M3.031-5.266c-1.172-.25-1.219-1.125-1.219-1.28 0-.61.407-1.313 1.563-1.313s2.188.562 2.453 2.125c.031.25.031.265.25.265.25 0 .25-.047.25-.312v-2.25c0-.235 0-.313-.172-.313-.078 0-.125.016-.234.125l-.5.594c-.313-.25-.906-.719-2.063-.719-1.703 0-2.625 1.078-2.625 2.375 0 .813.438 1.36.61 1.532.61.625.953.703 2.187.968 1.203.266 1.344.297 1.61.547.156.156.5.485.5 1.094 0 .516-.25 1.453-1.594 1.453C3-.375 1.344-.735 1.25-2.469c-.016-.219-.016-.25-.266-.25s-.25.031-.25.297v2.25c0 .234 0 .313.188.313.078 0 .094-.016.219-.11.125-.14.234-.297.53-.594.688.547 1.673.704 2.391.704 1.86 0 2.657-1.266 2.657-2.532 0-1.125-.75-2.203-2.047-2.5zm0 0"/></symbol><symbol overflow="visible" id="P"><path style="stroke:none" d="M6.328-2.625c0-1.61-1.094-2.797-2.969-2.797-1.953 0-2.984 1.25-2.984 2.797C.375-1.047 1.469.078 3.344.078c1.953 0 2.984-1.187 2.984-2.703zM3.36-.359c-1.546 0-1.546-1.391-1.546-2.375 0-.563 0-1.157.218-1.594.266-.484.797-.688 1.313-.688.687 0 1.11.313 1.312.657.25.421.25 1.046.25 1.625 0 .984 0 2.375-1.547 2.375zm0 0"/></symbol><symbol overflow="visible" id="Q"><path style="stroke:none" d="M10.094-3.656c0-1.094-.469-1.719-1.813-1.719-1.203 0-1.765.813-1.953 1.188-.203-1.016-1.016-1.188-1.781-1.188-1.14 0-1.766.734-2.016 1.313h-.015v-1.313L.5-5.281v.515c.75 0 .828 0 .828.47v3.78H.5V0c.281-.031 1.14-.031 1.469-.031.343 0 1.203 0 1.484.031v-.516h-.828v-2.546c0-1.297.969-1.922 1.719-1.922.453 0 .718.265.718 1.187v3.281h-.828V0C4.5-.031 5.36-.031 5.704-.031c.327 0 1.202 0 1.484.031v-.516h-.829v-2.546c0-1.297.97-1.922 1.72-1.922.437 0 .702.265.702 1.187v3.281h-.828V0c.281-.031 1.14-.031 1.484-.031.329 0 1.204 0 1.47.031v-.516h-.813zm0 0"/></symbol><symbol overflow="visible" id="R"><path style="stroke:none" d="M5.406-2.64c.266 0 .344 0 .344-.297 0-.36-.078-1.266-.64-1.813-.5-.516-1.173-.672-1.86-.672-1.86 0-2.875 1.219-2.875 2.734C.375-1.016 1.609.079 3.406.079 5.22.078 5.75-1.188 5.75-1.406c0-.172-.188-.172-.25-.172-.188 0-.203.031-.281.187-.313.782-1.094 1.032-1.672 1.032-1.735 0-1.735-1.61-1.735-2.282zm-3.593-.344c.015-.5.03-.954.28-1.391a1.32 1.32 0 0 1 1.157-.64c1.281 0 1.39 1.437 1.406 2.03zm0 0"/></symbol><symbol overflow="visible" id="S"><path style="stroke:none" d="M2.594-4.797h1.36v-.516H2.53V-6.53c0-1.25.797-1.438 1.188-1.438.125 0 .156.016.219.032a.697.697 0 0 0-.282.578c0 .468.39.687.688.687.265 0 .703-.172.703-.703 0-.484-.438-.984-1.281-.984-1.094 0-2.422.453-2.422 1.828v1.218H.469v.516h.875v4.281H.53V0c.266-.031 1.172-.031 1.5-.031.344 0 1.313 0 1.61.031v-.516H2.594Zm0 0"/></symbol><symbol overflow="visible" id="T"><path style="stroke:none" d="M2.516-4.797H4.25v-.516H2.516v-2.28h-.5c0 1.187-.579 2.374-1.766 2.405v.391h.969v3.328c0 1.266.984 1.547 1.843 1.547.876 0 1.407-.672 1.407-1.562v-.625h-.5v.609c0 .797-.36 1.14-.735 1.14-.718 0-.718-.796-.718-1.078zm0 0"/></symbol><symbol overflow="visible" id="U"><path style="stroke:none" d="M6.344-3.656c0-1.14-.485-1.719-1.797-1.719a2.148 2.148 0 0 0-1.969 1.203h-.015v-4.125L.5-8.203v.515c.75 0 .828 0 .828.47v6.702H.5V0c.281-.031 1.14-.031 1.469-.031.343 0 1.203 0 1.484.031v-.516h-.828v-2.546c0-1.282.953-1.922 1.719-1.922.453 0 .703.28.703 1.187v3.281h-.828V0c.281-.031 1.14-.031 1.468-.031.344 0 1.204 0 1.485.031v-.516h-.828Zm0 0"/></symbol><symbol overflow="visible" id="V"><path style="stroke:none" d="M1.547-2.172c.578.313 1.25.313 1.422.313 1.656 0 2.312-.922 2.312-1.766 0-.61-.343-1.031-.484-1.156.344-.188.625-.235.828-.266-.031.063-.063.11-.063.266 0 .25.157.484.47.484a.467.467 0 0 0 .484-.484.685.685 0 0 0-.72-.672c-.515 0-1 .25-1.25.469-.5-.282-.968-.391-1.577-.391-1.64 0-2.297.922-2.297 1.75 0 .375.11.86.625 1.266-.203.234-.422.656-.422 1.078 0 .515.266.953.531 1.156C1.11-.062.375.219.375.891c0 .718.766 1.515 2.969 1.515 1.984 0 2.984-.656 2.984-1.547 0-1.046-.687-1.39-.984-1.546C4.766-.97 4-.97 2.954-.97c-.298 0-.829 0-.892-.015-.515-.079-.656-.532-.656-.766 0-.094.016-.266.14-.422zm1.422-.078c-1.031 0-1.031-.828-1.031-1.375S1.938-5 2.968-5c1.048 0 1.048.828 1.048 1.375s0 1.375-1.047 1.375zM3.64.125c.875 0 1.718.156 1.718.781 0 .422-.421 1.11-2 1.11-1.578 0-2.015-.672-2.015-1.125 0-.766.765-.766.937-.766Zm0 0"/></symbol><symbol overflow="visible" id="W"><path style="stroke:none" d="M2.484-2.688c0-.39.079-2.296 1.485-2.296-.172.125-.25.328-.25.546 0 .5.39.704.687.704.297 0 .703-.204.703-.704 0-.609-.625-.937-1.203-.937-.937 0-1.344.828-1.515 1.328h-.016v-1.328l-1.953.094v.515c.734 0 .828 0 .828.47v3.78H.422V0c.266-.031 1.172-.031 1.5-.031.344 0 1.312 0 1.61.031v-.516H2.483Zm0 0"/></symbol><symbol overflow="visible" id="X"><path style="stroke:none" d="M5.5-3.578c0-1.094-.875-1.844-2.563-1.844-.671 0-2.078.063-2.078 1.078 0 .5.391.703.704.703.359 0 .703-.25.703-.703 0-.218-.079-.437-.282-.562.391-.11.688-.11.907-.11.812 0 1.312.454 1.312 1.438v.469c-1.89 0-3.797.53-3.797 1.859C.406-.172 1.796.078 2.625.078c.906 0 1.5-.515 1.734-1.031 0 .437 0 .953 1.204.953h.625c.25 0 .343 0 .343-.266 0-.25-.11-.25-.281-.25C5.5-.53 5.5-.719 5.5-.984ZM4.203-1.656c0 1.125-1.016 1.328-1.39 1.328-.594 0-1.079-.39-1.079-.938 0-1.093 1.297-1.453 2.47-1.515zm0 0"/></symbol><symbol overflow="visible" id="Y"><path style="stroke:none" d="M4.5-5.11c0-.218 0-.312-.172-.312-.078 0-.094 0-.281.11a1.225 1.225 0 0 1-.234.156c-.329-.188-.782-.266-1.204-.266-.359 0-2.156 0-2.156 1.563 0 1.25 1.484 1.515 1.86 1.578.312.062.718.125.765.125.469.11.953.406.953.906 0 .922-1.093.922-1.343.922-.61 0-1.36-.188-1.704-1.344-.062-.234-.078-.25-.28-.25-.25 0-.25.031-.25.313v1.375c0 .218 0 .312.187.312.078 0 .093 0 .343-.203l.313-.219c.531.422 1.172.422 1.39.422.657 0 2.157-.156 2.157-1.734 0-.578-.313-.969-.547-1.188-.5-.406-.906-.484-1.547-.594-.766-.14-1.484-.265-1.484-.843 0-.782 1.062-.782 1.312-.782 1.328 0 1.406.844 1.422 1.141.016.156.11.156.25.156.25 0 .25-.03.25-.312zm0 0"/></symbol><symbol overflow="visible" id="ah"><path style="stroke:none" d="M2.672-7.453a.867.867 0 0 0-1.735 0c0 .453.375.86.875.86.454 0 .86-.36.86-.86zM.562-5.281v.515c.704 0 .782 0 .782.47v3.78H.53V0c.266-.031 1.094-.031 1.422-.031.328 0 1.094 0 1.375.031v-.516h-.734v-4.859Zm0 0"/></symbol><symbol overflow="visible" id="ai"><path style="stroke:none" d="M6.344-3.656c0-1.14-.485-1.719-1.797-1.719-.86 0-1.61.422-2.016 1.313h-.015v-1.313L.5-5.281v.515c.75 0 .828 0 .828.47v3.78H.5V0c.281-.031 1.14-.031 1.469-.031.343 0 1.203 0 1.484.031v-.516h-.828v-2.546c0-1.282.953-1.922 1.719-1.922.453 0 .703.28.703 1.187v3.281h-.828V0c.281-.031 1.14-.031 1.468-.031.344 0 1.204 0 1.485.031v-.516h-.828Zm0 0"/></symbol><symbol overflow="visible" id="aj"><path style="stroke:none" d="M5.594-1.406c0-.14-.125-.14-.25-.14-.188 0-.203.015-.266.155-.078.235-.406 1.032-1.5 1.032-1.687 0-1.687-1.813-1.687-2.36 0-.703.015-2.265 1.578-2.265.078 0 .781.03.781.078 0 .015 0 .031-.031.047a.733.733 0 0 0-.188.515c0 .5.407.703.703.703.25 0 .704-.156.704-.718 0-.985-1.375-1.063-2.016-1.063-2.125 0-2.969 1.39-2.969 2.766 0 1.625 1.14 2.734 2.89 2.734 1.876 0 2.25-1.39 2.25-1.484zm0 0"/></symbol><symbol overflow="visible" id="ak"><path style="stroke:none" d="M8.61-4.5c.078-.203.109-.297.812-.297v-.516c-.344.032-.5.032-.938.032-.484 0-.64 0-1.078-.032v.516c.11 0 .703 0 .703.156 0 .016 0 .032-.046.141L6.796-1.39 5.422-4.798h.687v-.516c-.28.032-1 .032-1.312.032-.61 0-.64 0-1.234-.032v.516h.703c.03.094.093.25.14.36.047.078.157.359.157.421 0 .016-.032.11-.047.141l-.907 2.266-1.296-3.188H3v-.516c-.281.032-1.094.032-1.406.032-.39 0-.953 0-1.313-.032v.516h.703L2.813-.234c.078.203.124.296.39.296.125 0 .281 0 .375-.234l1.266-3.172 1.265 3.14c.11.266.235.266.375.266.266 0 .313-.078.391-.296Zm0 0"/></symbol><symbol overflow="visible" id="al"><path style="stroke:none" d="M4.14-8.203v.515c.75 0 .829 0 .829.47v2.405a2.45 2.45 0 0 0-1.61-.562C1.656-5.375.453-4.328.453-2.656.453-.937 1.641.078 3.234.078a2.51 2.51 0 0 0 1.672-.625v.625L7.046 0v-.516c-.75 0-.827 0-.827-.468v-7.313zm.766 7c-.5.719-1.11.875-1.531.875-1.484 0-1.484-1.516-1.484-2.297 0-.563 0-1.172.265-1.625.36-.656 1.078-.734 1.344-.734.5 0 1.016.218 1.406.734zm0 0"/></symbol><symbol overflow="visible" id="am"><path style="stroke:none" d="m2.484-8.297-2.062.094v.515c.734 0 .828 0 .828.47V0h.5c.203-.234.406-.453.594-.688.61.625 1.265.766 1.75.766C5.734.078 7-.938 7-2.672c0-1.625-1.125-2.703-2.75-2.703-.719 0-1.281.219-1.766.61zm.063 4.094a1.932 1.932 0 0 1 1.547-.781c1.468 0 1.468 1.515 1.468 2.312 0 .531 0 1.219-.28 1.656-.376.579-.938.688-1.313.688-.813 0-1.25-.563-1.422-.828zm0 0"/></symbol><symbol overflow="visible" id="an"><path style="stroke:none" d="M5.922-4.531c.062-.172.11-.266.875-.266v-.516c-.406.032-.453.032-.938.032-.328 0-.343 0-1.03-.032v.516c.015 0 .577 0 .577.156 0 .032-.047.11-.047.141L3.953-1.484 2.422-4.797h.656v-.516c-.281.032-1.094.032-1.422.032-.36 0-1.062 0-1.375-.032v.516h.766L3.266 0c-.063.14-.235.484-.297.64C2.719 1.173 2.344 2 1.5 2c-.047 0-.188 0-.313-.078.016-.016.375-.156.375-.61 0-.39-.28-.64-.64-.64-.375 0-.656.25-.656.656 0 .563.515 1.063 1.234 1.063.984 0 1.625-.891 1.875-1.407zm0 0"/></symbol><symbol overflow="visible" id="ao"><path style="stroke:none" d="M2.719-.86c0-.484-.39-.859-.86-.859A.867.867 0 0 0 1-.859c0 .484.406.859.86.859.468 0 .859-.375.859-.86Zm0 0"/></symbol><symbol overflow="visible" id="Z"><path style="stroke:none" d="M7.547-7.89c.016-.063.047-.126.047-.188 0-.235-.219-.219-.39-.203l-1.47.062c-.125.016-.375.016-.375.36 0 .218.22.218.329.218.14 0 .359.016.5.032l-.625 2.593a1.592 1.592 0 0 0-1.094-.39c-2 0-3.203 1.984-3.203 3.593 0 1.422 1 1.907 1.906 1.907.734 0 1.297-.375 1.578-.61.234.422.766.61 1.234.61.563 0 .86-.406 1.016-.64.313-.5.469-1.173.469-1.22 0-.171-.157-.171-.328-.171-.297 0-.297.015-.391.312-.094.39-.313 1.297-.719 1.297-.14 0-.218-.11-.218-.375 0-.235.015-.328.062-.516zm-2.89 6.484c-.032.078-.032.11-.048.218-.515.672-1.015.86-1.375.86-.28 0-.687-.172-.687-.86 0-.64.422-2.109.547-2.453.406-1.156 1.062-1.328 1.375-1.328.422 0 .75.266.89.735zm0 0"/></symbol><symbol overflow="visible" id="aa"><path style="stroke:none" d="M4.453-7.719a.57.57 0 0 0-.594-.578c-.437 0-.843.406-.843.828 0 .328.234.578.578.578.453 0 .86-.406.86-.828zM1.687-1.437c-.078.187-.109.296-.109.468 0 .672.61 1.063 1.25 1.063 1.25 0 1.828-1.61 1.828-1.86 0-.171-.156-.171-.328-.171-.234 0-.281 0-.328.156-.11.312-.422 1.453-1.11 1.453-.062 0-.171 0-.171-.219 0-.156.094-.453.11-.484L3.89-3.875c.078-.188.109-.281.109-.469 0-.672-.61-1.062-1.25-1.062-1.25 0-1.828 1.61-1.828 1.875 0 .156.156.156.328.156.234 0 .297 0 .344-.156.093-.313.422-1.438 1.093-1.438.063 0 .172 0 .172.219 0 .14-.093.453-.093.469zm0 0"/></symbol><symbol overflow="visible" id="ab"><path style="stroke:none" d="M5-4.688c-.453.204-.453.641-.453.672 0 .297.219.485.516.485.296 0 .75-.235.75-.813 0-.672-.672-1.062-1.61-1.062-.937 0-1.36.328-1.578.5-.39.343-.625.968-.625 1.343 0 1.016 1.031 1.22 1.39 1.297.626.11 1.266.235 1.266.782 0 .015 0 1.156-1.672 1.156-.156 0-.718 0-1.109-.328.078-.031.594-.266.594-.813 0-.453-.39-.547-.594-.547-.438 0-.86.344-.86.922 0 .766.782 1.188 1.938 1.188.328 0 1.094-.016 1.75-.469.61-.438.86-1.188.86-1.578 0-.266-.094-.672-.532-1.016-.343-.281-.64-.344-1.281-.469-.36-.062-.844-.156-.844-.609 0 0 0-.922 1.266-.922.125 0 .547 0 .828.282zm0 0"/></symbol><symbol overflow="visible" id="ac"><path style="stroke:none" d="M5.484-4.719a.89.89 0 0 0-.609.797c0 .188.094.547.594.547s.86-.422.86-.922c0-.594-.516-1.11-1.516-1.11-2.266 0-3.532 1.938-3.532 3.5 0 .97.563 2 2.313 2 .312 0 1.062-.015 1.703-.265.64-.25 1.11-.719 1.11-.86 0-.093-.235-.374-.36-.374-.031 0-.078 0-.172.078-.875 1-2.078 1-2.266 1-.656 0-1.03-.375-1.03-1.063 0-.468.343-1.921.655-2.546.47-.86 1.22-1.032 1.579-1.032.125 0 .453.016.671.25zm0 0"/></symbol><symbol overflow="visible" id="ad"><path style="stroke:none" d="M7.11-3.39c0-1.235-.844-2.016-2.266-2.016-2.375 0-3.563 2-3.563 3.5 0 1.218.844 2 2.266 2 2.36 0 3.562-1.985 3.562-3.485zM3.577-.329c-.422 0-1-.203-1-1.063 0-.468.313-1.796.61-2.437.343-.75 1.015-1.14 1.624-1.14.422 0 1 .202 1 1.046 0 .469-.312 1.813-.609 2.438-.344.75-1.016 1.156-1.625 1.156zm0 0"/></symbol><symbol overflow="visible" id="ae"><path style="stroke:none" d="M6.64-4.36c0-.89-.546-1.062-.765-1.062-.422 0-.86.438-.86.875 0 .281.157.406.282.5.234.156.469.406.469.766 0 .047-.5 2.953-1.844 2.953-.672 0-.766-.531-.766-.906 0-.672.375-1.688.688-2.47C3.954-4 4-4.14 4-4.343c0-.672-.61-1.062-1.25-1.062-1.25 0-1.828 1.61-1.828 1.875 0 .156.156.156.328.156.234 0 .297 0 .344-.156.093-.313.422-1.438 1.093-1.438.063 0 .172 0 .172.219 0 .25-.14.61-.218.781-.454 1.203-.704 1.906-.704 2.516C1.938-.11 3.095.094 3.845.094 5.969.094 6.64-3.734 6.64-4.36zm0 0"/></symbol><symbol overflow="visible" id="af"><path style="stroke:none" d="M3.281-2.61c.719 0 3.078 0 3.078-1.64 0-.719-.671-1.156-1.546-1.156-2.079 0-3.5 1.562-3.5 3.406 0 1.297.796 2.094 2.296 2.094.375 0 1.079-.032 1.688-.266.64-.25 1.11-.719 1.11-.86 0-.093-.235-.374-.36-.374-.031 0-.078 0-.172.078-.875 1-2.078 1-2.25 1-.672 0-1.016-.406-1.016-1.11 0-.296.079-.765.188-1.171zm-.375-.421c.172-.61.281-.969.625-1.344a1.752 1.752 0 0 1 1.281-.594c.5 0 .766.313.766.703 0 1.235-1.937 1.235-2.672 1.235zm0 0"/></symbol><symbol overflow="visible" id="ag"><path style="stroke:none" d="M3.719-3.797c.078-.281.61-1.172 1.437-1.172.14 0 .422.016.672.203-.562.25-.562.75-.562.797 0 .297.218.547.593.547.454 0 .86-.375.86-.922 0-.625-.64-1.062-1.516-1.062-.453 0-1.016.14-1.531.656-.203-.375-.688-.656-1.266-.656-.562 0-.86.406-1.015.656a4.019 4.019 0 0 0-.47 1.219c0 .156.157.156.329.156.297 0 .297 0 .39-.313.094-.39.313-1.28.72-1.28.14 0 .218.093.218.359 0 .234-.015.328-.062.515l-.86 3.407c-.047.187-.047.203-.047.265 0 .375.297.516.547.516.078 0 .594-.016.75-.64zm0 0"/></symbol></defs><g style="fill:#000;fill-opacity:1" transform="matrix(.35278 0 0 .35278 -31.601 -100.889)"><use y="294.406" x="88.937" xlink:href="#a" width="100%" height="100%"/><use y="294.406" x="95.441" xlink:href="#b" width="100%" height="100%"/><use y="294.406" x="101.294" xlink:href="#c" width="100%" height="100%"/><use y="294.406" x="111.049" xlink:href="#d" width="100%" height="100%"/></g><g style="fill:#000;fill-opacity:1" transform="matrix(.35278 0 0 .35278 -31.601 -100.889)"><use y="294.406" x="120.15" xlink:href="#b" width="100%" height="100%"/><use y="294.406" x="126.003" xlink:href="#e" width="100%" height="100%"/></g><g style="fill:#000;fill-opacity:1" transform="matrix(.35278 0 0 .35278 -31.601 -100.889)"><use y="294.406" x="133.489" xlink:href="#f" width="100%" height="100%"/><use y="294.406" x="138.042" xlink:href="#g" width="100%" height="100%"/><use y="294.406" x="144.545" xlink:href="#d" width="100%" height="100%"/></g><g style="fill:#000;fill-opacity:1" transform="matrix(.35278 0 0 .35278 -31.601 -100.889)"><use y="294.406" x="153.646" xlink:href="#h" width="100%" height="100%"/><use y="294.406" x="159.499" xlink:href="#i" width="100%" height="100%"/><use y="294.406" x="164.052" xlink:href="#d" width="100%" height="100%"/><use y="294.406" x="169.254" xlink:href="#j" width="100%" height="100%"/><use y="294.406" x="175.108" xlink:href="#f" width="100%" height="100%"/><use y="294.406" x="179.66" xlink:href="#d" width="100%" height="100%"/><use y="294.406" x="184.863" xlink:href="#k" width="100%" height="100%"/><use y="294.406" x="189.48" xlink:href="#f" width="100%" height="100%"/></g><g style="fill:#000;fill-opacity:1" transform="matrix(.35278 0 0 .35278 -31.601 -100.889)"><use y="294.406" x="197.932" xlink:href="#l" width="100%" height="100%"/><use y="294.406" x="203.91" xlink:href="#m" width="100%" height="100%"/><use y="294.406" x="207.496" xlink:href="#n" width="100%" height="100%"/><use y="294.406" x="212.278" xlink:href="#o" width="100%" height="100%"/></g><g style="fill:#000;fill-opacity:1" transform="matrix(.35278 0 0 .35278 -31.601 -100.889)"><use y="294.406" x="217.06" xlink:href="#p" width="100%" height="100%"/><use y="294.406" x="223.038" xlink:href="#q" width="100%" height="100%"/><use y="294.406" x="228.418" xlink:href="#r" width="100%" height="100%"/><use y="294.406" x="233.798" xlink:href="#s" width="100%" height="100%"/><use y="294.406" x="238.729" xlink:href="#m" width="100%" height="100%"/><use y="294.406" x="242.316" xlink:href="#r" width="100%" height="100%"/><use y="294.406" x="247.696" xlink:href="#n" width="100%" height="100%"/></g><g style="fill:#000;fill-opacity:1" transform="matrix(.35278 0 0 .35278 -31.601 -100.889)"><use y="294.406" x="257.368" xlink:href="#t" width="100%" height="100%"/><use y="294.406" x="260.62" xlink:href="#u" width="100%" height="100%"/></g><g style="fill:#000;fill-opacity:1" transform="matrix(.35278 0 0 .35278 -31.601 -100.889)"><use y="294.406" x="271.021" xlink:href="#k" width="100%" height="100%"/><use y="294.406" x="275.638" xlink:href="#v" width="100%" height="100%"/><use y="294.406" x="280.841" xlink:href="#t" width="100%" height="100%"/><use y="294.406" x="284.093" xlink:href="#d" width="100%" height="100%"/><use y="294.406" x="289.296" xlink:href="#u" width="100%" height="100%"/><use y="294.406" x="295.799" xlink:href="#v" width="100%" height="100%"/><use y="294.406" x="301.002" xlink:href="#d" width="100%" height="100%"/></g><use y="294.406" x="310.114" xlink:href="#w" width="100%" height="100%" style="fill:#000;fill-opacity:1" transform="matrix(.35278 0 0 .35278 -31.601 -100.889)"/><g style="fill:#000;fill-opacity:1" transform="matrix(.35278 0 0 .35278 -31.601 -100.889)"><use y="294.406" x="318.234" xlink:href="#d" width="100%" height="100%"/><use y="294.406" x="323.437" xlink:href="#i" width="100%" height="100%"/><use y="294.406" x="327.99" xlink:href="#d" width="100%" height="100%"/></g><g style="fill:#000;fill-opacity:1" transform="matrix(.35278 0 0 .35278 -31.601 -100.889)"><use y="294.406" x="337.102" xlink:href="#c" width="100%" height="100%"/><use y="294.406" x="346.857" xlink:href="#j" width="100%" height="100%"/><use y="294.406" x="352.711" xlink:href="#x" width="100%" height="100%"/><use y="294.406" x="359.214" xlink:href="#d" width="100%" height="100%"/></g><use y="294.406" x="368.315" xlink:href="#y" width="100%" height="100%" style="fill:#000;fill-opacity:1" transform="matrix(.35278 0 0 .35278 -31.601 -100.889)"/><use y="294.406" x="374.495" xlink:href="#z" width="100%" height="100%" style="fill:#000;fill-opacity:1" transform="matrix(.35278 0 0 .35278 -31.601 -100.889)"/><g style="fill:#000;fill-opacity:1" transform="matrix(.35278 0 0 .35278 -31.601 -100.889)"><use y="294.406" x="384.571" xlink:href="#j" width="100%" height="100%"/><use y="294.406" x="390.425" xlink:href="#v" width="100%" height="100%"/><use y="294.406" x="395.627" xlink:href="#v" width="100%" height="100%"/><use y="294.406" x="400.83" xlink:href="#t" width="100%" height="100%"/><use y="294.406" x="404.082" xlink:href="#x" width="100%" height="100%"/><use y="294.406" x="410.586" xlink:href="#d" width="100%" height="100%"/><use y="294.406" x="415.789" xlink:href="#u" width="100%" height="100%"/></g><g style="fill:#000;fill-opacity:1" transform="matrix(.35278 0 0 .35278 -31.601 -100.889)"><use y="294.406" x="421.97" xlink:href="#f" width="100%" height="100%"/><use y="294.406" x="426.522" xlink:href="#A" width="100%" height="100%"/></g><g style="fill:#000;fill-opacity:1" transform="matrix(.35278 0 0 .35278 -31.601 -100.889)"><use y="308.851" x="88.937" xlink:href="#B" width="100%" height="100%"/><use y="308.851" x="95.512" xlink:href="#p" width="100%" height="100%"/><use y="308.851" x="101.49" xlink:href="#C" width="100%" height="100%"/><use y="308.851" x="111.054" xlink:href="#r" width="100%" height="100%"/></g><g style="fill:#000;fill-opacity:1" transform="matrix(.35278 0 0 .35278 -31.601 -100.889)"><use y="308.851" x="120.618" xlink:href="#p" width="100%" height="100%"/><use y="308.851" x="126.596" xlink:href="#D" width="100%" height="100%"/></g><g style="fill:#000;fill-opacity:1" transform="matrix(.35278 0 0 .35278 -31.601 -100.889)"><use y="308.851" x="134.367" xlink:href="#E" width="100%" height="100%"/><use y="308.851" x="138.252" xlink:href="#F" width="100%" height="100%"/><use y="308.851" x="144.23" xlink:href="#r" width="100%" height="100%"/></g><g style="fill:#000;fill-opacity:1" transform="matrix(.35278 0 0 .35278 -31.601 -100.889)"><use y="308.851" x="153.794" xlink:href="#G" width="100%" height="100%"/><use y="308.851" x="159.174" xlink:href="#s" width="100%" height="100%"/></g><use y="308.851" x="163.508" xlink:href="#r" width="100%" height="100%" style="fill:#000;fill-opacity:1" transform="matrix(.35278 0 0 .35278 -31.601 -100.889)"/><g style="fill:#000;fill-opacity:1" transform="matrix(.35278 0 0 .35278 -31.601 -100.889)"><use y="308.851" x="168.29" xlink:href="#H" width="100%" height="100%"/><use y="308.851" x="174.267" xlink:href="#E" width="100%" height="100%"/><use y="308.851" x="178.153" xlink:href="#r" width="100%" height="100%"/><use y="308.851" x="183.533" xlink:href="#n" width="100%" height="100%"/><use y="308.851" x="188.315" xlink:href="#E" width="100%" height="100%"/></g><g style="fill:#000;fill-opacity:1" transform="matrix(.35278 0 0 .35278 -31.601 -100.889)"><use y="308.851" x="197.522" xlink:href="#x" width="100%" height="100%"/><use y="308.851" x="204.026" xlink:href="#t" width="100%" height="100%"/><use y="308.851" x="207.277" xlink:href="#k" width="100%" height="100%"/><use y="308.851" x="211.895" xlink:href="#v" width="100%" height="100%"/><use y="308.851" x="217.097" xlink:href="#b" width="100%" height="100%"/></g><use y="308.851" x="222.628" xlink:href="#I" width="100%" height="100%" style="fill:#000;fill-opacity:1" transform="matrix(.35278 0 0 .35278 -31.601 -100.889)"/><use y="308.851" x="228.484" xlink:href="#d" width="100%" height="100%" style="fill:#000;fill-opacity:1" transform="matrix(.35278 0 0 .35278 -31.601 -100.889)"/><g style="fill:#000;fill-opacity:1" transform="matrix(.35278 0 0 .35278 -31.601 -100.889)"><use y="308.851" x="233.675" xlink:href="#i" width="100%" height="100%"/><use y="308.851" x="238.227" xlink:href="#t" width="100%" height="100%"/><use y="308.851" x="241.479" xlink:href="#d" width="100%" height="100%"/><use y="308.851" x="246.682" xlink:href="#k" width="100%" height="100%"/></g><g style="fill:#000;fill-opacity:1" transform="matrix(.35278 0 0 .35278 -31.601 -100.889)"><use y="308.851" x="255.489" xlink:href="#m" width="100%" height="100%"/><use y="308.851" x="259.076" xlink:href="#J" width="100%" height="100%"/></g><g style="fill:#000;fill-opacity:1" transform="matrix(.35278 0 0 .35278 -31.601 -100.889)"><use y="308.851" x="269.835" xlink:href="#n" width="100%" height="100%"/><use y="308.851" x="274.617" xlink:href="#o" width="100%" height="100%"/><use y="308.851" x="279.997" xlink:href="#m" width="100%" height="100%"/><use y="308.851" x="283.584" xlink:href="#r" width="100%" height="100%"/><use y="308.851" x="288.964" xlink:href="#J" width="100%" height="100%"/><use y="308.851" x="295.539" xlink:href="#o" width="100%" height="100%"/></g><use y="308.851" x="300.321" xlink:href="#r" width="100%" height="100%" style="fill:#000;fill-opacity:1" transform="matrix(.35278 0 0 .35278 -31.601 -100.889)"/><g style="fill:#000;fill-opacity:1" transform="matrix(.35278 0 0 .35278 -31.601 -100.889)"><use y="308.851" x="309.885" xlink:href="#K" width="100%" height="100%"/><use y="308.851" x="317.656" xlink:href="#r" width="100%" height="100%"/><use y="308.851" x="323.036" xlink:href="#s" width="100%" height="100%"/></g><use y="308.851" x="327.37" xlink:href="#r" width="100%" height="100%" style="fill:#000;fill-opacity:1" transform="matrix(.35278 0 0 .35278 -31.601 -100.889)"/><g style="fill:#000;fill-opacity:1" transform="matrix(.35278 0 0 .35278 -31.601 -100.889)"><use y="308.851" x="336.934" xlink:href="#C" width="100%" height="100%"/><use y="308.851" x="346.498" xlink:href="#H" width="100%" height="100%"/><use y="308.851" x="352.476" xlink:href="#l" width="100%" height="100%"/><use y="308.851" x="358.453" xlink:href="#r" width="100%" height="100%"/></g><g style="fill:#000;fill-opacity:1" transform="matrix(.35278 0 0 .35278 -31.601 -100.889)"><use y="308.851" x="368.017" xlink:href="#L" width="100%" height="100%"/><use y="308.851" x="373.397" xlink:href="#M" width="100%" height="100%"/></g><g style="fill:#000;fill-opacity:1" transform="matrix(.35278 0 0 .35278 -31.601 -100.889)"><use y="308.851" x="383.26" xlink:href="#H" width="100%" height="100%"/><use y="308.851" x="389.238" xlink:href="#o" width="100%" height="100%"/></g><g style="fill:#000;fill-opacity:1" transform="matrix(.35278 0 0 .35278 -31.601 -100.889)"><use y="308.851" x="394.02" xlink:href="#o" width="100%" height="100%"/><use y="308.851" x="399.4" xlink:href="#m" width="100%" height="100%"/><use y="308.851" x="402.986" xlink:href="#l" width="100%" height="100%"/><use y="308.851" x="408.964" xlink:href="#r" width="100%" height="100%"/><use y="308.851" x="414.344" xlink:href="#J" width="100%" height="100%"/><use y="308.851" x="420.919" xlink:href="#E" width="100%" height="100%"/><use y="308.851" x="424.805" xlink:href="#N" width="100%" height="100%"/></g><g style="fill:#000;fill-opacity:1" transform="matrix(.35278 0 0 .35278 -31.601 -100.889)"><use y="323.297" x="88.937" xlink:href="#O" width="100%" height="100%"/><use y="323.297" x="96.409" xlink:href="#P" width="100%" height="100%"/><use y="323.297" x="103.134" xlink:href="#Q" width="100%" height="100%"/><use y="323.297" x="114.342" xlink:href="#R" width="100%" height="100%"/></g><g style="fill:#000;fill-opacity:1" transform="matrix(.35278 0 0 .35278 -31.601 -100.889)"><use y="323.297" x="124.28" xlink:href="#P" width="100%" height="100%"/><use y="323.297" x="131.005" xlink:href="#S" width="100%" height="100%"/></g><g style="fill:#000;fill-opacity:1" transform="matrix(.35278 0 0 .35278 -31.601 -100.889)"><use y="323.297" x="138.916" xlink:href="#T" width="100%" height="100%"/><use y="323.297" x="144.146" xlink:href="#U" width="100%" height="100%"/><use y="323.297" x="151.618" xlink:href="#R" width="100%" height="100%"/></g><g style="fill:#000;fill-opacity:1" transform="matrix(.35278 0 0 .35278 -31.601 -100.889)"><use y="323.297" x="161.556" xlink:href="#V" width="100%" height="100%"/><use y="323.297" x="168.281" xlink:href="#W" width="100%" height="100%"/><use y="323.297" x="173.775" xlink:href="#R" width="100%" height="100%"/><use y="323.297" x="179.911" xlink:href="#X" width="100%" height="100%"/><use y="323.297" x="186.45" xlink:href="#T" width="100%" height="100%"/><use y="323.297" x="191.68" xlink:href="#R" width="100%" height="100%"/><use y="323.297" x="197.817" xlink:href="#Y" width="100%" height="100%"/><use y="323.297" x="203.121" xlink:href="#T" width="100%" height="100%"/></g><g style="fill:#000;fill-opacity:1" transform="matrix(.35278 0 0 .35278 -31.601 -100.889)"><use y="323.297" x="212.156" xlink:href="#Z" width="100%" height="100%"/><use y="323.297" x="219.223" xlink:href="#aa" width="100%" height="100%"/><use y="323.297" x="223.474" xlink:href="#ab" width="100%" height="100%"/><use y="323.297" x="229.295" xlink:href="#ac" width="100%" height="100%"/></g><g style="fill:#000;fill-opacity:1" transform="matrix(.35278 0 0 .35278 -31.601 -100.889)"><use y="323.297" x="234.952" xlink:href="#ad" width="100%" height="100%"/><use y="323.297" x="242.019" xlink:href="#ae" width="100%" height="100%"/><use y="323.297" x="248.381" xlink:href="#af" width="100%" height="100%"/><use y="323.297" x="254.744" xlink:href="#ag" width="100%" height="100%"/><use y="323.297" x="260.742" xlink:href="#aa" width="100%" height="100%"/><use y="323.297" x="264.993" xlink:href="#af" width="100%" height="100%"/><use y="323.297" x="271.356" xlink:href="#ab" width="100%" height="100%"/></g><g style="fill:#000;fill-opacity:1" transform="matrix(.35278 0 0 .35278 -31.601 -100.889)"><use y="323.297" x="281.957" xlink:href="#ah" width="100%" height="100%"/><use y="323.297" x="285.693" xlink:href="#ai" width="100%" height="100%"/></g><g style="fill:#000;fill-opacity:1" transform="matrix(.35278 0 0 .35278 -31.601 -100.889)"><use y="323.297" x="296.967" xlink:href="#Y" width="100%" height="100%"/><use y="323.297" x="302.271" xlink:href="#aj" width="100%" height="100%"/><use y="323.297" x="308.249" xlink:href="#ah" width="100%" height="100%"/><use y="323.297" x="311.985" xlink:href="#R" width="100%" height="100%"/><use y="323.297" x="318.121" xlink:href="#ai" width="100%" height="100%"/><use y="323.297" x="325.593" xlink:href="#aj" width="100%" height="100%"/><use y="323.297" x="331.571" xlink:href="#R" width="100%" height="100%"/></g><use y="323.297" x="341.509" xlink:href="#ak" width="100%" height="100%" style="fill:#000;fill-opacity:1" transform="matrix(.35278 0 0 .35278 -31.601 -100.889)"/><g style="fill:#000;fill-opacity:1" transform="matrix(.35278 0 0 .35278 -31.601 -100.889)"><use y="323.297" x="350.852" xlink:href="#R" width="100%" height="100%"/><use y="323.297" x="356.989" xlink:href="#W" width="100%" height="100%"/><use y="323.297" x="362.482" xlink:href="#R" width="100%" height="100%"/></g><g style="fill:#000;fill-opacity:1" transform="matrix(.35278 0 0 .35278 -31.601 -100.889)"><use y="323.297" x="372.421" xlink:href="#Q" width="100%" height="100%"/><use y="323.297" x="383.629" xlink:href="#X" width="100%" height="100%"/><use y="323.297" x="390.167" xlink:href="#al" width="100%" height="100%"/><use y="323.297" x="397.639" xlink:href="#R" width="100%" height="100%"/></g><use y="323.297" x="407.577" xlink:href="#am" width="100%" height="100%" style="fill:#000;fill-opacity:1" transform="matrix(.35278 0 0 .35278 -31.601 -100.889)"/><use y="323.297" x="414.679" xlink:href="#an" width="100%" height="100%" style="fill:#000;fill-opacity:1" transform="matrix(.35278 0 0 .35278 -31.601 -100.889)"/><g style="fill:#000;fill-opacity:1" transform="matrix(.35278 0 0 .35278 -31.601 -100.889)"><use y="323.297" x="425.578" xlink:href="#X" width="100%" height="100%"/><use y="323.297" x="432.117" xlink:href="#aj" width="100%" height="100%"/><use y="323.297" x="438.094" xlink:href="#aj" width="100%" height="100%"/><use y="323.297" x="444.072" xlink:href="#ah" width="100%" height="100%"/><use y="323.297" x="447.808" xlink:href="#al" width="100%" height="100%"/><use y="323.297" x="455.28" xlink:href="#R" width="100%" height="100%"/><use y="323.297" x="461.416" xlink:href="#ai" width="100%" height="100%"/></g><g style="fill:#000;fill-opacity:1" transform="matrix(.35278 0 0 .35278 -31.601 -100.889)"><use y="323.297" x="468.518" xlink:href="#T" width="100%" height="100%"/><use y="323.297" x="473.748" xlink:href="#ao" width="100%" height="100%"/></g></svg>