<svg xmlns="http://www.w3.org/2000/svg" xmlns:xlink="http://www.w3.org/1999/xlink" viewBox="0 0 136.697 187.172" height="707.42" width="516.651"><defs><symbol overflow="visible" id="a"><path style="stroke:none" d="M4.313-13.781c-.125-.313-.141-.328-.579-.328h-2.64v.53c1.422 0 1.656 0 1.656.938v10.61c0 .515 0 1.5-1.656 1.5V0c.468-.047 1.343-.047 1.86-.047.515 0 1.39 0 1.858.047v-.531c-1.656 0-1.656-.985-1.656-1.5v-11.453h.031L8.032-.328c.094.203.125.328.297.328.156 0 .203-.125.281-.328l4.907-13.266h.015v12.125c0 .938-.234.938-1.656.938V0c.563-.047 1.672-.047 2.281-.047.594 0 1.735 0 2.282.047v-.531c-1.422 0-1.641 0-1.641-.938V-12.64c0-.937.219-.937 1.64-.937v-.531h-2.624c-.422 0-.454.015-.579.328L8.781-1.671Zm0 0"/></symbol><symbol overflow="visible" id="b"><path style="stroke:none" d="M8.063-7.063c.515-1.265 1.437-1.28 1.734-1.28v-.532c-.39.016-.922.031-1.313.031-.421 0-1.109 0-1.515-.031v.531c.781.063.797.64.797.797 0 .219-.047.313-.141.563l-2.25 5.578-2.469-6.032c-.094-.25-.094-.39-.094-.406 0-.453.47-.5.97-.5v-.531c-.5.031-1.391.031-1.907.031-.547 0-1.219 0-1.672-.031v.531c1.125 0 1.25.11 1.516.766L4.797 0C3.859 2.438 3.328 3.86 2.03 3.86c-.234 0-.75-.063-1.125-.438.485-.031.688-.328.688-.672 0-.36-.25-.656-.672-.656-.453 0-.672.297-.672.672 0 .828.844 1.421 1.781 1.421C3.22 4.188 3.97 3.032 4.375 2Zm0 0"/></symbol><symbol overflow="visible" id="c"><path style="stroke:none" d="M8.234-9.063c-.484.016-2.015.126-2.406.157-.125.031-.172.031-.422.031H3.063v-2.422c0-1.969 1.562-2.875 2.796-2.875.407 0 1.282.11 1.735.813-.203 0-.86 0-.86.718 0 .5.329.75.75.75.36 0 .735-.218.735-.765 0-1.031-.985-1.844-2.266-1.844-1.64 0-3.906.922-3.906 3.203v2.422H.39v.531h1.656v6.922c0 .781-.078.89-1.406.89V0c.5-.047 1.406-.047 1.921-.047.532 0 1.438 0 1.938.047v-.531c-1.313 0-1.406-.094-1.406-.89v-6.923H6.14c.875 0 1.046.188 1.046 1.094v5.828c0 .781-.078.89-1.406.89V0c.5-.047 1.407-.047 1.922-.047.531 0 1.453 0 1.938.047v-.531c-1.313 0-1.407-.094-1.407-.89zm0 0"/></symbol><symbol overflow="visible" id="d"><path style="stroke:none" d="M3.094-4.875c0-1.984.86-3.844 2.406-3.844.14 0 .281.016.422.078 0 0-.453.157-.453.688 0 .5.39.703.703.703.25 0 .703-.14.703-.719 0-.672-.656-1.078-1.36-1.078-1.562 0-2.25 1.531-2.452 2.25H3.03v-2.25l-2.39.235v.53c1.218 0 1.406.126 1.406 1.11v5.75c0 .781-.078.89-1.406.89V0c.5-.047 1.453-.047 1.984-.047.594 0 1.656 0 2.203.047v-.531c-1.484 0-1.734 0-1.734-.938zm0 0"/></symbol><symbol overflow="visible" id="e"><path style="stroke:none" d="M6.375-8.719c0-.375-.016-.39-.14-.39-.079 0-.094.015-.344.328-.063.078-.25.297-.313.375-.656-.703-1.594-.719-1.937-.719-2.297 0-3.125 1.188-3.125 2.39 0 1.86 2.109 2.298 2.703 2.423 1.312.265 1.765.343 2.187.718.282.25.735.703.735 1.453 0 .86-.5 1.97-2.407 1.97-1.796 0-2.437-1.36-2.812-3.173-.047-.297-.047-.312-.219-.312s-.187.015-.187.437V-.25c0 .375.015.39.14.39.11 0 .125-.015.235-.187.125-.187.437-.672.562-.875C1.86-.375 2.578.172 3.734.172c2.047 0 3.141-1.125 3.141-2.735 0-1.046-.547-1.609-.828-1.859-.61-.64-1.344-.781-2.203-.953-1.14-.25-2.578-.531-2.578-1.797 0-.531.28-1.672 2.375-1.672 2.203 0 2.328 2.063 2.375 2.735.015.093.125.125.187.125.172 0 .172-.063.172-.422zm0 0"/></symbol><symbol overflow="visible" id="f"><path style="stroke:none" d="M3.125-8.344h2.89v-.531h-2.89v-3.828H2.75C2.703-10.578 1.984-8.72.234-8.672v.328h1.797v5.797c0 .406 0 2.719 2.39 2.719 1.22 0 1.923-1.203 1.923-2.735v-1.171h-.375v1.156c0 1.422-.563 2.375-1.422 2.375-.594 0-1.422-.422-1.422-2.297Zm0 0"/></symbol><symbol overflow="visible" id="g"><path style="stroke:none" d="M11.203-5.219h-.375C10.656-3.187 10.391-.53 6.86-.53H4.938c-.829 0-.875-.11-.875-.813v-11.281c0-.734.046-.953 1.625-.953h.453v-.531c-.86.046-1.844.046-2.688.046-.64 0-1.797 0-2.406-.046v.53c1.437 0 1.656 0 1.656.938v11.172c0 .938-.219.938-1.656.938V0h9.656zm0 0"/></symbol><symbol overflow="visible" id="h"><path style="stroke:none" d="M7.438-5.344c0-1.375 0-2.093-.875-2.89a3.468 3.468 0 0 0-2.344-.891c-1.64 0-2.813 1.281-2.813 2.64 0 .766.625.798.735.798.28 0 .75-.157.75-.735 0-.516-.391-.75-.75-.75-.079 0-.172.031-.235.047.422-1.297 1.547-1.672 2.266-1.672 1.031 0 2.172.906 2.172 2.64v.907c-1.219.047-2.688.203-3.844.828C1.203-3.703.828-2.672.828-1.875.828-.297 2.688.172 3.781.172c1.14 0 2.188-.64 2.64-1.828C6.47-.75 7.048.078 7.954.078c.438 0 1.531-.281 1.531-1.922V-3H9.11v1.188c0 1.25-.562 1.421-.828 1.421-.844 0-.844-1.078-.844-1.984ZM6.343-2.875c0 1.797-1.282 2.703-2.422 2.703-1.031 0-1.828-.75-1.828-1.703 0-.625.265-1.719 1.453-2.375 1-.563 2.14-.64 2.797-.688zm0 0"/></symbol><symbol overflow="visible" id="i"><path style="stroke:none" d="M12.844-14.047H.922L.578-9.484h.375c.266-3.422.563-4.032 3.735-4.032.375 0 .968 0 1.14.032.39.062.39.312.39.78v11.188c0 .75-.062.985-1.78.985h-.579V0c1-.016 2.032-.047 3.047-.047 1 0 2.032.031 3.032.047v-.531h-.579c-1.718 0-1.78-.235-1.78-.985v-11.187c0-.453 0-.703.374-.781.172-.032.766-.032 1.14-.032 3.157 0 3.47.61 3.735 4.032h.375zm0 0"/></symbol><symbol overflow="visible" id="j"><path style="stroke:none" d="M7.875-4.86c.078-.077.078-.124.078-.327 0-2.11-1.11-3.938-3.469-3.938C2.297-9.125.563-7.047.563-4.5c0 2.688 1.953 4.672 4.14 4.672 2.313 0 3.234-2.203 3.234-2.625 0-.156-.125-.156-.171-.156-.141 0-.172.046-.25.296-.454 1.407-1.594 2.11-2.657 2.11-.89 0-1.78-.5-2.343-1.406-.641-1.063-.641-2.282-.641-3.25Zm-5.969-.312c.14-2.969 1.735-3.625 2.563-3.625 1.39 0 2.343 1.313 2.375 3.625zm0 0"/></symbol><symbol overflow="visible" id="k"><path style="stroke:none" d="m7.547-7.828 3.047-4.406c.312-.422.937-1.313 2.625-1.344v-.531c-.469.046-1.266.046-1.75.046-.688 0-1.531 0-2.047-.046v.53c.656.063.828.485.828.813 0 .25-.11.407-.25.625L7.266-8.203l-3.047-4.453c-.157-.235-.172-.297-.172-.36 0-.187.234-.53.906-.562v-.531c-.656.046-1.672.046-2.344.046-.546 0-1.578 0-2.078-.046v.53c1.14 0 1.516.048 1.969.688l3.984 5.829-3.593 5.218C2-.562.656-.53.266-.53V0C.75-.047 1.53-.047 2.03-.047c.547 0 1.516 0 2.031.047v-.531c-.64-.063-.812-.485-.812-.813 0-.265.094-.406.203-.562L6.75-6.688l3.594 5.235c.172.234.172.297.172.36 0 .171-.188.515-.907.562V0c.657-.047 1.672-.047 2.344-.047.547 0 1.578 0 2.078.047v-.531c-1.328 0-1.531-.11-1.953-.688zm0 0"/></symbol><symbol overflow="visible" id="l"><path style="stroke:none" d="M6.031-14.11v.532c1.219 0 1.407.125 1.407 1.125v4.828c-.079-.094-.938-1.422-2.61-1.422-2.094 0-4.14 1.875-4.14 4.61C.688-1.735 2.609.171 4.624.171c1.75 0 2.672-1.375 2.766-1.516V.172L9.89 0v-.531c-1.22 0-1.407-.125-1.407-1.125v-12.672zm1.36 11.626c0 .625-.375 1.187-.844 1.593-.703.625-1.406.72-1.797.72C4.156-.172 2-.47 2-4.422 2-8.47 4.406-8.72 4.938-8.72c.953 0 1.718.531 2.187 1.281.266.438.266.5.266.875zm0 0"/></symbol><symbol overflow="visible" id="m"><path style="stroke:none" d="M8.906-4.422c0-2.64-1.922-4.703-4.172-4.703S.563-7.062.563-4.422c0 2.61 1.921 4.594 4.171 4.594s4.172-1.984 4.172-4.594zM4.734-.203c-.968 0-1.796-.578-2.28-1.39-.517-.923-.579-2.079-.579-2.985 0-.875.047-1.953.578-2.875.422-.688 1.219-1.344 2.281-1.344.922 0 1.704.516 2.204 1.235.64.968.64 2.343.64 2.984 0 .797-.031 2.031-.594 3.031-.578.953-1.468 1.344-2.25 1.344zm0 0"/></symbol><symbol overflow="visible" id="n"><path style="stroke:none" d="M7.203-7.234c-.39 0-.969 0-.969.734 0 .578.485.734.75.734.141 0 .735-.062.735-.78 0-1.47-1.39-2.579-2.985-2.579-2.187 0-4.046 2.016-4.046 4.656 0 2.75 1.937 4.64 4.046 4.64 2.563 0 3.204-2.374 3.204-2.608 0-.079-.032-.141-.172-.141-.141 0-.172.015-.25.281C6.984-.625 5.796-.203 4.922-.203 3.594-.203 2-1.422 2-4.484c0-3.141 1.531-4.282 2.75-4.282.813 0 2 .407 2.453 1.532zm0 0"/></symbol><symbol overflow="visible" id="o"><path style="stroke:none" d="M6.078-8.813v.532c1.219 0 1.406.125 1.406 1.11v3.765c0 1.734-.937 3.234-2.468 3.234-1.688 0-1.829-1-1.829-2.078v-6.797l-2.5.235v.53c.829 0 1.375 0 1.407.829v3.969c0 1.375 0 2.265.531 2.843.266.266.781.813 2.266.813 1.765 0 2.437-1.5 2.609-1.922h.016V.172L9.984 0v-.531c-1.218 0-1.406-.125-1.406-1.125v-7.39zm0 0"/></symbol><symbol overflow="visible" id="p"><path style="stroke:none" d="M13.969-6.281c0-1.032-.188-2.766-2.656-2.766-1.391 0-2.376.953-2.735 2.063h-.031c-.25-1.688-1.469-2.063-2.625-2.063-1.625 0-2.469 1.266-2.781 2.078h-.016v-2.078l-2.438.235v.53c1.22 0 1.407.126 1.407 1.11v5.75c0 .781-.094.89-1.406.89V0c.484-.047 1.406-.047 1.937-.047.531 0 1.469 0 1.953.047v-.531c-1.312 0-1.39-.094-1.39-.89v-3.97c0-1.906 1.156-3.328 2.593-3.328 1.532 0 1.703 1.36 1.703 2.36v4.937c0 .781-.093.89-1.406.89V0c.484-.047 1.406-.047 1.938-.047.53 0 1.468 0 1.968.047v-.531c-1.328 0-1.406-.094-1.406-.89v-3.97c0-1.906 1.156-3.328 2.594-3.328 1.531 0 1.703 1.36 1.703 2.36v4.937c0 .781-.094.89-1.406.89V0c.484-.047 1.406-.047 1.937-.047.531 0 1.469 0 1.969.047v-.531c-1.328 0-1.406-.094-1.406-.89zm0 0"/></symbol><symbol overflow="visible" id="q"><path style="stroke:none" d="M8.578-6.281c0-1.047-.219-2.766-2.656-2.766-1.625 0-2.469 1.266-2.781 2.078h-.016v-2.078l-2.438.235v.53c1.22 0 1.407.126 1.407 1.11v5.75c0 .781-.094.89-1.406.89V0c.484-.047 1.406-.047 1.937-.047.531 0 1.469 0 1.953.047v-.531c-1.312 0-1.39-.094-1.39-.89v-3.97c0-1.906 1.156-3.328 2.593-3.328 1.532 0 1.703 1.36 1.703 2.36v4.937c0 .781-.093.89-1.406.89V0c.484-.047 1.406-.047 1.938-.047.53 0 1.468 0 1.968.047v-.531c-1.328 0-1.406-.094-1.406-.89zm0 0"/></symbol><symbol overflow="visible" id="r"><path style="stroke:none" d="M8.563-8.703c0-.531.046-.672 1.078-.672h.28v-.422c-.343.031-1.515.031-1.937.031-.421 0-1.593 0-1.953-.03v.421h.297c1.031 0 1.078.14 1.078.672v3.39H3.11v-3.39c0-.531.047-.672 1.079-.672h.28v-.422c-.343.031-1.515.031-1.937.031-.422 0-1.594 0-1.937-.03v.421h.281c1.031 0 1.078.14 1.078.672v7.61c0 .53-.047.671-1.078.671H.594V0C.938-.031 2.109-.031 2.53-.031c.422 0 1.594 0 1.938.031v-.422h-.282c-1.03 0-1.078-.14-1.078-.672V-4.89h4.297v3.797c0 .532-.047.672-1.078.672h-.297V0c.36-.031 1.532-.031 1.938-.031.437 0 1.61 0 1.953.031v-.422H9.64c-1.032 0-1.079-.14-1.079-.672Zm0 0"/></symbol><symbol overflow="visible" id="s"><path style="stroke:none" d="M4.36-6.172v.422c.968 0 1.093.094 1.093.797v2.578c0 1.219-.64 2.234-1.719 2.234-1.187 0-1.25-.671-1.25-1.437v-4.75l-2.03.156v.422c1.093 0 1.093.047 1.093 1.313v2.156c0 .89 0 1.406.437 1.875.344.375.922.547 1.657.547.25 0 .703 0 1.187-.407.422-.343.656-.875.656-.875V.141L7.47 0v-.422c-.969 0-1.078-.094-1.078-.797v-5.11zm0 0"/></symbol><symbol overflow="visible" id="t"><path style="stroke:none" d="m2.39-9.953-1.984.156v.422c.969 0 1.078.094 1.078.797V0h.329c.046-.11.453-.828.515-.938.328.532.938 1.079 1.86 1.079C5.843.14 7.28-1.25 7.28-3.094c0-1.828-1.343-3.234-2.937-3.234-.782 0-1.453.36-1.953.969zm.032 5.36c0-.25 0-.282.156-.516.344-.516.985-.922 1.688-.922.421 0 1.937.172 1.937 2.922 0 .953-.156 1.562-.5 2.078-.281.437-.86.89-1.578.89-.766 0-1.266-.5-1.516-.89-.187-.297-.187-.36-.187-.61zm0 0"/></symbol><symbol overflow="visible" id="u"><path style="stroke:none" d="M5.5-3.328c.313 0 .344 0 .344-.266 0-1.453-.782-2.797-2.516-2.797-1.64 0-2.89 1.47-2.89 3.25C.438-1.25 1.89.141 3.483.141c1.704 0 2.36-1.547 2.36-1.844 0-.094-.078-.14-.157-.14-.125 0-.156.062-.171.14C5.14-.5 4.172-.172 3.578-.172c-.61 0-2.062-.406-2.062-2.89v-.266Zm-3.969-.266c.125-2.265 1.375-2.515 1.782-2.515 1.53 0 1.624 2.015 1.64 2.515zm0 0"/></symbol><symbol overflow="visible" id="v"><path style="stroke:none" d="M2.39-3.344c0-1.39.579-2.687 1.688-2.687h.203c-.125.062-.343.156-.343.531 0 .422.328.578.546.578.297 0 .579-.187.579-.578 0-.422-.391-.828-1-.828-1.22 0-1.641 1.328-1.72 1.594h-.015v-1.594l-1.922.156v.422c.969 0 1.078.094 1.078.797v3.89c0 .641-.156.641-1.078.641V0c.39-.031 1.188-.031 1.61-.031.39 0 1.406 0 1.75.031v-.422h-.297c-1.047 0-1.078-.156-1.078-.672zm0 0"/></symbol><symbol overflow="visible" id="w"><path style="stroke:none" d="M2.406-5.766h2.031v-.421h-2.03v-2.641h-.313c-.016 1.36-.531 2.734-1.828 2.781v.281h1.218v3.985C1.484-.188 2.531.14 3.297.14c.906 0 1.375-.891 1.375-1.922v-.813h-.313v.781c0 1.032-.421 1.641-.968 1.641-.985 0-.985-1.328-.985-1.578Zm0 0"/></symbol><symbol overflow="visible" id="x"><path style="stroke:none" d="M8.188-9.766H.593v.407h.281c1.031 0 1.078.156 1.078.687v7.578c0 .532-.047.672-1.078.672H.594V0c.344-.031 1.61-.031 2.047-.031.5 0 1.765 0 2.171.031v-.422h-.421c-1.25 0-1.282-.172-1.282-.687v-3.563h1.266c1.344 0 1.484.469 1.484 1.672h.329v-3.766h-.329c0 1.204-.14 1.672-1.484 1.672H3.109V-8.78c0-.469.032-.578.657-.578h1.796c2.063 0 2.485.765 2.688 2.796h.313zm0 0"/></symbol><symbol overflow="visible" id="y"><path style="stroke:none" d="M5.531-3.828c0-.781 0-1.344-.625-1.906-.5-.47-1.14-.657-1.781-.657-1.172 0-2.078.766-2.078 1.704 0 .406.266.609.61.609.343 0 .577-.234.577-.578 0-.594-.515-.594-.734-.594.344-.61 1.031-.86 1.594-.86.672 0 1.515.548 1.515 1.829v.578C1.72-3.656.625-2.453.625-1.343.625-.22 1.953.14 2.828.14c.938 0 1.594-.579 1.86-1.266.062.688.5 1.203 1.125 1.203.296 0 1.125-.203 1.125-1.36v-.796h-.313v.797c0 .828-.344.937-.547.937-.547 0-.547-.765-.547-.969zM4.61-2.016C4.61-.609 3.563-.14 2.938-.14c-.704 0-1.282-.515-1.282-1.203 0-1.89 2.438-2.062 2.953-2.093zm0 0"/></symbol><symbol overflow="visible" id="z"><path style="stroke:none" d="M6.39-3.484c0-1.329 0-1.735-.343-2.204-.406-.546-1.078-.64-1.578-.64-1.39 0-1.938 1.187-2.047 1.484h-.016v-1.484l-1.953.156v.422c.984 0 1.094.094 1.094.797v3.89c0 .641-.156.641-1.094.641V0C.828-.031 1.61-.031 2.016-.031c.406 0 1.187 0 1.562.031v-.422c-.922 0-1.094 0-1.094-.64v-2.672c0-1.5.985-2.297 1.875-2.297.891 0 1.094.718 1.094 1.593v3.375c0 .641-.156.641-1.094.641V0c.375-.031 1.157-.031 1.547-.031.422 0 1.188 0 1.563.031v-.422c-.719 0-1.078 0-1.078-.422zm0 0"/></symbol><symbol overflow="visible" id="A"><path style="stroke:none" d="M4.703-6.063c0-.265 0-.328-.14-.328-.11 0-.391.313-.485.438-.453-.36-.89-.438-1.36-.438-1.734 0-2.25.938-2.25 1.735 0 .156 0 .656.548 1.156.468.406.953.5 1.609.625.781.156.969.203 1.328.5.266.203.453.531.453.922 0 .625-.36 1.312-1.625 1.312-.937 0-1.64-.546-1.953-1.984-.047-.25-.047-.266-.062-.281C.734-2.47.672-2.47.625-2.47c-.156 0-.156.078-.156.328v1.954c0 .265 0 .328.14.328.079 0 .094-.016.344-.313.063-.094.063-.125.281-.36.547.673 1.313.673 1.563.673 1.5 0 2.25-.829 2.25-1.97 0-.765-.469-1.234-.594-1.359-.516-.437-.906-.53-1.86-.703-.421-.078-1.468-.28-1.468-1.14 0-.453.297-1.11 1.594-1.11 1.562 0 1.64 1.329 1.672 1.782.015.109.109.109.156.109.156 0 .156-.063.156-.328zm0 0"/></symbol><symbol overflow="visible" id="B"><path style="stroke:none" d="M8.672-4.813c.328-.906.953-.937 1.203-.953v-.421c-.36.03-.625.03-1.063.03-.421 0-.453 0-1.218-.03v.421c.64.032.812.422.812.688 0 .016 0 .11-.062.266L7.03-1.063 5.594-5.125c-.078-.172-.078-.203-.078-.234 0-.407.53-.407.843-.407v-.421c-.406.03-1 .03-1.406.03-.469 0-.5 0-1.297-.03v.421c.547 0 .735.032.89.22.079.077.25.562.345.843l-1.22 3.5L2.298-5.11c-.078-.188-.078-.22-.078-.266 0-.39.562-.39.844-.39v-.423c-.36.032-1.079.032-1.47.032-.405 0-.437 0-1.327-.032v.422c.718 0 .875.063 1.03.516L3.095-.11c.062.157.11.25.265.25.125 0 .204-.046.266-.265l1.438-4.094L6.5-.125c.063.219.14.266.266.266.156 0 .203-.094.265-.25zm0 0"/></symbol><symbol overflow="visible" id="C"><path style="stroke:none" d="M6.578-3.063c0-1.859-1.406-3.328-3.062-3.328-1.72 0-3.079 1.516-3.079 3.329C.438-1.234 1.86.14 3.5.14c1.688 0 3.078-1.407 3.078-3.204zM3.516-.171c-.532 0-1.172-.234-1.594-.937-.39-.641-.406-1.485-.406-2.094 0-.547 0-1.422.453-2.063A1.836 1.836 0 0 1 3.5-6.109c.563 0 1.156.25 1.547.812.453.656.453 1.563.453 2.094 0 .5 0 1.39-.375 2.062-.406.704-1.063.97-1.61.97zm0 0"/></symbol><symbol overflow="visible" id="D"><path style="stroke:none" d="M6.39-3.484c0-1.329 0-1.735-.343-2.204-.406-.546-1.078-.64-1.578-.64-1.235 0-1.797.937-2 1.375h-.016v-5l-2 .156v.422c.984 0 1.094.094 1.094.797v7.515c0 .641-.156.641-1.094.641V0C.828-.031 1.61-.031 2.016-.031c.406 0 1.187 0 1.562.031v-.422c-.922 0-1.094 0-1.094-.64v-2.672c0-1.5.985-2.297 1.875-2.297.891 0 1.094.718 1.094 1.593v3.375c0 .641-.156.641-1.094.641V0c.375-.031 1.157-.031 1.547-.031.422 0 1.188 0 1.563.031v-.422c-.719 0-1.078 0-1.078-.422zm0 0"/></symbol><symbol overflow="visible" id="F"><path style="stroke:none" d="M5.547-9.984c-.047-.172-.078-.25-.281-.25-.204 0-.235.03-.297.265l-3 8.578c-.203.594-.61.954-1.532.97V0c.875-.031.907-.031 1.391-.031.39 0 1.078 0 1.453.031v-.422c-.594-.016-.953-.312-.953-.719 0-.078 0-.109.063-.296l.671-1.907h3.61l.781 2.25c.078.172.078.203.078.25 0 .422-.734.422-1.093.422V0c.328-.031 1.468-.031 1.875-.031.39 0 1.421 0 1.75.031v-.422c-.922 0-1.188 0-1.391-.578zm-.688 1.453 1.672 4.765H3.203Zm0 0"/></symbol><symbol overflow="visible" id="G"><path style="stroke:none" d="M1.703-2.594c.672.438 1.25.438 1.406.438 1.297 0 2.25-.969 2.25-2.078 0-.391-.109-.922-.562-1.391.547-.578 1.234-.578 1.297-.578.062 0 .125 0 .187.031a.381.381 0 0 0-.218.36c0 .203.14.375.375.375.125 0 .375-.079.375-.391a.677.677 0 0 0-.704-.656c-.75 0-1.296.453-1.5.671a2.445 2.445 0 0 0-1.484-.515c-1.281 0-2.25.984-2.25 2.078 0 .828.5 1.36.64 1.484a1.917 1.917 0 0 0-.421 1.188c0 .828.5 1.187.61 1.266C1.046-.126.39.39.39 1.14c0 .984 1.343 1.796 3.109 1.796 1.703 0 3.125-.75 3.125-1.828 0-.359-.094-1.203-.953-1.656-.734-.375-1.453-.375-2.688-.375-.875 0-.968 0-1.234-.265-.14-.141-.266-.422-.266-.72 0-.25.079-.484.22-.687zm1.422.14c-1.266 0-1.266-1.452-1.266-1.78 0-.25 0-.844.25-1.235a1.244 1.244 0 0 1 1-.562c1.266 0 1.266 1.453 1.266 1.781 0 .266 0 .844-.25 1.234a1.204 1.204 0 0 1-1 .563zm.39 5.095c-1.374 0-2.421-.704-2.421-1.516 0-.125.031-.688.562-1.047.328-.203.453-.203 1.453-.203 1.188 0 2.813 0 2.813 1.25 0 .844-1.094 1.516-2.406 1.516zm0 0"/></symbol><symbol overflow="visible" id="H"><path style="stroke:none" d="M6.313-2.406H6c-.047.234-.156 1.031-.313 1.265-.093.125-.906.125-1.343.125H1.687c.391-.328 1.266-1.25 1.641-1.593 2.188-2.016 2.985-2.75 2.985-4.172 0-1.657-1.313-2.75-2.97-2.75-1.671 0-2.64 1.406-2.64 2.64 0 .735.625.735.672.735.297 0 .672-.219.672-.672 0-.406-.266-.672-.672-.672-.125 0-.156 0-.203.016.281-.985 1.047-1.641 1.984-1.641 1.219 0 1.969 1.016 1.969 2.344 0 1.218-.703 2.281-1.531 3.203L.704-.344V0h5.234Zm0 0"/></symbol><symbol overflow="visible" id="I"><path style="stroke:none" d="M6.422-4.594c0-1.187-.063-2.343-.578-3.437-.594-1.188-1.625-1.5-2.328-1.5-.829 0-1.86.406-2.375 1.594-.407.906-.547 1.796-.547 3.343 0 1.39.094 2.438.61 3.453C1.765-.047 2.75.297 3.5.297c1.25 0 1.969-.734 2.375-1.578.516-1.078.547-2.485.547-3.313zM3.5.016c-.453 0-1.39-.266-1.656-1.829-.172-.859-.172-1.953-.172-2.953 0-1.171 0-2.234.234-3.078.25-.968.985-1.406 1.594-1.406.547 0 1.375.328 1.656 1.563.172.812.172 1.953.172 2.921 0 .97 0 2.047-.156 2.922C4.906-.266 4 .016 3.5.016Zm0 0"/></symbol><symbol overflow="visible" id="E"><path style="stroke:none" d="M2.36-2.719c-.36-.265-.704-.515-1.063-.797-.11-.078-.234-.187-.375-.187-.156 0-.266.14-.266.281 0 .203.203.266.344.328l.39.188c.282.125.563.297.86.39v.016c-.297.094-.578.281-.86.406L1-1.906c-.14.062-.344.125-.344.328 0 .14.11.281.266.281.14 0 .265-.125.375-.203.36-.266.703-.531 1.062-.781 0 .531-.14 1.11-.14 1.64a.28.28 0 0 0 .281.282h.016c.14 0 .25-.157.25-.282 0-.062-.016-.125-.032-.187a17.72 17.72 0 0 0-.078-.906c-.015-.172-.047-.375-.047-.547.36.25.704.515 1.063.781.11.078.234.203.375.203a.28.28 0 0 0 .281-.281c0-.203-.219-.266-.36-.328l-.39-.188c-.265-.125-.562-.312-.844-.406v-.016c.282-.093.579-.265.844-.39l.39-.188c.141-.062.36-.14.36-.328a.28.28 0 0 0-.281-.281c-.14 0-.266.11-.375.187-.36.282-.703.532-1.063.797 0-.187.032-.375.047-.547.031-.296.063-.609.078-.906.016-.062.032-.125.032-.187 0-.11-.079-.282-.25-.282H2.5a.27.27 0 0 0-.281.282c0 .546.14 1.093.14 1.64zm0 0"/></symbol><symbol overflow="visible" id="J"><path style="stroke:none" d="M10.672-7c.187-.563.547-.813 1.14-.813v-.343c-.515.015-.546.015-1.062.015-.313 0-.953 0-1.25-.015v.344c.734 0 .953.39.953.625 0 .062-.047.156-.062.25L8.578-1.282 6.641-7.297a.595.595 0 0 1-.047-.156c0-.36.64-.36.922-.36v-.343c-.282.015-1.172.015-1.516.015-.344 0-1.078 0-1.39-.015v.344c.64 0 .812.03.937.25.078.156.172.515.328.953L4.156-1.281 2.25-7.234c-.063-.172-.063-.188-.063-.22 0-.359.61-.359.922-.359v-.343c-.28.015-1.187.015-1.515.015-.344 0-1.078 0-1.39-.015v.344c.64 0 .874 0 1.015.453L3.579.03c.062.172.108.219.218.219.094 0 .156-.031.219-.219L6-6.172 8 .031c.063.188.11.219.219.219.094 0 .14-.047.203-.219Zm0 0"/></symbol><symbol overflow="visible" id="K"><path style="stroke:none" d="M4.578-2.766c.266 0 .281 0 .281-.234 0-1.203-.64-2.328-2.093-2.328-1.36 0-2.407 1.234-2.407 2.703 0 1.578 1.22 2.75 2.547 2.75 1.422 0 1.953-1.297 1.953-1.547 0-.078-.046-.125-.125-.125-.093 0-.125.063-.14.125-.313 1-1.11 1.281-1.625 1.281-.5 0-1.703-.343-1.703-2.406v-.219zM1.281-3c.094-1.875 1.14-2.094 1.485-2.094 1.28 0 1.343 1.688 1.359 2.094zm0 0"/></symbol><symbol overflow="visible" id="L"><path style="stroke:none" d="M5.313-2.906c0-1.11 0-1.438-.266-1.828-.344-.47-.906-.532-1.313-.532-1.03 0-1.515.766-1.671 1.141h-.016v-4.172l-1.672.14v.345c.813 0 .922.078.922.671v6.25c0 .547-.14.547-.922.547V0c.313-.031.969-.031 1.297-.031.344 0 1 0 1.297.031v-.344c-.75 0-.906 0-.906-.547v-2.218c0-1.25.828-1.922 1.578-1.922.734 0 .906.61.906 1.343V-.89c0 .547-.14.547-.906.547V0c.296-.031.953-.031 1.28-.031.345 0 1 0 1.313.031v-.344c-.609 0-.906 0-.921-.36zm0 0"/></symbol><symbol overflow="visible" id="M"><path style="stroke:none" d="M4.61-3.188c0-.656 0-1.124-.516-1.593a2.242 2.242 0 0 0-1.485-.547c-.984 0-1.734.64-1.734 1.422 0 .344.219.515.5.515s.484-.203.484-.5c0-.484-.421-.484-.609-.484.281-.5.86-.719 1.328-.719.547 0 1.266.453 1.266 1.532v.484C1.438-3.047.53-2.047.53-1.125c0 .953 1.094 1.25 1.828 1.25.782 0 1.329-.484 1.547-1.063.047.563.422 1 .938 1 .25 0 .937-.171.937-1.125v-.671h-.265v.671c0 .688-.282.782-.454.782-.453 0-.453-.64-.453-.813zm-.766 1.5c0 1.172-.875 1.563-1.39 1.563-.595 0-1.079-.422-1.079-1 0-1.578 2.031-1.719 2.469-1.75zm0 0"/></symbol><symbol overflow="visible" id="N"><path style="stroke:none" d="M4.875-4.016c.11-.265.313-.78 1.078-.796v-.344c-.344.031-.516.031-.89.031-.25 0-.422 0-.97-.031v.343c.5.032.563.391.563.516 0 .11-.031.172-.093.313L3.343-.891 2.017-4.266c-.063-.171-.079-.171-.079-.234 0-.313.454-.313.672-.313v-.343c-.296.031-.921.031-1.25.031-.39 0-.421 0-1.14-.031v.343c.672 0 .781.063.922.422L2.859-.109c.063.171.079.234.22.234.093 0 .155-.031.25-.234zm0 0"/></symbol><symbol overflow="visible" id="O"><path style="stroke:none" d="M5.313-2.906c0-1.11 0-1.438-.266-1.828-.344-.47-.906-.532-1.313-.532-1.171 0-1.625.985-1.718 1.22v-1.22L.375-5.14v.344c.813 0 .922.094.922.672v3.234c0 .547-.14.547-.922.547V0c.313-.031.969-.031 1.297-.031.344 0 1 0 1.297.031v-.344c-.75 0-.906 0-.906-.547v-2.218c0-1.25.828-1.922 1.578-1.922.734 0 .906.61.906 1.343V-.89c0 .547-.14.547-.906.547V0c.296-.031.953-.031 1.28-.031.345 0 1 0 1.313.031v-.344c-.609 0-.906 0-.921-.36zm0 0"/></symbol><symbol overflow="visible" id="P"><path style="stroke:none" d="M5.484-2.563c0-1.53-1.171-2.765-2.562-2.765C1.5-5.328.359-4.062.359-2.562.36-1.032 1.547.124 2.922.124c1.406 0 2.562-1.172 2.562-2.688zM2.922-.14c-.438 0-.969-.187-1.313-.78-.328-.532-.343-1.235-.343-1.75 0-.454 0-1.173.375-1.72.328-.515.859-.703 1.28-.703.454 0 .97.219 1.282.688.375.547.375 1.297.375 1.734 0 .422 0 1.172-.312 1.735-.329.562-.891.796-1.344.796Zm0 0"/></symbol><symbol overflow="visible" id="Q"><path style="stroke:none" d="M7.234-4.016c.266-.75.782-.78.985-.796v-.344c-.297.031-.516.031-.875.031-.344 0-.375 0-1.016-.031v.343c.531.032.672.36.672.579 0 .015 0 .093-.047.218L5.86-.89 4.656-4.266c-.047-.14-.047-.171-.047-.203 0-.343.438-.343.688-.343v-.344c-.344.031-.828.031-1.172.031-.39 0-.406 0-1.078-.031v.343c.453 0 .61.032.75.188.047.078.203.469.281.703L3.062-1 1.907-4.25c-.047-.156-.047-.188-.047-.234 0-.329.454-.329.688-.329v-.343c-.297.031-.89.031-1.219.031-.344 0-.36 0-1.11-.031v.343c.61 0 .72.063.86.438l1.5 4.281c.047.125.094.219.219.219.11 0 .172-.047.234-.234L4.22-3.516 5.422-.109c.047.187.11.234.219.234.125 0 .171-.094.218-.219zm0 0"/></symbol><symbol overflow="visible" id="R"><path style="stroke:none" d="M3.578-8.156v.344c.828 0 .922.078.922.671V-4.5A1.829 1.829 0 0 0 3-5.266C1.61-5.266.422-4.094.422-2.562.422-1.048 1.547.124 2.875.124c.906 0 1.422-.61 1.594-.828v.828L6.156 0v-.344c-.812 0-.906-.094-.906-.672v-7.28zm.89 6.75c0 .218 0 .265-.171.515-.281.422-.766.766-1.375.766-.297 0-1.594-.11-1.594-2.438 0-.859.14-1.328.406-1.734.235-.36.72-.734 1.313-.734.75 0 1.156.531 1.281.734.14.203.14.219.14.438zm0 0"/></symbol><symbol overflow="visible" id="S"><path style="stroke:none" d="M2.016-4.813h1.671v-.343H2.016v-2.188H1.75c-.016 1.11-.453 2.266-1.531 2.297v.234h1.015v3.329C1.234-.156 2.11.125 2.75.125c.75 0 1.14-.75 1.14-1.61v-.671h-.25v.656c0 .86-.359 1.36-.812 1.36-.812 0-.812-1.11-.812-1.313zm0 0"/></symbol><symbol overflow="visible" id="T"><path style="stroke:none" d="M2.078-7.36a.59.59 0 0 0-.578-.593.577.577 0 0 0-.578.578c0 .36.281.578.578.578.36 0 .578-.297.578-.562zM.438-5.14v.343c.75 0 .859.078.859.656v3.25c0 .547-.125.547-.906.547V0c.343-.031.906-.031 1.265-.031.125 0 .813 0 1.219.031v-.344c-.766 0-.813-.062-.813-.531v-4.39zm0 0"/></symbol><symbol overflow="visible" id="U"><path style="stroke:none" d="m2.063-8.297-1.672.14v.345c.812 0 .906.078.906.671v6.25c0 .547-.125.547-.906.547V0c.343-.031.921-.031 1.28-.031.36 0 .954 0 1.298.031v-.344c-.766 0-.906 0-.906-.547zm0 0"/></symbol><symbol overflow="visible" id="V"><path style="stroke:none" d="M2.328.047c0-.735-.25-1.203-.719-1.203-.343 0-.562.265-.562.578 0 .312.219.578.578.578a.605.605 0 0 0 .39-.14c.032-.032.047-.032.047-.032.032 0 .032.156.032.219 0 .765-.313 1.484-.844 2.031-.047.031-.063.063-.063.11 0 .062.063.124.125.124.11 0 1.016-.89 1.016-2.265zm0 0"/></symbol><symbol overflow="visible" id="W"><path style="stroke:none" d="M3.64-5.14v.343c.813 0 .907.094.907.672v2.14c0 1.016-.547 1.86-1.438 1.86-.984 0-1.046-.563-1.046-1.188v-3.953L.375-5.14v.344c.922 0 .922.047.922 1.11v1.78c0 .75 0 1.173.36 1.579.28.297.765.453 1.374.453.203 0 .594 0 1-.36.344-.265.532-.718.532-.718V.125L6.234 0v-.344c-.812 0-.921-.094-.921-.672v-4.25zm0 0"/></symbol><symbol overflow="visible" id="X"><path style="stroke:none" d="M2-2.781c0-1.156.469-2.25 1.39-2.25.094 0 .126 0 .172.015-.093.047-.28.11-.28.438 0 .344.265.484.452.484.25 0 .485-.156.485-.484 0-.36-.328-.688-.844-.688-1.016 0-1.36 1.094-1.422 1.329h-.016v-1.329L.329-5.14v.344c.813 0 .922.094.922.672v3.234c0 .547-.14.547-.922.547V0c.344-.031 1-.031 1.36-.031.328 0 1.171 0 1.437.031v-.344h-.234C2.016-.344 2-.484 2-.906Zm0 0"/></symbol><symbol overflow="visible" id="Y"><path style="stroke:none" d="M3.797-5.188a.814.814 0 0 0-.219.032H1.97V-6.5c0-1.219 1.047-1.672 1.75-1.672.125 0 .687.016 1.047.422-.5 0-.532.36-.532.5 0 .344.282.5.485.5.218 0 .5-.14.5-.516 0-.609-.563-1.156-1.485-1.156-1.078 0-2.484.61-2.484 1.89v1.376H.312v.343h.938V-.89c0 .547-.14.547-.922.547V0c.344-.031.922-.031 1.281-.031.36 0 .954 0 1.297.031v-.344C2.141-.344 2-.344 2-.89v-3.921h1.875c.547 0 .625.156.625.656v3.265c0 .547-.14.547-.922.547V0c.344-.031.922-.031 1.281-.031.36 0 .97 0 1.297.031v-.344c-.765 0-.906 0-.906-.547v-4.39Zm0 0"/></symbol><symbol overflow="visible" id="Z"><path style="stroke:none" d="M3.922-5.063c0-.203 0-.265-.125-.265-.094 0-.313.266-.406.375-.36-.313-.735-.375-1.125-.375C.828-5.328.39-4.547.39-3.891c0 .141 0 .563.453.97.39.343.797.421 1.344.53.656.125.812.172 1.109.407a.97.97 0 0 1 .375.78c0 .516-.297 1.079-1.36 1.079-.78 0-1.359-.453-1.624-1.64C.64-1.986.64-2 .64-2.016c-.032-.047-.079-.047-.11-.047-.14 0-.14.062-.14.28v1.626c0 .218 0 .281.125.281.062 0 .062-.016.265-.266.063-.093.063-.109.25-.296.453.562 1.094.562 1.297.562 1.25 0 1.875-.703 1.875-1.64 0-.641-.39-1.032-.5-1.141-.422-.375-.75-.438-1.547-.578-.344-.079-1.219-.25-1.219-.97 0-.359.25-.905 1.329-.905C3.562-5.11 3.64-4 3.656-3.641c.016.11.094.11.14.11.126 0 .126-.063.126-.281zm0 0"/></symbol><symbol overflow="visible" id="aa"><path style="stroke:none" d="M6.813-3.063h-.266c-.11 1.204-.266 2.72-2.36 2.72H3.141c-.516 0-.547-.094-.547-.485V-7.25c0-.422.031-.563 1.062-.563h.36v-.343c-.344.015-1.391.015-1.813.015-.36 0-1.422 0-1.719-.015v.344h.25c.86 0 .891.109.891.562v6.344c0 .437-.031.562-.89.562h-.25V0H6.5Zm0 0"/></symbol><symbol overflow="visible" id="ac"><path style="stroke:none" d="M7.813-8.11H.64L.42-5.437h.267C.844-7.327.953-7.75 2.844-7.75c.219 0 .547 0 .64.016.25.03.25.187.25.453v6.36c0 .405 0 .577-1.171.577H2.14V0c.375-.031 1.609-.031 2.078-.031.468 0 1.703 0 2.093.031v-.344h-.437c-1.172 0-1.172-.172-1.172-.578v-6.36c0-.296.031-.405.219-.452.094-.016.437-.016.672-.016 1.89 0 2 .422 2.156 2.313h.266zm0 0"/></symbol><symbol overflow="visible" id="ad"><path style="stroke:none" d="M7.625-3.063h-.266c-.28 1.876-.562 2.72-2.593 2.72H3.14c-.516 0-.547-.094-.547-.485v-3.219h1.094c1.14 0 1.265.36 1.265 1.39h.266v-3.14h-.266c0 1.031-.125 1.39-1.266 1.39H2.595v-2.905c0-.391.031-.485.547-.485h1.593c1.75 0 2.125.594 2.313 2.328h.25L7-8.14H.484v.344h.25c.86 0 .891.125.891.563v6.328c0 .437-.031.562-.89.562h-.25V0H7.14zm0 0"/></symbol><symbol overflow="visible" id="ae"><path style="stroke:none" d="M4.672-4.594 6.328-7c.203-.281.547-.813 1.688-.813v-.343c-.516.015-.657.015-1.266.015-.313 0-1.078 0-1.36-.015v.344c.485.03.641.312.641.515 0 .14-.047.203-.11.313L4.485-4.875l-1.609-2.39a.355.355 0 0 1-.094-.188c0-.172.25-.36.688-.36v-.343c-.297.015-1.235.015-1.578.015-.344 0-1.172 0-1.454-.015v.344c.891 0 1.016.062 1.266.437l2.234 3.313-2.015 2.921c-.203.297-.578.782-1.656.797V0c.515-.031.64-.031 1.25-.031.328 0 1.109 0 1.375.031v-.344c-.5-.031-.657-.328-.657-.531 0-.125.063-.219.125-.313l1.766-2.578L6.063-.875c.062.11.078.125.078.172 0 .14-.22.344-.672.36V0C5.75-.031 6.687-.031 7.03-.031c.328 0 1.188 0 1.469.031v-.344c-.703 0-1 0-1.266-.422zm0 0"/></symbol><symbol overflow="visible" id="af"><path style="stroke:none" d="M4.328-4.422c-.14 0-.594 0-.594.484 0 .297.204.5.5.5.266 0 .5-.171.5-.515 0-.797-.843-1.375-1.812-1.375-1.39 0-2.5 1.234-2.5 2.75 0 1.531 1.14 2.703 2.5 2.703 1.578 0 1.937-1.438 1.937-1.547 0-.11-.093-.11-.125-.11-.109 0-.125.032-.156.188C4.312-.5 3.672-.14 3.031-.14c-.734 0-1.703-.64-1.703-2.453 0-1.984 1.016-2.469 1.61-2.469.453 0 1.109.172 1.39.641zm0 0"/></symbol><symbol overflow="visible" id="ag"><path style="stroke:none" d="M8.578-2.906c0-1.11 0-1.438-.281-1.828-.344-.47-.906-.532-1.313-.532-1 0-1.5.72-1.687 1.172-.172-.922-.813-1.172-1.563-1.172-1.171 0-1.625.985-1.718 1.22v-1.22L.375-5.14v.344c.813 0 .922.094.922.672v3.234c0 .547-.14.547-.922.547V0c.313-.031.969-.031 1.297-.031.344 0 1 0 1.297.031v-.344c-.75 0-.906 0-.906-.547v-2.218c0-1.25.828-1.922 1.578-1.922.734 0 .906.61.906 1.343V-.89c0 .547-.14.547-.906.547V0c.296-.031.953-.031 1.28-.031.345 0 1 0 1.313.031v-.344c-.765 0-.921 0-.921-.547v-2.218c0-1.25.828-1.922 1.578-1.922.734 0 .906.61.906 1.343V-.89c0 .547-.14.547-.906.547V0c.312-.031.953-.031 1.28-.031.345 0 1 0 1.313.031v-.344c-.609 0-.906 0-.906-.36zm0 0"/></symbol><symbol overflow="visible" id="ah"><path style="stroke:none" d="M2.203-7.984c0-.375-.328-.563-.578-.563-.25 0-.625.172-.578.672l.422 5.469c.015.203.031.25.14.25.125 0 .141-.031.157-.25zm0 7.406a.587.587 0 0 0-.578-.578.577.577 0 0 0-.578.578c0 .312.25.578.562.578a.58.58 0 0 0 .594-.578zm0 0"/></symbol><symbol overflow="visible" id="aA"><path style="stroke:none" d="M3.438-7.656c0-.282 0-.297-.235-.297-.281.328-.89.766-2.11.766v.343c.266 0 .86 0 1.532-.297v6.22c0 .437-.047.577-1.094.577h-.375V0c.328-.031 1.485-.031 1.875-.031.406 0 1.547 0 1.875.031v-.344h-.375c-1.047 0-1.093-.14-1.093-.578zm0 0"/></symbol><symbol overflow="visible" id="ab"><path style="stroke:none" d="M3.375-5.516c-.047-.109-.063-.171-.203-.171s-.172.062-.203.171L1.188-.828c-.079.219-.25.562-.907.562V0c.266-.031.688-.031.828-.031.25 0 .5 0 .875.031v-.266c-.343 0-.546-.171-.546-.39 0-.063 0-.078.03-.172l.376-1h2.172l.453 1.187A.419.419 0 0 1 4.5-.5c0 .234-.406.234-.64.234V0c.687-.031.703-.031 1.14-.031.438 0 .594 0 1.047.031v-.266h-.14c-.5 0-.579-.062-.673-.328zm-.438.829.97 2.593h-1.97Zm0 0"/></symbol><symbol overflow="visible" id="ai"><path style="stroke:none" d="M1.875-1.922c-.297-.203-.578-.406-.875-.594-.063-.046-.14-.109-.219-.109-.125 0-.219.11-.219.234 0 .188.188.22.313.266.297.125.594.25.875.375-.281.14-.578.25-.875.375-.125.047-.313.078-.313.266 0 .125.094.234.22.234.14 0 .312-.172.437-.266.218-.14.437-.28.656-.437 0 .094-.016.187-.031.281l-.063.625c0 .063-.031.125-.031.203 0 .125.094.219.234.219a.232.232 0 0 0 .22-.188c0-.374-.126-.78-.126-1.14.297.203.594.406.89.594.063.046.126.109.204.109.125 0 .219-.11.219-.234 0-.188-.188-.22-.313-.266-.297-.125-.594-.234-.875-.375.281-.125.578-.25.875-.375.125-.047.313-.078.313-.266 0-.125-.094-.234-.22-.234-.14 0-.312.172-.437.266-.218.14-.437.296-.656.437 0-.375.125-.781.125-1.14a.232.232 0 0 0-.219-.188c-.14 0-.234.094-.234.219 0 .078.031.14.031.203l.063.64c.015.079.031.172.031.266Zm0 0"/></symbol><symbol overflow="visible" id="aj"><path style="stroke:none" d="M5.797-6.781H.328v.312h.234c.766 0 .797.11.797.469v5.219c0 .36-.03.469-.796.469H.328V0c.344-.031 1.125-.031 1.516-.031.406 0 1.312 0 1.672.031v-.313h-.329c-.937 0-.937-.124-.937-.468v-2.453h.844c.969 0 1.062.312 1.062 1.156h.25v-2.64h-.25c0 .843-.093 1.171-1.062 1.171H2.25v-2.531c0-.328.016-.39.484-.39h1.188c1.5 0 1.75.562 1.906 1.937h.25zm0 0"/></symbol><symbol overflow="visible" id="ak"><path style="stroke:none" d="M3.89-.781v.89L5.329 0v-.313c-.687 0-.766-.062-.766-.562v-3.531l-1.468.11v.312c.687 0 .781.062.781.562v1.766c0 .875-.484 1.547-1.219 1.547-.828 0-.875-.47-.875-.985v-3.312l-1.468.11v.312c.78 0 .78.03.78.906v1.5c0 .781 0 1.687 1.516 1.687.563 0 1-.28 1.282-.89zm0 0"/></symbol><symbol overflow="visible" id="al"><path style="stroke:none" d="M1.094-3.422V-.75c0 .438-.11.438-.782.438V0c.36-.016.86-.031 1.141-.031.25 0 .766.015 1.11.031v-.313c-.672 0-.782 0-.782-.437v-1.844c0-1.031.719-1.594 1.344-1.594.64 0 .75.532.75 1.11V-.75c0 .438-.11.438-.781.438V0c.344-.016.86-.031 1.125-.031.25 0 .781.015 1.11.031v-.313c-.516 0-.766 0-.766-.296v-1.907c0-.859 0-1.156-.313-1.515-.14-.172-.469-.375-1.047-.375-.734 0-1.203.422-1.484 1.047v-1.047l-1.407.11v.312c.704 0 .782.062.782.562zm0 0"/></symbol><symbol overflow="visible" id="am"><path style="stroke:none" d="M3.781-.547V.11L5.25 0v-.313c-.688 0-.781-.062-.781-.562v-6.047l-1.422.11v.312c.687 0 .765.063.765.563v2.156a1.582 1.582 0 0 0-1.25-.625c-1.171 0-2.218.984-2.218 2.265 0 1.266.969 2.25 2.11 2.25.64 0 1.077-.343 1.327-.656zm0-2.672v2.047c0 .172 0 .188-.11.36-.296.484-.733.703-1.171.703-.453 0-.813-.266-1.047-.641-.25-.406-.281-.969-.281-1.39 0-.36.016-.954.297-1.407.218-.312.593-.64 1.14-.64.344 0 .766.156 1.063.593.11.172.11.188.11.375zm0 0"/></symbol><symbol overflow="visible" id="an"><path style="stroke:none" d="M1.11-2.516C1.171-4 2.015-4.25 2.36-4.25c1.015 0 1.124 1.344 1.124 1.734zm0 .22h2.78c.22 0 .25 0 .25-.22 0-.984-.546-1.953-1.78-1.953C1.202-4.469.28-3.437.28-2.187.281-.86 1.328.108 2.47.108 3.688.11 4.14-1 4.14-1.187c0-.094-.079-.125-.141-.125-.078 0-.11.062-.125.14C3.531-.14 2.625-.14 2.531-.14c-.5 0-.89-.296-1.125-.671-.297-.47-.297-1.125-.297-1.485zm0 0"/></symbol><symbol overflow="visible" id="ao"><path style="stroke:none" d="M1.719-3.766v-3.156l-1.438.11v.312c.703 0 .781.063.781.563V0h.25c0-.016.079-.156.36-.625.14.234.562.734 1.297.734 1.187 0 2.219-.984 2.219-2.265 0-1.266-.97-2.25-2.11-2.25-.781 0-1.203.468-1.36.64zM1.75-1.14v-2.046c0-.188 0-.204.11-.36.39-.562.937-.64 1.171-.64.453 0 .813.265 1.047.64.266.406.281.969.281 1.39 0 .36-.015.954-.296 1.407-.22.313-.594.64-1.125.64-.454 0-.813-.234-1.047-.609-.141-.203-.141-.234-.141-.422Zm0 0"/></symbol><symbol overflow="visible" id="ap"><path style="stroke:none" d="M4.14-3.344c.25-.64.766-.64.923-.64v-.313c-.235.016-.516.031-.75.031-.172 0-.641-.015-.86-.03v.312c.313 0 .469.171.469.421 0 .11-.016.126-.063.25L2.844-.874 1.75-3.547c-.047-.11-.063-.14-.063-.187 0-.25.36-.25.563-.25v-.313c-.266.016-.922.031-1.094.031-.265 0-.672-.015-.968-.03v.312c.484 0 .671 0 .812.343L2.5 0a6.764 6.764 0 0 0-.25.594c-.219.547-.5 1.234-1.14 1.234-.048 0-.282 0-.47-.187.313-.032.391-.25.391-.422C1.031.969.844.812.61.812c-.203 0-.421.125-.421.422 0 .454.421.813.921.813.625 0 1.032-.578 1.266-1.14zm0 0"/></symbol><symbol overflow="visible" id="aq"><path style="stroke:none" d="M1.719-3.984h1.437v-.313H1.72v-1.828h-.25c0 .813-.297 1.875-1.282 1.922v.219h.844v2.75c0 1.218.938 1.343 1.297 1.343.703 0 .985-.703.985-1.343v-.563h-.25v.547c0 .734-.297 1.11-.672 1.11-.672 0-.672-.907-.672-1.079zm0 0"/></symbol><symbol overflow="visible" id="ar"><path style="stroke:none" d="M1.094-.75c0 .438-.11.438-.782.438V0c.36-.016.86-.031 1.141-.031.25 0 .766.015 1.11.031v-.313c-.672 0-.782 0-.782-.437v-1.844c0-1.031.719-1.594 1.344-1.594.64 0 .75.532.75 1.11V-.75c0 .438-.11.438-.781.438V0c.344-.016.86-.031 1.125-.031.25 0 .781.015 1.11.031v-.313c-.516 0-.766 0-.766-.296v-1.907c0-.859 0-1.156-.313-1.515-.14-.172-.469-.375-1.047-.375-.844 0-1.281.593-1.453.984v-3.5l-1.438.11v.312c.704 0 .782.063.782.563zm0 0"/></symbol><symbol overflow="visible" id="as"><path style="stroke:none" d="M7.188-3.375c0-2.031-1.5-3.656-3.313-3.656-1.797 0-3.313 1.593-3.313 3.656C.563-1.328 2.095.219 3.876.219c1.813 0 3.313-1.578 3.313-3.594zM3.874-.047c-.953 0-2.297-.875-2.297-3.469 0-2.578 1.469-3.265 2.297-3.265.86 0 2.281.703 2.281 3.265 0 2.641-1.36 3.47-2.281 3.47zm0 0"/></symbol><symbol overflow="visible" id="at"><path style="stroke:none" d="M4.14-3.313c.094-.234.266-.671.923-.671v-.313c-.235.016-.516.031-.75.031-.235 0-.688-.015-.86-.03v.312c.36 0 .469.234.469.421 0 .094-.016.141-.047.25L2.844-.78l-1.11-2.781c-.062-.126-.062-.141-.062-.172 0-.25.39-.25.578-.25v-.313c-.313.016-.86.031-1.094.031-.265 0-.672-.015-.968-.03v.312c.625 0 .671.062.796.359L2.422-.078c.062.14.078.187.203.187.14 0 .172-.093.219-.187zm0 0"/></symbol><symbol overflow="visible" id="au"><path style="stroke:none" d="M1.672-3.313v-1.093l-1.39.11v.312c.702 0 .78.062.78.562V-.75c0 .438-.109.438-.78.438V0c.39-.016.859-.031 1.14-.031.39 0 .86 0 1.266.031v-.313h-.22c-.734 0-.75-.109-.75-.468v-1.531c0-.985.423-1.876 1.173-1.876.062 0 .093 0 .109.016-.031 0-.234.125-.234.39 0 .266.218.423.437.423a.421.421 0 0 0 .422-.438c0-.312-.313-.61-.734-.61-.735 0-1.094.673-1.22 1.095zm0 0"/></symbol><symbol overflow="visible" id="av"><path style="stroke:none" d="m1.766-6.922-1.438.11v.312c.703 0 .781.063.781.563V-.75c0 .438-.109.438-.78.438V0c.327-.016.859-.031 1.109-.031s.734.015 1.109.031v-.313c-.672 0-.781 0-.781-.437zm0 0"/></symbol><symbol overflow="visible" id="aw"><path style="stroke:none" d="M3.313-.75c.046.39.312.813.78.813.22 0 .829-.141.829-.954v-.562h-.25v.562c0 .579-.25.641-.36.641-.328 0-.375-.453-.375-.5v-1.984c0-.422 0-.813-.359-1.188-.39-.39-.89-.547-1.36-.547-.827 0-1.515.469-1.515 1.125 0 .297.203.469.469.469a.435.435 0 0 0 .453-.453c0-.125-.047-.453-.516-.453.282-.36.766-.469 1.079-.469.5 0 1.062.39 1.062 1.281v.36c-.516.03-1.203.062-1.828.359-.75.344-1 .86-1 1.297 0 .812.969 1.062 1.594 1.062.656 0 1.109-.406 1.296-.859zM3.25-2.39v1c0 .937-.719 1.28-1.172 1.28-.484 0-.89-.343-.89-.843 0-.547.421-1.375 2.062-1.438zm0 0"/></symbol><symbol overflow="visible" id="ax"><path style="stroke:none" d="M1.75-4.297v-1.156c0-.875.469-1.36.906-1.36.031 0 .188 0 .328.079a.443.443 0 0 0-.296.421c0 .22.156.422.437.422s.438-.203.438-.437c0-.375-.376-.703-.907-.703-.687 0-1.547.531-1.547 1.593v1.141H.33v.313h.78V-.75c0 .438-.109.438-.765.438V0c.39-.016.86-.031 1.125-.031.406 0 .875 0 1.265.031v-.313h-.203c-.734 0-.75-.109-.75-.468v-3.203h1.125v-.313zm0 0"/></symbol><symbol overflow="visible" id="ay"><path style="stroke:none" d="M1.094-3.422V-.75c0 .438-.11.438-.782.438V0c.36-.016.86-.031 1.141-.031.25 0 .766.015 1.11.031v-.313c-.672 0-.782 0-.782-.437v-1.844c0-1.031.719-1.594 1.344-1.594.64 0 .75.532.75 1.11V-.75c0 .438-.11.438-.781.438V0c.344-.016.86-.031 1.125-.031.25 0 .781.015 1.11.031v-.313c-.657 0-.766 0-.766-.437v-1.844c0-1.031.703-1.594 1.343-1.594.625 0 .735.532.735 1.11V-.75c0 .438-.11.438-.782.438V0c.344-.016.86-.031 1.125-.031.266 0 .782.015 1.125.031v-.313c-.515 0-.765 0-.78-.296v-1.907c0-.859 0-1.156-.313-1.515-.141-.172-.47-.375-1.047-.375-.828 0-1.282.593-1.438.984-.14-.875-.875-.984-1.328-.984-.734 0-1.203.422-1.484 1.047v-1.047l-1.407.11v.312c.704 0 .782.062.782.562zm0 0"/></symbol><symbol overflow="visible" id="az"><path style="stroke:none" d="M1.906-.531a.534.534 0 0 0-.515-.531.537.537 0 0 0-.532.53.524.524 0 1 0 1.047 0Zm0 0"/></symbol></defs><g style="fill:#000;fill-opacity:1" transform="matrix(.35278 0 0 .35278 -31.375 -60.527)"><use height="100%" width="100%" xlink:href="#a" x="175.133" y="186.072"/><use height="100%" width="100%" xlink:href="#b" x="192.696" y="186.072"/></g><g style="fill:#000;fill-opacity:1" transform="matrix(.35278 0 0 .35278 -31.375 -60.527)"><use height="100%" width="100%" xlink:href="#c" x="208.951" y="186.072"/><use height="100%" width="100%" xlink:href="#d" x="219.268" y="186.072"/><use height="100%" width="100%" xlink:href="#e" x="226.585" y="186.072"/><use height="100%" width="100%" xlink:href="#f" x="234.011" y="186.072"/></g><g style="fill:#000;fill-opacity:1" transform="matrix(.35278 0 0 .35278 -31.375 -60.527)"><use height="100%" width="100%" xlink:href="#g" x="247.567" y="186.072"/><use height="100%" width="100%" xlink:href="#h" x="259.469" y="186.072"/><use height="100%" width="100%" xlink:href="#i" x="268.945" y="186.072"/></g><g style="fill:#000;fill-opacity:1" transform="matrix(.35278 0 0 .35278 -31.375 -60.527)"><use height="100%" width="100%" xlink:href="#j" x="281.107" y="186.072"/><use height="100%" width="100%" xlink:href="#k" x="289.504" y="186.072"/></g><g style="fill:#000;fill-opacity:1" transform="matrix(.35278 0 0 .35278 -31.375 -60.527)"><use height="100%" width="100%" xlink:href="#l" x="310.069" y="186.072"/><use height="100%" width="100%" xlink:href="#m" x="320.626" y="186.072"/></g><g style="fill:#000;fill-opacity:1" transform="matrix(.35278 0 0 .35278 -31.375 -60.527)"><use height="100%" width="100%" xlink:href="#n" x="330.639" y="186.072"/><use height="100%" width="100%" xlink:href="#o" x="339.036" y="186.072"/><use height="100%" width="100%" xlink:href="#p" x="349.593" y="186.072"/><use height="100%" width="100%" xlink:href="#j" x="365.546" y="186.072"/><use height="100%" width="100%" xlink:href="#q" x="373.943" y="186.072"/></g><use height="100%" width="100%" xlink:href="#f" x="383.963" y="186.072" style="fill:#000;fill-opacity:1" transform="matrix(.35278 0 0 .35278 -31.375 -60.527)"/><g style="fill:#000;fill-opacity:1" transform="matrix(.35278 0 0 .35278 -31.375 -60.527)"><use height="100%" width="100%" xlink:href="#r" x="224.35" y="221.564"/><use height="100%" width="100%" xlink:href="#s" x="234.88" y="221.564"/><use height="100%" width="100%" xlink:href="#t" x="242.684" y="221.564"/></g><g style="fill:#000;fill-opacity:1" transform="matrix(.35278 0 0 .35278 -31.375 -60.527)"><use height="100%" width="100%" xlink:href="#u" x="250.876" y="221.564"/><use height="100%" width="100%" xlink:href="#v" x="257.12" y="221.564"/><use height="100%" width="100%" xlink:href="#w" x="262.583" y="221.564"/></g><use height="100%" width="100%" xlink:href="#x" x="272.737" y="221.564" style="fill:#000;fill-opacity:1" transform="matrix(.35278 0 0 .35278 -31.375 -60.527)"/><g style="fill:#000;fill-opacity:1" transform="matrix(.35278 0 0 .35278 -31.375 -60.527)"><use height="100%" width="100%" xlink:href="#y" x="280.728" y="221.564"/><use height="100%" width="100%" xlink:href="#v" x="287.752" y="221.564"/><use height="100%" width="100%" xlink:href="#z" x="293.215" y="221.564"/><use height="100%" width="100%" xlink:href="#A" x="301.019" y="221.564"/><use height="100%" width="100%" xlink:href="#B" x="306.559" y="221.564"/></g><g style="fill:#000;fill-opacity:1" transform="matrix(.35278 0 0 .35278 -31.375 -60.527)"><use height="100%" width="100%" xlink:href="#C" x="316.318" y="221.564"/><use height="100%" width="100%" xlink:href="#v" x="323.342" y="221.564"/><use height="100%" width="100%" xlink:href="#w" x="328.805" y="221.564"/><use height="100%" width="100%" xlink:href="#D" x="334.268" y="221.564"/></g><use height="100%" width="100%" xlink:href="#E" x="342.066" y="216.358" style="fill:#000;fill-opacity:1" transform="matrix(.35278 0 0 .35278 -31.375 -60.527)"/><g style="fill:#000;fill-opacity:1" transform="matrix(.35278 0 0 .35278 -31.375 -60.527)"><use height="100%" width="100%" xlink:href="#F" x="244.737" y="249.449"/><use height="100%" width="100%" xlink:href="#s" x="255.267" y="249.449"/><use height="100%" width="100%" xlink:href="#G" x="263.071" y="249.449"/><use height="100%" width="100%" xlink:href="#s" x="270.095" y="249.449"/><use height="100%" width="100%" xlink:href="#A" x="277.9" y="249.449"/><use height="100%" width="100%" xlink:href="#w" x="283.44" y="249.449"/></g><g style="fill:#000;fill-opacity:1" transform="matrix(.35278 0 0 .35278 -31.375 -60.527)"><use height="100%" width="100%" xlink:href="#H" x="293.58" y="249.449"/><use height="100%" width="100%" xlink:href="#I" x="300.604" y="249.449"/><use height="100%" width="100%" xlink:href="#H" x="307.628" y="249.449"/><use height="100%" width="100%" xlink:href="#H" x="314.652" y="249.449"/></g><use height="100%" width="100%" xlink:href="#J" x="106.495" y="294.406" style="fill:#000;fill-opacity:1" transform="matrix(.35278 0 0 .35278 -31.375 -60.527)"/><use height="100%" width="100%" xlink:href="#K" x="117.542" y="294.406" style="fill:#000;fill-opacity:1" transform="matrix(.35278 0 0 .35278 -31.375 -60.527)"/><g style="fill:#000;fill-opacity:1" transform="matrix(.35278 0 0 .35278 -31.375 -60.527)"><use height="100%" width="100%" xlink:href="#L" x="126.247" y="294.406"/><use height="100%" width="100%" xlink:href="#M" x="132.751" y="294.406"/></g><use height="100%" width="100%" xlink:href="#N" x="138.281" y="294.406" style="fill:#000;fill-opacity:1" transform="matrix(.35278 0 0 .35278 -31.375 -60.527)"/><use height="100%" width="100%" xlink:href="#K" x="144.137" y="294.406" style="fill:#000;fill-opacity:1" transform="matrix(.35278 0 0 .35278 -31.375 -60.527)"/><g style="fill:#000;fill-opacity:1" transform="matrix(.35278 0 0 .35278 -31.375 -60.527)"><use height="100%" width="100%" xlink:href="#O" x="152.831" y="294.406"/><use height="100%" width="100%" xlink:href="#P" x="159.335" y="294.406"/></g><use height="100%" width="100%" xlink:href="#Q" x="164.865" y="294.406" style="fill:#000;fill-opacity:1" transform="matrix(.35278 0 0 .35278 -31.375 -60.527)"/><g style="fill:#000;fill-opacity:1" transform="matrix(.35278 0 0 .35278 -31.375 -60.527)"><use height="100%" width="100%" xlink:href="#M" x="176.811" y="294.406"/><use height="100%" width="100%" xlink:href="#R" x="182.664" y="294.406"/><use height="100%" width="100%" xlink:href="#R" x="189.168" y="294.406"/><use height="100%" width="100%" xlink:href="#K" x="195.671" y="294.406"/><use height="100%" width="100%" xlink:href="#R" x="200.874" y="294.406"/></g><use height="100%" width="100%" xlink:href="#M" x="210.881" y="294.406" style="fill:#000;fill-opacity:1" transform="matrix(.35278 0 0 .35278 -31.375 -60.527)"/><g style="fill:#000;fill-opacity:1" transform="matrix(.35278 0 0 .35278 -31.375 -60.527)"><use height="100%" width="100%" xlink:href="#S" x="220.225" y="294.406"/><use height="100%" width="100%" xlink:href="#T" x="224.777" y="294.406"/><use height="100%" width="100%" xlink:href="#S" x="228.029" y="294.406"/><use height="100%" width="100%" xlink:href="#U" x="232.582" y="294.406"/><use height="100%" width="100%" xlink:href="#K" x="235.834" y="294.406"/><use height="100%" width="100%" xlink:href="#V" x="241.036" y="294.406"/></g><g style="fill:#000;fill-opacity:1" transform="matrix(.35278 0 0 .35278 -31.375 -60.527)"><use height="100%" width="100%" xlink:href="#M" x="247.875" y="294.406"/><use height="100%" width="100%" xlink:href="#W" x="253.728" y="294.406"/><use height="100%" width="100%" xlink:href="#S" x="260.232" y="294.406"/><use height="100%" width="100%" xlink:href="#L" x="264.784" y="294.406"/><use height="100%" width="100%" xlink:href="#P" x="271.288" y="294.406"/><use height="100%" width="100%" xlink:href="#X" x="277.141" y="294.406"/></g><g style="fill:#000;fill-opacity:1" transform="matrix(.35278 0 0 .35278 -31.375 -60.527)"><use height="100%" width="100%" xlink:href="#M" x="285.185" y="294.406"/><use height="100%" width="100%" xlink:href="#O" x="291.038" y="294.406"/><use height="100%" width="100%" xlink:href="#R" x="297.541" y="294.406"/></g><g style="fill:#000;fill-opacity:1" transform="matrix(.35278 0 0 .35278 -31.375 -60.527)"><use height="100%" width="100%" xlink:href="#R" x="307.548" y="294.406"/><use height="100%" width="100%" xlink:href="#M" x="314.052" y="294.406"/><use height="100%" width="100%" xlink:href="#S" x="319.905" y="294.406"/><use height="100%" width="100%" xlink:href="#K" x="324.457" y="294.406"/></g><g style="fill:#000;fill-opacity:1" transform="matrix(.35278 0 0 .35278 -31.375 -60.527)"><use height="100%" width="100%" xlink:href="#S" x="333.151" y="294.406"/><use height="100%" width="100%" xlink:href="#P" x="337.704" y="294.406"/></g><g style="fill:#000;fill-opacity:1" transform="matrix(.35278 0 0 .35278 -31.375 -60.527)"><use height="100%" width="100%" xlink:href="#P" x="347.06" y="294.406"/><use height="100%" width="100%" xlink:href="#W" x="352.913" y="294.406"/><use height="100%" width="100%" xlink:href="#X" x="359.417" y="294.406"/></g><g style="fill:#000;fill-opacity:1" transform="matrix(.35278 0 0 .35278 -31.375 -60.527)"><use height="100%" width="100%" xlink:href="#Y" x="367.46" y="294.406"/><use height="100%" width="100%" xlink:href="#X" x="373.964" y="294.406"/><use height="100%" width="100%" xlink:href="#Z" x="378.516" y="294.406"/><use height="100%" width="100%" xlink:href="#S" x="383.134" y="294.406"/></g><use height="100%" width="100%" xlink:href="#aa" x="391.189" y="294.406" style="fill:#000;fill-opacity:1" transform="matrix(.35278 0 0 .35278 -31.375 -60.527)"/><use height="100%" width="100%" xlink:href="#ab" x="394.288" y="291.682" style="fill:#000;fill-opacity:1" transform="matrix(.35278 0 0 .35278 -31.375 -60.527)"/><use height="100%" width="100%" xlink:href="#ac" x="398.875" y="294.406" style="fill:#000;fill-opacity:1" transform="matrix(.35278 0 0 .35278 -31.375 -60.527)"/><use height="100%" width="100%" xlink:href="#ad" x="405.378" y="296.979" style="fill:#000;fill-opacity:1" transform="matrix(.35278 0 0 .35278 -31.375 -60.527)"/><use height="100%" width="100%" xlink:href="#ae" x="411.879" y="294.406" style="fill:#000;fill-opacity:1" transform="matrix(.35278 0 0 .35278 -31.375 -60.527)"/><g style="fill:#000;fill-opacity:1" transform="matrix(.35278 0 0 .35278 -31.375 -60.527)"><use height="100%" width="100%" xlink:href="#R" x="424.157" y="294.406"/><use height="100%" width="100%" xlink:href="#P" x="430.661" y="294.406"/></g><g style="fill:#000;fill-opacity:1" transform="matrix(.35278 0 0 .35278 -31.375 -60.527)"><use height="100%" width="100%" xlink:href="#af" x="436.837" y="294.406"/><use height="100%" width="100%" xlink:href="#W" x="442.04" y="294.406"/><use height="100%" width="100%" xlink:href="#ag" x="448.543" y="294.406"/><use height="100%" width="100%" xlink:href="#K" x="458.299" y="294.406"/><use height="100%" width="100%" xlink:href="#O" x="463.502" y="294.406"/></g><g style="fill:#000;fill-opacity:1" transform="matrix(.35278 0 0 .35278 -31.375 -60.527)"><use height="100%" width="100%" xlink:href="#S" x="469.67" y="294.406"/><use height="100%" width="100%" xlink:href="#ah" x="474.223" y="294.406"/></g><path style="fill:none;stroke:#000;stroke-width:.398;stroke-linecap:butt;stroke-linejoin:miter;stroke-miterlimit:10;stroke-opacity:1" d="M.002.001h155.414" transform="matrix(.35278 0 0 -.35278 0 172.691)"/><use height="100%" width="100%" xlink:href="#ai" x="102.401" y="668.634" style="fill:#000;fill-opacity:1" transform="matrix(.35278 0 0 .35278 -31.375 -60.527)"/><use height="100%" width="100%" xlink:href="#aj" x="106.869" y="672.249" style="fill:#000;fill-opacity:1" transform="matrix(.35278 0 0 .35278 -31.375 -60.527)"/><g style="fill:#000;fill-opacity:1" transform="matrix(.35278 0 0 .35278 -31.375 -60.527)"><use height="100%" width="100%" xlink:href="#ak" x="112.546" y="672.249"/><use height="100%" width="100%" xlink:href="#al" x="118.081" y="672.249"/><use height="100%" width="100%" xlink:href="#am" x="123.616" y="672.249"/><use height="100%" width="100%" xlink:href="#an" x="129.151" y="672.249"/><use height="100%" width="100%" xlink:href="#am" x="133.579" y="672.249"/></g><use height="100%" width="100%" xlink:href="#ao" x="142.431" y="672.249" style="fill:#000;fill-opacity:1" transform="matrix(.35278 0 0 .35278 -31.375 -60.527)"/><use height="100%" width="100%" xlink:href="#ap" x="147.688" y="672.249" style="fill:#000;fill-opacity:1" transform="matrix(.35278 0 0 .35278 -31.375 -60.527)"/><g style="fill:#000;fill-opacity:1" transform="matrix(.35278 0 0 .35278 -31.375 -60.527)"><use height="100%" width="100%" xlink:href="#aq" x="156.264" y="672.249"/><use height="100%" width="100%" xlink:href="#ar" x="160.138" y="672.249"/><use height="100%" width="100%" xlink:href="#an" x="165.673" y="672.249"/></g><g style="fill:#000;fill-opacity:1" transform="matrix(.35278 0 0 .35278 -31.375 -60.527)"><use height="100%" width="100%" xlink:href="#as" x="173.428" y="672.249"/><use height="100%" width="100%" xlink:href="#at" x="181.177" y="672.249"/></g><g style="fill:#000;fill-opacity:1" transform="matrix(.35278 0 0 .35278 -31.375 -60.527)"><use height="100%" width="100%" xlink:href="#an" x="186.156" y="672.249"/><use height="100%" width="100%" xlink:href="#au" x="190.584" y="672.249"/><use height="100%" width="100%" xlink:href="#av" x="194.486" y="672.249"/><use height="100%" width="100%" xlink:href="#an" x="197.254" y="672.249"/><use height="100%" width="100%" xlink:href="#aw" x="201.681" y="672.249"/><use height="100%" width="100%" xlink:href="#ax" x="206.662" y="672.249"/></g><g style="fill:#000;fill-opacity:1" transform="matrix(.35278 0 0 .35278 -31.375 -60.527)"><use height="100%" width="100%" xlink:href="#aq" x="213.024" y="672.249"/><use height="100%" width="100%" xlink:href="#an" x="216.899" y="672.249"/><use height="100%" width="100%" xlink:href="#aw" x="221.326" y="672.249"/><use height="100%" width="100%" xlink:href="#ay" x="226.308" y="672.249"/><use height="100%" width="100%" xlink:href="#az" x="234.609" y="672.249"/></g><use height="100%" width="100%" xlink:href="#aA" x="280.281" y="702.137" style="fill:#000;fill-opacity:1" transform="matrix(.35278 0 0 .35278 -31.375 -60.527)"/></svg>